<?xml version="1.0" encoding="UTF-8" standalone="no"?>
<svg viewBox="0 0 885.827 590.551"
 xmlns="http://www.w3.org/2000/svg" xmlns:xlink="http://www.w3.org/1999/xlink"  version="1.2" baseProfile="tiny">
<title>Signal Display</title>
<desc>Generated with Qt</desc>
<defs>
</defs>
<g fill="none" stroke="black" stroke-width="1" fill-rule="evenodd" stroke-linecap="square" stroke-linejoin="bevel" >

<g fill="#808080" fill-opacity="1" stroke="none" transform="matrix(1,0,0,1,0,0)"
font-family="MS Shell Dlg 2" font-size="17.1875" font-weight="400" font-style="normal" 
>
<rect x="0" y="0" width="885.827" height="590.551"/>
</g>

<g fill="none" stroke="#000000" stroke-opacity="1" stroke-width="1" stroke-linecap="square" stroke-linejoin="bevel" transform="matrix(1,0,0,1,0,0)"
font-family="MS Shell Dlg 2" font-size="17.1875" font-weight="400" font-style="normal" 
>
</g>

<g fill="none" stroke="#000000" stroke-opacity="1" stroke-width="1" stroke-linecap="square" stroke-linejoin="bevel" transform="matrix(1.5625,0,0,1.5625,0,0)"
font-family="MS Shell Dlg 2" font-size="17.1875" font-weight="400" font-style="normal" 
>
</g>

<g fill="none" stroke="#000000" stroke-opacity="1" stroke-width="1" stroke-linecap="square" stroke-linejoin="bevel" transform="matrix(1.5625,0,0,1.5625,0,0)"
font-family="MS Shell Dlg 2" font-size="17.1875" font-weight="400" font-style="normal" 
>
</g>

<g fill="#000000" fill-opacity="1" stroke="none" transform="matrix(1.5625,0,0,1.5625,0,0)"
font-family="MS Shell Dlg 2" font-size="17.1875" font-weight="400" font-style="normal" 
>
<rect x="64" y="23" width="438.929" height="304.953"/>
</g>

<g fill="none" stroke="#000000" stroke-opacity="1" stroke-width="1" stroke-linecap="square" stroke-linejoin="bevel" transform="matrix(1.5625,0,0,1.5625,0,0)"
font-family="MS Shell Dlg 2" font-size="17.1875" font-weight="400" font-style="normal" 
>
</g>

<g fill="none" stroke="#555555" stroke-opacity="1" stroke-dasharray="0.5,1" stroke-dashoffset="0" stroke-width="0.5" stroke-linecap="butt" stroke-linejoin="bevel" transform="matrix(1.5625,0,0,1.5625,0,0)"
font-family="MS Shell Dlg 2" font-size="17.1875" font-weight="400" font-style="normal" 
>
<polyline fill="none" vector-effect="none" points="64,319.964 501.929,319.964 " />
<polyline fill="none" vector-effect="none" points="64,305.49 501.929,305.49 " />
<polyline fill="none" vector-effect="none" points="64,291.015 501.929,291.015 " />
<polyline fill="none" vector-effect="none" points="64,262.065 501.929,262.065 " />
<polyline fill="none" vector-effect="none" points="64,247.591 501.929,247.591 " />
<polyline fill="none" vector-effect="none" points="64,233.116 501.929,233.116 " />
<polyline fill="none" vector-effect="none" points="64,218.641 501.929,218.641 " />
<polyline fill="none" vector-effect="none" points="64,189.692 501.929,189.692 " />
<polyline fill="none" vector-effect="none" points="64,175.217 501.929,175.217 " />
<polyline fill="none" vector-effect="none" points="64,160.742 501.929,160.742 " />
<polyline fill="none" vector-effect="none" points="64,146.267 501.929,146.267 " />
<polyline fill="none" vector-effect="none" points="64,117.318 501.929,117.318 " />
<polyline fill="none" vector-effect="none" points="64,102.843 501.929,102.843 " />
<polyline fill="none" vector-effect="none" points="64,88.3684 501.929,88.3684 " />
<polyline fill="none" vector-effect="none" points="64,73.8937 501.929,73.8937 " />
<polyline fill="none" vector-effect="none" points="64,44.9442 501.929,44.9442 " />
<polyline fill="none" vector-effect="none" points="64,30.4694 501.929,30.4694 " />
</g>

<g fill="none" stroke="#868686" stroke-opacity="1" stroke-width="0.5" stroke-linecap="butt" stroke-linejoin="bevel" transform="matrix(1.5625,0,0,1.5625,0,0)"
font-family="MS Shell Dlg 2" font-size="17.1875" font-weight="400" font-style="normal" 
>
<polyline fill="none" vector-effect="none" points="85.8547,23 85.8547,326.953 " />
<polyline fill="none" vector-effect="none" points="151.787,23 151.787,326.953 " />
<polyline fill="none" vector-effect="none" points="217.719,23 217.719,326.953 " />
<polyline fill="none" vector-effect="none" points="283.652,23 283.652,326.953 " />
<polyline fill="none" vector-effect="none" points="349.584,23 349.584,326.953 " />
<polyline fill="none" vector-effect="none" points="415.517,23 415.517,326.953 " />
<polyline fill="none" vector-effect="none" points="481.449,23 481.449,326.953 " />
<polyline fill="none" vector-effect="none" points="64,276.54 501.929,276.54 " />
<polyline fill="none" vector-effect="none" points="64,204.166 501.929,204.166 " />
<polyline fill="none" vector-effect="none" points="64,131.793 501.929,131.793 " />
<polyline fill="none" vector-effect="none" points="64,59.4189 501.929,59.4189 " />
</g>

<g fill="none" stroke="#000000" stroke-opacity="1" stroke-width="1" stroke-linecap="square" stroke-linejoin="bevel" transform="matrix(1.5625,0,0,1.5625,0,0)"
font-family="MS Shell Dlg 2" font-size="17.1875" font-weight="400" font-style="normal" 
>
</g>

<g fill="none" stroke="#000000" stroke-opacity="1" stroke-width="1" stroke-linecap="square" stroke-linejoin="bevel" transform="matrix(1.5625,0,0,1.5625,0,0)"
font-family="MS Shell Dlg 2" font-size="17.1875" font-weight="400" font-style="normal" 
>
</g>

<g fill="none" stroke="#b4003c" stroke-opacity="1" stroke-width="1" stroke-linecap="square" stroke-linejoin="bevel" transform="matrix(1.5625,0,0,1.5625,0,0)"
font-family="MS Shell Dlg 2" font-size="17.1875" font-weight="400" font-style="normal" 
>
<polyline fill="none" vector-effect="none" points="70.0528,23 70.0787,23.1464 70.1016,23 71.0273,23 71.122,23.7045 71.2719,23 72.4467,23 72.687,23.6995 72.8202,23 73.5019,23 73.7301,24.5879 73.9643,23 74.6942,23 74.7733,23.349 75.2951,23.9594 75.6357,23 75.9077,23 76.3383,25.4285 76.6393,23 77.1587,23 77.3821,24.3337 77.839,23 77.9856,23 78.4252,24.004 78.9471,26.4196 79.4684,23.1195 79.9903,26.2153 80.4245,23 80.6548,23 81.0334,24.7069 81.5553,25.4887 82.0767,24.6201 82.5985,28.1896 83.1203,24.3224 83.6417,26.6667 84.1635,24.3326 84.6854,26.1774 85.2067,31.9134 85.7285,26.7513 86.2504,32.3755 86.7718,27.8928 87.2935,29.1697 87.8149,29.2702 88.3368,26.7789 88.8586,32.5575 89.38,27.4474 89.9019,32.9618 90.4237,27.9095 90.945,29.7043 91.4669,30.1416 91.9887,28.2745 92.51,33.283 93.0319,27.8079 93.5537,32.9048 94.0751,28.7551 94.597,30.758 95.1182,31.6935 95.6401,28.7805 96.162,33.6257 96.6833,28.5192 97.2052,33.6342 97.7271,30.4348 98.2483,31.3837 98.7702,32.6025 99.2921,28.9413 99.8134,34.9638 100.335,30.0134 100.857,34.7241 101.378,31.513 101.9,31.3681 102.422,33.8998 102.943,30.6235 103.465,36.6191 103.987,31.0948 104.508,34.4051 105.03,32.0257 105.552,32.7476 106.073,36.2282 106.595,32.0904 107.117,36.1138 107.638,30.8345 108.16,35.4266 108.682,34.8094 109.204,34.2719 109.725,36.0172 110.247,31.122 110.769,37.4484 111.29,33.2596 111.812,37.0004 112.334,34.2542 112.855,33.7603 113.377,37.5432 113.899,33.4097 114.42,38.4284 114.942,33.062 115.463,37.1609 115.985,35.394 116.507,34.9681 117.028,38.2252 117.55,33.8711 118.072,38.8597 118.593,33.3113 119.115,38.3842 119.637,36.4481 120.158,36.1245 120.68,37.5397 121.202,34.6069 121.723,40.5727 122.245,34.5952 122.767,38.4295 123.288,35.7906 123.81,38.2415 124.332,38.5078 124.853,34.7003 125.375,39.8589 125.897,35.7367 126.418,40.3571 126.94,35.3405 127.462,38.284 127.983,39.0516 128.505,36.9406 129.027,39.5803 129.548,35.3026 130.07,41.7787 130.592,36.4417 131.114,39.3423 131.635,38.1894 132.157,38.6986 132.679,40.9537 133.2,36.2735 133.722,41.7072 134.244,36.8376 134.765,41.5379 135.287,38.119 135.809,39.6737 136.33,40.3486 136.852,38.2411 137.373,42.5832 137.895,37.5085 138.417,42.0705 138.938,38.4702 139.46,42.1842 139.982,40.4892 140.503,38.8055 141.025,42.7556 141.547,39.6259 142.068,43.365 142.59,37.7582 143.112,42.973 143.633,41.312 144.155,41.459 144.676,41.8389 145.198,40.1879 145.72,45.5989 146.241,39.5594 146.763,43.8798 147.285,40.3691 147.806,44.281 148.328,43.0757 148.85,41.5075 149.371,44.4704 149.893,41.4965 150.415,46.3389 150.937,40.8577 151.458,45.2218 151.98,42.4872 152.502,44.64 153.023,44.6953 153.545,42.5825 154.067,46.2865 154.589,42.0878 155.11,47.2489 155.632,42.8243 156.154,46.3693 156.675,43.9729 157.197,44.5388 157.718,46.2897 158.24,44.0983 158.762,48.452 159.283,42.7301 159.805,47.428 160.327,43.5307 160.848,48.0778 161.37,46.3945 161.892,45.2405 162.413,46.5676 162.935,44.0381 163.457,49.5624 163.978,45.0564 164.5,48.639 165.021,43.7325 165.543,47.5204 166.065,46.9093 166.586,47.513 167.108,48.583 167.63,44.5263 168.151,48.7937 168.673,44.6676 169.195,50.1484 169.717,46.0248 170.238,48.6372 170.76,46.6211 171.282,46.7726 171.803,48.6765 172.325,46.3998 172.847,50.6654 173.368,46.0146 173.89,50.6689 174.412,46.1636 174.933,49.5146 175.455,47.4833 175.977,48.4159 176.498,49.5851 177.02,47.5127 177.542,51.3827 178.063,46.9723 178.585,51.5732 179.107,46.852 179.628,50.4788 180.15,48.3199 180.672,50.3506 181.193,51.0258 181.715,49.0522 182.237,51.9298 182.758,47.2853 183.28,52.3667 183.802,48.2388 184.323,53.4806 184.845,50.3633 185.366,51.6171 185.888,50.1017 186.41,49.4693 186.931,52.5756 187.453,49.9639 187.975,55.1104 188.496,49.641 189.018,53.7561 189.54,49.0423 190.061,52.7427 190.583,51.7014 191.105,52.9063 191.626,54.0695 192.148,51.3841 192.67,54.8226 193.191,50.1714 193.713,55.4334 194.235,51.3066 194.757,55.6214 195.278,52.5002 195.8,53.9657 196.322,53.6311 196.843,53.0129 197.365,55.6982 197.887,52.3221 198.409,56.7512 198.93,51.9563 199.452,56.8323 199.973,52.6868 200.495,56.0413 201.017,54.1275 201.538,55.4592 202.06,56.0009 202.582,54.0149 203.103,56.6772 203.625,53.4268 204.147,58.801 204.668,54.4249 205.19,58.0971 205.712,54.0178 206.233,57.47 206.755,57.2215 207.276,58.1948 207.798,58.5475 208.32,55.8841 208.841,60.371 209.363,58.1272 209.885,63.0305 210.406,58.2377 210.928,63.0113 211.45,61.116 211.971,65.5221 212.493,64.7775 213.015,65.9445 213.536,68.6444 214.058,68.9641 214.58,74.2675 215.101,72.433 215.623,78.8046 216.145,77.5682 216.666,85.1539 217.188,84.8887 217.71,90.9066 218.231,93.0251 218.753,98.1681 219.275,102.887 219.797,105.627 220.318,111.789 220.84,112.305 221.362,120.251 221.883,120.653 222.405,127.283 222.927,126.594 223.448,134.146 223.97,137.231 224.492,141.128 225.013,142.155 225.535,143.316 226.057,146.496 226.578,143.097 227.1,143.622 227.621,139.057 228.143,141.207 228.665,133.58 229.186,131.928 229.708,125.642 230.23,124.071 230.751,117.543 231.273,111.872 231.795,108.694 232.316,102.482 232.838,100.169 233.36,92.0107 233.881,92.4217 234.403,85.1872 234.925,85.6928 235.446,79.2373 235.968,80.3898 236.49,76.9616 237.011,77.3529 237.533,76.7506 238.055,76.1338 238.577,79.1385 239.098,78.47 239.62,84.1037 240.142,82.9363 240.663,90.6584 241.185,92.137 241.707,101.027 242.228,103.604 242.75,112.246 243.272,119.212 243.793,128.526 244.315,136.845 244.837,143.463 245.358,155.177 245.88,163.153 246.402,174.403 246.923,178.493 247.445,188.987 247.966,194.64 248.488,203.572 249.01,204.639 249.531,208.466 250.053,210.513 250.575,215.137 251.096,218.729 251.618,219.823 252.14,222.382 252.661,220.502 253.183,220.273 253.705,213.814 254.226,211.424 254.748,203.287 255.27,199.23 255.791,188.959 256.313,182.536 256.835,172.286 257.356,163.971 257.878,154.454 258.4,144.782 258.921,137.253 259.443,126.624 259.965,120.508 260.486,109.666 261.008,106.592 261.53,97.6444 262.051,95.9968 262.573,87.397 263.095,85.7562 263.617,79.7635 264.138,79.682 264.66,77.0948 265.182,75.8594 265.703,74.4261 266.225,70.903 266.747,72.1777 267.268,69.4701 267.79,73.1974 268.312,69.4736 268.833,72.3207 269.355,67.592 269.876,71.0995 270.398,68.3547 270.92,71.9295 271.441,70.158 271.963,70.8248 272.485,69.5713 273.006,69.3345 273.528,70.8648 274.05,70.1198 274.571,72.8696 275.093,69.8181 275.615,72.5884 276.136,68.9368 276.658,72.7757 277.179,69.9194 277.701,73.2258 278.223,70.5603 278.745,72.9609 279.266,71.5556 279.788,72.542 280.31,72.2595 280.831,71.6717 281.353,72.8483 281.875,71.1707 282.397,74.3471 282.918,71.7755 283.44,75.2564 283.962,71.3945 284.483,74.5681 285.005,71.102 285.527,74.6495 286.048,72.587 286.57,75.4271 287.092,73.2201 287.613,73.7703 288.135,73.1489 288.657,73.3256 289.178,74.7037 289.7,74.1949 290.221,76.0123 290.743,72.5941 291.265,74.8832 291.786,71.9585 292.308,76.7191 292.83,74.2186 293.351,77.0271 293.873,73.0069 294.395,75.2192 294.916,73.5632 295.438,76.5884 295.96,75.6533 296.481,75.9476 297.003,75.3832 297.524,75.0995 298.046,76.7499 298.568,75.4239 299.089,77.605 299.611,75.3786 300.133,78.4119 300.654,75.5722 301.176,78.9962 301.698,76.2822 302.219,80.2581 302.741,78.0561 303.263,81.412 303.785,79.83 304.306,82.8818 304.828,83.3149 305.35,86.1999 305.871,86.8266 306.393,88.6069 306.915,91.7391 307.437,94.3224 307.958,98.7176 308.48,99.1407 309.002,104.354 309.523,106.377 310.045,113.672 310.567,114.287 311.088,119.454 311.61,120.866 312.131,127.911 312.653,129.516 313.175,132.609 313.696,132.826 314.218,136.325 314.74,137.168 315.261,136.547 315.783,135.663 316.305,135.528 316.826,137.621 317.348,135.729 317.869,136.29 318.391,132.77 318.913,133.032 319.434,127.795 319.956,127.142 320.478,121.669 320.999,120.331 321.521,114.787 322.043,113.665 322.564,108.447 323.086,106.124 323.608,102.42 324.13,100.871 324.651,97.3239 325.173,94.4821 325.695,93.6408 326.216,91.9299 326.738,90.5182 327.26,87.1849 327.781,89.1199 328.303,86.9328 328.825,87.118 329.346,83.5882 329.868,86.7926 330.39,84.7241 330.911,85.8408 331.433,82.6549 331.955,85.7831 332.476,84.4182 332.998,85.0066 333.52,82.8308 334.041,84.9542 334.563,84.8384 335.085,84.6823 335.606,84.04 336.128,84.4483 336.65,85.4581 337.171,84.2733 337.693,85.2343 338.215,84.0917 338.736,85.9956 339.258,84.1441 339.779,86.3394 340.301,84.2525 340.823,86.174 341.344,84.1398 341.866,86.947 342.388,84.7354 342.909,86.1301 343.431,84.8126 343.953,87.4289 344.474,86.1149 344.996,85.9563 345.518,85.8716 346.039,87.465 346.561,87.9851 347.083,86.0968 347.605,86.578 348.126,87.1003 348.648,89.2145 349.17,87.0589 349.691,87.5762 350.213,86.6049 350.735,89.6482 351.256,88.0659 351.778,89.036 352.3,86.7653 352.821,89.4797 353.343,88.483 353.865,90.4219 354.386,88.4337 354.908,89.7831 355.43,89.1479 355.951,90.6386 356.473,90.3309 356.995,90.9697 357.516,91.0295 358.038,91.4278 358.56,92.3459 359.081,92.2783 359.603,94.1284 360.124,93.729 360.646,95.8988 361.168,95.1212 361.689,97.8179 362.211,96.8909 362.733,100.578 363.254,100.071 363.776,103.115 364.298,102.135 364.819,104.883 365.341,105.125 365.863,108.834 366.384,108.988 366.906,111.032 367.428,110.023 367.949,111.133 368.471,111.452 368.993,113.191 369.514,113.742 370.036,113.633 370.558,112.292 371.08,111.01 371.601,111.678 372.123,111.185 372.645,112.346 373.166,110.79 373.688,110.675 374.21,107.85 374.731,108.127 375.253,105.756 375.775,106.773 376.296,104.498 376.818,105.111 377.34,102.286 377.861,102.435 378.383,99.9742 378.905,100.744 379.426,99.1563 379.948,99.7887 380.469,98.4991 380.991,98.5533 381.513,97.1996 382.034,97.4762 382.556,97.0555 383.078,97.0648 383.599,96.9699 384.121,96.9327 384.643,97.399 385.164,96.7138 385.686,97.4418 386.208,95.9398 386.729,96.9284 387.251,96.3651 387.773,98.3752 388.294,97.4397 388.816,98.139 389.338,96.0053 389.859,97.6355 390.381,96.7928 390.903,99.3609 391.424,97.8342 391.946,98.7682 392.468,96.7188 392.989,98.5292 393.511,97.974 394.033,100.13 394.555,98.6237 395.076,99.0631 395.598,97.9914 396.12,99.3864 396.641,99.8134 397.163,100.659 397.685,99.7738 398.206,99.3135 398.728,99.5235 399.25,100.428 399.771,101.466 400.293,100.492 400.815,100.763 401.336,99.8634 401.858,101.717 402.379,100.972 402.901,102.062 403.423,100.654 403.944,102.118 404.466,100.905 404.988,102.28 405.509,101.451 406.031,103.043 406.553,101.707 407.074,102.519 407.596,101.785 408.118,103.652 408.639,102.452 409.161,102.687 409.683,101.916 410.204,103.996 410.726,103.397 411.248,103.021 411.769,102.336 412.291,104.153 412.813,104.258 413.334,103.222 413.856,102.934 414.378,103.954 414.9,105.174 415.421,103.618 415.943,103.952 416.465,104.155 416.986,105.815 417.508,104.25 418.03,104.589 418.551,104.477 419.073,106.168 419.595,104.86 420.116,105.664 420.638,104.705 421.16,106.383 421.681,105.318 422.203,106.431 422.724,105.082 423.246,106.742 423.768,105.864 424.289,107.248 424.811,105.803 425.333,107.126 425.854,106.63 426.376,107.982 426.898,106.451 427.419,107.175 427.941,107.334 428.463,108.672 428.984,107.178 429.506,107.65 430.027,108.147 430.549,109.448 431.071,107.786 431.592,108.214 432.114,109.203 432.636,110.242 433.157,108.755 433.679,108.74 434.201,110.273 434.723,110.48 435.244,109.736 435.766,109.157 436.288,110.902 436.809,110.696 437.331,110.53 437.853,109.513 438.374,111.355 438.896,110.852 439.418,111.495 439.94,110.493 440.461,111.544 440.983,110.862 441.505,112.209 442.026,111.483 442.548,112.314 443.069,111.15 443.591,112.64 444.113,112.386 444.634,113.196 445.156,111.806 445.678,112.432 446.199,112.704 446.721,114.022 447.243,113.021 447.764,112.825 448.286,112.705 448.808,114.182 449.329,114.3 449.851,113.67 450.372,113.127 450.894,113.602 451.416,114.758 451.937,114.931 452.459,114.376 452.981,113.391 453.502,114.338 454.024,115.099 454.546,116.06 455.068,114.633 455.589,114.553 456.111,114.069 456.633,116.053 457.154,115.801 457.676,116.36 458.198,114.725 458.719,115.692 459.241,115.302 459.763,116.967 460.284,115.837 460.806,117.014 461.328,115.947 461.849,117.106 462.371,116.224 462.893,117.243 463.414,116.279 463.936,117.754 464.458,117.372 464.979,118.288 465.501,117.323 466.023,117.839 466.544,117.181 467.066,118.572 467.588,118.681 468.109,119.446 468.631,118.753 469.153,118.661 469.674,118.325 470.196,119.154 470.718,119.72 471.239,120.487 471.761,120.805 472.282,119.875 472.804,119.413 473.326,119.333 473.847,120.269 474.369,120.833 474.891,122.012 475.412,121.207 " />
</g>

<g fill="none" stroke="#000000" stroke-opacity="1" stroke-width="1" stroke-linecap="square" stroke-linejoin="bevel" transform="matrix(1.5625,0,0,1.5625,0,0)"
font-family="MS Shell Dlg 2" font-size="17.1875" font-weight="400" font-style="normal" 
>
</g>

<g fill="none" stroke="#000000" stroke-opacity="1" stroke-width="1" stroke-linecap="square" stroke-linejoin="bevel" transform="matrix(1.5625,0,0,1.5625,0,0)"
font-family="MS Shell Dlg 2" font-size="17.1875" font-weight="400" font-style="normal" 
>
</g>

<g fill="none" stroke="#000000" stroke-opacity="1" stroke-width="1" stroke-linecap="square" stroke-linejoin="bevel" transform="matrix(1.5625,0,0,1.5625,0,0)"
font-family="MS Shell Dlg 2" font-size="17.1875" font-weight="400" font-style="normal" 
>
</g>

<g fill="none" stroke="#0064ff" stroke-opacity="1" stroke-width="1" stroke-linecap="square" stroke-linejoin="bevel" transform="matrix(1.5625,0,0,1.5625,0,0)"
font-family="MS Shell Dlg 2" font-size="17.1875" font-weight="400" font-style="normal" 
>
<polyline fill="none" vector-effect="none" points="64,61.881 64.3404,60.3454 64.8618,61.6172 65.3836,61.7204 65.9054,61.2651 66.4268,63.0989 66.9486,60.556 67.47,62.5193 67.9919,61.9444 68.5136,62.2701 69.035,63.3242 69.5569,61.1956 70.0787,63.5656 70.6001,62.1389 71.122,63.2659 71.6437,63.3719 72.1651,62.1792 72.687,64.4867 73.2088,62.6296 73.7301,64.3497 74.252,63.406 74.7733,63.2188 75.2951,65.145 75.817,63.3975 76.3383,65.4628 76.8602,63.5563 77.3821,64.2414 77.9033,65.1859 78.4252,64.3365 78.9471,66.5763 79.4684,64.1675 79.9903,65.6554 80.5117,65.1631 81.0334,65.2798 81.5553,66.9872 82.0767,65.0092 82.5985,67.045 83.1203,65.4696 83.6417,66.5697 84.1635,67.1528 84.6854,63.8112 85.2067,67.7836 85.7285,63.5438 86.2504,67.5794 86.7718,65.4251 87.2935,65.9039 87.8149,66.8645 88.3368,63.7691 88.8586,68.3706 89.38,64.3708 89.9019,68.5028 90.4237,65.472 90.945,65.9603 91.4669,67.3574 91.9887,64.9105 92.51,69.1585 93.0319,64.7309 93.5537,68.3714 94.0751,66.1592 94.597,66.9215 95.1182,68.6299 95.6401,65.2419 96.162,69.3551 96.6833,65.4987 97.2052,69.1681 97.7271,67.6054 98.2483,67.0291 98.7702,69.1909 99.2921,65.8185 99.8134,70.7137 100.335,66.7077 100.857,69.4233 101.378,68.2938 101.9,67.6838 102.422,70.7363 102.943,66.8202 103.465,71.1679 103.987,67.4096 104.508,70.3107 105.03,69.6232 105.552,68.2833 106.073,71.4202 106.595,67.7058 107.117,72.2216 107.638,68.2039 108.16,70.619 108.682,70.6829 109.204,69.5732 109.725,72.4151 110.247,67.9436 110.769,72.7127 111.29,69.5284 111.812,71.9411 112.334,71.0138 112.855,69.869 113.377,73.3402 113.899,69.3142 114.42,73.4117 114.942,69.8005 115.463,72.6865 115.985,71.789 116.507,70.5884 117.028,73.7618 117.55,70.0826 118.072,74.1563 118.593,70.1263 119.115,73.5129 119.637,72.6129 120.158,71.6207 120.68,73.8025 121.202,70.8247 121.723,75.2108 122.245,70.6398 122.767,74.141 123.288,72.5787 123.81,72.8586 124.332,73.9941 124.853,71.4873 125.375,75.499 125.897,71.232 126.418,75.2158 126.94,72.6432 127.462,73.6876 127.983,74.2315 128.505,72.706 129.027,75.7222 129.548,71.5431 130.07,75.9365 130.592,73.0043 131.114,74.8172 131.635,74.1668 132.157,73.8006 132.679,76.4706 133.2,72.4334 133.722,76.6039 134.244,73.3472 134.765,76.2234 135.287,74.2792 135.809,75.0504 136.33,76.4291 136.852,73.6447 137.373,77.4665 137.895,73.8289 138.417,77.3367 138.938,74.5265 139.46,76.756 139.982,76.6796 140.503,74.7322 141.025,78.0956 141.547,74.963 142.068,78.5359 142.59,74.5491 143.112,78.1938 143.633,76.782 144.155,76.6871 144.676,78.0688 145.198,75.9856 145.72,79.833 146.241,75.4159 146.763,79.4991 147.285,76.806 147.806,78.6417 148.328,78.4182 148.85,77.5272 149.371,80.0793 149.893,76.5105 150.415,80.9472 150.937,77.3724 151.458,80.4271 151.98,78.1663 152.502,79.4886 153.023,80.6183 153.545,78.2844 154.067,81.348 154.589,77.9342 155.11,82.2989 155.632,78.5686 156.154,80.9939 156.675,80.0484 157.197,80.3771 157.718,81.6889 158.24,79.0631 158.762,82.9226 159.283,79.1773 159.805,82.7801 160.327,79.5439 160.848,82.2945 161.37,81.7685 161.892,81.001 162.413,82.5566 162.935,79.9471 163.457,84.0536 163.978,80.529 164.5,83.5485 165.021,80.5101 165.543,82.8383 166.065,82.6701 166.586,82.0799 167.108,83.7274 167.63,80.7175 168.151,84.5866 168.673,81.1517 169.195,84.6292 169.717,81.5058 170.238,83.625 170.76,83.1489 171.282,82.8305 171.803,84.4343 172.325,81.6351 172.847,85.4197 173.368,81.9836 173.89,85.7953 174.412,82.447 174.933,84.4458 175.455,83.5245 175.977,83.8284 176.498,85.6091 177.02,83.0826 177.542,86.2207 178.063,82.4837 178.585,86.588 179.107,83.3891 179.628,86.1729 180.15,84.366 180.672,85.1065 181.193,86.1691 181.715,84.373 182.237,87.5258 182.758,83.6404 183.28,87.6008 183.802,84.1822 184.323,87.9123 184.845,85.7173 185.366,86.802 185.888,86.457 186.41,85.5948 186.931,88.3926 187.453,85.5722 187.975,89.273 188.496,85.2071 189.018,88.9453 189.54,86.1082 190.061,88.7172 190.583,87.6655 191.105,87.4854 191.626,89.0134 192.148,86.9729 192.67,90.6013 193.191,86.6914 193.713,90.318 194.235,86.9768 194.757,90.3816 195.278,88.7857 195.8,89.5597 196.322,89.4086 196.843,88.3722 197.365,91.155 197.887,88.4339 198.409,91.8791 198.93,87.9508 199.452,91.7374 199.973,89.0849 200.495,91.5133 201.017,90.1412 201.538,90.6037 202.06,91.706 202.582,90.1296 203.103,92.862 203.625,89.6631 204.147,93.7517 204.668,90.634 205.19,93.767 205.712,91.3489 206.233,93.6195 206.755,93.7505 207.276,93.8676 207.798,95.2939 208.32,93.6677 208.841,97.8443 209.363,95.3795 209.885,99.7063 210.406,97.2034 210.928,102.034 211.45,100.922 211.971,104.233 212.493,105.522 213.015,107.893 213.536,111.454 214.058,111.911 214.58,118.209 215.101,118.868 215.623,125.76 216.145,126.102 216.666,134.737 217.188,137.675 217.71,144.286 218.231,148.823 218.753,156.268 219.275,163.382 219.797,166.925 220.318,174.522 220.84,174.841 221.362,178.292 221.883,185.736 222.405,191.481 222.927,175.126 223.448,198.789 223.97,210.03 224.492,218.769 225.013,223.245 225.535,225.071 226.057,223.852 226.578,224.928 227.1,225.449 227.621,220.774 228.143,220.09 228.665,212.852 229.186,209.18 229.708,201.563 230.23,196.442 230.751,188.418 231.273,180.758 231.795,174.528 232.316,165.443 232.838,160.174 233.36,150.695 233.881,147.362 234.403,138.284 234.925,136.178 235.446,129.408 235.968,127.719 236.49,123.694 237.011,123.098 237.533,122.619 238.055,121.481 238.577,124.842 239.098,125.446 239.62,131.402 240.142,132.717 240.663,142.055 241.185,146.433 241.707,156.66 242.228,163.717 242.75,176.052 243.272,186.409 243.793,198.217 244.315,211.254 244.837,222.949 245.358,236.806 245.88,247.4 246.402,260.926 246.923,269.139 247.445,279.244 247.966,285.051 248.488,292.327 249.01,293.076 249.531,288.168 250.053,282.118 250.575,268.729 251.096,301.511 251.618,309.613 252.14,313.962 252.661,315.16 253.183,314.897 253.705,310.044 254.226,306.674 254.748,299.136 255.27,292.83 255.791,282.375 256.313,273.622 256.835,261.894 257.356,250.408 257.878,237.752 258.4,224.788 258.921,213.205 259.443,199.219 259.965,188.598 260.486,174.897 261.008,167.139 261.53,155.084 262.051,148.909 262.573,138.518 263.095,134.302 263.617,127.299 264.138,124.086 264.66,119.538 265.182,116.393 265.703,114.75 266.225,111.7 266.747,111.956 267.268,108.334 267.79,110.212 268.312,106.984 268.833,109.69 269.355,106.288 269.876,108.386 270.398,106.036 270.92,108.138 271.441,107.337 271.963,107.861 272.485,107.398 273.006,106.836 273.528,108.211 274.05,107.083 274.571,109.277 275.093,106.767 275.615,109.228 276.136,106.662 276.658,109.727 277.179,107.444 277.701,109.625 278.223,107.708 278.745,109.332 279.266,108.843 279.788,109.424 280.31,109.425 280.831,108.637 281.353,109.98 281.875,108.713 282.397,111.234 282.918,108.848 283.44,111.226 283.962,108.476 284.483,111.381 285.005,109.312 285.527,111.692 286.048,109.717 286.57,111.239 287.092,110.325 287.613,111.198 288.135,111.207 288.657,110.697 289.178,111.547 289.7,110.681 290.221,112.755 290.743,110.576 291.265,112.584 291.786,110.009 292.308,113.041 292.83,111.121 293.351,113.43 293.873,110.961 294.395,112.673 294.916,111.674 295.438,113.372 295.96,112.705 296.481,112.838 297.003,113.062 297.524,112.889 298.046,114.36 298.568,112.803 299.089,114.796 299.611,113.269 300.133,116.143 300.654,113.948 301.176,116.624 301.698,115.097 302.219,118.502 302.741,117.485 303.263,119.903 303.785,120.007 304.306,123.076 304.828,124.769 305.35,126.87 305.871,129.525 306.393,132.296 306.915,136.876 307.437,139.335 307.958,144.878 308.48,147.782 309.002,154.623 309.523,157.477 310.045,164.618 310.567,168.09 311.088,174.893 311.61,177.902 312.131,184.019 312.653,187.241 313.175,191.122 313.696,192.374 314.218,193.733 314.74,193.403 315.261,189.321 315.783,182.104 316.305,178.982 316.826,183.418 317.348,186.078 317.869,189.541 318.391,187.738 318.913,187.962 319.434,183.137 319.956,181.656 320.478,175.957 320.999,172.643 321.521,166.545 322.043,163.393 322.564,157.66 323.086,153.409 323.608,149.328 324.13,145.613 324.651,141.849 325.173,137.819 325.695,136.541 326.216,132.812 326.738,131.684 327.26,128.224 327.781,129.138 328.303,125.542 328.825,126.326 329.346,123.666 329.868,125.13 330.39,122.446 330.911,123.885 331.433,122.155 331.955,123.113 332.476,122.017 332.998,122.882 333.52,122.143 334.041,122.049 334.563,122.702 335.085,122.292 335.606,122.65 336.128,121.548 336.65,123.46 337.171,121.839 337.693,123.208 338.215,121.617 338.736,124.073 339.258,121.783 339.779,123.743 340.301,122.099 340.823,124.091 341.344,122.125 341.866,124.025 342.388,122.87 342.909,123.916 343.431,122.977 343.953,124.071 344.474,124.115 344.996,123.63 345.518,124.18 346.039,124.146 346.561,125.486 347.083,123.637 347.605,125.253 348.126,124.245 348.648,126.396 349.17,123.918 349.691,126.128 350.213,124.555 350.735,126.925 351.256,124.657 351.778,126.687 352.3,125.265 352.821,127.192 353.343,125.646 353.865,127.282 354.386,126.749 354.908,127.78 355.43,127.267 355.951,127.725 356.473,128.662 356.995,128.885 357.516,129.867 358.038,129.113 358.56,131.343 359.081,130.884 359.603,133.731 360.124,132.435 360.646,135.56 361.168,134.768 361.689,138.775 362.211,137.925 362.733,141.692 363.254,141.33 363.776,145.355 364.298,145.383 364.819,148.757 365.341,149.085 365.863,152.352 366.384,153.139 366.906,155.42 367.428,155.626 367.949,156.559 368.471,157.096 368.993,156.481 369.514,156.955 370.036,155.41 370.558,155.106 371.08,152.55 371.601,153.314 372.123,153.006 372.645,154.859 373.166,151.998 373.688,153.527 374.21,150.885 374.731,152.176 375.253,148.779 375.775,149.212 376.296,145.738 376.818,146.621 377.34,143.639 377.861,144.034 378.383,140.662 378.905,140.751 379.426,138.66 379.948,139.136 380.469,137.81 380.991,137.352 381.513,136.057 382.034,135.658 382.556,135.63 383.078,135.177 383.599,135.512 384.121,134.178 384.643,135.245 385.164,133.828 385.686,135.661 386.208,133.563 386.729,135.349 387.251,133.362 387.773,135.906 388.294,133.897 388.816,135.968 389.338,133.384 389.859,135.961 390.381,134.108 390.903,136.814 391.424,134.367 391.946,136.321 392.468,134.574 392.989,136.758 393.511,135.392 394.033,136.729 394.555,135.555 395.076,136.874 395.598,136.422 396.12,136.868 396.641,136.577 397.163,137.022 397.685,137.609 398.206,137.098 398.728,137.561 399.25,136.886 399.771,138.651 400.293,137.548 400.815,138.688 401.336,136.851 401.858,139.222 402.379,137.841 402.901,139.616 403.423,137.28 403.944,139.706 404.466,138.027 404.988,140.154 405.509,137.912 406.031,140.303 406.553,138.584 407.074,140.385 407.596,138.596 408.118,140.757 408.639,139.351 409.161,140.48 409.683,139.207 410.204,140.949 410.726,140.059 411.248,140.48 411.769,140.04 412.291,141.006 412.813,140.848 413.334,140.495 413.856,140.966 414.378,141.062 414.9,141.656 415.421,140.7 415.943,142.002 416.465,141.039 416.986,142.234 417.508,141.017 418.03,142.789 418.551,140.933 419.073,142.954 419.595,141.382 420.116,143.504 420.638,141.112 421.16,143.7 421.681,141.954 422.203,143.911 422.724,141.501 423.246,144.411 423.768,142.466 424.289,144.214 424.811,142.331 425.333,144.917 425.854,142.95 426.376,144.679 426.898,143.431 427.419,145.181 427.941,143.654 428.463,145.241 428.984,144.543 429.506,145.245 430.027,144.656 430.549,145.789 431.071,145.328 431.592,145.352 432.114,145.784 432.636,146.23 433.157,146.196 433.679,145.64 434.201,146.918 434.723,146.362 435.244,147.007 435.766,145.984 436.288,147.792 436.809,146.468 437.331,147.818 437.853,146.329 438.374,148.505 438.896,146.709 439.418,148.571 439.94,147.041 440.461,148.979 440.983,147.069 441.505,149.247 442.026,147.822 442.548,149.348 443.069,147.535 443.591,149.747 444.113,148.543 444.634,149.736 445.156,148.262 445.678,149.95 446.199,149.221 446.721,150.162 447.243,149.103 447.764,150.253 448.286,149.963 448.808,150.371 449.329,150.021 449.851,150.613 450.372,150.644 450.894,150.459 451.416,150.716 451.937,150.917 452.459,151.544 452.981,150.659 453.502,151.222 454.024,150.901 454.546,152.423 455.068,151.181 455.589,151.947 456.111,150.71 456.633,152.679 457.154,151.614 457.676,152.961 458.198,151.194 458.719,152.941 459.241,151.692 459.763,153.688 460.284,151.767 460.806,153.619 461.328,152.078 461.849,154.204 462.371,152.399 462.893,154.072 463.414,152.477 463.936,154.597 464.458,153.444 464.979,154.815 465.501,153.231 466.023,154.664 466.544,153.893 467.066,155.517 467.588,154.642 468.109,155.314 468.631,154.582 469.153,155.405 469.674,155.422 470.196,155.983 470.718,155.749 471.239,155.907 471.761,156.308 472.282,156.34 472.804,156.798 473.326,156.188 473.847,156.863 474.369,156.384 474.891,157.86 475.412,157.11 " />
</g>

<g fill="none" stroke="#000000" stroke-opacity="1" stroke-width="1" stroke-linecap="square" stroke-linejoin="bevel" transform="matrix(1.5625,0,0,1.5625,0,0)"
font-family="MS Shell Dlg 2" font-size="17.1875" font-weight="400" font-style="normal" 
>
</g>

<g fill="none" stroke="#000000" stroke-opacity="1" stroke-width="1" stroke-linecap="square" stroke-linejoin="bevel" transform="matrix(1.5625,0,0,1.5625,0,0)"
font-family="MS Shell Dlg 2" font-size="17.1875" font-weight="400" font-style="normal" 
>
</g>

<g fill="none" stroke="#000000" stroke-opacity="1" stroke-width="1" stroke-linecap="square" stroke-linejoin="bevel" transform="matrix(1.5625,0,0,1.5625,0,0)"
font-family="MS Shell Dlg 2" font-size="17.1875" font-weight="400" font-style="normal" 
>
</g>

<g fill="#a0a0a0" fill-opacity="1" stroke="none" transform="matrix(1.5625,0,0,1.5625,0,0)"
font-family="MS Shell Dlg 2" font-size="17.1875" font-weight="400" font-style="normal" 
>
<path vector-effect="none" fill-rule="evenodd" d="M62,328.953 L62,21 L503.929,21 L502.929,22 L63,22 L63,327.953"/>
</g>

<g fill="#ffffff" fill-opacity="1" stroke="none" transform="matrix(1.5625,0,0,1.5625,0,0)"
font-family="MS Shell Dlg 2" font-size="17.1875" font-weight="400" font-style="normal" 
>
<path vector-effect="none" fill-rule="evenodd" d="M62,328.953 L503.929,328.953 L503.929,21 L502.929,22 L502.929,327.953 L63,327.953"/>
</g>

<g fill="none" stroke="#000000" stroke-opacity="1" stroke-width="1" stroke-linecap="square" stroke-linejoin="bevel" transform="matrix(1.5625,0,0,1.5625,0,0)"
font-family="MS Shell Dlg 2" font-size="17.1875" font-weight="400" font-style="normal" 
>
</g>

<g fill="none" stroke="#000000" stroke-opacity="1" stroke-width="1" stroke-linecap="square" stroke-linejoin="bevel" transform="matrix(1.5625,0,0,1.5625,0,0)"
font-family="MS Shell Dlg 2" font-size="17.1875" font-weight="400" font-style="normal" 
>
</g>

<g fill="none" stroke="#dddddd" stroke-opacity="1" stroke-width="1" stroke-linecap="square" stroke-linejoin="bevel" transform="matrix(1.5625,0,0,1.5625,0,0)"
font-family="Arial" font-size="20.8333" font-weight="400" font-style="normal" 
>
</g>

<g fill="none" stroke="#dddddd" stroke-opacity="1" stroke-width="1" stroke-linecap="square" stroke-linejoin="bevel" transform="matrix(1.5625,0,0,1.5625,0,0)"
font-family="Arial" font-size="13" font-weight="400" font-style="normal" 
>
</g>

<g fill="none" stroke="#dddddd" stroke-opacity="1" stroke-width="1" stroke-linecap="square" stroke-linejoin="bevel" transform="matrix(1.5625,0,0,1.5625,0,0)"
font-family="Arial" font-size="13" font-weight="400" font-style="normal" 
>
<text fill="#dddddd" fill-opacity="1" stroke="none" xml:space="preserve" x="241.953" y="13" font-family="Arial" font-size="13" font-weight="400" font-style="normal" 
 >Signal Display</text>
</g>

<g fill="none" stroke="#dddddd" stroke-opacity="1" stroke-width="1" stroke-linecap="square" stroke-linejoin="bevel" transform="matrix(1.5625,0,0,1.5625,0,0)"
font-family="Arial" font-size="20.8333" font-weight="400" font-style="normal" 
>
</g>

<g fill="none" stroke="#dddddd" stroke-opacity="1" stroke-width="1" stroke-linecap="square" stroke-linejoin="bevel" transform="matrix(1.5625,0,0,1.5625,0,0)"
font-family="Arial" font-size="20.8333" font-weight="400" font-style="normal" 
>
</g>

<g fill="none" stroke="#dddddd" stroke-opacity="1" stroke-width="1" stroke-linecap="square" stroke-linejoin="bevel" transform="matrix(0,-1.5625,1.5625,0,0,504.614)"
font-family="Arial" font-size="20.8333" font-weight="400" font-style="normal" 
>
</g>

<g fill="none" stroke="#b4003c" stroke-opacity="1" stroke-width="1" stroke-linecap="square" stroke-linejoin="bevel" transform="matrix(0,-1.5625,1.5625,0,0,504.614)"
font-family="MS Shell Dlg 2" font-size="25" font-weight="700" font-style="normal" 
>
</g>

<g fill="none" stroke="#b4003c" stroke-opacity="1" stroke-width="1" stroke-linecap="square" stroke-linejoin="bevel" transform="matrix(0,-1.5625,1.5625,0,0,504.614)"
font-family="MS Shell Dlg 2" font-size="16" font-weight="700" font-style="normal" 
>
</g>

<g fill="none" stroke="#b4003c" stroke-opacity="1" stroke-width="1" stroke-linecap="square" stroke-linejoin="bevel" transform="matrix(0,-1.5625,1.5625,0,0,504.614)"
font-family="MS Shell Dlg 2" font-size="16" font-weight="700" font-style="normal" 
>
<text fill="#b4003c" fill-opacity="1" stroke="none" xml:space="preserve" x="97.4688" y="16" font-family="MS Shell Dlg 2" font-size="16" font-weight="700" font-style="normal" 
 >Fine In 1 (V)</text>
</g>

<g fill="none" stroke="#b4003c" stroke-opacity="1" stroke-width="1" stroke-linecap="square" stroke-linejoin="bevel" transform="matrix(0,-1.5625,1.5625,0,0,504.614)"
font-family="MS Shell Dlg 2" font-size="25" font-weight="700" font-style="normal" 
>
</g>

<g fill="none" stroke="#dddddd" stroke-opacity="1" stroke-width="1" stroke-linecap="square" stroke-linejoin="bevel" transform="matrix(0,-1.5625,1.5625,0,0,504.614)"
font-family="Arial" font-size="20.8333" font-weight="400" font-style="normal" 
>
</g>

<g fill="none" stroke="#dddddd" stroke-opacity="1" stroke-width="1" stroke-linecap="square" stroke-linejoin="bevel" transform="matrix(1.5625,0,0,1.5625,0,0)"
font-family="Arial" font-size="20.8333" font-weight="400" font-style="normal" 
>
</g>

<g fill="none" stroke="#dddddd" stroke-opacity="1" stroke-width="1" stroke-linecap="square" stroke-linejoin="bevel" transform="matrix(1.5625,0,0,1.5625,0,0)"
font-family="Arial" font-size="20.8333" font-weight="400" font-style="normal" 
>
</g>

<g fill="none" stroke="#dddddd" stroke-opacity="1" stroke-width="1" stroke-linecap="square" stroke-linejoin="bevel" transform="matrix(1.5625,0,0,1.5625,0,0)"
font-family="Arial" font-size="20.8333" font-weight="400" font-style="normal" 
>
</g>

<g fill="none" stroke="#dddddd" stroke-opacity="1" stroke-width="1" stroke-linecap="square" stroke-linejoin="bevel" transform="matrix(1.5625,0,0,1.5625,0,0)"
font-family="Arial" font-size="20.8333" font-weight="400" font-style="normal" 
>
</g>

<g fill="none" stroke="#dddddd" stroke-opacity="1" stroke-width="1" stroke-linecap="square" stroke-linejoin="bevel" transform="matrix(1.5625,0,0,1.5625,43.75,423.5)"
font-family="Arial" font-size="20.8333" font-weight="400" font-style="normal" 
>
</g>

<g fill="none" stroke="#dddddd" stroke-opacity="1" stroke-width="1" stroke-linecap="square" stroke-linejoin="bevel" transform="matrix(1.5625,0,0,1.5625,43.75,423.5)"
font-family="Arial" font-size="13" font-weight="400" font-style="normal" 
>
</g>

<g fill="none" stroke="#dddddd" stroke-opacity="1" stroke-width="1" stroke-linecap="square" stroke-linejoin="bevel" transform="matrix(1.5625,0,0,1.5625,43.75,423.5)"
font-family="Arial" font-size="13" font-weight="400" font-style="normal" 
>
<text fill="#dddddd" fill-opacity="1" stroke="none" xml:space="preserve" x="0" y="11" font-family="Arial" font-size="13" font-weight="400" font-style="normal" 
 >0.1</text>
</g>

<g fill="none" stroke="#dddddd" stroke-opacity="1" stroke-width="1" stroke-linecap="square" stroke-linejoin="bevel" transform="matrix(1.5625,0,0,1.5625,43.75,423.5)"
font-family="Arial" font-size="20.8333" font-weight="400" font-style="normal" 
>
</g>

<g fill="none" stroke="#dddddd" stroke-opacity="1" stroke-width="1" stroke-linecap="square" stroke-linejoin="bevel" transform="matrix(1.5625,0,0,1.5625,43.75,423.5)"
font-family="Arial" font-size="20.8333" font-weight="400" font-style="normal" 
>
</g>

<g fill="none" stroke="#dddddd" stroke-opacity="1" stroke-width="1" stroke-linecap="square" stroke-linejoin="bevel" transform="matrix(1.5625,0,0,1.5625,0,0)"
font-family="Arial" font-size="20.8333" font-weight="400" font-style="normal" 
>
</g>

<g fill="none" stroke="#dddddd" stroke-opacity="1" stroke-width="1" stroke-linecap="square" stroke-linejoin="bevel" transform="matrix(1.5625,0,0,1.5625,32.8125,310.416)"
font-family="Arial" font-size="20.8333" font-weight="400" font-style="normal" 
>
</g>

<g fill="none" stroke="#dddddd" stroke-opacity="1" stroke-width="1" stroke-linecap="square" stroke-linejoin="bevel" transform="matrix(1.5625,0,0,1.5625,32.8125,310.416)"
font-family="Arial" font-size="13" font-weight="400" font-style="normal" 
>
</g>

<g fill="none" stroke="#dddddd" stroke-opacity="1" stroke-width="1" stroke-linecap="square" stroke-linejoin="bevel" transform="matrix(1.5625,0,0,1.5625,32.8125,310.416)"
font-family="Arial" font-size="13" font-weight="400" font-style="normal" 
>
<text fill="#dddddd" fill-opacity="1" stroke="none" xml:space="preserve" x="0" y="11" font-family="Arial" font-size="13" font-weight="400" font-style="normal" 
 >0.15</text>
</g>

<g fill="none" stroke="#dddddd" stroke-opacity="1" stroke-width="1" stroke-linecap="square" stroke-linejoin="bevel" transform="matrix(1.5625,0,0,1.5625,32.8125,310.416)"
font-family="Arial" font-size="20.8333" font-weight="400" font-style="normal" 
>
</g>

<g fill="none" stroke="#dddddd" stroke-opacity="1" stroke-width="1" stroke-linecap="square" stroke-linejoin="bevel" transform="matrix(1.5625,0,0,1.5625,32.8125,310.416)"
font-family="Arial" font-size="20.8333" font-weight="400" font-style="normal" 
>
</g>

<g fill="none" stroke="#dddddd" stroke-opacity="1" stroke-width="1" stroke-linecap="square" stroke-linejoin="bevel" transform="matrix(1.5625,0,0,1.5625,0,0)"
font-family="Arial" font-size="20.8333" font-weight="400" font-style="normal" 
>
</g>

<g fill="none" stroke="#dddddd" stroke-opacity="1" stroke-width="1" stroke-linecap="square" stroke-linejoin="bevel" transform="matrix(1.5625,0,0,1.5625,43.75,197.332)"
font-family="Arial" font-size="20.8333" font-weight="400" font-style="normal" 
>
</g>

<g fill="none" stroke="#dddddd" stroke-opacity="1" stroke-width="1" stroke-linecap="square" stroke-linejoin="bevel" transform="matrix(1.5625,0,0,1.5625,43.75,197.332)"
font-family="Arial" font-size="13" font-weight="400" font-style="normal" 
>
</g>

<g fill="none" stroke="#dddddd" stroke-opacity="1" stroke-width="1" stroke-linecap="square" stroke-linejoin="bevel" transform="matrix(1.5625,0,0,1.5625,43.75,197.332)"
font-family="Arial" font-size="13" font-weight="400" font-style="normal" 
>
<text fill="#dddddd" fill-opacity="1" stroke="none" xml:space="preserve" x="0" y="11" font-family="Arial" font-size="13" font-weight="400" font-style="normal" 
 >0.2</text>
</g>

<g fill="none" stroke="#dddddd" stroke-opacity="1" stroke-width="1" stroke-linecap="square" stroke-linejoin="bevel" transform="matrix(1.5625,0,0,1.5625,43.75,197.332)"
font-family="Arial" font-size="20.8333" font-weight="400" font-style="normal" 
>
</g>

<g fill="none" stroke="#dddddd" stroke-opacity="1" stroke-width="1" stroke-linecap="square" stroke-linejoin="bevel" transform="matrix(1.5625,0,0,1.5625,43.75,197.332)"
font-family="Arial" font-size="20.8333" font-weight="400" font-style="normal" 
>
</g>

<g fill="none" stroke="#dddddd" stroke-opacity="1" stroke-width="1" stroke-linecap="square" stroke-linejoin="bevel" transform="matrix(1.5625,0,0,1.5625,0,0)"
font-family="Arial" font-size="20.8333" font-weight="400" font-style="normal" 
>
</g>

<g fill="none" stroke="#dddddd" stroke-opacity="1" stroke-width="1" stroke-linecap="square" stroke-linejoin="bevel" transform="matrix(1.5625,0,0,1.5625,32.8125,84.2483)"
font-family="Arial" font-size="20.8333" font-weight="400" font-style="normal" 
>
</g>

<g fill="none" stroke="#dddddd" stroke-opacity="1" stroke-width="1" stroke-linecap="square" stroke-linejoin="bevel" transform="matrix(1.5625,0,0,1.5625,32.8125,84.2483)"
font-family="Arial" font-size="13" font-weight="400" font-style="normal" 
>
</g>

<g fill="none" stroke="#dddddd" stroke-opacity="1" stroke-width="1" stroke-linecap="square" stroke-linejoin="bevel" transform="matrix(1.5625,0,0,1.5625,32.8125,84.2483)"
font-family="Arial" font-size="13" font-weight="400" font-style="normal" 
>
<text fill="#dddddd" fill-opacity="1" stroke="none" xml:space="preserve" x="0" y="11" font-family="Arial" font-size="13" font-weight="400" font-style="normal" 
 >0.25</text>
</g>

<g fill="none" stroke="#dddddd" stroke-opacity="1" stroke-width="1" stroke-linecap="square" stroke-linejoin="bevel" transform="matrix(1.5625,0,0,1.5625,32.8125,84.2483)"
font-family="Arial" font-size="20.8333" font-weight="400" font-style="normal" 
>
</g>

<g fill="none" stroke="#dddddd" stroke-opacity="1" stroke-width="1" stroke-linecap="square" stroke-linejoin="bevel" transform="matrix(1.5625,0,0,1.5625,32.8125,84.2483)"
font-family="Arial" font-size="20.8333" font-weight="400" font-style="normal" 
>
</g>

<g fill="none" stroke="#dddddd" stroke-opacity="1" stroke-width="1" stroke-linecap="square" stroke-linejoin="bevel" transform="matrix(1.5625,0,0,1.5625,0,0)"
font-family="Arial" font-size="20.8333" font-weight="400" font-style="normal" 
>
</g>

<g fill="none" stroke="#dddddd" stroke-opacity="1" stroke-width="1" stroke-linecap="square" stroke-linejoin="bevel" transform="matrix(1.5625,0,0,1.5625,0,0)"
font-family="Arial" font-size="20.8333" font-weight="400" font-style="normal" 
>
</g>

<g fill="none" stroke="#dddddd" stroke-opacity="1" stroke-width="1" stroke-linecap="butt" stroke-linejoin="bevel" transform="matrix(1.5625,0,0,1.5625,0,0)"
font-family="Arial" font-size="20.8333" font-weight="400" font-style="normal" 
>
<polyline fill="none" vector-effect="non-scaling-stroke" points="59,319.964 55,319.964 " />
<polyline fill="none" vector-effect="non-scaling-stroke" points="59,305.49 55,305.49 " />
<polyline fill="none" vector-effect="non-scaling-stroke" points="59,291.015 55,291.015 " />
<polyline fill="none" vector-effect="non-scaling-stroke" points="59,262.065 55,262.065 " />
<polyline fill="none" vector-effect="non-scaling-stroke" points="59,247.591 55,247.591 " />
<polyline fill="none" vector-effect="non-scaling-stroke" points="59,233.116 55,233.116 " />
<polyline fill="none" vector-effect="non-scaling-stroke" points="59,218.641 55,218.641 " />
<polyline fill="none" vector-effect="non-scaling-stroke" points="59,189.692 55,189.692 " />
<polyline fill="none" vector-effect="non-scaling-stroke" points="59,175.217 55,175.217 " />
<polyline fill="none" vector-effect="non-scaling-stroke" points="59,160.742 55,160.742 " />
<polyline fill="none" vector-effect="non-scaling-stroke" points="59,146.267 55,146.267 " />
<polyline fill="none" vector-effect="non-scaling-stroke" points="59,117.318 55,117.318 " />
<polyline fill="none" vector-effect="non-scaling-stroke" points="59,102.843 55,102.843 " />
<polyline fill="none" vector-effect="non-scaling-stroke" points="59,88.3684 55,88.3684 " />
<polyline fill="none" vector-effect="non-scaling-stroke" points="59,73.8937 55,73.8937 " />
<polyline fill="none" vector-effect="non-scaling-stroke" points="59,44.9442 55,44.9442 " />
<polyline fill="none" vector-effect="non-scaling-stroke" points="59,30.4694 55,30.4694 " />
<polyline fill="none" vector-effect="non-scaling-stroke" points="59,276.54 51,276.54 " />
<polyline fill="none" vector-effect="non-scaling-stroke" points="59,204.166 51,204.166 " />
<polyline fill="none" vector-effect="non-scaling-stroke" points="59,131.793 51,131.793 " />
<polyline fill="none" vector-effect="non-scaling-stroke" points="59,59.4189 51,59.4189 " />
</g>

<g fill="none" stroke="#dddddd" stroke-opacity="1" stroke-width="1" stroke-linecap="square" stroke-linejoin="bevel" transform="matrix(1.5625,0,0,1.5625,0,0)"
font-family="Arial" font-size="20.8333" font-weight="400" font-style="normal" 
>
</g>

<g fill="none" stroke="#dddddd" stroke-opacity="1" stroke-width="1" stroke-linecap="butt" stroke-linejoin="bevel" transform="matrix(1.5625,0,0,1.5625,0,0)"
font-family="Arial" font-size="20.8333" font-weight="400" font-style="normal" 
>
<polyline fill="none" vector-effect="non-scaling-stroke" points="59,27 59,322.953 " />
</g>

<g fill="none" stroke="#dddddd" stroke-opacity="1" stroke-width="1" stroke-linecap="square" stroke-linejoin="bevel" transform="matrix(1.5625,0,0,1.5625,0,0)"
font-family="Arial" font-size="20.8333" font-weight="400" font-style="normal" 
>
</g>

<g fill="none" stroke="#dddddd" stroke-opacity="1" stroke-width="1" stroke-linecap="square" stroke-linejoin="bevel" transform="matrix(1.5625,0,0,1.5625,0,0)"
font-family="Arial" font-size="20.8333" font-weight="400" font-style="normal" 
>
</g>

<g fill="none" stroke="#dddddd" stroke-opacity="1" stroke-width="1" stroke-linecap="square" stroke-linejoin="bevel" transform="matrix(1.5625,0,0,1.5625,0,0)"
font-family="Arial" font-size="20.8333" font-weight="400" font-style="normal" 
>
</g>

<g fill="none" stroke="#dddddd" stroke-opacity="1" stroke-width="1" stroke-linecap="square" stroke-linejoin="bevel" transform="matrix(0,1.5625,-1.5625,0,885.827,42.1875)"
font-family="Arial" font-size="20.8333" font-weight="400" font-style="normal" 
>
</g>

<g fill="none" stroke="#0064ff" stroke-opacity="1" stroke-width="1" stroke-linecap="square" stroke-linejoin="bevel" transform="matrix(0,1.5625,-1.5625,0,885.827,42.1875)"
font-family="MS Shell Dlg 2" font-size="25" font-weight="700" font-style="normal" 
>
</g>

<g fill="none" stroke="#0064ff" stroke-opacity="1" stroke-width="1" stroke-linecap="square" stroke-linejoin="bevel" transform="matrix(0,1.5625,-1.5625,0,885.827,42.1875)"
font-family="MS Shell Dlg 2" font-size="16" font-weight="700" font-style="normal" 
>
</g>

<g fill="none" stroke="#0064ff" stroke-opacity="1" stroke-width="1" stroke-linecap="square" stroke-linejoin="bevel" transform="matrix(0,1.5625,-1.5625,0,885.827,42.1875)"
font-family="MS Shell Dlg 2" font-size="16" font-weight="700" font-style="normal" 
>
<text fill="#0064ff" fill-opacity="1" stroke="none" xml:space="preserve" x="97.4688" y="16" font-family="MS Shell Dlg 2" font-size="16" font-weight="700" font-style="normal" 
 >Fine In 2 (V)</text>
</g>

<g fill="none" stroke="#0064ff" stroke-opacity="1" stroke-width="1" stroke-linecap="square" stroke-linejoin="bevel" transform="matrix(0,1.5625,-1.5625,0,885.827,42.1875)"
font-family="MS Shell Dlg 2" font-size="25" font-weight="700" font-style="normal" 
>
</g>

<g fill="none" stroke="#dddddd" stroke-opacity="1" stroke-width="1" stroke-linecap="square" stroke-linejoin="bevel" transform="matrix(0,1.5625,-1.5625,0,885.827,42.1875)"
font-family="Arial" font-size="20.8333" font-weight="400" font-style="normal" 
>
</g>

<g fill="none" stroke="#dddddd" stroke-opacity="1" stroke-width="1" stroke-linecap="square" stroke-linejoin="bevel" transform="matrix(1.5625,0,0,1.5625,0,0)"
font-family="Arial" font-size="20.8333" font-weight="400" font-style="normal" 
>
</g>

<g fill="none" stroke="#dddddd" stroke-opacity="1" stroke-width="1" stroke-linecap="square" stroke-linejoin="bevel" transform="matrix(1.5625,0,0,1.5625,0,0)"
font-family="Arial" font-size="20.8333" font-weight="400" font-style="normal" 
>
</g>

<g fill="none" stroke="#dddddd" stroke-opacity="1" stroke-width="1" stroke-linecap="square" stroke-linejoin="bevel" transform="matrix(1.5625,0,0,1.5625,0,0)"
font-family="Arial" font-size="20.8333" font-weight="400" font-style="normal" 
>
</g>

<g fill="none" stroke="#dddddd" stroke-opacity="1" stroke-width="1" stroke-linecap="square" stroke-linejoin="bevel" transform="matrix(1.5625,0,0,1.5625,0,0)"
font-family="Arial" font-size="20.8333" font-weight="400" font-style="normal" 
>
</g>

<g fill="none" stroke="#dddddd" stroke-opacity="1" stroke-width="1" stroke-linecap="square" stroke-linejoin="bevel" transform="matrix(1.5625,0,0,1.5625,812.389,458.59)"
font-family="Arial" font-size="20.8333" font-weight="400" font-style="normal" 
>
</g>

<g fill="none" stroke="#dddddd" stroke-opacity="1" stroke-width="1" stroke-linecap="square" stroke-linejoin="bevel" transform="matrix(1.5625,0,0,1.5625,812.389,458.59)"
font-family="Arial" font-size="13" font-weight="400" font-style="normal" 
>
</g>

<g fill="none" stroke="#dddddd" stroke-opacity="1" stroke-width="1" stroke-linecap="square" stroke-linejoin="bevel" transform="matrix(1.5625,0,0,1.5625,812.389,458.59)"
font-family="Arial" font-size="13" font-weight="400" font-style="normal" 
>
<text fill="#dddddd" fill-opacity="1" stroke="none" xml:space="preserve" x="0" y="11" font-family="Arial" font-size="13" font-weight="400" font-style="normal" 
 >0.15</text>
</g>

<g fill="none" stroke="#dddddd" stroke-opacity="1" stroke-width="1" stroke-linecap="square" stroke-linejoin="bevel" transform="matrix(1.5625,0,0,1.5625,812.389,458.59)"
font-family="Arial" font-size="20.8333" font-weight="400" font-style="normal" 
>
</g>

<g fill="none" stroke="#dddddd" stroke-opacity="1" stroke-width="1" stroke-linecap="square" stroke-linejoin="bevel" transform="matrix(1.5625,0,0,1.5625,812.389,458.59)"
font-family="Arial" font-size="20.8333" font-weight="400" font-style="normal" 
>
</g>

<g fill="none" stroke="#dddddd" stroke-opacity="1" stroke-width="1" stroke-linecap="square" stroke-linejoin="bevel" transform="matrix(1.5625,0,0,1.5625,0,0)"
font-family="Arial" font-size="20.8333" font-weight="400" font-style="normal" 
>
</g>

<g fill="none" stroke="#dddddd" stroke-opacity="1" stroke-width="1" stroke-linecap="square" stroke-linejoin="bevel" transform="matrix(1.5625,0,0,1.5625,812.389,394.233)"
font-family="Arial" font-size="20.8333" font-weight="400" font-style="normal" 
>
</g>

<g fill="none" stroke="#dddddd" stroke-opacity="1" stroke-width="1" stroke-linecap="square" stroke-linejoin="bevel" transform="matrix(1.5625,0,0,1.5625,812.389,394.233)"
font-family="Arial" font-size="13" font-weight="400" font-style="normal" 
>
</g>

<g fill="none" stroke="#dddddd" stroke-opacity="1" stroke-width="1" stroke-linecap="square" stroke-linejoin="bevel" transform="matrix(1.5625,0,0,1.5625,812.389,394.233)"
font-family="Arial" font-size="13" font-weight="400" font-style="normal" 
>
<text fill="#dddddd" fill-opacity="1" stroke="none" xml:space="preserve" x="0" y="11" font-family="Arial" font-size="13" font-weight="400" font-style="normal" 
 >0.2</text>
</g>

<g fill="none" stroke="#dddddd" stroke-opacity="1" stroke-width="1" stroke-linecap="square" stroke-linejoin="bevel" transform="matrix(1.5625,0,0,1.5625,812.389,394.233)"
font-family="Arial" font-size="20.8333" font-weight="400" font-style="normal" 
>
</g>

<g fill="none" stroke="#dddddd" stroke-opacity="1" stroke-width="1" stroke-linecap="square" stroke-linejoin="bevel" transform="matrix(1.5625,0,0,1.5625,812.389,394.233)"
font-family="Arial" font-size="20.8333" font-weight="400" font-style="normal" 
>
</g>

<g fill="none" stroke="#dddddd" stroke-opacity="1" stroke-width="1" stroke-linecap="square" stroke-linejoin="bevel" transform="matrix(1.5625,0,0,1.5625,0,0)"
font-family="Arial" font-size="20.8333" font-weight="400" font-style="normal" 
>
</g>

<g fill="none" stroke="#dddddd" stroke-opacity="1" stroke-width="1" stroke-linecap="square" stroke-linejoin="bevel" transform="matrix(1.5625,0,0,1.5625,812.389,329.876)"
font-family="Arial" font-size="20.8333" font-weight="400" font-style="normal" 
>
</g>

<g fill="none" stroke="#dddddd" stroke-opacity="1" stroke-width="1" stroke-linecap="square" stroke-linejoin="bevel" transform="matrix(1.5625,0,0,1.5625,812.389,329.876)"
font-family="Arial" font-size="13" font-weight="400" font-style="normal" 
>
</g>

<g fill="none" stroke="#dddddd" stroke-opacity="1" stroke-width="1" stroke-linecap="square" stroke-linejoin="bevel" transform="matrix(1.5625,0,0,1.5625,812.389,329.876)"
font-family="Arial" font-size="13" font-weight="400" font-style="normal" 
>
<text fill="#dddddd" fill-opacity="1" stroke="none" xml:space="preserve" x="0" y="11" font-family="Arial" font-size="13" font-weight="400" font-style="normal" 
 >0.25</text>
</g>

<g fill="none" stroke="#dddddd" stroke-opacity="1" stroke-width="1" stroke-linecap="square" stroke-linejoin="bevel" transform="matrix(1.5625,0,0,1.5625,812.389,329.876)"
font-family="Arial" font-size="20.8333" font-weight="400" font-style="normal" 
>
</g>

<g fill="none" stroke="#dddddd" stroke-opacity="1" stroke-width="1" stroke-linecap="square" stroke-linejoin="bevel" transform="matrix(1.5625,0,0,1.5625,812.389,329.876)"
font-family="Arial" font-size="20.8333" font-weight="400" font-style="normal" 
>
</g>

<g fill="none" stroke="#dddddd" stroke-opacity="1" stroke-width="1" stroke-linecap="square" stroke-linejoin="bevel" transform="matrix(1.5625,0,0,1.5625,0,0)"
font-family="Arial" font-size="20.8333" font-weight="400" font-style="normal" 
>
</g>

<g fill="none" stroke="#dddddd" stroke-opacity="1" stroke-width="1" stroke-linecap="square" stroke-linejoin="bevel" transform="matrix(1.5625,0,0,1.5625,812.389,265.518)"
font-family="Arial" font-size="20.8333" font-weight="400" font-style="normal" 
>
</g>

<g fill="none" stroke="#dddddd" stroke-opacity="1" stroke-width="1" stroke-linecap="square" stroke-linejoin="bevel" transform="matrix(1.5625,0,0,1.5625,812.389,265.518)"
font-family="Arial" font-size="13" font-weight="400" font-style="normal" 
>
</g>

<g fill="none" stroke="#dddddd" stroke-opacity="1" stroke-width="1" stroke-linecap="square" stroke-linejoin="bevel" transform="matrix(1.5625,0,0,1.5625,812.389,265.518)"
font-family="Arial" font-size="13" font-weight="400" font-style="normal" 
>
<text fill="#dddddd" fill-opacity="1" stroke="none" xml:space="preserve" x="0" y="11" font-family="Arial" font-size="13" font-weight="400" font-style="normal" 
 >0.3</text>
</g>

<g fill="none" stroke="#dddddd" stroke-opacity="1" stroke-width="1" stroke-linecap="square" stroke-linejoin="bevel" transform="matrix(1.5625,0,0,1.5625,812.389,265.518)"
font-family="Arial" font-size="20.8333" font-weight="400" font-style="normal" 
>
</g>

<g fill="none" stroke="#dddddd" stroke-opacity="1" stroke-width="1" stroke-linecap="square" stroke-linejoin="bevel" transform="matrix(1.5625,0,0,1.5625,812.389,265.518)"
font-family="Arial" font-size="20.8333" font-weight="400" font-style="normal" 
>
</g>

<g fill="none" stroke="#dddddd" stroke-opacity="1" stroke-width="1" stroke-linecap="square" stroke-linejoin="bevel" transform="matrix(1.5625,0,0,1.5625,0,0)"
font-family="Arial" font-size="20.8333" font-weight="400" font-style="normal" 
>
</g>

<g fill="none" stroke="#dddddd" stroke-opacity="1" stroke-width="1" stroke-linecap="square" stroke-linejoin="bevel" transform="matrix(1.5625,0,0,1.5625,812.389,201.161)"
font-family="Arial" font-size="20.8333" font-weight="400" font-style="normal" 
>
</g>

<g fill="none" stroke="#dddddd" stroke-opacity="1" stroke-width="1" stroke-linecap="square" stroke-linejoin="bevel" transform="matrix(1.5625,0,0,1.5625,812.389,201.161)"
font-family="Arial" font-size="13" font-weight="400" font-style="normal" 
>
</g>

<g fill="none" stroke="#dddddd" stroke-opacity="1" stroke-width="1" stroke-linecap="square" stroke-linejoin="bevel" transform="matrix(1.5625,0,0,1.5625,812.389,201.161)"
font-family="Arial" font-size="13" font-weight="400" font-style="normal" 
>
<text fill="#dddddd" fill-opacity="1" stroke="none" xml:space="preserve" x="0" y="11" font-family="Arial" font-size="13" font-weight="400" font-style="normal" 
 >0.35</text>
</g>

<g fill="none" stroke="#dddddd" stroke-opacity="1" stroke-width="1" stroke-linecap="square" stroke-linejoin="bevel" transform="matrix(1.5625,0,0,1.5625,812.389,201.161)"
font-family="Arial" font-size="20.8333" font-weight="400" font-style="normal" 
>
</g>

<g fill="none" stroke="#dddddd" stroke-opacity="1" stroke-width="1" stroke-linecap="square" stroke-linejoin="bevel" transform="matrix(1.5625,0,0,1.5625,812.389,201.161)"
font-family="Arial" font-size="20.8333" font-weight="400" font-style="normal" 
>
</g>

<g fill="none" stroke="#dddddd" stroke-opacity="1" stroke-width="1" stroke-linecap="square" stroke-linejoin="bevel" transform="matrix(1.5625,0,0,1.5625,0,0)"
font-family="Arial" font-size="20.8333" font-weight="400" font-style="normal" 
>
</g>

<g fill="none" stroke="#dddddd" stroke-opacity="1" stroke-width="1" stroke-linecap="square" stroke-linejoin="bevel" transform="matrix(1.5625,0,0,1.5625,812.389,136.803)"
font-family="Arial" font-size="20.8333" font-weight="400" font-style="normal" 
>
</g>

<g fill="none" stroke="#dddddd" stroke-opacity="1" stroke-width="1" stroke-linecap="square" stroke-linejoin="bevel" transform="matrix(1.5625,0,0,1.5625,812.389,136.803)"
font-family="Arial" font-size="13" font-weight="400" font-style="normal" 
>
</g>

<g fill="none" stroke="#dddddd" stroke-opacity="1" stroke-width="1" stroke-linecap="square" stroke-linejoin="bevel" transform="matrix(1.5625,0,0,1.5625,812.389,136.803)"
font-family="Arial" font-size="13" font-weight="400" font-style="normal" 
>
<text fill="#dddddd" fill-opacity="1" stroke="none" xml:space="preserve" x="0" y="11" font-family="Arial" font-size="13" font-weight="400" font-style="normal" 
 >0.4</text>
</g>

<g fill="none" stroke="#dddddd" stroke-opacity="1" stroke-width="1" stroke-linecap="square" stroke-linejoin="bevel" transform="matrix(1.5625,0,0,1.5625,812.389,136.803)"
font-family="Arial" font-size="20.8333" font-weight="400" font-style="normal" 
>
</g>

<g fill="none" stroke="#dddddd" stroke-opacity="1" stroke-width="1" stroke-linecap="square" stroke-linejoin="bevel" transform="matrix(1.5625,0,0,1.5625,812.389,136.803)"
font-family="Arial" font-size="20.8333" font-weight="400" font-style="normal" 
>
</g>

<g fill="none" stroke="#dddddd" stroke-opacity="1" stroke-width="1" stroke-linecap="square" stroke-linejoin="bevel" transform="matrix(1.5625,0,0,1.5625,0,0)"
font-family="Arial" font-size="20.8333" font-weight="400" font-style="normal" 
>
</g>

<g fill="none" stroke="#dddddd" stroke-opacity="1" stroke-width="1" stroke-linecap="square" stroke-linejoin="bevel" transform="matrix(1.5625,0,0,1.5625,812.389,72.4461)"
font-family="Arial" font-size="20.8333" font-weight="400" font-style="normal" 
>
</g>

<g fill="none" stroke="#dddddd" stroke-opacity="1" stroke-width="1" stroke-linecap="square" stroke-linejoin="bevel" transform="matrix(1.5625,0,0,1.5625,812.389,72.4461)"
font-family="Arial" font-size="13" font-weight="400" font-style="normal" 
>
</g>

<g fill="none" stroke="#dddddd" stroke-opacity="1" stroke-width="1" stroke-linecap="square" stroke-linejoin="bevel" transform="matrix(1.5625,0,0,1.5625,812.389,72.4461)"
font-family="Arial" font-size="13" font-weight="400" font-style="normal" 
>
<text fill="#dddddd" fill-opacity="1" stroke="none" xml:space="preserve" x="0" y="11" font-family="Arial" font-size="13" font-weight="400" font-style="normal" 
 >0.45</text>
</g>

<g fill="none" stroke="#dddddd" stroke-opacity="1" stroke-width="1" stroke-linecap="square" stroke-linejoin="bevel" transform="matrix(1.5625,0,0,1.5625,812.389,72.4461)"
font-family="Arial" font-size="20.8333" font-weight="400" font-style="normal" 
>
</g>

<g fill="none" stroke="#dddddd" stroke-opacity="1" stroke-width="1" stroke-linecap="square" stroke-linejoin="bevel" transform="matrix(1.5625,0,0,1.5625,812.389,72.4461)"
font-family="Arial" font-size="20.8333" font-weight="400" font-style="normal" 
>
</g>

<g fill="none" stroke="#dddddd" stroke-opacity="1" stroke-width="1" stroke-linecap="square" stroke-linejoin="bevel" transform="matrix(1.5625,0,0,1.5625,0,0)"
font-family="Arial" font-size="20.8333" font-weight="400" font-style="normal" 
>
</g>

<g fill="none" stroke="#dddddd" stroke-opacity="1" stroke-width="1" stroke-linecap="square" stroke-linejoin="bevel" transform="matrix(1.5625,0,0,1.5625,0,0)"
font-family="Arial" font-size="20.8333" font-weight="400" font-style="normal" 
>
</g>

<g fill="none" stroke="#dddddd" stroke-opacity="1" stroke-width="1" stroke-linecap="butt" stroke-linejoin="bevel" transform="matrix(1.5625,0,0,1.5625,0,0)"
font-family="Arial" font-size="20.8333" font-weight="400" font-style="normal" 
>
<polyline fill="none" vector-effect="non-scaling-stroke" points="506.929,315.473 510.929,315.473 " />
<polyline fill="none" vector-effect="non-scaling-stroke" points="506.929,307.235 510.929,307.235 " />
<polyline fill="none" vector-effect="non-scaling-stroke" points="506.929,290.76 510.929,290.76 " />
<polyline fill="none" vector-effect="non-scaling-stroke" points="506.929,282.522 510.929,282.522 " />
<polyline fill="none" vector-effect="non-scaling-stroke" points="506.929,274.284 510.929,274.284 " />
<polyline fill="none" vector-effect="non-scaling-stroke" points="506.929,266.047 510.929,266.047 " />
<polyline fill="none" vector-effect="non-scaling-stroke" points="506.929,249.571 510.929,249.571 " />
<polyline fill="none" vector-effect="non-scaling-stroke" points="506.929,241.334 510.929,241.334 " />
<polyline fill="none" vector-effect="non-scaling-stroke" points="506.929,233.096 510.929,233.096 " />
<polyline fill="none" vector-effect="non-scaling-stroke" points="506.929,224.858 510.929,224.858 " />
<polyline fill="none" vector-effect="non-scaling-stroke" points="506.929,208.383 510.929,208.383 " />
<polyline fill="none" vector-effect="non-scaling-stroke" points="506.929,200.145 510.929,200.145 " />
<polyline fill="none" vector-effect="non-scaling-stroke" points="506.929,191.907 510.929,191.907 " />
<polyline fill="none" vector-effect="non-scaling-stroke" points="506.929,183.669 510.929,183.669 " />
<polyline fill="none" vector-effect="non-scaling-stroke" points="506.929,167.194 510.929,167.194 " />
<polyline fill="none" vector-effect="non-scaling-stroke" points="506.929,158.956 510.929,158.956 " />
<polyline fill="none" vector-effect="non-scaling-stroke" points="506.929,150.718 510.929,150.718 " />
<polyline fill="none" vector-effect="non-scaling-stroke" points="506.929,142.481 510.929,142.481 " />
<polyline fill="none" vector-effect="non-scaling-stroke" points="506.929,126.005 510.929,126.005 " />
<polyline fill="none" vector-effect="non-scaling-stroke" points="506.929,117.767 510.929,117.767 " />
<polyline fill="none" vector-effect="non-scaling-stroke" points="506.929,109.53 510.929,109.53 " />
<polyline fill="none" vector-effect="non-scaling-stroke" points="506.929,101.292 510.929,101.292 " />
<polyline fill="none" vector-effect="non-scaling-stroke" points="506.929,84.8165 510.929,84.8165 " />
<polyline fill="none" vector-effect="non-scaling-stroke" points="506.929,76.5788 510.929,76.5788 " />
<polyline fill="none" vector-effect="non-scaling-stroke" points="506.929,68.341 510.929,68.341 " />
<polyline fill="none" vector-effect="non-scaling-stroke" points="506.929,60.1033 510.929,60.1033 " />
<polyline fill="none" vector-effect="non-scaling-stroke" points="506.929,43.6278 510.929,43.6278 " />
<polyline fill="none" vector-effect="non-scaling-stroke" points="506.929,35.3901 510.929,35.3901 " />
<polyline fill="none" vector-effect="non-scaling-stroke" points="506.929,27.1523 510.929,27.1523 " />
<polyline fill="none" vector-effect="non-scaling-stroke" points="506.929,298.998 514.929,298.998 " />
<polyline fill="none" vector-effect="non-scaling-stroke" points="506.929,257.809 514.929,257.809 " />
<polyline fill="none" vector-effect="non-scaling-stroke" points="506.929,216.62 514.929,216.62 " />
<polyline fill="none" vector-effect="non-scaling-stroke" points="506.929,175.432 514.929,175.432 " />
<polyline fill="none" vector-effect="non-scaling-stroke" points="506.929,134.243 514.929,134.243 " />
<polyline fill="none" vector-effect="non-scaling-stroke" points="506.929,93.0542 514.929,93.0542 " />
<polyline fill="none" vector-effect="non-scaling-stroke" points="506.929,51.8655 514.929,51.8655 " />
</g>

<g fill="none" stroke="#dddddd" stroke-opacity="1" stroke-width="1" stroke-linecap="square" stroke-linejoin="bevel" transform="matrix(1.5625,0,0,1.5625,0,0)"
font-family="Arial" font-size="20.8333" font-weight="400" font-style="normal" 
>
</g>

<g fill="none" stroke="#dddddd" stroke-opacity="1" stroke-width="1" stroke-linecap="butt" stroke-linejoin="bevel" transform="matrix(1.5625,0,0,1.5625,0,0)"
font-family="Arial" font-size="20.8333" font-weight="400" font-style="normal" 
>
<polyline fill="none" vector-effect="non-scaling-stroke" points="506.929,27 506.929,322.953 " />
</g>

<g fill="none" stroke="#dddddd" stroke-opacity="1" stroke-width="1" stroke-linecap="square" stroke-linejoin="bevel" transform="matrix(1.5625,0,0,1.5625,0,0)"
font-family="Arial" font-size="20.8333" font-weight="400" font-style="normal" 
>
</g>

<g fill="none" stroke="#dddddd" stroke-opacity="1" stroke-width="1" stroke-linecap="square" stroke-linejoin="bevel" transform="matrix(1.5625,0,0,1.5625,0,0)"
font-family="Arial" font-size="20.8333" font-weight="400" font-style="normal" 
>
</g>

<g fill="none" stroke="#dddddd" stroke-opacity="1" stroke-width="1" stroke-linecap="square" stroke-linejoin="bevel" transform="matrix(1.5625,0,0,1.5625,0,0)"
font-family="Arial" font-size="20.8333" font-weight="400" font-style="normal" 
>
</g>

<g fill="none" stroke="#dddddd" stroke-opacity="1" stroke-width="1" stroke-linecap="square" stroke-linejoin="bevel" transform="matrix(1.5625,0,0,1.5625,106.25,559.301)"
font-family="Arial" font-size="20.8333" font-weight="400" font-style="normal" 
>
</g>

<g fill="none" stroke="#dddddd" stroke-opacity="1" stroke-width="1" stroke-linecap="square" stroke-linejoin="bevel" transform="matrix(1.5625,0,0,1.5625,106.25,559.301)"
font-family="MS Shell Dlg 2" font-size="25" font-weight="700" font-style="normal" 
>
</g>

<g fill="none" stroke="#dddddd" stroke-opacity="1" stroke-width="1" stroke-linecap="square" stroke-linejoin="bevel" transform="matrix(1.5625,0,0,1.5625,106.25,559.301)"
font-family="MS Shell Dlg 2" font-size="16" font-weight="700" font-style="normal" 
>
</g>

<g fill="none" stroke="#dddddd" stroke-opacity="1" stroke-width="1" stroke-linecap="square" stroke-linejoin="bevel" transform="matrix(1.5625,0,0,1.5625,106.25,559.301)"
font-family="MS Shell Dlg 2" font-size="16" font-weight="700" font-style="normal" 
>
<text fill="#dddddd" fill-opacity="1" stroke="none" xml:space="preserve" x="143.453" y="17" font-family="MS Shell Dlg 2" font-size="16" font-weight="700" font-style="normal" 
 >Piezo Voltage (V)</text>
</g>

<g fill="none" stroke="#dddddd" stroke-opacity="1" stroke-width="1" stroke-linecap="square" stroke-linejoin="bevel" transform="matrix(1.5625,0,0,1.5625,106.25,559.301)"
font-family="MS Shell Dlg 2" font-size="25" font-weight="700" font-style="normal" 
>
</g>

<g fill="none" stroke="#dddddd" stroke-opacity="1" stroke-width="1" stroke-linecap="square" stroke-linejoin="bevel" transform="matrix(1.5625,0,0,1.5625,106.25,559.301)"
font-family="Arial" font-size="20.8333" font-weight="400" font-style="normal" 
>
</g>

<g fill="none" stroke="#dddddd" stroke-opacity="1" stroke-width="1" stroke-linecap="square" stroke-linejoin="bevel" transform="matrix(1.5625,0,0,1.5625,0,0)"
font-family="Arial" font-size="20.8333" font-weight="400" font-style="normal" 
>
</g>

<g fill="none" stroke="#dddddd" stroke-opacity="1" stroke-width="1" stroke-linecap="square" stroke-linejoin="bevel" transform="matrix(1.5625,0,0,1.5625,0,0)"
font-family="Arial" font-size="20.8333" font-weight="400" font-style="normal" 
>
</g>

<g fill="none" stroke="#dddddd" stroke-opacity="1" stroke-width="1" stroke-linecap="square" stroke-linejoin="bevel" transform="matrix(1.5625,0,0,1.5625,0,0)"
font-family="Arial" font-size="20.8333" font-weight="400" font-style="normal" 
>
</g>

<g fill="none" stroke="#dddddd" stroke-opacity="1" stroke-width="1" stroke-linecap="square" stroke-linejoin="bevel" transform="matrix(1.5625,0,0,1.5625,0,0)"
font-family="Arial" font-size="20.8333" font-weight="400" font-style="normal" 
>
</g>

<g fill="none" stroke="#dddddd" stroke-opacity="1" stroke-width="1" stroke-linecap="square" stroke-linejoin="bevel" transform="matrix(1.5625,0,0,1.5625,123.21,538.989)"
font-family="Arial" font-size="20.8333" font-weight="400" font-style="normal" 
>
</g>

<g fill="none" stroke="#dddddd" stroke-opacity="1" stroke-width="1" stroke-linecap="square" stroke-linejoin="bevel" transform="matrix(1.5625,0,0,1.5625,123.21,538.989)"
font-family="Arial" font-size="13" font-weight="400" font-style="normal" 
>
</g>

<g fill="none" stroke="#dddddd" stroke-opacity="1" stroke-width="1" stroke-linecap="square" stroke-linejoin="bevel" transform="matrix(1.5625,0,0,1.5625,123.21,538.989)"
font-family="Arial" font-size="13" font-weight="400" font-style="normal" 
>
<text fill="#dddddd" fill-opacity="1" stroke="none" xml:space="preserve" x="0" y="11" font-family="Arial" font-size="13" font-weight="400" font-style="normal" 
 >50</text>
</g>

<g fill="none" stroke="#dddddd" stroke-opacity="1" stroke-width="1" stroke-linecap="square" stroke-linejoin="bevel" transform="matrix(1.5625,0,0,1.5625,123.21,538.989)"
font-family="Arial" font-size="20.8333" font-weight="400" font-style="normal" 
>
</g>

<g fill="none" stroke="#dddddd" stroke-opacity="1" stroke-width="1" stroke-linecap="square" stroke-linejoin="bevel" transform="matrix(1.5625,0,0,1.5625,123.21,538.989)"
font-family="Arial" font-size="20.8333" font-weight="400" font-style="normal" 
>
</g>

<g fill="none" stroke="#dddddd" stroke-opacity="1" stroke-width="1" stroke-linecap="square" stroke-linejoin="bevel" transform="matrix(1.5625,0,0,1.5625,0,0)"
font-family="Arial" font-size="20.8333" font-weight="400" font-style="normal" 
>
</g>

<g fill="none" stroke="#dddddd" stroke-opacity="1" stroke-width="1" stroke-linecap="square" stroke-linejoin="bevel" transform="matrix(1.5625,0,0,1.5625,226.23,538.989)"
font-family="Arial" font-size="20.8333" font-weight="400" font-style="normal" 
>
</g>

<g fill="none" stroke="#dddddd" stroke-opacity="1" stroke-width="1" stroke-linecap="square" stroke-linejoin="bevel" transform="matrix(1.5625,0,0,1.5625,226.23,538.989)"
font-family="Arial" font-size="13" font-weight="400" font-style="normal" 
>
</g>

<g fill="none" stroke="#dddddd" stroke-opacity="1" stroke-width="1" stroke-linecap="square" stroke-linejoin="bevel" transform="matrix(1.5625,0,0,1.5625,226.23,538.989)"
font-family="Arial" font-size="13" font-weight="400" font-style="normal" 
>
<text fill="#dddddd" fill-opacity="1" stroke="none" xml:space="preserve" x="0" y="11" font-family="Arial" font-size="13" font-weight="400" font-style="normal" 
 >55</text>
</g>

<g fill="none" stroke="#dddddd" stroke-opacity="1" stroke-width="1" stroke-linecap="square" stroke-linejoin="bevel" transform="matrix(1.5625,0,0,1.5625,226.23,538.989)"
font-family="Arial" font-size="20.8333" font-weight="400" font-style="normal" 
>
</g>

<g fill="none" stroke="#dddddd" stroke-opacity="1" stroke-width="1" stroke-linecap="square" stroke-linejoin="bevel" transform="matrix(1.5625,0,0,1.5625,226.23,538.989)"
font-family="Arial" font-size="20.8333" font-weight="400" font-style="normal" 
>
</g>

<g fill="none" stroke="#dddddd" stroke-opacity="1" stroke-width="1" stroke-linecap="square" stroke-linejoin="bevel" transform="matrix(1.5625,0,0,1.5625,0,0)"
font-family="Arial" font-size="20.8333" font-weight="400" font-style="normal" 
>
</g>

<g fill="none" stroke="#dddddd" stroke-opacity="1" stroke-width="1" stroke-linecap="square" stroke-linejoin="bevel" transform="matrix(1.5625,0,0,1.5625,329.249,538.989)"
font-family="Arial" font-size="20.8333" font-weight="400" font-style="normal" 
>
</g>

<g fill="none" stroke="#dddddd" stroke-opacity="1" stroke-width="1" stroke-linecap="square" stroke-linejoin="bevel" transform="matrix(1.5625,0,0,1.5625,329.249,538.989)"
font-family="Arial" font-size="13" font-weight="400" font-style="normal" 
>
</g>

<g fill="none" stroke="#dddddd" stroke-opacity="1" stroke-width="1" stroke-linecap="square" stroke-linejoin="bevel" transform="matrix(1.5625,0,0,1.5625,329.249,538.989)"
font-family="Arial" font-size="13" font-weight="400" font-style="normal" 
>
<text fill="#dddddd" fill-opacity="1" stroke="none" xml:space="preserve" x="0" y="11" font-family="Arial" font-size="13" font-weight="400" font-style="normal" 
 >60</text>
</g>

<g fill="none" stroke="#dddddd" stroke-opacity="1" stroke-width="1" stroke-linecap="square" stroke-linejoin="bevel" transform="matrix(1.5625,0,0,1.5625,329.249,538.989)"
font-family="Arial" font-size="20.8333" font-weight="400" font-style="normal" 
>
</g>

<g fill="none" stroke="#dddddd" stroke-opacity="1" stroke-width="1" stroke-linecap="square" stroke-linejoin="bevel" transform="matrix(1.5625,0,0,1.5625,329.249,538.989)"
font-family="Arial" font-size="20.8333" font-weight="400" font-style="normal" 
>
</g>

<g fill="none" stroke="#dddddd" stroke-opacity="1" stroke-width="1" stroke-linecap="square" stroke-linejoin="bevel" transform="matrix(1.5625,0,0,1.5625,0,0)"
font-family="Arial" font-size="20.8333" font-weight="400" font-style="normal" 
>
</g>

<g fill="none" stroke="#dddddd" stroke-opacity="1" stroke-width="1" stroke-linecap="square" stroke-linejoin="bevel" transform="matrix(1.5625,0,0,1.5625,432.269,538.989)"
font-family="Arial" font-size="20.8333" font-weight="400" font-style="normal" 
>
</g>

<g fill="none" stroke="#dddddd" stroke-opacity="1" stroke-width="1" stroke-linecap="square" stroke-linejoin="bevel" transform="matrix(1.5625,0,0,1.5625,432.269,538.989)"
font-family="Arial" font-size="13" font-weight="400" font-style="normal" 
>
</g>

<g fill="none" stroke="#dddddd" stroke-opacity="1" stroke-width="1" stroke-linecap="square" stroke-linejoin="bevel" transform="matrix(1.5625,0,0,1.5625,432.269,538.989)"
font-family="Arial" font-size="13" font-weight="400" font-style="normal" 
>
<text fill="#dddddd" fill-opacity="1" stroke="none" xml:space="preserve" x="0" y="11" font-family="Arial" font-size="13" font-weight="400" font-style="normal" 
 >65</text>
</g>

<g fill="none" stroke="#dddddd" stroke-opacity="1" stroke-width="1" stroke-linecap="square" stroke-linejoin="bevel" transform="matrix(1.5625,0,0,1.5625,432.269,538.989)"
font-family="Arial" font-size="20.8333" font-weight="400" font-style="normal" 
>
</g>

<g fill="none" stroke="#dddddd" stroke-opacity="1" stroke-width="1" stroke-linecap="square" stroke-linejoin="bevel" transform="matrix(1.5625,0,0,1.5625,432.269,538.989)"
font-family="Arial" font-size="20.8333" font-weight="400" font-style="normal" 
>
</g>

<g fill="none" stroke="#dddddd" stroke-opacity="1" stroke-width="1" stroke-linecap="square" stroke-linejoin="bevel" transform="matrix(1.5625,0,0,1.5625,0,0)"
font-family="Arial" font-size="20.8333" font-weight="400" font-style="normal" 
>
</g>

<g fill="none" stroke="#dddddd" stroke-opacity="1" stroke-width="1" stroke-linecap="square" stroke-linejoin="bevel" transform="matrix(1.5625,0,0,1.5625,535.288,538.989)"
font-family="Arial" font-size="20.8333" font-weight="400" font-style="normal" 
>
</g>

<g fill="none" stroke="#dddddd" stroke-opacity="1" stroke-width="1" stroke-linecap="square" stroke-linejoin="bevel" transform="matrix(1.5625,0,0,1.5625,535.288,538.989)"
font-family="Arial" font-size="13" font-weight="400" font-style="normal" 
>
</g>

<g fill="none" stroke="#dddddd" stroke-opacity="1" stroke-width="1" stroke-linecap="square" stroke-linejoin="bevel" transform="matrix(1.5625,0,0,1.5625,535.288,538.989)"
font-family="Arial" font-size="13" font-weight="400" font-style="normal" 
>
<text fill="#dddddd" fill-opacity="1" stroke="none" xml:space="preserve" x="0" y="11" font-family="Arial" font-size="13" font-weight="400" font-style="normal" 
 >70</text>
</g>

<g fill="none" stroke="#dddddd" stroke-opacity="1" stroke-width="1" stroke-linecap="square" stroke-linejoin="bevel" transform="matrix(1.5625,0,0,1.5625,535.288,538.989)"
font-family="Arial" font-size="20.8333" font-weight="400" font-style="normal" 
>
</g>

<g fill="none" stroke="#dddddd" stroke-opacity="1" stroke-width="1" stroke-linecap="square" stroke-linejoin="bevel" transform="matrix(1.5625,0,0,1.5625,535.288,538.989)"
font-family="Arial" font-size="20.8333" font-weight="400" font-style="normal" 
>
</g>

<g fill="none" stroke="#dddddd" stroke-opacity="1" stroke-width="1" stroke-linecap="square" stroke-linejoin="bevel" transform="matrix(1.5625,0,0,1.5625,0,0)"
font-family="Arial" font-size="20.8333" font-weight="400" font-style="normal" 
>
</g>

<g fill="none" stroke="#dddddd" stroke-opacity="1" stroke-width="1" stroke-linecap="square" stroke-linejoin="bevel" transform="matrix(1.5625,0,0,1.5625,638.307,538.989)"
font-family="Arial" font-size="20.8333" font-weight="400" font-style="normal" 
>
</g>

<g fill="none" stroke="#dddddd" stroke-opacity="1" stroke-width="1" stroke-linecap="square" stroke-linejoin="bevel" transform="matrix(1.5625,0,0,1.5625,638.307,538.989)"
font-family="Arial" font-size="13" font-weight="400" font-style="normal" 
>
</g>

<g fill="none" stroke="#dddddd" stroke-opacity="1" stroke-width="1" stroke-linecap="square" stroke-linejoin="bevel" transform="matrix(1.5625,0,0,1.5625,638.307,538.989)"
font-family="Arial" font-size="13" font-weight="400" font-style="normal" 
>
<text fill="#dddddd" fill-opacity="1" stroke="none" xml:space="preserve" x="0" y="11" font-family="Arial" font-size="13" font-weight="400" font-style="normal" 
 >75</text>
</g>

<g fill="none" stroke="#dddddd" stroke-opacity="1" stroke-width="1" stroke-linecap="square" stroke-linejoin="bevel" transform="matrix(1.5625,0,0,1.5625,638.307,538.989)"
font-family="Arial" font-size="20.8333" font-weight="400" font-style="normal" 
>
</g>

<g fill="none" stroke="#dddddd" stroke-opacity="1" stroke-width="1" stroke-linecap="square" stroke-linejoin="bevel" transform="matrix(1.5625,0,0,1.5625,638.307,538.989)"
font-family="Arial" font-size="20.8333" font-weight="400" font-style="normal" 
>
</g>

<g fill="none" stroke="#dddddd" stroke-opacity="1" stroke-width="1" stroke-linecap="square" stroke-linejoin="bevel" transform="matrix(1.5625,0,0,1.5625,0,0)"
font-family="Arial" font-size="20.8333" font-weight="400" font-style="normal" 
>
</g>

<g fill="none" stroke="#dddddd" stroke-opacity="1" stroke-width="1" stroke-linecap="square" stroke-linejoin="bevel" transform="matrix(1.5625,0,0,1.5625,741.327,538.989)"
font-family="Arial" font-size="20.8333" font-weight="400" font-style="normal" 
>
</g>

<g fill="none" stroke="#dddddd" stroke-opacity="1" stroke-width="1" stroke-linecap="square" stroke-linejoin="bevel" transform="matrix(1.5625,0,0,1.5625,741.327,538.989)"
font-family="Arial" font-size="13" font-weight="400" font-style="normal" 
>
</g>

<g fill="none" stroke="#dddddd" stroke-opacity="1" stroke-width="1" stroke-linecap="square" stroke-linejoin="bevel" transform="matrix(1.5625,0,0,1.5625,741.327,538.989)"
font-family="Arial" font-size="13" font-weight="400" font-style="normal" 
>
<text fill="#dddddd" fill-opacity="1" stroke="none" xml:space="preserve" x="0" y="11" font-family="Arial" font-size="13" font-weight="400" font-style="normal" 
 >80</text>
</g>

<g fill="none" stroke="#dddddd" stroke-opacity="1" stroke-width="1" stroke-linecap="square" stroke-linejoin="bevel" transform="matrix(1.5625,0,0,1.5625,741.327,538.989)"
font-family="Arial" font-size="20.8333" font-weight="400" font-style="normal" 
>
</g>

<g fill="none" stroke="#dddddd" stroke-opacity="1" stroke-width="1" stroke-linecap="square" stroke-linejoin="bevel" transform="matrix(1.5625,0,0,1.5625,741.327,538.989)"
font-family="Arial" font-size="20.8333" font-weight="400" font-style="normal" 
>
</g>

<g fill="none" stroke="#dddddd" stroke-opacity="1" stroke-width="1" stroke-linecap="square" stroke-linejoin="bevel" transform="matrix(1.5625,0,0,1.5625,0,0)"
font-family="Arial" font-size="20.8333" font-weight="400" font-style="normal" 
>
</g>

<g fill="none" stroke="#dddddd" stroke-opacity="1" stroke-width="1" stroke-linecap="square" stroke-linejoin="bevel" transform="matrix(1.5625,0,0,1.5625,0,0)"
font-family="Arial" font-size="20.8333" font-weight="400" font-style="normal" 
>
</g>

<g fill="none" stroke="#dddddd" stroke-opacity="1" stroke-width="1" stroke-linecap="butt" stroke-linejoin="bevel" transform="matrix(1.5625,0,0,1.5625,0,0)"
font-family="Arial" font-size="20.8333" font-weight="400" font-style="normal" 
>
<polyline fill="none" vector-effect="non-scaling-stroke" points="72.6682,331.953 72.6682,335.953 " />
<polyline fill="none" vector-effect="non-scaling-stroke" points="99.0412,331.953 99.0412,335.953 " />
<polyline fill="none" vector-effect="non-scaling-stroke" points="112.228,331.953 112.228,335.953 " />
<polyline fill="none" vector-effect="non-scaling-stroke" points="125.414,331.953 125.414,335.953 " />
<polyline fill="none" vector-effect="non-scaling-stroke" points="138.601,331.953 138.601,335.953 " />
<polyline fill="none" vector-effect="non-scaling-stroke" points="164.974,331.953 164.974,335.953 " />
<polyline fill="none" vector-effect="non-scaling-stroke" points="178.16,331.953 178.16,335.953 " />
<polyline fill="none" vector-effect="non-scaling-stroke" points="191.347,331.953 191.347,335.953 " />
<polyline fill="none" vector-effect="non-scaling-stroke" points="204.533,331.953 204.533,335.953 " />
<polyline fill="none" vector-effect="non-scaling-stroke" points="230.906,331.953 230.906,335.953 " />
<polyline fill="none" vector-effect="non-scaling-stroke" points="244.092,331.953 244.092,335.953 " />
<polyline fill="none" vector-effect="non-scaling-stroke" points="257.279,331.953 257.279,335.953 " />
<polyline fill="none" vector-effect="non-scaling-stroke" points="270.465,331.953 270.465,335.953 " />
<polyline fill="none" vector-effect="non-scaling-stroke" points="296.838,331.953 296.838,335.953 " />
<polyline fill="none" vector-effect="non-scaling-stroke" points="310.025,331.953 310.025,335.953 " />
<polyline fill="none" vector-effect="non-scaling-stroke" points="323.211,331.953 323.211,335.953 " />
<polyline fill="none" vector-effect="non-scaling-stroke" points="336.398,331.953 336.398,335.953 " />
<polyline fill="none" vector-effect="non-scaling-stroke" points="362.771,331.953 362.771,335.953 " />
<polyline fill="none" vector-effect="non-scaling-stroke" points="375.957,331.953 375.957,335.953 " />
<polyline fill="none" vector-effect="non-scaling-stroke" points="389.144,331.953 389.144,335.953 " />
<polyline fill="none" vector-effect="non-scaling-stroke" points="402.33,331.953 402.33,335.953 " />
<polyline fill="none" vector-effect="non-scaling-stroke" points="428.703,331.953 428.703,335.953 " />
<polyline fill="none" vector-effect="non-scaling-stroke" points="441.89,331.953 441.89,335.953 " />
<polyline fill="none" vector-effect="non-scaling-stroke" points="455.076,331.953 455.076,335.953 " />
<polyline fill="none" vector-effect="non-scaling-stroke" points="468.263,331.953 468.263,335.953 " />
<polyline fill="none" vector-effect="non-scaling-stroke" points="494.636,331.953 494.636,335.953 " />
<polyline fill="none" vector-effect="non-scaling-stroke" points="85.8547,331.953 85.8547,339.953 " />
<polyline fill="none" vector-effect="non-scaling-stroke" points="151.787,331.953 151.787,339.953 " />
<polyline fill="none" vector-effect="non-scaling-stroke" points="217.719,331.953 217.719,339.953 " />
<polyline fill="none" vector-effect="non-scaling-stroke" points="283.652,331.953 283.652,339.953 " />
<polyline fill="none" vector-effect="non-scaling-stroke" points="349.584,331.953 349.584,339.953 " />
<polyline fill="none" vector-effect="non-scaling-stroke" points="415.517,331.953 415.517,339.953 " />
<polyline fill="none" vector-effect="non-scaling-stroke" points="481.449,331.953 481.449,339.953 " />
</g>

<g fill="none" stroke="#dddddd" stroke-opacity="1" stroke-width="1" stroke-linecap="square" stroke-linejoin="bevel" transform="matrix(1.5625,0,0,1.5625,0,0)"
font-family="Arial" font-size="20.8333" font-weight="400" font-style="normal" 
>
</g>

<g fill="none" stroke="#dddddd" stroke-opacity="1" stroke-width="1" stroke-linecap="butt" stroke-linejoin="bevel" transform="matrix(1.5625,0,0,1.5625,0,0)"
font-family="Arial" font-size="20.8333" font-weight="400" font-style="normal" 
>
<polyline fill="none" vector-effect="non-scaling-stroke" points="68,331.953 497.929,331.953 " />
</g>

<g fill="none" stroke="#dddddd" stroke-opacity="1" stroke-width="1" stroke-linecap="square" stroke-linejoin="bevel" transform="matrix(1.5625,0,0,1.5625,0,0)"
font-family="Arial" font-size="20.8333" font-weight="400" font-style="normal" 
>
</g>

<g fill="none" stroke="#dddddd" stroke-opacity="1" stroke-width="1" stroke-linecap="square" stroke-linejoin="bevel" transform="matrix(1.5625,0,0,1.5625,0,0)"
font-family="Arial" font-size="20.8333" font-weight="400" font-style="normal" 
>
</g>

<g fill="none" stroke="#dddddd" stroke-opacity="1" stroke-width="1" stroke-linecap="square" stroke-linejoin="bevel" transform="matrix(1.5625,0,0,1.5625,0,0)"
font-family="Arial" font-size="20.8333" font-weight="400" font-style="normal" 
>
</g>

<g fill="none" stroke="#000000" stroke-opacity="1" stroke-width="1" stroke-linecap="square" stroke-linejoin="bevel" transform="matrix(1,0,0,1,0,0)"
font-family="MS Shell Dlg 2" font-size="17.1875" font-weight="400" font-style="normal" 
>
</g>
</g>
</svg>
