<?xml version="1.0" encoding="UTF-8" standalone="no"?>
<svg viewBox="0 0 885.827 590.551"
 xmlns="http://www.w3.org/2000/svg" xmlns:xlink="http://www.w3.org/1999/xlink"  version="1.2" baseProfile="tiny">
<title>Signal Display</title>
<desc>Generated with Qt</desc>
<defs>
</defs>
<g fill="none" stroke="black" stroke-width="1" fill-rule="evenodd" stroke-linecap="square" stroke-linejoin="bevel" >

<g fill="#808080" fill-opacity="1" stroke="none" transform="matrix(1,0,0,1,0,0)"
font-family="MS Shell Dlg 2" font-size="17.1875" font-weight="400" font-style="normal" 
>
<rect x="0" y="0" width="885.827" height="590.551"/>
</g>

<g fill="none" stroke="#000000" stroke-opacity="1" stroke-width="1" stroke-linecap="square" stroke-linejoin="bevel" transform="matrix(1,0,0,1,0,0)"
font-family="MS Shell Dlg 2" font-size="17.1875" font-weight="400" font-style="normal" 
>
</g>

<g fill="none" stroke="#000000" stroke-opacity="1" stroke-width="1" stroke-linecap="square" stroke-linejoin="bevel" transform="matrix(1.5625,0,0,1.5625,0,0)"
font-family="MS Shell Dlg 2" font-size="17.1875" font-weight="400" font-style="normal" 
>
</g>

<g fill="none" stroke="#000000" stroke-opacity="1" stroke-width="1" stroke-linecap="square" stroke-linejoin="bevel" transform="matrix(1.5625,0,0,1.5625,0,0)"
font-family="MS Shell Dlg 2" font-size="17.1875" font-weight="400" font-style="normal" 
>
</g>

<g fill="#000000" fill-opacity="1" stroke="none" transform="matrix(1.5625,0,0,1.5625,0,0)"
font-family="MS Shell Dlg 2" font-size="17.1875" font-weight="400" font-style="normal" 
>
<rect x="64" y="23" width="445.929" height="304.953"/>
</g>

<g fill="none" stroke="#000000" stroke-opacity="1" stroke-width="1" stroke-linecap="square" stroke-linejoin="bevel" transform="matrix(1.5625,0,0,1.5625,0,0)"
font-family="MS Shell Dlg 2" font-size="17.1875" font-weight="400" font-style="normal" 
>
</g>

<g fill="none" stroke="#555555" stroke-opacity="1" stroke-dasharray="0.5,1" stroke-dashoffset="0" stroke-width="0.5" stroke-linecap="butt" stroke-linejoin="bevel" transform="matrix(1.5625,0,0,1.5625,0,0)"
font-family="MS Shell Dlg 2" font-size="17.1875" font-weight="400" font-style="normal" 
>
<polyline fill="none" vector-effect="none" points="64,300.482 508.929,300.482 " />
<polyline fill="none" vector-effect="none" points="64,277.195 508.929,277.195 " />
<polyline fill="none" vector-effect="none" points="64,253.907 508.929,253.907 " />
<polyline fill="none" vector-effect="none" points="64,230.62 508.929,230.62 " />
<polyline fill="none" vector-effect="none" points="64,207.333 508.929,207.333 " />
<polyline fill="none" vector-effect="none" points="64,184.046 508.929,184.046 " />
<polyline fill="none" vector-effect="none" points="64,160.758 508.929,160.758 " />
<polyline fill="none" vector-effect="none" points="64,137.471 508.929,137.471 " />
<polyline fill="none" vector-effect="none" points="64,114.184 508.929,114.184 " />
<polyline fill="none" vector-effect="none" points="64,90.8965 508.929,90.8965 " />
<polyline fill="none" vector-effect="none" points="64,67.6093 508.929,67.6093 " />
<polyline fill="none" vector-effect="none" points="64,44.322 508.929,44.322 " />
<polyline fill="none" vector-effect="none" points="64,312.125 508.929,312.125 " />
<polyline fill="none" vector-effect="none" points="64,265.551 508.929,265.551 " />
<polyline fill="none" vector-effect="none" points="64,218.976 508.929,218.976 " />
<polyline fill="none" vector-effect="none" points="64,172.402 508.929,172.402 " />
<polyline fill="none" vector-effect="none" points="64,125.827 508.929,125.827 " />
<polyline fill="none" vector-effect="none" points="64,79.2529 508.929,79.2529 " />
<polyline fill="none" vector-effect="none" points="64,32.6784 508.929,32.6784 " />
</g>

<g fill="none" stroke="#868686" stroke-opacity="1" stroke-width="0.5" stroke-linecap="butt" stroke-linejoin="bevel" transform="matrix(1.5625,0,0,1.5625,0,0)"
font-family="MS Shell Dlg 2" font-size="17.1875" font-weight="400" font-style="normal" 
>
<polyline fill="none" vector-effect="none" points="72.0167,23 72.0167,326.953 " />
<polyline fill="none" vector-effect="none" points="155.749,23 155.749,326.953 " />
<polyline fill="none" vector-effect="none" points="239.481,23 239.481,326.953 " />
<polyline fill="none" vector-effect="none" points="323.213,23 323.213,326.953 " />
<polyline fill="none" vector-effect="none" points="406.945,23 406.945,326.953 " />
<polyline fill="none" vector-effect="none" points="490.678,23 490.678,326.953 " />
<polyline fill="none" vector-effect="none" points="64,288.838 508.929,288.838 " />
<polyline fill="none" vector-effect="none" points="64,242.264 508.929,242.264 " />
<polyline fill="none" vector-effect="none" points="64,195.689 508.929,195.689 " />
<polyline fill="none" vector-effect="none" points="64,149.115 508.929,149.115 " />
<polyline fill="none" vector-effect="none" points="64,102.54 508.929,102.54 " />
<polyline fill="none" vector-effect="none" points="64,55.9656 508.929,55.9656 " />
</g>

<g fill="none" stroke="#000000" stroke-opacity="1" stroke-width="1" stroke-linecap="square" stroke-linejoin="bevel" transform="matrix(1.5625,0,0,1.5625,0,0)"
font-family="MS Shell Dlg 2" font-size="17.1875" font-weight="400" font-style="normal" 
>
</g>

<g fill="none" stroke="#000000" stroke-opacity="1" stroke-width="1" stroke-linecap="square" stroke-linejoin="bevel" transform="matrix(1.5625,0,0,1.5625,0,0)"
font-family="MS Shell Dlg 2" font-size="17.1875" font-weight="400" font-style="normal" 
>
</g>

<g fill="none" stroke="#b4003c" stroke-opacity="1" stroke-width="1" stroke-linecap="square" stroke-linejoin="bevel" transform="matrix(1.5625,0,0,1.5625,0,0)"
font-family="MS Shell Dlg 2" font-size="17.1875" font-weight="400" font-style="normal" 
>
<polyline fill="none" vector-effect="none" points="68.4348,28.9806 68.8644,31.6113 69.2939,31.8904 69.7232,29.4483 70.1526,27.613 70.5822,27 71.0113,28.329 71.441,30.5033 71.8706,32.0158 72.2997,30.6435 72.7293,28.672 73.1588,28.0328 73.588,30.8628 74.0175,33.0832 74.4466,31.4062 74.8762,28.439 75.3059,28.4543 75.7349,32.3826 76.1646,34.2477 76.5942,31.7748 77.0235,28.7021 77.4529,29.6392 77.8827,33.5652 78.3118,34.304 78.7415,31.7754 79.1711,29.4791 79.6002,31.1453 80.0298,33.7748 80.4589,33.7093 80.8885,31.8591 81.3182,31.9252 81.7473,33.3299 82.1767,33.1767 82.606,31.617 83.0352,32.2669 83.4648,35.7134 83.8944,35.0098 84.3235,31.6637 84.7531,29.7941 85.1827,33.2536 85.6119,36.8475 86.0415,35.7674 86.4706,32.4555 86.9001,32.1183 87.3297,34.5524 87.7588,35.24 88.1884,33.3971 88.618,33.1311 89.0472,35.8136 89.4768,36.091 89.9064,34.1952 90.3355,32.0437 90.765,34.3878 91.1943,36.3303 91.6237,34.5473 92.0533,32.8639 92.4825,34.7415 92.9124,36.6197 93.342,35.3824 93.7711,32.3188 94.2007,33.0422 94.6303,36.1383 95.0595,36.3639 95.4889,33.858 95.9185,33.3419 96.3477,35.4217 96.7773,35.0109 97.2064,32.5814 97.6359,32.5689 98.0653,36.1149 98.4945,37.6336 98.9241,34.1257 99.3535,31.5492 99.7828,32.7437 100.212,35.0303 100.642,34.0751 101.071,33.899 101.501,34.7124 101.93,35.1015 102.359,32.4322 102.789,30.9801 103.218,33.907 103.648,37.1705 104.077,34.8475 104.506,31.813 104.936,31.985 105.365,35.2702 105.795,34.9756 106.224,32.9608 106.654,33.5914 107.083,35.6017 107.513,34.1941 107.942,32.2208 108.372,32.9818 108.801,36.0175 109.23,35.4177 109.66,32.6247 110.089,32.6469 110.519,35.1551 110.948,34.8845 111.378,32.852 111.807,33.4256 112.236,35.8626 112.666,34.7916 113.095,32.1245 113.524,32.2424 113.954,36.3576 114.383,36.4841 114.813,32.8742 115.242,31.7702 115.672,34.7763 116.101,36.9341 116.53,34.5518 116.96,32.2767 117.389,33.8267 117.819,35.756 118.248,35.2479 118.678,33.3447 119.107,34.1685 119.536,35.6416 119.966,35.1551 120.395,34.4362 120.825,34.7535 121.254,35.6347 121.684,35.1317 122.113,35.0269 122.542,35.8597 122.972,36.1087 123.402,35.1636 123.831,34.4533 124.26,36.6744 124.69,36.9819 125.119,34.8719 125.549,34.226 125.978,36.9415 126.407,37.9458 126.837,35.1881 127.266,34.169 127.696,37.7897 128.125,38.6333 128.554,35.8581 128.984,34.3331 129.413,37.9982 129.842,39.3898 130.272,36.3832 130.702,34.3262 131.131,38.3474 131.56,40.1441 131.989,36.7108 132.419,35.1545 132.849,38.3816 133.278,40.8453 133.707,37.1842 134.137,35.9936 134.566,39.5596 134.996,41.7225 135.425,38.1594 135.854,37.2622 136.284,41.1603 136.713,42.4374 137.143,39.4024 137.572,38.8731 138.002,42.622 138.431,43.2822 138.861,40.577 139.29,40.7205 139.719,44.1908 140.149,44.5463 140.578,43.117 141.008,43.6172 141.437,46.5127 141.867,46.7269 142.296,46.3082 142.725,47.1843 143.155,49.4692 143.584,49.2271 144.013,50.1978 144.443,52.1568 144.872,53.8817 145.301,53.7546 145.731,54.6114 146.161,58.5305 146.59,60.0173 147.02,59.5343 147.449,61.0592 147.878,65.8266 148.308,68.7255 148.737,68.0146 149.166,69.3123 149.596,74.856 150.025,79.6781 150.455,79.2612 150.884,80.5667 151.313,85.8907 151.743,91.7142 152.173,93.3343 152.602,94.8102 153.031,100.325 153.461,105.906 153.89,108.643 154.32,111.634 154.749,116.39 155.179,120.626 155.608,123.634 156.037,127.168 156.467,132.253 156.897,134.888 157.326,136.774 157.755,141.117 158.185,146.39 158.614,149.607 159.043,151.505 159.473,155.069 159.902,159.318 160.332,162.037 160.761,165.813 161.19,173.049 161.62,179.736 162.049,181.795 162.479,182.389 162.908,184.49 163.337,188.002 163.767,189.605 164.197,190.063 164.626,190.607 165.055,189.655 165.485,186.511 165.914,185.996 166.344,186.664 166.773,185.506 167.202,180.912 167.632,176.405 168.061,173.563 168.491,169.645 168.921,165.603 169.35,162.484 169.779,159.221 170.209,152.631 170.638,145.822 171.068,141.257 171.497,137.709 171.926,132.656 172.356,127.126 172.785,123.068 173.214,118.198 173.644,111.509 174.073,105.93 174.503,103.04 174.932,98.7687 175.361,93.1799 175.791,88.9155 176.22,86.7149 176.65,83.0316 177.079,78.6363 177.508,75.3944 177.938,73.4793 178.368,70.6498 178.797,68.4356 179.226,68.1342 179.656,68.157 180.085,64.9653 180.514,62.5625 180.944,63.4272 181.373,65.4648 181.803,65.8203 182.232,66.4435 182.662,66.9158 183.091,67.3726 183.521,68.3826 183.95,71.9993 184.38,77.277 184.809,80.724 185.238,81.3558 185.668,84.9246 186.097,90.972 186.527,96.0566 186.956,102.013 187.385,108.722 187.815,114.554 188.244,119.422 188.673,126.031 189.103,136.176 189.532,145.092 189.962,151.919 190.391,159.032 190.82,169.085 191.25,179.222 191.679,187.374 192.109,196.496 192.538,206.598 192.968,215.255 193.397,223.716 193.827,233.08 194.256,242.493 194.685,250.529 195.115,257.72 195.544,265.339 195.974,271.928 196.403,278.495 196.832,284.495 197.262,288.773 197.691,289.561 198.121,290.98 198.55,294.891 198.98,299.075 199.409,300.543 199.839,303.465 200.268,310.36 200.698,317.268 201.127,318.87 201.556,318.506 201.986,320.647 202.415,322.953 202.845,320.713 203.274,317.063 203.703,314.094 204.133,312.155 204.562,307.13 204.992,300.66 205.421,295.05 205.85,289.075 206.28,281.612 206.709,273.742 207.139,265.848 207.568,257.254 207.998,248.118 208.427,239.198 208.856,230.006 209.286,219.642 209.715,209.686 210.145,201.334 210.574,191.418 211.004,180.434 211.433,170.957 211.862,163.541 212.292,154.41 212.721,143.367 213.151,135.519 213.58,129.863 214.01,121.908 214.439,111.828 214.868,106.155 215.298,102.428 215.728,95.2967 216.157,87.7728 216.586,83.3136 217.016,81.4002 217.445,76.1395 217.875,70.717 218.304,68.4527 218.733,66.4845 219.163,62.9721 219.592,59.6567 220.021,58.2548 220.451,56.5977 220.88,54.9942 221.31,53.2647 221.739,52.0542 222.168,50.6336 222.598,50.2108 223.027,49.91 223.457,48.4985 223.886,47.5437 224.315,47.6594 224.745,48.0411 225.175,46.7907 225.604,46.0086 226.033,46.3634 226.463,46.8192 226.892,46.1066 227.321,45.1786 227.751,45.2054 228.18,45.9168 228.61,46.2575 229.039,45.6787 229.469,44.3896 229.899,44.8829 230.328,46.589 230.757,46.973 231.187,44.6106 231.616,43.4298 232.045,45.4668 232.475,47.468 232.904,45.906 233.334,43.7465 233.763,43.9374 234.192,46.3908 234.622,46.683 235.051,45.6263 235.481,44.7656 235.91,44.8095 236.339,45.9887 236.769,46.4786 237.198,46.1014 237.628,45.3512 238.057,45.3164 238.487,46.5993 238.916,46.1971 239.345,46.012 239.775,46.1242 240.204,46.5121 240.634,46.3657 241.063,45.5421 241.492,46.0707 241.922,47.0692 242.351,47.1165 242.781,46.7526 243.21,46.4728 243.64,46.0245 244.069,46.3914 244.499,47.5842 244.928,48.5025 245.358,47.5637 245.787,46.3452 246.216,46.0308 246.646,46.3697 247.075,47.4714 247.505,48.8705 247.934,49.1849 248.364,48.0844 248.793,46.5013 249.222,46.6693 249.652,47.8673 250.081,48.8499 250.511,49.7637 250.94,49.5296 251.369,48.0057 251.798,47.0932 252.228,47.877 252.658,49.0232 253.087,50.2405 253.516,49.7159 253.946,49.0944 254.375,48.3965 254.805,48.2427 255.234,48.8107 255.663,50.2285 256.093,50.1915 256.523,49.9277 256.952,50.0012 257.381,49.8896 257.81,49.636 258.24,49.656 258.669,50.2575 259.099,50.1049 259.529,50.6347 259.958,51.1815 260.387,51.0961 260.817,50.617 261.246,49.7642 261.676,50.4285 262.105,51.128 262.535,51.7398 262.964,52.024 263.393,51.93 263.823,50.9012 264.252,50.4097 264.681,51.5154 265.111,52.7515 265.54,53.0306 265.97,52.6273 266.399,51.5729 266.828,51.2995 267.258,52.1539 267.687,54.285 268.117,54.7965 268.546,52.4143 268.976,51.4185 269.405,53.0802 269.834,54.4308 270.264,55.4106 270.693,54.6364 271.123,53.8931 271.552,53.9392 271.982,55.7165 272.411,57.5548 272.84,57.2318 273.27,56.5715 273.699,57.4465 274.129,59.3269 274.559,60.0338 274.988,60.7265 275.417,62.6252 275.847,63.5805 276.276,64.3518 276.706,65.7719 277.135,68.7802 277.564,70.3166 277.994,71.3658 278.423,73.4963 278.852,76.299 279.282,79.3694 279.711,81.7192 280.141,84.5509 280.57,86.9218 280.999,90.4991 281.429,94.8734 281.858,97.4078 282.288,99.5787 282.717,103.794 283.146,109.947 283.576,112.35 284.006,113.859 284.435,118.839 284.864,124.851 285.294,127.56 285.723,128.222 286.153,132.507 286.582,137.662 287.011,139.919 287.441,140.282 287.87,143.287 288.3,146.409 288.729,147.062 289.159,147.269 289.588,147.509 290.018,147.915 290.447,147.492 290.876,147.582 291.306,146.816 291.735,146.188 292.165,147.175 292.594,148.605 293.024,148.059 293.453,147.098 293.882,147.821 294.311,147.431 294.741,144.527 295.17,142.098 295.6,141.441 296.03,139.623 296.459,135.132 296.888,132.094 297.318,130.233 297.747,127.38 298.176,122.922 298.606,119.185 299.035,116.433 299.465,113.732 299.894,109.525 300.323,104.896 300.753,102.313 301.182,100.623 301.612,96.8576 302.041,92.2884 302.47,89.5541 302.9,89.455 303.33,86 303.759,81.5363 304.188,79.9026 304.618,79.8257 305.047,77.1147 305.477,73.9384 305.906,73.1181 306.336,72.4584 306.765,70.3769 307.194,69.1026 307.624,68.8337 308.054,67.0639 308.483,65.2757 308.912,66.0134 309.341,66.2487 309.771,64.0635 310.2,62.5637 310.63,63.8722 311.059,64.362 311.489,62.4423 311.918,61.5713 312.347,62.1171 312.777,62.1723 313.206,63.0359 313.636,62.419 314.065,60.8952 314.494,60.7226 314.924,62.7539 315.353,64.4942 315.783,60.8473 316.212,59.3856 316.641,61.7605 317.071,62.9881 317.501,62.5084 317.93,61.6118 318.359,61.5964 318.789,60.5847 319.218,61.1885 319.648,63.2615 320.078,63.1475 320.507,60.9869 320.936,60.8467 321.365,62.4401 321.795,61.9433 322.225,61.7616 322.654,63.0444 323.083,62.9402 323.513,61.1395 323.942,61.9496 324.371,63.4045 324.801,62.387 325.23,61.8806 325.66,63.209 326.089,63.6751 326.518,62.1102 326.948,62.0447 327.377,62.9379 327.807,62.7488 328.236,62.7032 328.665,64.3518 329.095,64.0561 329.525,61.3902 329.954,61.1407 330.383,63.2933 330.813,63.9564 331.242,64.3802 331.672,64.9334 332.101,63.8066 332.53,61.2096 332.96,61.8772 333.389,64.5404 333.819,64.8439 334.248,64.6685 334.678,65.0729 335.107,63.9758 335.537,61.941 335.966,63.0467 336.395,65.1128 336.825,64.9943 337.254,64.0219 337.684,64.7169 338.113,64.0271 338.542,62.5562 338.972,63.5748 339.401,66.0527 339.83,65.1539 340.26,64.0817 340.689,64.9106 341.119,65.1037 341.548,63.6016 341.978,65.0285 342.407,66.3524 342.837,65.4079 343.266,64.7238 343.695,66.2037 344.124,66.4686 344.554,64.411 344.984,64.9339 345.413,66.6258 345.842,66.7836 346.272,66.9801 346.701,67.8141 347.131,67.0246 347.56,64.7608 347.989,67.3322 348.419,70.7261 348.849,69.6683 349.278,67.5794 349.708,68.6053 350.137,70.1348 350.566,70.4874 350.996,72.2853 351.425,73.1631 351.855,71.015 352.284,71.8631 352.713,75.7476 353.143,77.2401 353.572,75.3249 354.002,75.7527 354.431,78.7621 354.86,79.7317 355.29,80.9206 355.719,83.0014 356.148,83.21 356.578,82.9941 357.008,86.507 357.437,89.7125 357.866,88.7481 358.296,88.6769 358.725,92.5869 359.155,94.2885 359.584,94.0982 360.013,96.3334 360.443,99.0649 360.872,98.1302 361.302,98.8803 361.731,102.666 362.16,103.779 362.59,101.748 363.02,102.896 363.449,106.313 363.878,105.66 364.308,103.962 364.737,105.169 365.167,106.31 365.596,105.843 366.025,105.675 366.455,105.063 366.884,104.31 367.314,105.562 367.743,105.677 368.173,104.087 368.602,103.847 369.032,106.585 369.461,105.296 369.89,101.479 370.32,102.787 370.749,105.29 371.179,102.45 371.608,98.8063 372.037,100.983 372.467,101.029 372.896,97.5206 373.325,96.0088 373.755,97.2449 374.184,95.4363 374.614,93.1486 375.043,93.7917 375.472,92.833 375.902,89.5934 376.332,90.0235 376.761,90.9845 377.19,87.3929 377.62,85.1781 378.049,87.6965 378.479,87.6344 378.908,83.1969 379.338,82.8801 379.767,85.5165 380.196,83.7192 380.626,80.4768 381.056,81.6833 381.485,82.7906 381.914,81.3706 382.344,79.9983 382.773,80.855 383.203,80.4996 383.632,80.434 384.061,80.3896 384.491,78.9222 384.92,78.7615 385.349,80.8527 385.779,80.0489 386.208,76.7257 386.638,78.7143 387.067,81.0891 387.496,79.1529 387.926,76.8459 388.356,78.965 388.785,80.5019 389.214,77.9287 389.643,78.7718 390.073,80.2916 390.502,78.974 390.932,77.6291 391.361,80.6118 391.791,81.084 392.22,78.1127 392.65,78.3583 393.079,80.5998 393.508,79.9772 393.938,79.7698 394.367,80.835 394.797,79.3648 395.226,78.1156 395.656,81.5978 396.085,83.0242 396.515,79.252 396.944,78.0831 397.374,81.3734 397.803,81.8269 398.232,80.5543 398.662,81.5329 399.091,81.4964 399.52,78.8384 399.95,81.0293 400.379,84.4575 400.809,82.4472 401.238,79.5443 401.667,81.1683 402.097,82.9553 402.526,81.3665 402.956,83.1752 403.385,84.74 403.815,81.4508 404.244,80.4289 404.673,83.8303 405.103,84.5885 405.532,81.9095 405.962,83.3911 406.391,85.1285 406.821,82.5765 407.25,82.4642 407.679,85.1205 408.109,83.8718 408.538,82.3777 408.967,85.1638 409.397,86.8893 409.827,83.7289 410.256,83.6861 410.686,85.8702 411.115,84.6358 411.544,83.8297 411.974,87.4703 412.403,87.7278 412.833,84.1892 413.262,84.5389 413.691,86.7691 414.121,85.0687 414.55,85.4048 414.98,89.1838 415.409,88.572 415.838,85.0607 416.268,85.844 416.697,88.0992 417.127,86.3265 417.556,87.5814 417.986,91.4157 418.415,89.6914 418.844,85.5774 419.274,87.4088 419.703,89.2904 420.133,87.3826 420.562,89.1514 420.991,91.631 421.421,88.936 421.85,86.6489 422.28,89.7603 422.709,91.1816 423.139,88.8637 423.568,89.9238 423.998,92.1739 424.427,89.6372 424.857,88.7327 425.286,91.9216 425.715,91.8634 426.145,89.1416 426.574,91.737 427.004,93.4852 427.433,90.2269 427.863,89.7996 428.292,92.7919 428.722,92.2366 429.151,91.1656 429.58,93.4226 430.009,93.2785 430.439,89.7649 430.868,91.2209 431.298,94.6598 431.727,93.7473 432.156,91.5154 432.586,93.1486 433.015,92.9116 433.445,91.2511 433.874,94.5715 434.304,95.8932 434.733,91.3775 435.163,91.1485 435.592,95.0016 436.021,95.7433 436.451,92.1203 436.88,93.6054 437.31,94.9173 437.739,93.6652 438.168,94.7208 438.598,95.6567 439.027,93.4248 439.457,93.0164 439.886,96.8757 440.316,96.1176 440.745,92.506 441.175,94.9948 441.604,97.4112 442.034,94.4599 442.463,94.346 442.892,97.119 443.322,95.6863 443.751,93.4989 444.181,97.1105 444.61,98.039 445.039,93.86 445.469,94.7539 445.898,99.1191 446.327,97.017 446.757,93.9466 447.186,97.0398 447.616,98.3682 448.045,96.1033 448.474,96.6473 448.904,97.994 449.334,96.3466 449.763,97.6471 450.192,98.9014 450.622,96.7715 451.051,95.8948 451.48,99.8887 451.91,99.3982 452.339,94.9623 452.769,97.8681 453.198,101.434 453.628,97.3224 454.057,96.1352 454.486,100.805 454.916,100.847 455.346,96.7185 455.775,99.1441 456.204,102.088 456.634,98.8388 457.063,98.7357 457.493,101.708 457.922,100.473 458.352,98.4007 458.781,102.144 459.21,102.364 459.64,98.612 460.069,100.64 460.498,104.23 460.928,101.343 461.357,98.9994 461.787,103.084 462.216,103.939 462.646,101.142 463.075,101.737 463.504,103.598 463.934,102.703 464.363,103.306 464.793,104.256 465.222,102.206 465.651,102.261 466.081,106.33 466.51,104.88 466.94,101.172 467.369,104.507 467.798,108.184 468.228,104.059 468.658,102.739 469.087,106.748 469.516,106.729 469.946,104.34 470.375,106.213 470.805,107.566 471.234,104.937 471.664,106.055 472.093,109.067 472.522,106.571 472.952,104.614 473.382,108.69 473.811,108.682 474.24,106.219 474.67,107.788 475.099,109.921 475.528,106.827 475.957,106.858 476.387,110.963 476.817,109.979 477.246,106.542 477.675,108.72 478.105,110.195 478.534,107.809 478.964,110.079 479.393,112.447 479.822,108.37 480.252,106.627 480.682,110.915 481.111,112.774 481.54,109.852 481.969,110.795 482.399,111.373 482.829,108.426 483.258,110.024 483.687,114.821 484.117,112.975 484.546,109.289 484.976,111.692 485.405,113.157 485.835,110.611 486.264,112.822 486.694,115.522 487.123,112.207 487.552,110.443 487.982,113.781 488.411,113.801 488.841,111.536 489.27,114.165 489.699,115.996 490.129,112.211 490.558,112.21 490.988,115.656 491.417,114.049 491.846,112.226 492.276,115.77 492.705,116.523 493.134,113.026 493.564,114.969 493.993,117.171 494.423,113.591 494.853,112.855 495.282,116.676 495.711,116.894 496.141,114.486 496.57,117.313 496.999,117.584 497.429,113.09 497.858,114.1 498.288,118.886 498.717,117.525 499.146,116.182 499.576,118.281 500.005,116.918 500.435,113.433 500.865,117.241 501.294,120.821 501.723,118.168 502.153,117.131 502.582,119.001 503.012,117.141 503.441,115.462 503.87,119.819 504.3,121.769 504.729,117.403 " />
</g>

<g fill="none" stroke="#000000" stroke-opacity="1" stroke-width="1" stroke-linecap="square" stroke-linejoin="bevel" transform="matrix(1.5625,0,0,1.5625,0,0)"
font-family="MS Shell Dlg 2" font-size="17.1875" font-weight="400" font-style="normal" 
>
</g>

<g fill="none" stroke="#000000" stroke-opacity="1" stroke-width="1" stroke-linecap="square" stroke-linejoin="bevel" transform="matrix(1.5625,0,0,1.5625,0,0)"
font-family="MS Shell Dlg 2" font-size="17.1875" font-weight="400" font-style="normal" 
>
</g>

<g fill="none" stroke="#000000" stroke-opacity="1" stroke-width="1" stroke-linecap="square" stroke-linejoin="bevel" transform="matrix(1.5625,0,0,1.5625,0,0)"
font-family="MS Shell Dlg 2" font-size="17.1875" font-weight="400" font-style="normal" 
>
</g>

<g fill="none" stroke="#0064ff" stroke-opacity="1" stroke-width="1" stroke-linecap="square" stroke-linejoin="bevel" transform="matrix(1.5625,0,0,1.5625,0,0)"
font-family="MS Shell Dlg 2" font-size="17.1875" font-weight="400" font-style="normal" 
>
<polyline fill="none" vector-effect="none" points="68.4348,28.7668 68.8644,29.3335 69.2939,29.3168 69.7232,28.7805 70.1526,28.0395 70.5822,27.3084 71.0113,27 71.441,28.7167 71.8706,30.2428 72.2997,29.931 72.7293,28.1598 73.1588,27.4538 73.588,29.1898 74.0175,30.8416 74.4466,30.2058 74.8762,28.3627 75.3059,28.3079 75.7349,30.407 76.1646,31.4554 76.5942,30.3074 77.0235,28.7577 77.4529,29.5043 77.8827,31.4686 78.3118,31.7691 78.7415,30.1951 79.1711,29.3223 79.6002,30.8877 80.0298,32.3199 80.4589,31.7387 80.8885,30.044 81.3182,30.2962 81.7473,32.5133 82.1767,32.6337 82.606,30.8836 83.0352,30.5707 83.4648,32.4973 83.8944,33.3544 84.3235,32.165 84.7531,30.4287 85.1827,32.1307 85.6119,34.1285 86.0415,33.6689 86.4706,31.9691 86.9001,31.8286 87.3297,33.7384 87.7588,34.4298 88.1884,32.6528 88.618,31.9805 89.0472,33.8409 89.4768,34.5775 89.9064,33.8491 90.3355,31.8871 90.765,33.1523 91.1943,34.8037 91.6237,33.9508 92.0533,32.3968 92.4825,33.2812 92.9124,34.6253 93.342,34.1482 93.7711,32.3241 94.2007,32.5527 94.6303,34.7402 95.0595,34.7023 95.4889,32.8039 95.9185,31.8818 96.3477,34.0229 96.7773,34.7668 97.2064,33.1386 97.6359,31.9984 98.0653,33.4691 98.4945,34.7969 98.9241,33.4853 99.3535,32.0041 99.7828,32.824 100.212,34.4547 100.642,33.5001 101.071,32.1473 101.501,33.0062 101.93,34.3878 102.359,33.4304 102.789,31.8054 103.218,32.7842 103.648,34.7045 104.077,33.8524 104.506,31.9459 104.936,32.3775 105.365,34.6423 105.795,34.1693 106.224,32.1532 106.654,32.4486 107.083,34.6014 107.513,34.5447 107.942,32.4274 108.372,32.2179 108.801,34.529 109.23,34.9138 109.66,32.9179 110.089,32.2563 110.519,34.2865 110.948,34.8339 111.378,33.3068 111.807,32.5528 112.236,34.397 112.666,34.9464 113.095,33.4565 113.524,32.6887 113.954,34.5658 114.383,35.2043 114.813,33.7262 115.242,32.8525 115.672,34.5652 116.101,35.4668 116.53,34.12 116.96,33.0851 117.389,34.5535 117.819,35.6142 118.248,34.438 118.678,33.3013 119.107,34.7797 119.536,35.87 119.966,34.7722 120.395,33.647 120.825,35.1145 121.254,36.2287 121.684,35.0784 122.113,33.9412 122.542,35.4923 122.972,36.7057 123.402,35.2442 123.831,34.0298 124.26,35.9247 124.69,37.1425 125.119,35.3957 125.549,34.2587 125.978,36.3571 126.407,37.6698 126.837,35.7136 127.266,34.8018 127.696,37.0548 128.125,37.8343 128.554,36.0718 128.984,35.3782 129.413,37.4516 129.842,38.1546 130.272,36.6992 130.702,36.028 131.131,37.8197 131.56,38.7141 131.989,37.3896 132.419,36.7334 132.849,38.2848 133.278,39.4175 133.707,38.2434 134.137,37.3 134.566,39.1 134.996,40.3434 135.425,39.0788 135.854,38.1793 136.284,40.2934 136.713,41.6107 137.143,40.0616 137.572,39.4125 138.002,41.8739 138.431,42.9152 138.861,41.2493 139.29,41.1887 139.719,43.7501 140.149,44.5211 140.578,43.3748 141.008,43.6673 141.437,46.1835 141.867,46.8717 142.296,46.1031 142.725,46.8538 143.155,49.3083 143.584,50.0824 144.013,49.8329 144.443,51.0699 144.872,53.7614 145.301,54.8575 145.731,54.9101 146.161,56.8498 146.59,59.8129 147.02,61.1686 147.449,61.8676 147.878,64.4769 148.308,67.9687 148.737,69.7034 149.166,70.9499 149.596,74.2086 150.025,78.3447 150.455,80.7259 150.884,82.833 151.313,86.9755 151.743,91.7993 152.173,94.4998 152.602,97.2232 153.031,102.364 153.461,107.734 153.89,111.249 154.32,114.843 154.749,119.825 155.179,124.122 155.608,126.751 156.037,129.536 156.467,132.985 156.897,132.903 157.326,124.919 157.755,133.861 158.185,143.979 158.614,148.156 159.043,148.185 159.473,145.573 159.902,135.017 160.332,144.522 160.761,160.825 161.19,173.285 161.62,183.728 162.049,190.077 162.479,194.072 162.908,198.57 163.337,202.839 163.767,204.169 164.197,202.679 164.626,200.581 165.055,204.707 165.485,204.181 165.914,203.16 166.344,202.971 166.773,201.264 167.202,197.482 167.632,194.145 168.061,191.993 168.491,188.144 168.921,182.587 169.35,178.086 169.779,174.81 170.209,169.617 170.638,163.081 171.068,158.008 171.497,153.606 171.926,147.485 172.356,141.099 172.785,136.511 173.214,131.746 173.644,125.017 174.073,118.71 174.503,114.789 174.932,110.522 175.361,104.479 175.791,99.1783 176.22,96.0801 176.65,92.2797 177.079,87.4027 177.508,83.8302 177.938,81.8983 178.368,78.758 178.797,75.2082 179.226,73.8148 179.656,73.429 180.085,71.1048 180.514,68.7037 180.944,69.0799 181.373,70.1676 181.803,69.5228 182.232,69.1634 182.662,70.8588 183.091,72.8206 183.521,73.7227 183.95,75.6957 184.38,79.5957 184.809,82.7329 185.238,84.9921 185.668,89.2463 186.097,95.1309 186.527,99.5291 186.956,103.95 187.385,110.578 187.815,118.164 188.244,124.088 188.673,130.146 189.103,138.835 189.532,147.946 189.962,155.587 190.391,163.404 190.82,173.078 191.25,182.999 191.679,191.602 192.109,200.595 192.538,210.665 192.968,219.898 193.397,228.266 193.827,237.2 194.256,246.148 194.685,253.638 195.115,260.204 195.544,267.203 195.974,272.964 196.403,277.211 196.832,280.496 197.262,281.283 197.691,278.652 198.121,267.456 198.55,242.091 198.98,256.095 199.409,242.467 199.839,252.951 200.268,282.312 200.698,298.746 201.127,307.404 201.556,307.826 201.986,317.79 202.415,322.168 202.845,322.953 203.274,322.291 203.703,321.321 204.133,318.881 204.562,314.986 204.992,310.666 205.421,306.101 205.85,300.218 206.28,293.468 206.709,286.627 207.139,279.397 207.568,271.127 207.998,262.409 208.427,253.732 208.856,244.871 209.286,235.079 209.715,225.266 210.145,216.001 210.574,206.286 211.004,195.91 211.433,185.937 211.862,177.109 212.292,167.782 212.721,157.726 213.151,148.883 213.58,141.392 214.01,133.065 214.439,124.322 214.868,117.501 215.298,111.629 215.728,104.458 216.157,97.7105 216.586,93.1289 217.016,88.6926 217.445,82.9772 217.875,78.5954 218.304,75.9151 218.733,72.3063 219.163,68.1208 219.592,65.9354 220.021,64.3908 220.451,61.3368 220.88,58.9388 221.31,58.2817 221.739,57.0093 222.168,54.647 222.598,53.8387 223.027,54.0093 223.457,52.6396 223.886,51.0178 224.315,51.1993 224.745,51.5574 225.175,50.1103 225.604,49.2606 226.033,49.9902 226.463,50.0336 226.892,48.7248 227.321,48.4658 227.751,49.4276 228.18,49.0807 228.61,48.1715 229.039,48.5464 229.469,49.2141 229.899,48.5048 230.328,48.1302 230.757,48.8729 231.187,49.1092 231.616,48.1527 232.045,48.0972 232.475,49.0972 232.904,48.9729 233.334,48.0654 233.763,48.1581 234.192,49.1156 234.622,48.9159 235.051,48.3939 235.481,48.6531 235.91,49.032 236.339,48.8206 236.769,48.7441 237.198,49.2299 237.628,49.0789 238.057,48.8467 238.487,49.1738 238.916,49.4504 239.345,49.1812 239.775,49.0893 240.204,49.7652 240.634,49.7418 241.063,49.0619 241.492,49.1981 241.922,50.1983 242.351,50.2778 242.781,49.4962 243.21,49.5661 243.64,50.1895 244.069,50.2842 244.499,50.2494 244.928,50.4078 245.358,50.3796 245.787,50.0982 246.216,50.3406 246.646,50.9156 247.075,50.7871 247.505,50.477 247.934,50.7879 248.364,51.4181 248.793,51.1276 249.222,50.8213 249.652,51.1188 250.081,51.5308 250.511,51.4494 250.94,51.6369 251.369,51.8417 251.798,51.6068 252.228,51.5136 252.658,51.866 253.087,52.5643 253.516,52.2903 253.946,51.9792 254.375,52.2741 254.805,52.5561 255.234,52.5344 255.663,52.6153 256.093,52.8636 256.523,52.8382 256.952,52.9246 257.381,53.194 257.81,53.5272 258.24,53.1493 258.669,53.0736 259.099,53.5252 259.529,53.9917 259.958,53.9555 260.387,53.6745 260.817,53.8694 261.246,53.9517 261.676,54.2499 262.105,54.5406 262.535,54.5858 262.964,54.397 263.393,54.3684 263.823,54.8052 264.252,55.1065 264.681,54.9406 265.111,54.9532 265.54,55.4031 265.97,55.6988 266.399,55.6236 266.828,55.4479 267.258,55.7769 267.687,56.2817 268.117,56.5221 268.546,56.546 268.976,56.4994 269.405,56.8446 269.834,57.1927 270.264,57.8255 270.693,57.9059 271.123,57.8974 271.552,58.4362 271.982,59.3508 272.411,59.7668 272.84,59.8946 273.27,60.7207 273.699,61.6523 274.129,62.1458 274.559,62.6805 274.988,63.966 275.417,65.3358 275.847,65.8799 276.276,66.8875 276.706,68.5289 277.135,70.2839 277.564,71.3264 277.994,72.8132 278.423,74.9071 278.852,76.8591 279.282,78.6972 279.711,80.7484 280.141,83.162 280.57,85.3812 280.999,87.7607 281.429,90.3788 281.858,92.9117 282.288,95.3533 282.717,98.0202 283.146,101.04 283.576,103.596 284.006,106.121 284.435,108.844 284.864,111.589 285.294,113.99 285.723,116.07 286.153,118.431 286.582,120.458 287.011,122.083 287.441,123.24 287.87,124.333 288.3,124.772 288.729,124.895 289.159,124.35 289.588,122.878 290.018,120.731 290.447,118.373 290.876,115.998 291.306,111.77 291.735,111.222 292.165,109.178 292.594,113.708 293.024,116.225 293.453,118.682 293.882,120.484 294.311,120.161 294.741,119.713 295.17,119.576 295.6,119.146 296.03,117.565 296.459,115.994 296.888,114.835 297.318,112.731 297.747,110.291 298.176,108.45 298.606,106.51 299.035,103.508 299.465,101.284 299.894,99.6171 300.323,96.9737 300.753,94.0709 301.182,92.4392 301.612,90.7114 302.041,87.8453 302.47,85.6245 302.9,84.6442 303.33,82.6973 303.759,80.1869 304.188,78.9239 304.618,78.1626 305.047,76.2326 305.477,74.6233 305.906,73.9599 306.336,73.123 306.765,71.6956 307.194,70.8723 307.624,70.5356 308.054,69.3667 308.483,68.5588 308.912,68.4858 309.341,68.0965 309.771,66.9866 310.2,66.7593 310.63,67.0417 311.059,66.2942 311.489,65.7974 311.918,65.9926 312.347,65.855 312.777,65.1103 313.206,65.6535 313.636,65.8035 314.065,64.9703 314.494,64.7888 314.924,65.7686 315.353,65.8827 315.783,64.511 316.212,64.8008 316.641,65.8783 317.071,65.1663 317.501,64.5233 317.93,65.4358 318.359,65.894 318.789,64.7331 319.218,64.7687 319.648,65.7733 320.078,65.6137 320.507,65.0215 320.936,65.5501 321.365,65.7898 321.795,64.8869 322.225,65.3857 322.654,66.4969 323.083,65.8432 323.513,64.8775 323.942,65.7358 324.371,66.6888 324.801,65.7338 325.23,65.6327 325.66,66.5329 326.089,66.1859 326.518,65.7115 326.948,66.493 327.377,66.9096 327.807,65.8605 328.236,65.9616 328.665,67.2922 329.095,66.9983 329.525,65.8353 329.954,66.4964 330.383,67.3345 330.813,66.558 331.242,66.7363 331.672,67.6362 332.101,67.0741 332.53,66.0658 332.96,67.1888 333.389,68.1239 333.819,67.0348 334.248,66.8634 334.678,67.8889 335.107,67.7227 335.537,66.8983 335.966,67.7071 336.395,68.3695 336.825,67.1889 337.254,67.3554 337.684,68.7142 338.113,68.318 338.542,67.1165 338.972,67.9133 339.401,68.88 339.83,68.0657 340.26,68.1933 340.689,69.1159 341.119,68.6933 341.548,67.7039 341.978,68.9368 342.407,69.8595 342.837,68.6094 343.266,68.4853 343.695,69.9091 344.124,69.8934 344.554,68.9424 344.984,69.7534 345.413,70.5265 345.842,69.6365 346.272,70.1122 346.701,71.4412 347.131,70.932 347.56,69.8987 347.989,71.5966 348.419,72.9489 348.849,71.7222 349.278,71.7249 349.708,73.4084 350.137,73.8044 350.566,73.2638 350.996,74.5962 351.425,75.6355 351.855,74.9208 352.284,75.9847 352.713,77.893 353.143,77.8609 353.572,77.7069 354.002,79.6699 354.431,81.1857 354.86,80.4989 355.29,81.7157 355.719,84.2874 356.148,84.6294 356.578,84.2333 357.008,86.5945 357.437,88.6999 357.866,88.1727 358.296,89.0196 358.725,91.6842 359.155,92.2701 359.584,92.1799 360.013,94.1381 360.443,95.7741 360.872,95.3448 361.302,96.2247 361.731,98.3265 362.16,98.3611 362.59,97.7057 363.02,99.1213 363.449,100.167 363.878,98.558 364.308,98.1799 364.737,98.6908 365.167,98.0074 365.596,96.9232 366.025,97.7985 366.455,97.5081 366.884,95.1792 367.314,95.0218 367.743,96.0493 368.173,95.0125 368.602,95.0934 369.032,96.85 369.461,97.2369 369.89,95.5942 370.32,96.241 370.749,97.57 371.179,95.9619 371.608,94.8945 372.037,95.9501 372.467,95.5721 372.896,93.6692 373.325,93.8162 373.755,94.157 374.184,92.3952 374.614,91.3907 375.043,91.9479 375.472,90.9877 375.902,88.9722 376.332,89.3535 376.761,89.5697 377.19,87.4584 377.62,86.7385 378.049,87.6611 378.479,86.6677 378.908,84.7123 379.338,85.2661 379.767,85.7437 380.196,83.8003 380.626,83.2946 381.056,84.293 381.485,83.4751 381.914,82.0853 382.344,83.0192 382.773,83.2687 383.203,81.5344 383.632,81.8833 384.061,83.0427 384.491,81.6016 384.92,80.7278 385.349,82.3784 385.779,82.2624 386.208,80.1633 386.638,81.2125 387.067,82.6951 387.496,80.9812 387.926,80.2354 388.356,82.1538 388.785,82.1056 389.214,80.1005 389.643,81.388 390.073,82.869 390.502,80.9723 390.932,80.4196 391.361,82.6668 391.791,82.5166 392.22,80.5025 392.65,81.5839 393.079,83.1187 393.508,81.5199 393.938,81.275 394.367,82.9325 394.797,82.3028 395.226,81.2655 395.656,82.9053 396.085,83.5067 396.515,81.5485 396.944,82.2097 397.374,84.1006 397.803,82.7622 398.232,81.7773 398.662,83.8666 399.091,84.27 399.52,82.0319 399.95,83.0968 400.379,85.0058 400.809,83.57 401.238,82.8418 401.667,84.6014 402.097,84.5631 402.526,83.0126 402.956,84.5988 403.385,85.8981 403.815,83.7057 404.244,83.6243 404.673,86.0241 405.103,85.5517 405.532,83.7569 405.962,85.3654 406.391,86.4407 406.821,84.503 407.25,85.0015 407.679,86.9452 408.109,85.6075 408.538,84.637 408.967,86.9277 409.397,87.6706 409.827,85.2568 410.256,85.9134 410.686,87.9396 411.115,86.5794 411.544,86.0717 411.974,88.3744 412.403,88.0561 412.833,85.8251 413.262,87.4392 413.691,89.307 414.121,87.3806 414.55,86.983 414.98,89.2585 415.409,88.7918 415.838,87.1372 416.268,89.0347 416.697,90.0905 417.127,87.7182 417.556,88.2538 417.986,90.857 418.415,89.8383 418.844,88.1367 419.274,90.0855 419.703,90.7429 420.133,88.7687 420.562,89.8989 420.991,91.8665 421.421,90.0443 421.85,89.1811 422.28,91.6291 422.709,91.9237 423.139,89.6942 423.568,91.027 423.998,92.7709 424.427,90.892 424.857,90.7445 425.286,92.9745 425.715,92.162 426.145,90.5343 426.574,92.6876 427.004,93.9357 427.433,91.2055 427.863,91.5158 428.292,94.0282 428.722,92.9845 429.151,91.7801 429.58,93.7165 430.009,94.0182 430.439,91.8645 430.868,93.3763 431.298,95.1068 431.727,93.0344 432.156,92.5517 432.586,95.1504 433.015,94.6141 433.445,92.3573 433.874,94.423 434.304,95.9852 434.733,93.3539 435.163,93.4455 435.592,95.8583 436.021,95.0102 436.451,93.4613 436.88,95.4525 437.31,95.9521 437.739,93.8947 438.168,95.1255 438.598,96.7347 439.027,94.6709 439.457,94.3141 439.886,96.9016 440.316,96.2451 440.745,94.1378 441.175,96.2043 441.604,97.425 442.034,94.9135 442.463,95.4955 442.892,97.8928 443.322,96.2304 443.751,94.8065 444.181,97.5358 444.61,97.9234 445.039,95.0865 445.469,96.5821 445.898,98.9617 446.327,96.5586 446.757,95.6779 447.186,98.7257 447.616,98.2199 448.045,95.7763 448.474,97.8588 448.904,99.3339 449.334,96.6642 449.763,97.1898 450.192,99.8351 450.622,98.3076 451.051,96.669 451.48,99.4841 451.91,99.8787 452.339,96.9677 452.769,98.4469 453.198,100.811 453.628,98.4116 454.057,97.901 454.486,100.665 454.916,100.238 455.346,98.0567 455.775,100.139 456.204,101.52 456.634,99.0474 457.063,99.5332 457.493,101.967 457.922,100.484 458.352,99.2979 458.781,101.932 459.21,102.047 459.64,99.6215 460.069,101.307 460.498,103.248 460.928,100.949 461.357,100.681 461.787,103.446 462.216,102.677 462.646,100.925 463.075,102.969 463.504,104.058 463.934,101.831 464.363,102.686 464.793,104.761 465.222,103.002 465.651,102.398 466.081,104.969 466.51,104.674 466.94,102.448 467.369,104.525 467.798,106.108 468.228,103.578 468.658,103.905 469.087,106.515 469.516,105.166 469.946,103.68 470.375,106.326 470.805,106.952 471.234,104.15 471.664,105.511 472.093,108.161 472.522,105.907 472.952,104.75 473.382,107.801 473.811,107.869 474.24,105.514 474.67,107.078 475.099,108.814 475.528,106.603 475.957,106.797 476.387,109.307 476.817,108.075 477.246,106.55 477.675,109.115 478.105,109.609 478.534,106.903 478.964,108.443 479.393,110.858 479.822,108.351 480.252,107.501 480.682,110.414 481.111,110.341 481.54,108.173 481.969,110.013 482.399,111.2 482.829,108.691 483.258,109.447 483.687,112.198 484.117,110.433 484.546,108.774 484.976,111.585 485.405,112.174 485.835,109.416 486.264,110.864 486.694,112.909 487.123,110.669 487.552,110.441 487.982,113.139 488.411,112.131 488.841,110.03 489.27,112.403 489.699,113.938 490.129,111.172 490.558,111.607 490.988,113.991 491.417,112.275 491.846,111.438 492.276,114.377 492.705,114.161 493.134,111.374 493.564,113.173 493.993,115.203 494.423,112.72 494.853,112.64 495.282,115.209 495.711,114.17 496.141,112.443 496.57,115.163 496.999,115.805 497.429,112.689 497.858,113.754 498.288,116.449 498.717,114.532 499.146,113.748 499.576,116.307 500.005,115.676 500.435,113.326 500.865,115.775 501.294,117.455 501.723,114.578 502.153,114.684 502.582,117.493 503.012,116.181 503.441,114.597 503.87,117.123 504.3,117.738 504.729,115.059 " />
</g>

<g fill="none" stroke="#000000" stroke-opacity="1" stroke-width="1" stroke-linecap="square" stroke-linejoin="bevel" transform="matrix(1.5625,0,0,1.5625,0,0)"
font-family="MS Shell Dlg 2" font-size="17.1875" font-weight="400" font-style="normal" 
>
</g>

<g fill="none" stroke="#000000" stroke-opacity="1" stroke-width="1" stroke-linecap="square" stroke-linejoin="bevel" transform="matrix(1.5625,0,0,1.5625,0,0)"
font-family="MS Shell Dlg 2" font-size="17.1875" font-weight="400" font-style="normal" 
>
</g>

<g fill="none" stroke="#000000" stroke-opacity="1" stroke-width="1" stroke-linecap="square" stroke-linejoin="bevel" transform="matrix(1.5625,0,0,1.5625,0,0)"
font-family="MS Shell Dlg 2" font-size="17.1875" font-weight="400" font-style="normal" 
>
</g>

<g fill="#a0a0a0" fill-opacity="1" stroke="none" transform="matrix(1.5625,0,0,1.5625,0,0)"
font-family="MS Shell Dlg 2" font-size="17.1875" font-weight="400" font-style="normal" 
>
<path vector-effect="none" fill-rule="evenodd" d="M62,328.953 L62,21 L510.929,21 L509.929,22 L63,22 L63,327.953"/>
</g>

<g fill="#ffffff" fill-opacity="1" stroke="none" transform="matrix(1.5625,0,0,1.5625,0,0)"
font-family="MS Shell Dlg 2" font-size="17.1875" font-weight="400" font-style="normal" 
>
<path vector-effect="none" fill-rule="evenodd" d="M62,328.953 L510.929,328.953 L510.929,21 L509.929,22 L509.929,327.953 L63,327.953"/>
</g>

<g fill="none" stroke="#000000" stroke-opacity="1" stroke-width="1" stroke-linecap="square" stroke-linejoin="bevel" transform="matrix(1.5625,0,0,1.5625,0,0)"
font-family="MS Shell Dlg 2" font-size="17.1875" font-weight="400" font-style="normal" 
>
</g>

<g fill="none" stroke="#000000" stroke-opacity="1" stroke-width="1" stroke-linecap="square" stroke-linejoin="bevel" transform="matrix(1.5625,0,0,1.5625,0,0)"
font-family="MS Shell Dlg 2" font-size="17.1875" font-weight="400" font-style="normal" 
>
</g>

<g fill="none" stroke="#dddddd" stroke-opacity="1" stroke-width="1" stroke-linecap="square" stroke-linejoin="bevel" transform="matrix(1.5625,0,0,1.5625,0,0)"
font-family="Arial" font-size="20.8333" font-weight="400" font-style="normal" 
>
</g>

<g fill="none" stroke="#dddddd" stroke-opacity="1" stroke-width="1" stroke-linecap="square" stroke-linejoin="bevel" transform="matrix(1.5625,0,0,1.5625,0,0)"
font-family="Arial" font-size="13" font-weight="400" font-style="normal" 
>
</g>

<g fill="none" stroke="#dddddd" stroke-opacity="1" stroke-width="1" stroke-linecap="square" stroke-linejoin="bevel" transform="matrix(1.5625,0,0,1.5625,0,0)"
font-family="Arial" font-size="13" font-weight="400" font-style="normal" 
>
<text fill="#dddddd" fill-opacity="1" stroke="none" xml:space="preserve" x="241.953" y="13" font-family="Arial" font-size="13" font-weight="400" font-style="normal" 
 >Signal Display</text>
</g>

<g fill="none" stroke="#dddddd" stroke-opacity="1" stroke-width="1" stroke-linecap="square" stroke-linejoin="bevel" transform="matrix(1.5625,0,0,1.5625,0,0)"
font-family="Arial" font-size="20.8333" font-weight="400" font-style="normal" 
>
</g>

<g fill="none" stroke="#dddddd" stroke-opacity="1" stroke-width="1" stroke-linecap="square" stroke-linejoin="bevel" transform="matrix(1.5625,0,0,1.5625,0,0)"
font-family="Arial" font-size="20.8333" font-weight="400" font-style="normal" 
>
</g>

<g fill="none" stroke="#dddddd" stroke-opacity="1" stroke-width="1" stroke-linecap="square" stroke-linejoin="bevel" transform="matrix(0,-1.5625,1.5625,0,0,504.614)"
font-family="Arial" font-size="20.8333" font-weight="400" font-style="normal" 
>
</g>

<g fill="none" stroke="#b4003c" stroke-opacity="1" stroke-width="1" stroke-linecap="square" stroke-linejoin="bevel" transform="matrix(0,-1.5625,1.5625,0,0,504.614)"
font-family="MS Shell Dlg 2" font-size="25" font-weight="700" font-style="normal" 
>
</g>

<g fill="none" stroke="#b4003c" stroke-opacity="1" stroke-width="1" stroke-linecap="square" stroke-linejoin="bevel" transform="matrix(0,-1.5625,1.5625,0,0,504.614)"
font-family="MS Shell Dlg 2" font-size="16" font-weight="700" font-style="normal" 
>
</g>

<g fill="none" stroke="#b4003c" stroke-opacity="1" stroke-width="1" stroke-linecap="square" stroke-linejoin="bevel" transform="matrix(0,-1.5625,1.5625,0,0,504.614)"
font-family="MS Shell Dlg 2" font-size="16" font-weight="700" font-style="normal" 
>
<text fill="#b4003c" fill-opacity="1" stroke="none" xml:space="preserve" x="97.4688" y="16" font-family="MS Shell Dlg 2" font-size="16" font-weight="700" font-style="normal" 
 >Fine In 1 (V)</text>
</g>

<g fill="none" stroke="#b4003c" stroke-opacity="1" stroke-width="1" stroke-linecap="square" stroke-linejoin="bevel" transform="matrix(0,-1.5625,1.5625,0,0,504.614)"
font-family="MS Shell Dlg 2" font-size="25" font-weight="700" font-style="normal" 
>
</g>

<g fill="none" stroke="#dddddd" stroke-opacity="1" stroke-width="1" stroke-linecap="square" stroke-linejoin="bevel" transform="matrix(0,-1.5625,1.5625,0,0,504.614)"
font-family="Arial" font-size="20.8333" font-weight="400" font-style="normal" 
>
</g>

<g fill="none" stroke="#dddddd" stroke-opacity="1" stroke-width="1" stroke-linecap="square" stroke-linejoin="bevel" transform="matrix(1.5625,0,0,1.5625,0,0)"
font-family="Arial" font-size="20.8333" font-weight="400" font-style="normal" 
>
</g>

<g fill="none" stroke="#dddddd" stroke-opacity="1" stroke-width="1" stroke-linecap="square" stroke-linejoin="bevel" transform="matrix(1.5625,0,0,1.5625,0,0)"
font-family="Arial" font-size="20.8333" font-weight="400" font-style="normal" 
>
</g>

<g fill="none" stroke="#dddddd" stroke-opacity="1" stroke-width="1" stroke-linecap="square" stroke-linejoin="bevel" transform="matrix(1.5625,0,0,1.5625,0,0)"
font-family="Arial" font-size="20.8333" font-weight="400" font-style="normal" 
>
</g>

<g fill="none" stroke="#dddddd" stroke-opacity="1" stroke-width="1" stroke-linecap="square" stroke-linejoin="bevel" transform="matrix(1.5625,0,0,1.5625,0,0)"
font-family="Arial" font-size="20.8333" font-weight="400" font-style="normal" 
>
</g>

<g fill="none" stroke="#dddddd" stroke-opacity="1" stroke-width="1" stroke-linecap="square" stroke-linejoin="bevel" transform="matrix(1.5625,0,0,1.5625,43.75,442.716)"
font-family="Arial" font-size="20.8333" font-weight="400" font-style="normal" 
>
</g>

<g fill="none" stroke="#dddddd" stroke-opacity="1" stroke-width="1" stroke-linecap="square" stroke-linejoin="bevel" transform="matrix(1.5625,0,0,1.5625,43.75,442.716)"
font-family="Arial" font-size="13" font-weight="400" font-style="normal" 
>
</g>

<g fill="none" stroke="#dddddd" stroke-opacity="1" stroke-width="1" stroke-linecap="square" stroke-linejoin="bevel" transform="matrix(1.5625,0,0,1.5625,43.75,442.716)"
font-family="Arial" font-size="13" font-weight="400" font-style="normal" 
>
<text fill="#dddddd" fill-opacity="1" stroke="none" xml:space="preserve" x="0" y="11" font-family="Arial" font-size="13" font-weight="400" font-style="normal" 
 >0.2</text>
</g>

<g fill="none" stroke="#dddddd" stroke-opacity="1" stroke-width="1" stroke-linecap="square" stroke-linejoin="bevel" transform="matrix(1.5625,0,0,1.5625,43.75,442.716)"
font-family="Arial" font-size="20.8333" font-weight="400" font-style="normal" 
>
</g>

<g fill="none" stroke="#dddddd" stroke-opacity="1" stroke-width="1" stroke-linecap="square" stroke-linejoin="bevel" transform="matrix(1.5625,0,0,1.5625,43.75,442.716)"
font-family="Arial" font-size="20.8333" font-weight="400" font-style="normal" 
>
</g>

<g fill="none" stroke="#dddddd" stroke-opacity="1" stroke-width="1" stroke-linecap="square" stroke-linejoin="bevel" transform="matrix(1.5625,0,0,1.5625,0,0)"
font-family="Arial" font-size="20.8333" font-weight="400" font-style="normal" 
>
</g>

<g fill="none" stroke="#dddddd" stroke-opacity="1" stroke-width="1" stroke-linecap="square" stroke-linejoin="bevel" transform="matrix(1.5625,0,0,1.5625,32.8125,369.943)"
font-family="Arial" font-size="20.8333" font-weight="400" font-style="normal" 
>
</g>

<g fill="none" stroke="#dddddd" stroke-opacity="1" stroke-width="1" stroke-linecap="square" stroke-linejoin="bevel" transform="matrix(1.5625,0,0,1.5625,32.8125,369.943)"
font-family="Arial" font-size="13" font-weight="400" font-style="normal" 
>
</g>

<g fill="none" stroke="#dddddd" stroke-opacity="1" stroke-width="1" stroke-linecap="square" stroke-linejoin="bevel" transform="matrix(1.5625,0,0,1.5625,32.8125,369.943)"
font-family="Arial" font-size="13" font-weight="400" font-style="normal" 
>
<text fill="#dddddd" fill-opacity="1" stroke="none" xml:space="preserve" x="0" y="11" font-family="Arial" font-size="13" font-weight="400" font-style="normal" 
 >0.22</text>
</g>

<g fill="none" stroke="#dddddd" stroke-opacity="1" stroke-width="1" stroke-linecap="square" stroke-linejoin="bevel" transform="matrix(1.5625,0,0,1.5625,32.8125,369.943)"
font-family="Arial" font-size="20.8333" font-weight="400" font-style="normal" 
>
</g>

<g fill="none" stroke="#dddddd" stroke-opacity="1" stroke-width="1" stroke-linecap="square" stroke-linejoin="bevel" transform="matrix(1.5625,0,0,1.5625,32.8125,369.943)"
font-family="Arial" font-size="20.8333" font-weight="400" font-style="normal" 
>
</g>

<g fill="none" stroke="#dddddd" stroke-opacity="1" stroke-width="1" stroke-linecap="square" stroke-linejoin="bevel" transform="matrix(1.5625,0,0,1.5625,0,0)"
font-family="Arial" font-size="20.8333" font-weight="400" font-style="normal" 
>
</g>

<g fill="none" stroke="#dddddd" stroke-opacity="1" stroke-width="1" stroke-linecap="square" stroke-linejoin="bevel" transform="matrix(1.5625,0,0,1.5625,32.8125,297.171)"
font-family="Arial" font-size="20.8333" font-weight="400" font-style="normal" 
>
</g>

<g fill="none" stroke="#dddddd" stroke-opacity="1" stroke-width="1" stroke-linecap="square" stroke-linejoin="bevel" transform="matrix(1.5625,0,0,1.5625,32.8125,297.171)"
font-family="Arial" font-size="13" font-weight="400" font-style="normal" 
>
</g>

<g fill="none" stroke="#dddddd" stroke-opacity="1" stroke-width="1" stroke-linecap="square" stroke-linejoin="bevel" transform="matrix(1.5625,0,0,1.5625,32.8125,297.171)"
font-family="Arial" font-size="13" font-weight="400" font-style="normal" 
>
<text fill="#dddddd" fill-opacity="1" stroke="none" xml:space="preserve" x="0" y="11" font-family="Arial" font-size="13" font-weight="400" font-style="normal" 
 >0.24</text>
</g>

<g fill="none" stroke="#dddddd" stroke-opacity="1" stroke-width="1" stroke-linecap="square" stroke-linejoin="bevel" transform="matrix(1.5625,0,0,1.5625,32.8125,297.171)"
font-family="Arial" font-size="20.8333" font-weight="400" font-style="normal" 
>
</g>

<g fill="none" stroke="#dddddd" stroke-opacity="1" stroke-width="1" stroke-linecap="square" stroke-linejoin="bevel" transform="matrix(1.5625,0,0,1.5625,32.8125,297.171)"
font-family="Arial" font-size="20.8333" font-weight="400" font-style="normal" 
>
</g>

<g fill="none" stroke="#dddddd" stroke-opacity="1" stroke-width="1" stroke-linecap="square" stroke-linejoin="bevel" transform="matrix(1.5625,0,0,1.5625,0,0)"
font-family="Arial" font-size="20.8333" font-weight="400" font-style="normal" 
>
</g>

<g fill="none" stroke="#dddddd" stroke-opacity="1" stroke-width="1" stroke-linecap="square" stroke-linejoin="bevel" transform="matrix(1.5625,0,0,1.5625,32.8125,224.398)"
font-family="Arial" font-size="20.8333" font-weight="400" font-style="normal" 
>
</g>

<g fill="none" stroke="#dddddd" stroke-opacity="1" stroke-width="1" stroke-linecap="square" stroke-linejoin="bevel" transform="matrix(1.5625,0,0,1.5625,32.8125,224.398)"
font-family="Arial" font-size="13" font-weight="400" font-style="normal" 
>
</g>

<g fill="none" stroke="#dddddd" stroke-opacity="1" stroke-width="1" stroke-linecap="square" stroke-linejoin="bevel" transform="matrix(1.5625,0,0,1.5625,32.8125,224.398)"
font-family="Arial" font-size="13" font-weight="400" font-style="normal" 
>
<text fill="#dddddd" fill-opacity="1" stroke="none" xml:space="preserve" x="0" y="11" font-family="Arial" font-size="13" font-weight="400" font-style="normal" 
 >0.26</text>
</g>

<g fill="none" stroke="#dddddd" stroke-opacity="1" stroke-width="1" stroke-linecap="square" stroke-linejoin="bevel" transform="matrix(1.5625,0,0,1.5625,32.8125,224.398)"
font-family="Arial" font-size="20.8333" font-weight="400" font-style="normal" 
>
</g>

<g fill="none" stroke="#dddddd" stroke-opacity="1" stroke-width="1" stroke-linecap="square" stroke-linejoin="bevel" transform="matrix(1.5625,0,0,1.5625,32.8125,224.398)"
font-family="Arial" font-size="20.8333" font-weight="400" font-style="normal" 
>
</g>

<g fill="none" stroke="#dddddd" stroke-opacity="1" stroke-width="1" stroke-linecap="square" stroke-linejoin="bevel" transform="matrix(1.5625,0,0,1.5625,0,0)"
font-family="Arial" font-size="20.8333" font-weight="400" font-style="normal" 
>
</g>

<g fill="none" stroke="#dddddd" stroke-opacity="1" stroke-width="1" stroke-linecap="square" stroke-linejoin="bevel" transform="matrix(1.5625,0,0,1.5625,32.8125,151.625)"
font-family="Arial" font-size="20.8333" font-weight="400" font-style="normal" 
>
</g>

<g fill="none" stroke="#dddddd" stroke-opacity="1" stroke-width="1" stroke-linecap="square" stroke-linejoin="bevel" transform="matrix(1.5625,0,0,1.5625,32.8125,151.625)"
font-family="Arial" font-size="13" font-weight="400" font-style="normal" 
>
</g>

<g fill="none" stroke="#dddddd" stroke-opacity="1" stroke-width="1" stroke-linecap="square" stroke-linejoin="bevel" transform="matrix(1.5625,0,0,1.5625,32.8125,151.625)"
font-family="Arial" font-size="13" font-weight="400" font-style="normal" 
>
<text fill="#dddddd" fill-opacity="1" stroke="none" xml:space="preserve" x="0" y="11" font-family="Arial" font-size="13" font-weight="400" font-style="normal" 
 >0.28</text>
</g>

<g fill="none" stroke="#dddddd" stroke-opacity="1" stroke-width="1" stroke-linecap="square" stroke-linejoin="bevel" transform="matrix(1.5625,0,0,1.5625,32.8125,151.625)"
font-family="Arial" font-size="20.8333" font-weight="400" font-style="normal" 
>
</g>

<g fill="none" stroke="#dddddd" stroke-opacity="1" stroke-width="1" stroke-linecap="square" stroke-linejoin="bevel" transform="matrix(1.5625,0,0,1.5625,32.8125,151.625)"
font-family="Arial" font-size="20.8333" font-weight="400" font-style="normal" 
>
</g>

<g fill="none" stroke="#dddddd" stroke-opacity="1" stroke-width="1" stroke-linecap="square" stroke-linejoin="bevel" transform="matrix(1.5625,0,0,1.5625,0,0)"
font-family="Arial" font-size="20.8333" font-weight="400" font-style="normal" 
>
</g>

<g fill="none" stroke="#dddddd" stroke-opacity="1" stroke-width="1" stroke-linecap="square" stroke-linejoin="bevel" transform="matrix(1.5625,0,0,1.5625,43.75,78.8525)"
font-family="Arial" font-size="20.8333" font-weight="400" font-style="normal" 
>
</g>

<g fill="none" stroke="#dddddd" stroke-opacity="1" stroke-width="1" stroke-linecap="square" stroke-linejoin="bevel" transform="matrix(1.5625,0,0,1.5625,43.75,78.8525)"
font-family="Arial" font-size="13" font-weight="400" font-style="normal" 
>
</g>

<g fill="none" stroke="#dddddd" stroke-opacity="1" stroke-width="1" stroke-linecap="square" stroke-linejoin="bevel" transform="matrix(1.5625,0,0,1.5625,43.75,78.8525)"
font-family="Arial" font-size="13" font-weight="400" font-style="normal" 
>
<text fill="#dddddd" fill-opacity="1" stroke="none" xml:space="preserve" x="0" y="11" font-family="Arial" font-size="13" font-weight="400" font-style="normal" 
 >0.3</text>
</g>

<g fill="none" stroke="#dddddd" stroke-opacity="1" stroke-width="1" stroke-linecap="square" stroke-linejoin="bevel" transform="matrix(1.5625,0,0,1.5625,43.75,78.8525)"
font-family="Arial" font-size="20.8333" font-weight="400" font-style="normal" 
>
</g>

<g fill="none" stroke="#dddddd" stroke-opacity="1" stroke-width="1" stroke-linecap="square" stroke-linejoin="bevel" transform="matrix(1.5625,0,0,1.5625,43.75,78.8525)"
font-family="Arial" font-size="20.8333" font-weight="400" font-style="normal" 
>
</g>

<g fill="none" stroke="#dddddd" stroke-opacity="1" stroke-width="1" stroke-linecap="square" stroke-linejoin="bevel" transform="matrix(1.5625,0,0,1.5625,0,0)"
font-family="Arial" font-size="20.8333" font-weight="400" font-style="normal" 
>
</g>

<g fill="none" stroke="#dddddd" stroke-opacity="1" stroke-width="1" stroke-linecap="square" stroke-linejoin="bevel" transform="matrix(1.5625,0,0,1.5625,0,0)"
font-family="Arial" font-size="20.8333" font-weight="400" font-style="normal" 
>
</g>

<g fill="none" stroke="#dddddd" stroke-opacity="1" stroke-width="1" stroke-linecap="butt" stroke-linejoin="bevel" transform="matrix(1.5625,0,0,1.5625,0,0)"
font-family="Arial" font-size="20.8333" font-weight="400" font-style="normal" 
>
<polyline fill="none" vector-effect="non-scaling-stroke" points="59,300.482 55,300.482 " />
<polyline fill="none" vector-effect="non-scaling-stroke" points="59,277.195 55,277.195 " />
<polyline fill="none" vector-effect="non-scaling-stroke" points="59,253.907 55,253.907 " />
<polyline fill="none" vector-effect="non-scaling-stroke" points="59,230.62 55,230.62 " />
<polyline fill="none" vector-effect="non-scaling-stroke" points="59,207.333 55,207.333 " />
<polyline fill="none" vector-effect="non-scaling-stroke" points="59,184.046 55,184.046 " />
<polyline fill="none" vector-effect="non-scaling-stroke" points="59,160.758 55,160.758 " />
<polyline fill="none" vector-effect="non-scaling-stroke" points="59,137.471 55,137.471 " />
<polyline fill="none" vector-effect="non-scaling-stroke" points="59,114.184 55,114.184 " />
<polyline fill="none" vector-effect="non-scaling-stroke" points="59,90.8965 55,90.8965 " />
<polyline fill="none" vector-effect="non-scaling-stroke" points="59,67.6093 55,67.6093 " />
<polyline fill="none" vector-effect="non-scaling-stroke" points="59,44.322 55,44.322 " />
<polyline fill="none" vector-effect="non-scaling-stroke" points="59,312.125 53,312.125 " />
<polyline fill="none" vector-effect="non-scaling-stroke" points="59,265.551 53,265.551 " />
<polyline fill="none" vector-effect="non-scaling-stroke" points="59,218.976 53,218.976 " />
<polyline fill="none" vector-effect="non-scaling-stroke" points="59,172.402 53,172.402 " />
<polyline fill="none" vector-effect="non-scaling-stroke" points="59,125.827 53,125.827 " />
<polyline fill="none" vector-effect="non-scaling-stroke" points="59,79.2529 53,79.2529 " />
<polyline fill="none" vector-effect="non-scaling-stroke" points="59,32.6784 53,32.6784 " />
<polyline fill="none" vector-effect="non-scaling-stroke" points="59,288.838 51,288.838 " />
<polyline fill="none" vector-effect="non-scaling-stroke" points="59,242.264 51,242.264 " />
<polyline fill="none" vector-effect="non-scaling-stroke" points="59,195.689 51,195.689 " />
<polyline fill="none" vector-effect="non-scaling-stroke" points="59,149.115 51,149.115 " />
<polyline fill="none" vector-effect="non-scaling-stroke" points="59,102.54 51,102.54 " />
<polyline fill="none" vector-effect="non-scaling-stroke" points="59,55.9656 51,55.9656 " />
</g>

<g fill="none" stroke="#dddddd" stroke-opacity="1" stroke-width="1" stroke-linecap="square" stroke-linejoin="bevel" transform="matrix(1.5625,0,0,1.5625,0,0)"
font-family="Arial" font-size="20.8333" font-weight="400" font-style="normal" 
>
</g>

<g fill="none" stroke="#dddddd" stroke-opacity="1" stroke-width="1" stroke-linecap="butt" stroke-linejoin="bevel" transform="matrix(1.5625,0,0,1.5625,0,0)"
font-family="Arial" font-size="20.8333" font-weight="400" font-style="normal" 
>
<polyline fill="none" vector-effect="non-scaling-stroke" points="59,27 59,322.953 " />
</g>

<g fill="none" stroke="#dddddd" stroke-opacity="1" stroke-width="1" stroke-linecap="square" stroke-linejoin="bevel" transform="matrix(1.5625,0,0,1.5625,0,0)"
font-family="Arial" font-size="20.8333" font-weight="400" font-style="normal" 
>
</g>

<g fill="none" stroke="#dddddd" stroke-opacity="1" stroke-width="1" stroke-linecap="square" stroke-linejoin="bevel" transform="matrix(1.5625,0,0,1.5625,0,0)"
font-family="Arial" font-size="20.8333" font-weight="400" font-style="normal" 
>
</g>

<g fill="none" stroke="#dddddd" stroke-opacity="1" stroke-width="1" stroke-linecap="square" stroke-linejoin="bevel" transform="matrix(1.5625,0,0,1.5625,0,0)"
font-family="Arial" font-size="20.8333" font-weight="400" font-style="normal" 
>
</g>

<g fill="none" stroke="#dddddd" stroke-opacity="1" stroke-width="1" stroke-linecap="square" stroke-linejoin="bevel" transform="matrix(0,1.5625,-1.5625,0,885.827,42.1875)"
font-family="Arial" font-size="20.8333" font-weight="400" font-style="normal" 
>
</g>

<g fill="none" stroke="#0064ff" stroke-opacity="1" stroke-width="1" stroke-linecap="square" stroke-linejoin="bevel" transform="matrix(0,1.5625,-1.5625,0,885.827,42.1875)"
font-family="MS Shell Dlg 2" font-size="25" font-weight="700" font-style="normal" 
>
</g>

<g fill="none" stroke="#0064ff" stroke-opacity="1" stroke-width="1" stroke-linecap="square" stroke-linejoin="bevel" transform="matrix(0,1.5625,-1.5625,0,885.827,42.1875)"
font-family="MS Shell Dlg 2" font-size="16" font-weight="700" font-style="normal" 
>
</g>

<g fill="none" stroke="#0064ff" stroke-opacity="1" stroke-width="1" stroke-linecap="square" stroke-linejoin="bevel" transform="matrix(0,1.5625,-1.5625,0,885.827,42.1875)"
font-family="MS Shell Dlg 2" font-size="16" font-weight="700" font-style="normal" 
>
<text fill="#0064ff" fill-opacity="1" stroke="none" xml:space="preserve" x="97.4688" y="16" font-family="MS Shell Dlg 2" font-size="16" font-weight="700" font-style="normal" 
 >Fine In 2 (V)</text>
</g>

<g fill="none" stroke="#0064ff" stroke-opacity="1" stroke-width="1" stroke-linecap="square" stroke-linejoin="bevel" transform="matrix(0,1.5625,-1.5625,0,885.827,42.1875)"
font-family="MS Shell Dlg 2" font-size="25" font-weight="700" font-style="normal" 
>
</g>

<g fill="none" stroke="#dddddd" stroke-opacity="1" stroke-width="1" stroke-linecap="square" stroke-linejoin="bevel" transform="matrix(0,1.5625,-1.5625,0,885.827,42.1875)"
font-family="Arial" font-size="20.8333" font-weight="400" font-style="normal" 
>
</g>

<g fill="none" stroke="#dddddd" stroke-opacity="1" stroke-width="1" stroke-linecap="square" stroke-linejoin="bevel" transform="matrix(1.5625,0,0,1.5625,0,0)"
font-family="Arial" font-size="20.8333" font-weight="400" font-style="normal" 
>
</g>

<g fill="none" stroke="#dddddd" stroke-opacity="1" stroke-width="1" stroke-linecap="square" stroke-linejoin="bevel" transform="matrix(1.5625,0,0,1.5625,0,0)"
font-family="Arial" font-size="20.8333" font-weight="400" font-style="normal" 
>
</g>

<g fill="none" stroke="#dddddd" stroke-opacity="1" stroke-width="1" stroke-linecap="square" stroke-linejoin="bevel" transform="matrix(1.5625,0,0,1.5625,0,0)"
font-family="Arial" font-size="20.8333" font-weight="400" font-style="normal" 
>
</g>

<g fill="none" stroke="#dddddd" stroke-opacity="1" stroke-width="1" stroke-linecap="square" stroke-linejoin="bevel" transform="matrix(1.5625,0,0,1.5625,0,0)"
font-family="Arial" font-size="20.8333" font-weight="400" font-style="normal" 
>
</g>

<g fill="none" stroke="#dddddd" stroke-opacity="1" stroke-width="1" stroke-linecap="square" stroke-linejoin="bevel" transform="matrix(1.5625,0,0,1.5625,823.327,491.235)"
font-family="Arial" font-size="20.8333" font-weight="400" font-style="normal" 
>
</g>

<g fill="none" stroke="#dddddd" stroke-opacity="1" stroke-width="1" stroke-linecap="square" stroke-linejoin="bevel" transform="matrix(1.5625,0,0,1.5625,823.327,491.235)"
font-family="Arial" font-size="13" font-weight="400" font-style="normal" 
>
</g>

<g fill="none" stroke="#dddddd" stroke-opacity="1" stroke-width="1" stroke-linecap="square" stroke-linejoin="bevel" transform="matrix(1.5625,0,0,1.5625,823.327,491.235)"
font-family="Arial" font-size="13" font-weight="400" font-style="normal" 
>
<text fill="#dddddd" fill-opacity="1" stroke="none" xml:space="preserve" x="0" y="11" font-family="Arial" font-size="13" font-weight="400" font-style="normal" 
 >0.4</text>
</g>

<g fill="none" stroke="#dddddd" stroke-opacity="1" stroke-width="1" stroke-linecap="square" stroke-linejoin="bevel" transform="matrix(1.5625,0,0,1.5625,823.327,491.235)"
font-family="Arial" font-size="20.8333" font-weight="400" font-style="normal" 
>
</g>

<g fill="none" stroke="#dddddd" stroke-opacity="1" stroke-width="1" stroke-linecap="square" stroke-linejoin="bevel" transform="matrix(1.5625,0,0,1.5625,823.327,491.235)"
font-family="Arial" font-size="20.8333" font-weight="400" font-style="normal" 
>
</g>

<g fill="none" stroke="#dddddd" stroke-opacity="1" stroke-width="1" stroke-linecap="square" stroke-linejoin="bevel" transform="matrix(1.5625,0,0,1.5625,0,0)"
font-family="Arial" font-size="20.8333" font-weight="400" font-style="normal" 
>
</g>

<g fill="none" stroke="#dddddd" stroke-opacity="1" stroke-width="1" stroke-linecap="square" stroke-linejoin="bevel" transform="matrix(1.5625,0,0,1.5625,823.327,390.688)"
font-family="Arial" font-size="20.8333" font-weight="400" font-style="normal" 
>
</g>

<g fill="none" stroke="#dddddd" stroke-opacity="1" stroke-width="1" stroke-linecap="square" stroke-linejoin="bevel" transform="matrix(1.5625,0,0,1.5625,823.327,390.688)"
font-family="Arial" font-size="13" font-weight="400" font-style="normal" 
>
</g>

<g fill="none" stroke="#dddddd" stroke-opacity="1" stroke-width="1" stroke-linecap="square" stroke-linejoin="bevel" transform="matrix(1.5625,0,0,1.5625,823.327,390.688)"
font-family="Arial" font-size="13" font-weight="400" font-style="normal" 
>
<text fill="#dddddd" fill-opacity="1" stroke="none" xml:space="preserve" x="0" y="11" font-family="Arial" font-size="13" font-weight="400" font-style="normal" 
 >0.5</text>
</g>

<g fill="none" stroke="#dddddd" stroke-opacity="1" stroke-width="1" stroke-linecap="square" stroke-linejoin="bevel" transform="matrix(1.5625,0,0,1.5625,823.327,390.688)"
font-family="Arial" font-size="20.8333" font-weight="400" font-style="normal" 
>
</g>

<g fill="none" stroke="#dddddd" stroke-opacity="1" stroke-width="1" stroke-linecap="square" stroke-linejoin="bevel" transform="matrix(1.5625,0,0,1.5625,823.327,390.688)"
font-family="Arial" font-size="20.8333" font-weight="400" font-style="normal" 
>
</g>

<g fill="none" stroke="#dddddd" stroke-opacity="1" stroke-width="1" stroke-linecap="square" stroke-linejoin="bevel" transform="matrix(1.5625,0,0,1.5625,0,0)"
font-family="Arial" font-size="20.8333" font-weight="400" font-style="normal" 
>
</g>

<g fill="none" stroke="#dddddd" stroke-opacity="1" stroke-width="1" stroke-linecap="square" stroke-linejoin="bevel" transform="matrix(1.5625,0,0,1.5625,823.327,290.141)"
font-family="Arial" font-size="20.8333" font-weight="400" font-style="normal" 
>
</g>

<g fill="none" stroke="#dddddd" stroke-opacity="1" stroke-width="1" stroke-linecap="square" stroke-linejoin="bevel" transform="matrix(1.5625,0,0,1.5625,823.327,290.141)"
font-family="Arial" font-size="13" font-weight="400" font-style="normal" 
>
</g>

<g fill="none" stroke="#dddddd" stroke-opacity="1" stroke-width="1" stroke-linecap="square" stroke-linejoin="bevel" transform="matrix(1.5625,0,0,1.5625,823.327,290.141)"
font-family="Arial" font-size="13" font-weight="400" font-style="normal" 
>
<text fill="#dddddd" fill-opacity="1" stroke="none" xml:space="preserve" x="0" y="11" font-family="Arial" font-size="13" font-weight="400" font-style="normal" 
 >0.6</text>
</g>

<g fill="none" stroke="#dddddd" stroke-opacity="1" stroke-width="1" stroke-linecap="square" stroke-linejoin="bevel" transform="matrix(1.5625,0,0,1.5625,823.327,290.141)"
font-family="Arial" font-size="20.8333" font-weight="400" font-style="normal" 
>
</g>

<g fill="none" stroke="#dddddd" stroke-opacity="1" stroke-width="1" stroke-linecap="square" stroke-linejoin="bevel" transform="matrix(1.5625,0,0,1.5625,823.327,290.141)"
font-family="Arial" font-size="20.8333" font-weight="400" font-style="normal" 
>
</g>

<g fill="none" stroke="#dddddd" stroke-opacity="1" stroke-width="1" stroke-linecap="square" stroke-linejoin="bevel" transform="matrix(1.5625,0,0,1.5625,0,0)"
font-family="Arial" font-size="20.8333" font-weight="400" font-style="normal" 
>
</g>

<g fill="none" stroke="#dddddd" stroke-opacity="1" stroke-width="1" stroke-linecap="square" stroke-linejoin="bevel" transform="matrix(1.5625,0,0,1.5625,823.327,189.595)"
font-family="Arial" font-size="20.8333" font-weight="400" font-style="normal" 
>
</g>

<g fill="none" stroke="#dddddd" stroke-opacity="1" stroke-width="1" stroke-linecap="square" stroke-linejoin="bevel" transform="matrix(1.5625,0,0,1.5625,823.327,189.595)"
font-family="Arial" font-size="13" font-weight="400" font-style="normal" 
>
</g>

<g fill="none" stroke="#dddddd" stroke-opacity="1" stroke-width="1" stroke-linecap="square" stroke-linejoin="bevel" transform="matrix(1.5625,0,0,1.5625,823.327,189.595)"
font-family="Arial" font-size="13" font-weight="400" font-style="normal" 
>
<text fill="#dddddd" fill-opacity="1" stroke="none" xml:space="preserve" x="0" y="11" font-family="Arial" font-size="13" font-weight="400" font-style="normal" 
 >0.7</text>
</g>

<g fill="none" stroke="#dddddd" stroke-opacity="1" stroke-width="1" stroke-linecap="square" stroke-linejoin="bevel" transform="matrix(1.5625,0,0,1.5625,823.327,189.595)"
font-family="Arial" font-size="20.8333" font-weight="400" font-style="normal" 
>
</g>

<g fill="none" stroke="#dddddd" stroke-opacity="1" stroke-width="1" stroke-linecap="square" stroke-linejoin="bevel" transform="matrix(1.5625,0,0,1.5625,823.327,189.595)"
font-family="Arial" font-size="20.8333" font-weight="400" font-style="normal" 
>
</g>

<g fill="none" stroke="#dddddd" stroke-opacity="1" stroke-width="1" stroke-linecap="square" stroke-linejoin="bevel" transform="matrix(1.5625,0,0,1.5625,0,0)"
font-family="Arial" font-size="20.8333" font-weight="400" font-style="normal" 
>
</g>

<g fill="none" stroke="#dddddd" stroke-opacity="1" stroke-width="1" stroke-linecap="square" stroke-linejoin="bevel" transform="matrix(1.5625,0,0,1.5625,823.327,89.0483)"
font-family="Arial" font-size="20.8333" font-weight="400" font-style="normal" 
>
</g>

<g fill="none" stroke="#dddddd" stroke-opacity="1" stroke-width="1" stroke-linecap="square" stroke-linejoin="bevel" transform="matrix(1.5625,0,0,1.5625,823.327,89.0483)"
font-family="Arial" font-size="13" font-weight="400" font-style="normal" 
>
</g>

<g fill="none" stroke="#dddddd" stroke-opacity="1" stroke-width="1" stroke-linecap="square" stroke-linejoin="bevel" transform="matrix(1.5625,0,0,1.5625,823.327,89.0483)"
font-family="Arial" font-size="13" font-weight="400" font-style="normal" 
>
<text fill="#dddddd" fill-opacity="1" stroke="none" xml:space="preserve" x="0" y="11" font-family="Arial" font-size="13" font-weight="400" font-style="normal" 
 >0.8</text>
</g>

<g fill="none" stroke="#dddddd" stroke-opacity="1" stroke-width="1" stroke-linecap="square" stroke-linejoin="bevel" transform="matrix(1.5625,0,0,1.5625,823.327,89.0483)"
font-family="Arial" font-size="20.8333" font-weight="400" font-style="normal" 
>
</g>

<g fill="none" stroke="#dddddd" stroke-opacity="1" stroke-width="1" stroke-linecap="square" stroke-linejoin="bevel" transform="matrix(1.5625,0,0,1.5625,823.327,89.0483)"
font-family="Arial" font-size="20.8333" font-weight="400" font-style="normal" 
>
</g>

<g fill="none" stroke="#dddddd" stroke-opacity="1" stroke-width="1" stroke-linecap="square" stroke-linejoin="bevel" transform="matrix(1.5625,0,0,1.5625,0,0)"
font-family="Arial" font-size="20.8333" font-weight="400" font-style="normal" 
>
</g>

<g fill="none" stroke="#dddddd" stroke-opacity="1" stroke-width="1" stroke-linecap="square" stroke-linejoin="bevel" transform="matrix(1.5625,0,0,1.5625,0,0)"
font-family="Arial" font-size="20.8333" font-weight="400" font-style="normal" 
>
</g>

<g fill="none" stroke="#dddddd" stroke-opacity="1" stroke-width="1" stroke-linecap="butt" stroke-linejoin="bevel" transform="matrix(1.5625,0,0,1.5625,0,0)"
font-family="Arial" font-size="20.8333" font-weight="400" font-style="normal" 
>
<polyline fill="none" vector-effect="non-scaling-stroke" points="513.929,307.02 517.929,307.02 " />
<polyline fill="none" vector-effect="non-scaling-stroke" points="513.929,294.15 517.929,294.15 " />
<polyline fill="none" vector-effect="non-scaling-stroke" points="513.929,281.28 517.929,281.28 " />
<polyline fill="none" vector-effect="non-scaling-stroke" points="513.929,268.41 517.929,268.41 " />
<polyline fill="none" vector-effect="non-scaling-stroke" points="513.929,242.67 517.929,242.67 " />
<polyline fill="none" vector-effect="non-scaling-stroke" points="513.929,229.8 517.929,229.8 " />
<polyline fill="none" vector-effect="non-scaling-stroke" points="513.929,216.93 517.929,216.93 " />
<polyline fill="none" vector-effect="non-scaling-stroke" points="513.929,204.06 517.929,204.06 " />
<polyline fill="none" vector-effect="non-scaling-stroke" points="513.929,178.321 517.929,178.321 " />
<polyline fill="none" vector-effect="non-scaling-stroke" points="513.929,165.451 517.929,165.451 " />
<polyline fill="none" vector-effect="non-scaling-stroke" points="513.929,152.581 517.929,152.581 " />
<polyline fill="none" vector-effect="non-scaling-stroke" points="513.929,139.711 517.929,139.711 " />
<polyline fill="none" vector-effect="non-scaling-stroke" points="513.929,113.971 517.929,113.971 " />
<polyline fill="none" vector-effect="non-scaling-stroke" points="513.929,101.101 517.929,101.101 " />
<polyline fill="none" vector-effect="non-scaling-stroke" points="513.929,88.2308 517.929,88.2308 " />
<polyline fill="none" vector-effect="non-scaling-stroke" points="513.929,75.3609 517.929,75.3609 " />
<polyline fill="none" vector-effect="non-scaling-stroke" points="513.929,49.6209 517.929,49.6209 " />
<polyline fill="none" vector-effect="non-scaling-stroke" points="513.929,36.751 517.929,36.751 " />
<polyline fill="none" vector-effect="non-scaling-stroke" points="513.929,319.89 521.929,319.89 " />
<polyline fill="none" vector-effect="non-scaling-stroke" points="513.929,255.54 521.929,255.54 " />
<polyline fill="none" vector-effect="non-scaling-stroke" points="513.929,191.191 521.929,191.191 " />
<polyline fill="none" vector-effect="non-scaling-stroke" points="513.929,126.841 521.929,126.841 " />
<polyline fill="none" vector-effect="non-scaling-stroke" points="513.929,62.4909 521.929,62.4909 " />
</g>

<g fill="none" stroke="#dddddd" stroke-opacity="1" stroke-width="1" stroke-linecap="square" stroke-linejoin="bevel" transform="matrix(1.5625,0,0,1.5625,0,0)"
font-family="Arial" font-size="20.8333" font-weight="400" font-style="normal" 
>
</g>

<g fill="none" stroke="#dddddd" stroke-opacity="1" stroke-width="1" stroke-linecap="butt" stroke-linejoin="bevel" transform="matrix(1.5625,0,0,1.5625,0,0)"
font-family="Arial" font-size="20.8333" font-weight="400" font-style="normal" 
>
<polyline fill="none" vector-effect="non-scaling-stroke" points="513.929,27 513.929,322.953 " />
</g>

<g fill="none" stroke="#dddddd" stroke-opacity="1" stroke-width="1" stroke-linecap="square" stroke-linejoin="bevel" transform="matrix(1.5625,0,0,1.5625,0,0)"
font-family="Arial" font-size="20.8333" font-weight="400" font-style="normal" 
>
</g>

<g fill="none" stroke="#dddddd" stroke-opacity="1" stroke-width="1" stroke-linecap="square" stroke-linejoin="bevel" transform="matrix(1.5625,0,0,1.5625,0,0)"
font-family="Arial" font-size="20.8333" font-weight="400" font-style="normal" 
>
</g>

<g fill="none" stroke="#dddddd" stroke-opacity="1" stroke-width="1" stroke-linecap="square" stroke-linejoin="bevel" transform="matrix(1.5625,0,0,1.5625,0,0)"
font-family="Arial" font-size="20.8333" font-weight="400" font-style="normal" 
>
</g>

<g fill="none" stroke="#dddddd" stroke-opacity="1" stroke-width="1" stroke-linecap="square" stroke-linejoin="bevel" transform="matrix(1.5625,0,0,1.5625,101.562,559.301)"
font-family="Arial" font-size="20.8333" font-weight="400" font-style="normal" 
>
</g>

<g fill="none" stroke="#dddddd" stroke-opacity="1" stroke-width="1" stroke-linecap="square" stroke-linejoin="bevel" transform="matrix(1.5625,0,0,1.5625,101.562,559.301)"
font-family="MS Shell Dlg 2" font-size="25" font-weight="700" font-style="normal" 
>
</g>

<g fill="none" stroke="#dddddd" stroke-opacity="1" stroke-width="1" stroke-linecap="square" stroke-linejoin="bevel" transform="matrix(1.5625,0,0,1.5625,101.562,559.301)"
font-family="MS Shell Dlg 2" font-size="16" font-weight="700" font-style="normal" 
>
</g>

<g fill="none" stroke="#dddddd" stroke-opacity="1" stroke-width="1" stroke-linecap="square" stroke-linejoin="bevel" transform="matrix(1.5625,0,0,1.5625,101.562,559.301)"
font-family="MS Shell Dlg 2" font-size="16" font-weight="700" font-style="normal" 
>
<text fill="#dddddd" fill-opacity="1" stroke="none" xml:space="preserve" x="148.453" y="17" font-family="MS Shell Dlg 2" font-size="16" font-weight="700" font-style="normal" 
 >Piezo Voltage (V)</text>
</g>

<g fill="none" stroke="#dddddd" stroke-opacity="1" stroke-width="1" stroke-linecap="square" stroke-linejoin="bevel" transform="matrix(1.5625,0,0,1.5625,101.562,559.301)"
font-family="MS Shell Dlg 2" font-size="25" font-weight="700" font-style="normal" 
>
</g>

<g fill="none" stroke="#dddddd" stroke-opacity="1" stroke-width="1" stroke-linecap="square" stroke-linejoin="bevel" transform="matrix(1.5625,0,0,1.5625,101.562,559.301)"
font-family="Arial" font-size="20.8333" font-weight="400" font-style="normal" 
>
</g>

<g fill="none" stroke="#dddddd" stroke-opacity="1" stroke-width="1" stroke-linecap="square" stroke-linejoin="bevel" transform="matrix(1.5625,0,0,1.5625,0,0)"
font-family="Arial" font-size="20.8333" font-weight="400" font-style="normal" 
>
</g>

<g fill="none" stroke="#dddddd" stroke-opacity="1" stroke-width="1" stroke-linecap="square" stroke-linejoin="bevel" transform="matrix(1.5625,0,0,1.5625,0,0)"
font-family="Arial" font-size="20.8333" font-weight="400" font-style="normal" 
>
</g>

<g fill="none" stroke="#dddddd" stroke-opacity="1" stroke-width="1" stroke-linecap="square" stroke-linejoin="bevel" transform="matrix(1.5625,0,0,1.5625,0,0)"
font-family="Arial" font-size="20.8333" font-weight="400" font-style="normal" 
>
</g>

<g fill="none" stroke="#dddddd" stroke-opacity="1" stroke-width="1" stroke-linecap="square" stroke-linejoin="bevel" transform="matrix(1.5625,0,0,1.5625,0,0)"
font-family="Arial" font-size="20.8333" font-weight="400" font-style="normal" 
>
</g>

<g fill="none" stroke="#dddddd" stroke-opacity="1" stroke-width="1" stroke-linecap="square" stroke-linejoin="bevel" transform="matrix(1.5625,0,0,1.5625,101.589,538.989)"
font-family="Arial" font-size="20.8333" font-weight="400" font-style="normal" 
>
</g>

<g fill="none" stroke="#dddddd" stroke-opacity="1" stroke-width="1" stroke-linecap="square" stroke-linejoin="bevel" transform="matrix(1.5625,0,0,1.5625,101.589,538.989)"
font-family="Arial" font-size="13" font-weight="400" font-style="normal" 
>
</g>

<g fill="none" stroke="#dddddd" stroke-opacity="1" stroke-width="1" stroke-linecap="square" stroke-linejoin="bevel" transform="matrix(1.5625,0,0,1.5625,101.589,538.989)"
font-family="Arial" font-size="13" font-weight="400" font-style="normal" 
>
<text fill="#dddddd" fill-opacity="1" stroke="none" xml:space="preserve" x="0" y="11" font-family="Arial" font-size="13" font-weight="400" font-style="normal" 
 >50</text>
</g>

<g fill="none" stroke="#dddddd" stroke-opacity="1" stroke-width="1" stroke-linecap="square" stroke-linejoin="bevel" transform="matrix(1.5625,0,0,1.5625,101.589,538.989)"
font-family="Arial" font-size="20.8333" font-weight="400" font-style="normal" 
>
</g>

<g fill="none" stroke="#dddddd" stroke-opacity="1" stroke-width="1" stroke-linecap="square" stroke-linejoin="bevel" transform="matrix(1.5625,0,0,1.5625,101.589,538.989)"
font-family="Arial" font-size="20.8333" font-weight="400" font-style="normal" 
>
</g>

<g fill="none" stroke="#dddddd" stroke-opacity="1" stroke-width="1" stroke-linecap="square" stroke-linejoin="bevel" transform="matrix(1.5625,0,0,1.5625,0,0)"
font-family="Arial" font-size="20.8333" font-weight="400" font-style="normal" 
>
</g>

<g fill="none" stroke="#dddddd" stroke-opacity="1" stroke-width="1" stroke-linecap="square" stroke-linejoin="bevel" transform="matrix(1.5625,0,0,1.5625,232.42,538.989)"
font-family="Arial" font-size="20.8333" font-weight="400" font-style="normal" 
>
</g>

<g fill="none" stroke="#dddddd" stroke-opacity="1" stroke-width="1" stroke-linecap="square" stroke-linejoin="bevel" transform="matrix(1.5625,0,0,1.5625,232.42,538.989)"
font-family="Arial" font-size="13" font-weight="400" font-style="normal" 
>
</g>

<g fill="none" stroke="#dddddd" stroke-opacity="1" stroke-width="1" stroke-linecap="square" stroke-linejoin="bevel" transform="matrix(1.5625,0,0,1.5625,232.42,538.989)"
font-family="Arial" font-size="13" font-weight="400" font-style="normal" 
>
<text fill="#dddddd" fill-opacity="1" stroke="none" xml:space="preserve" x="0" y="11" font-family="Arial" font-size="13" font-weight="400" font-style="normal" 
 >55</text>
</g>

<g fill="none" stroke="#dddddd" stroke-opacity="1" stroke-width="1" stroke-linecap="square" stroke-linejoin="bevel" transform="matrix(1.5625,0,0,1.5625,232.42,538.989)"
font-family="Arial" font-size="20.8333" font-weight="400" font-style="normal" 
>
</g>

<g fill="none" stroke="#dddddd" stroke-opacity="1" stroke-width="1" stroke-linecap="square" stroke-linejoin="bevel" transform="matrix(1.5625,0,0,1.5625,232.42,538.989)"
font-family="Arial" font-size="20.8333" font-weight="400" font-style="normal" 
>
</g>

<g fill="none" stroke="#dddddd" stroke-opacity="1" stroke-width="1" stroke-linecap="square" stroke-linejoin="bevel" transform="matrix(1.5625,0,0,1.5625,0,0)"
font-family="Arial" font-size="20.8333" font-weight="400" font-style="normal" 
>
</g>

<g fill="none" stroke="#dddddd" stroke-opacity="1" stroke-width="1" stroke-linecap="square" stroke-linejoin="bevel" transform="matrix(1.5625,0,0,1.5625,363.252,538.989)"
font-family="Arial" font-size="20.8333" font-weight="400" font-style="normal" 
>
</g>

<g fill="none" stroke="#dddddd" stroke-opacity="1" stroke-width="1" stroke-linecap="square" stroke-linejoin="bevel" transform="matrix(1.5625,0,0,1.5625,363.252,538.989)"
font-family="Arial" font-size="13" font-weight="400" font-style="normal" 
>
</g>

<g fill="none" stroke="#dddddd" stroke-opacity="1" stroke-width="1" stroke-linecap="square" stroke-linejoin="bevel" transform="matrix(1.5625,0,0,1.5625,363.252,538.989)"
font-family="Arial" font-size="13" font-weight="400" font-style="normal" 
>
<text fill="#dddddd" fill-opacity="1" stroke="none" xml:space="preserve" x="0" y="11" font-family="Arial" font-size="13" font-weight="400" font-style="normal" 
 >60</text>
</g>

<g fill="none" stroke="#dddddd" stroke-opacity="1" stroke-width="1" stroke-linecap="square" stroke-linejoin="bevel" transform="matrix(1.5625,0,0,1.5625,363.252,538.989)"
font-family="Arial" font-size="20.8333" font-weight="400" font-style="normal" 
>
</g>

<g fill="none" stroke="#dddddd" stroke-opacity="1" stroke-width="1" stroke-linecap="square" stroke-linejoin="bevel" transform="matrix(1.5625,0,0,1.5625,363.252,538.989)"
font-family="Arial" font-size="20.8333" font-weight="400" font-style="normal" 
>
</g>

<g fill="none" stroke="#dddddd" stroke-opacity="1" stroke-width="1" stroke-linecap="square" stroke-linejoin="bevel" transform="matrix(1.5625,0,0,1.5625,0,0)"
font-family="Arial" font-size="20.8333" font-weight="400" font-style="normal" 
>
</g>

<g fill="none" stroke="#dddddd" stroke-opacity="1" stroke-width="1" stroke-linecap="square" stroke-linejoin="bevel" transform="matrix(1.5625,0,0,1.5625,494.083,538.989)"
font-family="Arial" font-size="20.8333" font-weight="400" font-style="normal" 
>
</g>

<g fill="none" stroke="#dddddd" stroke-opacity="1" stroke-width="1" stroke-linecap="square" stroke-linejoin="bevel" transform="matrix(1.5625,0,0,1.5625,494.083,538.989)"
font-family="Arial" font-size="13" font-weight="400" font-style="normal" 
>
</g>

<g fill="none" stroke="#dddddd" stroke-opacity="1" stroke-width="1" stroke-linecap="square" stroke-linejoin="bevel" transform="matrix(1.5625,0,0,1.5625,494.083,538.989)"
font-family="Arial" font-size="13" font-weight="400" font-style="normal" 
>
<text fill="#dddddd" fill-opacity="1" stroke="none" xml:space="preserve" x="0" y="11" font-family="Arial" font-size="13" font-weight="400" font-style="normal" 
 >65</text>
</g>

<g fill="none" stroke="#dddddd" stroke-opacity="1" stroke-width="1" stroke-linecap="square" stroke-linejoin="bevel" transform="matrix(1.5625,0,0,1.5625,494.083,538.989)"
font-family="Arial" font-size="20.8333" font-weight="400" font-style="normal" 
>
</g>

<g fill="none" stroke="#dddddd" stroke-opacity="1" stroke-width="1" stroke-linecap="square" stroke-linejoin="bevel" transform="matrix(1.5625,0,0,1.5625,494.083,538.989)"
font-family="Arial" font-size="20.8333" font-weight="400" font-style="normal" 
>
</g>

<g fill="none" stroke="#dddddd" stroke-opacity="1" stroke-width="1" stroke-linecap="square" stroke-linejoin="bevel" transform="matrix(1.5625,0,0,1.5625,0,0)"
font-family="Arial" font-size="20.8333" font-weight="400" font-style="normal" 
>
</g>

<g fill="none" stroke="#dddddd" stroke-opacity="1" stroke-width="1" stroke-linecap="square" stroke-linejoin="bevel" transform="matrix(1.5625,0,0,1.5625,624.915,538.989)"
font-family="Arial" font-size="20.8333" font-weight="400" font-style="normal" 
>
</g>

<g fill="none" stroke="#dddddd" stroke-opacity="1" stroke-width="1" stroke-linecap="square" stroke-linejoin="bevel" transform="matrix(1.5625,0,0,1.5625,624.915,538.989)"
font-family="Arial" font-size="13" font-weight="400" font-style="normal" 
>
</g>

<g fill="none" stroke="#dddddd" stroke-opacity="1" stroke-width="1" stroke-linecap="square" stroke-linejoin="bevel" transform="matrix(1.5625,0,0,1.5625,624.915,538.989)"
font-family="Arial" font-size="13" font-weight="400" font-style="normal" 
>
<text fill="#dddddd" fill-opacity="1" stroke="none" xml:space="preserve" x="0" y="11" font-family="Arial" font-size="13" font-weight="400" font-style="normal" 
 >70</text>
</g>

<g fill="none" stroke="#dddddd" stroke-opacity="1" stroke-width="1" stroke-linecap="square" stroke-linejoin="bevel" transform="matrix(1.5625,0,0,1.5625,624.915,538.989)"
font-family="Arial" font-size="20.8333" font-weight="400" font-style="normal" 
>
</g>

<g fill="none" stroke="#dddddd" stroke-opacity="1" stroke-width="1" stroke-linecap="square" stroke-linejoin="bevel" transform="matrix(1.5625,0,0,1.5625,624.915,538.989)"
font-family="Arial" font-size="20.8333" font-weight="400" font-style="normal" 
>
</g>

<g fill="none" stroke="#dddddd" stroke-opacity="1" stroke-width="1" stroke-linecap="square" stroke-linejoin="bevel" transform="matrix(1.5625,0,0,1.5625,0,0)"
font-family="Arial" font-size="20.8333" font-weight="400" font-style="normal" 
>
</g>

<g fill="none" stroke="#dddddd" stroke-opacity="1" stroke-width="1" stroke-linecap="square" stroke-linejoin="bevel" transform="matrix(1.5625,0,0,1.5625,755.746,538.989)"
font-family="Arial" font-size="20.8333" font-weight="400" font-style="normal" 
>
</g>

<g fill="none" stroke="#dddddd" stroke-opacity="1" stroke-width="1" stroke-linecap="square" stroke-linejoin="bevel" transform="matrix(1.5625,0,0,1.5625,755.746,538.989)"
font-family="Arial" font-size="13" font-weight="400" font-style="normal" 
>
</g>

<g fill="none" stroke="#dddddd" stroke-opacity="1" stroke-width="1" stroke-linecap="square" stroke-linejoin="bevel" transform="matrix(1.5625,0,0,1.5625,755.746,538.989)"
font-family="Arial" font-size="13" font-weight="400" font-style="normal" 
>
<text fill="#dddddd" fill-opacity="1" stroke="none" xml:space="preserve" x="0" y="11" font-family="Arial" font-size="13" font-weight="400" font-style="normal" 
 >75</text>
</g>

<g fill="none" stroke="#dddddd" stroke-opacity="1" stroke-width="1" stroke-linecap="square" stroke-linejoin="bevel" transform="matrix(1.5625,0,0,1.5625,755.746,538.989)"
font-family="Arial" font-size="20.8333" font-weight="400" font-style="normal" 
>
</g>

<g fill="none" stroke="#dddddd" stroke-opacity="1" stroke-width="1" stroke-linecap="square" stroke-linejoin="bevel" transform="matrix(1.5625,0,0,1.5625,755.746,538.989)"
font-family="Arial" font-size="20.8333" font-weight="400" font-style="normal" 
>
</g>

<g fill="none" stroke="#dddddd" stroke-opacity="1" stroke-width="1" stroke-linecap="square" stroke-linejoin="bevel" transform="matrix(1.5625,0,0,1.5625,0,0)"
font-family="Arial" font-size="20.8333" font-weight="400" font-style="normal" 
>
</g>

<g fill="none" stroke="#dddddd" stroke-opacity="1" stroke-width="1" stroke-linecap="square" stroke-linejoin="bevel" transform="matrix(1.5625,0,0,1.5625,0,0)"
font-family="Arial" font-size="20.8333" font-weight="400" font-style="normal" 
>
</g>

<g fill="none" stroke="#dddddd" stroke-opacity="1" stroke-width="1" stroke-linecap="butt" stroke-linejoin="bevel" transform="matrix(1.5625,0,0,1.5625,0,0)"
font-family="Arial" font-size="20.8333" font-weight="400" font-style="normal" 
>
<polyline fill="none" vector-effect="non-scaling-stroke" points="88.7632,331.953 88.7632,335.953 " />
<polyline fill="none" vector-effect="non-scaling-stroke" points="105.51,331.953 105.51,335.953 " />
<polyline fill="none" vector-effect="non-scaling-stroke" points="122.256,331.953 122.256,335.953 " />
<polyline fill="none" vector-effect="non-scaling-stroke" points="139.002,331.953 139.002,335.953 " />
<polyline fill="none" vector-effect="non-scaling-stroke" points="172.495,331.953 172.495,335.953 " />
<polyline fill="none" vector-effect="non-scaling-stroke" points="189.242,331.953 189.242,335.953 " />
<polyline fill="none" vector-effect="non-scaling-stroke" points="205.988,331.953 205.988,335.953 " />
<polyline fill="none" vector-effect="non-scaling-stroke" points="222.735,331.953 222.735,335.953 " />
<polyline fill="none" vector-effect="non-scaling-stroke" points="256.228,331.953 256.228,335.953 " />
<polyline fill="none" vector-effect="non-scaling-stroke" points="272.974,331.953 272.974,335.953 " />
<polyline fill="none" vector-effect="non-scaling-stroke" points="289.72,331.953 289.72,335.953 " />
<polyline fill="none" vector-effect="non-scaling-stroke" points="306.467,331.953 306.467,335.953 " />
<polyline fill="none" vector-effect="non-scaling-stroke" points="339.96,331.953 339.96,335.953 " />
<polyline fill="none" vector-effect="non-scaling-stroke" points="356.706,331.953 356.706,335.953 " />
<polyline fill="none" vector-effect="non-scaling-stroke" points="373.453,331.953 373.453,335.953 " />
<polyline fill="none" vector-effect="non-scaling-stroke" points="390.199,331.953 390.199,335.953 " />
<polyline fill="none" vector-effect="non-scaling-stroke" points="423.692,331.953 423.692,335.953 " />
<polyline fill="none" vector-effect="non-scaling-stroke" points="440.438,331.953 440.438,335.953 " />
<polyline fill="none" vector-effect="non-scaling-stroke" points="457.185,331.953 457.185,335.953 " />
<polyline fill="none" vector-effect="non-scaling-stroke" points="473.931,331.953 473.931,335.953 " />
<polyline fill="none" vector-effect="non-scaling-stroke" points="72.0167,331.953 72.0167,339.953 " />
<polyline fill="none" vector-effect="non-scaling-stroke" points="155.749,331.953 155.749,339.953 " />
<polyline fill="none" vector-effect="non-scaling-stroke" points="239.481,331.953 239.481,339.953 " />
<polyline fill="none" vector-effect="non-scaling-stroke" points="323.213,331.953 323.213,339.953 " />
<polyline fill="none" vector-effect="non-scaling-stroke" points="406.945,331.953 406.945,339.953 " />
<polyline fill="none" vector-effect="non-scaling-stroke" points="490.678,331.953 490.678,339.953 " />
</g>

<g fill="none" stroke="#dddddd" stroke-opacity="1" stroke-width="1" stroke-linecap="square" stroke-linejoin="bevel" transform="matrix(1.5625,0,0,1.5625,0,0)"
font-family="Arial" font-size="20.8333" font-weight="400" font-style="normal" 
>
</g>

<g fill="none" stroke="#dddddd" stroke-opacity="1" stroke-width="1" stroke-linecap="butt" stroke-linejoin="bevel" transform="matrix(1.5625,0,0,1.5625,0,0)"
font-family="Arial" font-size="20.8333" font-weight="400" font-style="normal" 
>
<polyline fill="none" vector-effect="non-scaling-stroke" points="68,331.953 504.929,331.953 " />
</g>

<g fill="none" stroke="#dddddd" stroke-opacity="1" stroke-width="1" stroke-linecap="square" stroke-linejoin="bevel" transform="matrix(1.5625,0,0,1.5625,0,0)"
font-family="Arial" font-size="20.8333" font-weight="400" font-style="normal" 
>
</g>

<g fill="none" stroke="#dddddd" stroke-opacity="1" stroke-width="1" stroke-linecap="square" stroke-linejoin="bevel" transform="matrix(1.5625,0,0,1.5625,0,0)"
font-family="Arial" font-size="20.8333" font-weight="400" font-style="normal" 
>
</g>

<g fill="none" stroke="#dddddd" stroke-opacity="1" stroke-width="1" stroke-linecap="square" stroke-linejoin="bevel" transform="matrix(1.5625,0,0,1.5625,0,0)"
font-family="Arial" font-size="20.8333" font-weight="400" font-style="normal" 
>
</g>

<g fill="none" stroke="#000000" stroke-opacity="1" stroke-width="1" stroke-linecap="square" stroke-linejoin="bevel" transform="matrix(1,0,0,1,0,0)"
font-family="MS Shell Dlg 2" font-size="17.1875" font-weight="400" font-style="normal" 
>
</g>
</g>
</svg>
