<?xml version="1.0" encoding="UTF-8" standalone="no"?>
<svg viewBox="0 0 885.827 590.551"
 xmlns="http://www.w3.org/2000/svg" xmlns:xlink="http://www.w3.org/1999/xlink"  version="1.2" baseProfile="tiny">
<title>Signal Display</title>
<desc>Generated with Qt</desc>
<defs>
</defs>
<g fill="none" stroke="black" stroke-width="1" fill-rule="evenodd" stroke-linecap="square" stroke-linejoin="bevel" >

<g fill="#808080" fill-opacity="1" stroke="none" transform="matrix(1,0,0,1,0,0)"
font-family="MS Shell Dlg 2" font-size="17.1875" font-weight="400" font-style="normal" 
>
<rect x="0" y="0" width="885.827" height="590.551"/>
</g>

<g fill="none" stroke="#000000" stroke-opacity="1" stroke-width="1" stroke-linecap="square" stroke-linejoin="bevel" transform="matrix(1,0,0,1,0,0)"
font-family="MS Shell Dlg 2" font-size="17.1875" font-weight="400" font-style="normal" 
>
</g>

<g fill="none" stroke="#000000" stroke-opacity="1" stroke-width="1" stroke-linecap="square" stroke-linejoin="bevel" transform="matrix(1.5625,0,0,1.5625,0,0)"
font-family="MS Shell Dlg 2" font-size="17.1875" font-weight="400" font-style="normal" 
>
</g>

<g fill="none" stroke="#000000" stroke-opacity="1" stroke-width="1" stroke-linecap="square" stroke-linejoin="bevel" transform="matrix(1.5625,0,0,1.5625,0,0)"
font-family="MS Shell Dlg 2" font-size="17.1875" font-weight="400" font-style="normal" 
>
</g>

<g fill="#000000" fill-opacity="1" stroke="none" transform="matrix(1.5625,0,0,1.5625,0,0)"
font-family="MS Shell Dlg 2" font-size="17.1875" font-weight="400" font-style="normal" 
>
<rect x="57" y="23" width="427.929" height="304.953"/>
</g>

<g fill="none" stroke="#000000" stroke-opacity="1" stroke-width="1" stroke-linecap="square" stroke-linejoin="bevel" transform="matrix(1.5625,0,0,1.5625,0,0)"
font-family="MS Shell Dlg 2" font-size="17.1875" font-weight="400" font-style="normal" 
>
</g>

<g fill="none" stroke="#555555" stroke-opacity="1" stroke-dasharray="0.5,1" stroke-dashoffset="0" stroke-width="0.5" stroke-linecap="butt" stroke-linejoin="bevel" transform="matrix(1.5625,0,0,1.5625,0,0)"
font-family="MS Shell Dlg 2" font-size="17.1875" font-weight="400" font-style="normal" 
>
<polyline fill="none" vector-effect="none" points="57,322.835 483.929,322.835 " />
<polyline fill="none" vector-effect="none" points="57,312.528 483.929,312.528 " />
<polyline fill="none" vector-effect="none" points="57,302.22 483.929,302.22 " />
<polyline fill="none" vector-effect="none" points="57,291.913 483.929,291.913 " />
<polyline fill="none" vector-effect="none" points="57,271.299 483.929,271.299 " />
<polyline fill="none" vector-effect="none" points="57,260.992 483.929,260.992 " />
<polyline fill="none" vector-effect="none" points="57,250.685 483.929,250.685 " />
<polyline fill="none" vector-effect="none" points="57,240.378 483.929,240.378 " />
<polyline fill="none" vector-effect="none" points="57,219.763 483.929,219.763 " />
<polyline fill="none" vector-effect="none" points="57,209.456 483.929,209.456 " />
<polyline fill="none" vector-effect="none" points="57,199.149 483.929,199.149 " />
<polyline fill="none" vector-effect="none" points="57,188.842 483.929,188.842 " />
<polyline fill="none" vector-effect="none" points="57,168.228 483.929,168.228 " />
<polyline fill="none" vector-effect="none" points="57,157.921 483.929,157.921 " />
<polyline fill="none" vector-effect="none" points="57,147.614 483.929,147.614 " />
<polyline fill="none" vector-effect="none" points="57,137.307 483.929,137.307 " />
<polyline fill="none" vector-effect="none" points="57,116.692 483.929,116.692 " />
<polyline fill="none" vector-effect="none" points="57,106.385 483.929,106.385 " />
<polyline fill="none" vector-effect="none" points="57,96.0781 483.929,96.0781 " />
<polyline fill="none" vector-effect="none" points="57,85.771 483.929,85.771 " />
<polyline fill="none" vector-effect="none" points="57,65.1568 483.929,65.1568 " />
<polyline fill="none" vector-effect="none" points="57,54.8497 483.929,54.8497 " />
<polyline fill="none" vector-effect="none" points="57,44.5425 483.929,44.5425 " />
<polyline fill="none" vector-effect="none" points="57,34.2354 483.929,34.2354 " />
</g>

<g fill="none" stroke="#868686" stroke-opacity="1" stroke-width="0.5" stroke-linecap="butt" stroke-linejoin="bevel" transform="matrix(1.5625,0,0,1.5625,0,0)"
font-family="MS Shell Dlg 2" font-size="17.1875" font-weight="400" font-style="normal" 
>
<polyline fill="none" vector-effect="none" points="87.4295,23 87.4295,326.953 " />
<polyline fill="none" vector-effect="none" points="141.139,23 141.139,326.953 " />
<polyline fill="none" vector-effect="none" points="194.849,23 194.849,326.953 " />
<polyline fill="none" vector-effect="none" points="248.558,23 248.558,326.953 " />
<polyline fill="none" vector-effect="none" points="302.268,23 302.268,326.953 " />
<polyline fill="none" vector-effect="none" points="355.977,23 355.977,326.953 " />
<polyline fill="none" vector-effect="none" points="409.687,23 409.687,326.953 " />
<polyline fill="none" vector-effect="none" points="463.396,23 463.396,326.953 " />
<polyline fill="none" vector-effect="none" points="57,281.606 483.929,281.606 " />
<polyline fill="none" vector-effect="none" points="57,230.071 483.929,230.071 " />
<polyline fill="none" vector-effect="none" points="57,178.535 483.929,178.535 " />
<polyline fill="none" vector-effect="none" points="57,126.999 483.929,126.999 " />
<polyline fill="none" vector-effect="none" points="57,75.4639 483.929,75.4639 " />
</g>

<g fill="none" stroke="#000000" stroke-opacity="1" stroke-width="1" stroke-linecap="square" stroke-linejoin="bevel" transform="matrix(1.5625,0,0,1.5625,0,0)"
font-family="MS Shell Dlg 2" font-size="17.1875" font-weight="400" font-style="normal" 
>
</g>

<g fill="none" stroke="#000000" stroke-opacity="1" stroke-width="1" stroke-linecap="square" stroke-linejoin="bevel" transform="matrix(1.5625,0,0,1.5625,0,0)"
font-family="MS Shell Dlg 2" font-size="17.1875" font-weight="400" font-style="normal" 
>
</g>

<g fill="none" stroke="#b4003c" stroke-opacity="1" stroke-width="1" stroke-linecap="square" stroke-linejoin="bevel" transform="matrix(1.5625,0,0,1.5625,0,0)"
font-family="MS Shell Dlg 2" font-size="17.1875" font-weight="400" font-style="normal" 
>
<polyline fill="none" vector-effect="none" points="61.4287,97.5554 61.8397,97.6144 62.2507,97.7243 62.6625,97.7908 63.0747,97.8538 63.4861,97.9208 63.8988,98.0593 64.3118,98.1707 64.7232,98.2282 65.1342,98.2754 65.5448,98.242 65.9554,98.2514 66.3709,98.2725 66.7807,98.2795 67.1921,98.2747 67.6043,98.2265 68.0157,98.2411 68.4263,98.2009 68.8394,98.2877 69.2512,98.4293 69.6643,98.6044 70.0748,98.7162 70.4871,98.7391 70.8973,98.7839 71.3103,98.8998 71.7205,98.9511 72.1327,98.9581 72.5445,98.9708 72.9559,98.9332 73.3698,98.9179 73.7804,98.888 74.193,98.9007 74.604,98.9314 75.0155,98.9952 75.4285,99.098 75.8391,99.1421 76.2505,99.249 76.6631,99.3212 77.0737,99.4832 77.486,99.6122 77.8978,99.662 78.3112,99.6501 78.7218,99.6763 79.1328,99.6639 79.5447,99.6525 79.9569,99.6569 80.3691,99.6698 80.7809,99.6644 81.1932,99.7304 81.6029,99.7994 82.0164,99.9481 82.4266,100.038 82.8372,100.179 83.2502,100.352 83.6633,100.443 84.0747,100.555 84.4877,100.585 84.8983,100.576 85.3089,100.562 85.7211,100.581 86.1342,100.638 86.5427,100.682 86.9574,100.745 87.3701,100.813 87.7815,100.893 88.1937,100.992 88.6039,101.168 89.0157,101.356 89.4271,101.496 89.8385,101.645 90.2503,101.726 90.6642,101.804 91.0748,101.811 91.4842,101.838 91.8976,101.889 92.3094,101.974 92.72,102.073 93.1331,102.033 93.5465,102.123 93.9563,102.255 94.3673,102.473 94.78,102.678 95.1938,102.942 95.6036,103.044 96.0146,103.164 96.4252,103.277 96.8395,103.377 97.2513,103.455 97.6635,103.51 98.0737,103.493 98.4872,103.478 98.8973,103.581 99.3088,103.748 99.7222,103.955 100.134,104.183 100.545,104.39 100.958,104.648 101.369,104.864 101.781,105.04 102.192,105.158 102.603,105.237 103.015,105.275 103.427,105.372 103.839,105.518 104.251,105.718 104.663,105.804 105.075,105.936 105.486,106.128 105.897,106.424 106.31,106.634 106.722,106.883 107.134,107.097 107.546,107.309 107.957,107.552 108.368,107.761 108.78,107.906 109.192,108.126 109.603,108.359 110.016,108.566 110.426,108.68 110.837,108.791 111.251,109.035 111.663,109.326 112.076,109.632 112.486,109.922 112.897,110.276 113.311,110.65 113.72,111.012 114.133,111.233 114.545,111.446 114.957,111.687 115.368,111.842 115.781,111.973 116.191,112.084 116.604,112.362 117.014,112.718 117.427,113.058 117.839,113.426 118.251,113.932 118.663,114.372 119.074,114.758 119.485,114.975 119.897,115.212 120.307,115.507 120.721,115.746 121.133,115.92 121.545,116.207 121.957,116.519 122.368,116.883 122.78,117.242 123.191,117.564 123.602,118.033 124.014,118.433 124.427,118.804 124.839,119.122 125.251,119.472 125.661,119.865 126.072,120.305 126.482,120.663 126.888,121.098 127.288,121.545 127.664,121.95 128.009,122.293 128.405,122.581 128.857,123.01 129.238,123.462 129.692,123.896 130.115,124.342 130.515,124.896 130.927,125.458 131.336,125.978 131.764,126.402 132.189,126.768 132.61,127.154 133.014,127.529 133.436,127.842 133.858,128.109 134.268,128.508 134.688,129.104 135.105,129.784 135.523,130.505 135.933,131.204 136.341,131.852 136.755,132.496 137.168,133.051 137.586,133.467 137.999,133.872 138.412,134.255 138.825,134.715 139.238,135.173 139.65,135.66 140.063,136.127 140.477,136.633 140.889,137.102 141.302,137.654 141.712,138.075 142.124,138.409 142.538,138.662 142.949,138.925 143.361,139.224 143.773,139.558 144.183,139.849 144.596,140.078 145.006,140.291 145.418,140.483 145.831,140.626 146.244,140.709 146.656,140.672 147.069,140.516 147.48,140.24 147.892,139.715 148.305,138.823 148.717,137.374 149.128,135.055 149.541,132.122 149.951,130.66 150.364,132.876 150.775,136.219 151.188,139.12 151.603,141.249 152.014,142.887 152.425,144.083 152.837,145.157 153.248,145.876 153.66,146.426 154.072,146.823 154.485,146.965 154.895,146.888 155.308,146.579 155.72,145.981 156.132,145.087 156.543,143.933 156.955,142.463 157.366,140.501 157.779,137.832 158.19,134.439 158.602,131.037 159.014,130.29 159.426,133.582 159.837,138.028 160.248,142.308 160.661,145.984 161.073,149.05 161.486,151.557 161.897,153.755 162.309,155.652 162.72,157.319 163.132,158.773 163.544,160.145 163.954,161.313 164.368,162.371 164.779,163.243 165.192,164.15 165.602,164.974 166.015,165.736 166.426,166.437 166.838,167.032 167.249,167.558 167.663,167.951 168.073,168.324 168.486,168.637 168.897,168.959 169.31,169.354 169.721,169.733 170.132,170.076 170.543,170.33 170.954,170.555 171.369,170.701 171.78,170.697 172.192,170.602 172.603,170.285 173.016,169.733 173.427,168.917 173.838,167.662 174.248,166.618 174.662,167.362 175.074,168.971 175.486,170.158 175.897,170.93 176.309,171.488 176.721,171.744 177.132,171.792 177.546,171.725 177.955,171.622 178.366,171.566 178.778,171.477 179.192,171.472 179.605,171.358 180.015,171.291 180.427,171.229 180.837,171.16 181.25,171.028 181.661,170.736 182.073,170.428 182.486,170.174 182.898,169.93 183.308,169.638 183.719,169.301 184.132,168.995 184.545,168.728 184.956,168.361 185.367,167.948 185.779,167.495 186.192,167.095 186.604,166.762 187.015,166.455 187.426,166.059 187.837,165.664 188.25,165.291 188.662,164.898 189.075,164.434 189.486,163.849 189.898,163.241 190.309,162.707 190.72,162.114 191.132,161.532 191.545,161.097 191.958,160.712 192.367,160.395 192.781,159.995 193.191,159.552 193.603,159.053 194.014,158.504 194.427,157.796 194.839,157.041 195.25,156.367 195.661,155.797 196.073,155.2 196.486,154.609 196.898,154.111 197.307,153.702 197.721,153.238 198.133,152.68 198.545,152.129 198.955,151.504 199.368,150.868 199.779,150.143 200.192,149.422 200.601,148.833 201.016,148.298 201.426,147.676 201.839,147.05 202.249,146.478 202.661,145.883 203.074,145.25 203.486,144.6 203.897,144.052 204.308,143.52 204.722,142.965 205.134,142.369 205.544,141.802 205.956,141.255 206.367,140.702 206.781,139.964 207.191,139.277 207.602,138.607 208.015,138.01 208.428,137.468 208.838,136.936 209.25,136.52 209.662,136.144 210.074,135.757 210.485,135.282 210.895,134.662 211.307,134.009 211.72,133.42 212.133,132.801 212.545,132.208 212.956,131.632 213.368,131.209 213.778,130.91 214.19,130.642 214.604,130.294 215.014,129.906 215.427,129.448 215.839,129.014 216.249,128.563 216.663,128.059 217.073,127.519 217.485,127.096 217.898,126.723 218.31,126.455 218.72,126.243 219.132,125.814 219.543,125.442 219.957,125.104 220.367,124.83 220.779,124.583 221.189,124.309 221.603,124.01 222.015,123.707 222.426,123.458 222.838,123.291 223.25,123.075 223.662,122.806 224.074,122.452 224.484,122.109 224.897,121.782 225.307,121.633 225.72,121.545 226.133,121.54 226.545,121.532 226.955,121.511 227.367,121.392 227.779,121.253 228.19,121.11 228.604,120.87 229.014,120.737 229.428,120.578 229.838,120.432 230.249,120.415 230.661,120.546 231.072,120.689 231.485,120.901 231.896,121.057 232.309,121.156 232.72,121.115 233.132,121.081 233.543,121.061 233.956,121.055 234.367,121.202 234.779,121.339 235.191,121.561 235.602,121.75 236.016,122.007 236.426,122.22 236.837,122.391 237.25,122.684 237.662,122.956 238.072,123.242 238.485,123.454 238.897,123.702 239.308,123.989 239.721,124.224 240.133,124.558 240.543,124.884 240.956,125.178 241.366,125.493 241.778,125.71 242.19,126.077 242.602,126.512 243.013,127.055 243.427,127.609 243.838,128.156 244.249,128.572 244.659,129 245.074,129.385 245.486,129.781 245.898,130.226 246.309,130.673 246.722,131.162 247.131,131.644 247.543,132.271 247.955,132.972 248.368,133.743 248.779,134.506 249.191,135.184 249.603,135.789 250.014,136.355 250.424,136.965 250.838,137.638 251.249,138.296 251.662,139.001 252.074,139.768 252.485,140.546 252.897,141.42 253.309,142.345 253.72,143.25 254.132,144.07 254.542,144.888 254.954,145.732 255.366,146.605 255.779,147.473 256.19,148.362 256.604,149.24 257.015,150.133 257.426,151.069 257.837,152.047 258.249,152.987 258.662,153.892 259.072,154.945 259.484,155.963 259.895,157.004 260.308,158.066 260.72,159.033 261.131,159.994 261.543,161.018 261.956,161.979 262.367,162.959 262.779,163.878 263.192,164.861 263.602,165.885 264.015,166.987 264.426,168.01 264.838,169.119 265.251,170.257 265.661,171.393 266.073,172.415 266.486,173.354 266.897,174.36 267.308,175.396 267.72,176.354 268.131,177.239 268.544,178.278 268.955,179.41 269.369,180.409 269.779,181.413 270.191,182.483 270.602,183.657 271.014,184.73 271.426,185.658 271.836,186.548 272.25,187.516 272.662,188.485 273.073,189.365 273.485,190.233 273.897,191.149 274.309,192.097 274.719,193.017 275.133,193.871 275.543,194.793 275.956,195.659 276.366,196.565 276.78,197.323 277.191,198.068 277.602,198.829 278.013,199.551 278.425,200.214 278.838,200.817 279.249,201.434 279.662,202.073 280.073,202.628 280.484,203.18 280.896,203.733 281.309,204.338 281.719,204.803 282.132,205.206 282.543,205.538 282.955,205.906 283.367,206.223 283.779,206.464 284.191,206.591 284.602,206.637 285.014,206.638 285.424,206.531 285.837,206.266 286.25,205.96 286.662,205.648 287.073,205.105 287.485,204.318 287.896,203.131 288.308,201.48 288.719,199.281 289.132,196.112 289.543,191.406 289.955,184.662 290.368,176.399 290.779,171.66 291.19,175.969 291.602,181.789 292.013,185.327 292.426,186.268 292.838,184.818 293.249,180.94 293.66,174.888 294.074,168.818 294.485,169.403 294.896,176.969 295.306,185.539 295.719,192.706 296.13,198.149 296.538,202.455 296.939,205.773 297.322,208.464 297.698,210.572 298.052,212.207 298.514,213.525 298.91,214.584 299.332,215.406 299.76,215.834 300.173,215.707 300.593,214.824 301,213.986 301.419,215.827 301.838,218.148 302.252,219.73 302.665,220.759 303.09,221.514 303.508,222.029 303.921,222.416 304.339,222.605 304.754,222.75 305.17,222.811 305.579,222.821 305.989,222.773 306.405,222.653 306.82,222.495 307.236,222.333 307.647,222.169 308.059,222.014 308.472,221.884 308.885,221.709 309.299,221.487 309.712,221.1 310.123,220.697 310.538,220.275 310.948,219.901 311.361,219.514 311.771,219.111 312.185,218.686 312.596,218.194 313.006,217.713 313.416,217.262 313.827,216.786 314.242,216.343 314.654,215.839 315.067,215.313 315.478,214.682 315.889,214.025 316.303,213.365 316.716,212.728 317.126,212.092 317.539,211.418 317.949,210.726 318.362,210.003 318.774,209.263 319.186,208.536 319.597,207.784 320.012,207.079 320.423,206.421 320.835,205.676 321.248,204.869 321.661,203.99 322.07,203.071 322.482,202.169 322.895,201.272 323.306,200.392 323.718,199.498 324.13,198.553 324.543,197.576 324.953,196.72 325.365,195.898 325.776,195.011 326.19,194.077 326.6,193.095 327.013,191.984 327.424,190.948 327.837,189.915 328.249,188.887 328.659,187.83 329.07,186.774 329.484,185.707 329.896,184.738 330.308,183.823 330.719,182.911 331.131,181.887 331.542,180.807 331.954,179.801 332.365,178.766 332.778,177.678 333.19,176.506 333.603,175.384 334.013,174.355 334.425,173.338 334.838,172.304 335.248,171.321 335.658,170.294 336.073,169.339 336.485,168.435 336.896,167.472 337.308,166.459 337.72,165.396 338.132,164.352 338.543,163.398 338.955,162.368 339.365,161.318 339.778,160.319 340.19,159.362 340.601,158.424 341.012,157.46 341.425,156.568 341.837,155.757 342.248,154.918 342.66,154.1 343.074,153.215 343.485,152.304 343.896,151.425 344.307,150.577 344.719,149.597 345.131,148.644 345.542,147.77 345.953,147.018 346.366,146.267 346.779,145.523 347.191,144.859 347.602,144.262 348.015,143.643 348.425,142.867 348.836,142.05 349.249,141.302 349.659,140.517 350.073,139.735 350.483,139.014 350.895,138.371 351.308,137.841 351.719,137.24 352.13,136.663 352.541,136.191 352.957,135.752 353.367,135.177 353.779,134.546 354.191,133.963 354.602,133.467 355.014,132.908 355.425,132.37 355.836,131.896 356.249,131.518 356.661,131.086 357.073,130.577 357.484,130.149 357.896,129.863 358.308,129.573 358.719,129.245 359.129,128.871 359.541,128.503 359.956,128.2 360.367,127.849 360.779,127.394 361.189,126.976 361.601,126.622 362.014,126.345 362.425,126.029 362.835,125.799 363.249,125.651 363.661,125.558 364.072,125.494 364.485,125.285 364.895,124.928 365.308,124.637 365.718,124.343 366.131,124.013 366.543,123.721 366.955,123.457 367.366,123.331 367.778,123.272 368.189,123.229 368.602,123.136 369.012,123.062 369.422,122.986 369.836,122.844 370.25,122.665 370.661,122.403 371.072,122.171 371.484,122.019 371.896,121.939 372.307,121.954 372.717,121.892 373.13,121.839 373.544,121.71 373.956,121.661 374.367,121.641 374.778,121.588 375.19,121.579 375.601,121.503 376.012,121.417 376.425,121.399 376.836,121.42 377.248,121.319 377.66,121.217 378.072,121.067 378.484,120.926 378.895,120.889 379.306,120.927 379.717,121.027 380.131,121.176 380.542,121.284 380.954,121.279 381.365,121.225 381.778,121.126 382.19,120.979 382.6,120.866 383.011,120.73 383.424,120.653 383.837,120.661 384.249,120.76 384.66,120.892 385.072,121.016 385.484,121.164 385.894,121.198 386.307,121.111 386.718,120.938 387.131,120.789 387.544,120.659 387.954,120.636 388.365,120.667 388.777,120.787 389.189,120.904 389.601,120.906 390.013,120.945 390.426,120.941 390.837,120.945 391.249,120.901 391.66,120.876 392.072,120.892 392.483,120.907 392.895,120.935 393.306,120.92 393.719,120.96 394.131,121.016 394.542,121.021 394.954,120.995 395.366,120.94 395.778,120.936 396.188,121.017 396.599,121.148 397.013,121.291 397.425,121.432 397.837,121.51 398.25,121.43 398.661,121.33 399.071,121.242 399.482,121.168 399.894,121.198 400.306,121.284 400.719,121.412 401.13,121.557 401.542,121.77 401.954,121.896 402.367,121.972 402.776,121.924 403.19,121.803 403.601,121.688 404.013,121.581 404.425,121.608 404.837,121.695 405.248,121.862 405.661,121.999 406.071,122.071 406.482,122.148 406.893,122.165 407.307,122.207 407.719,122.144 408.13,122.12 408.542,122.084 408.955,122.12 409.366,122.206 409.777,122.338 410.189,122.401 410.602,122.376 411.014,122.332 411.425,122.308 411.837,122.33 412.249,122.278 412.66,122.343 413.072,122.453 413.482,122.627 413.896,122.664 414.306,122.67 414.719,122.642 415.131,122.575 415.542,122.532 415.954,122.439 416.365,122.351 416.779,122.382 417.188,122.545 417.601,122.769 418.013,122.893 418.425,122.997 418.836,123.039 419.247,123.072 419.659,122.958 420.07,122.834 420.484,122.713 420.896,122.781 421.308,122.882 421.719,122.973 422.13,123.11 422.542,123.265 422.954,123.388 423.365,123.389 423.777,123.374 424.189,123.377 424.603,123.322 425.011,123.294 425.425,123.366 425.836,123.479 426.248,123.607 426.658,123.707 427.072,123.727 427.484,123.726 427.894,123.723 428.307,123.762 428.719,123.706 429.13,123.838 429.541,123.954 429.952,124.044 430.366,124.052 430.778,124.041 431.189,124.022 431.601,124.017 432.013,123.94 432.425,123.865 432.836,123.798 433.247,123.937 433.658,124.069 434.072,124.148 434.483,124.279 434.895,124.405 435.308,124.461 435.718,124.345 436.131,124.145 436.542,124.137 436.952,124.107 437.365,124.076 437.777,124.128 438.189,124.213 438.6,124.384 439.013,124.572 439.424,124.635 439.836,124.604 440.248,124.589 440.659,124.533 441.071,124.478 441.483,124.401 441.895,124.435 442.307,124.586 442.719,124.67 443.129,124.777 443.542,124.774 443.954,124.823 444.366,124.841 444.776,124.904 445.188,124.92 445.602,124.902 446.012,124.933 446.423,125.05 446.835,125.149 447.249,125.207 447.659,125.135 448.071,125.146 448.482,125.099 448.896,125.13 449.306,125.182 449.718,125.243 450.128,125.358 450.54,125.482 450.953,125.619 451.365,125.714 451.777,125.684 452.19,125.633 452.601,125.551 453.012,125.448 453.423,125.458 453.834,125.56 454.247,125.699 454.658,125.842 455.071,125.925 455.483,126.015 455.895,126.051 456.305,126.087 456.718,126.069 457.128,126.006 457.541,125.938 457.953,125.897 458.364,125.92 458.777,126.025 459.189,126.164 459.601,126.24 460.011,126.318 460.422,126.295 460.832,126.248 461.236,126.24 461.628,126.274 462.009,126.33 462.355,126.351 462.811,126.384 463.212,126.352 463.616,126.377 464.066,126.434 464.468,126.444 464.878,126.406 465.291,126.414 465.718,126.461 466.142,126.5 466.551,126.557 466.961,126.637 467.384,126.708 467.801,126.722 468.217,126.755 468.633,126.742 469.05,126.676 469.463,126.691 469.874,126.636 470.285,126.685 470.697,126.775 471.115,126.942 471.528,127.087 471.942,127.202 472.352,127.189 472.764,127.136 473.18,127.105 473.593,127.075 474.005,127.074 474.418,127.146 474.827,127.227 475.241,127.351 475.654,127.4 476.066,127.486 476.476,127.581 476.889,127.652 477.3,127.659 477.71,127.657 478.123,127.622 478.533,127.581 478.945,127.628 479.359,127.703 479.773,127.819 " />
</g>

<g fill="none" stroke="#000000" stroke-opacity="1" stroke-width="1" stroke-linecap="square" stroke-linejoin="bevel" transform="matrix(1.5625,0,0,1.5625,0,0)"
font-family="MS Shell Dlg 2" font-size="17.1875" font-weight="400" font-style="normal" 
>
</g>

<g fill="none" stroke="#000000" stroke-opacity="1" stroke-width="1" stroke-linecap="square" stroke-linejoin="bevel" transform="matrix(1.5625,0,0,1.5625,0,0)"
font-family="MS Shell Dlg 2" font-size="17.1875" font-weight="400" font-style="normal" 
>
</g>

<g fill="none" stroke="#000000" stroke-opacity="1" stroke-width="1" stroke-linecap="square" stroke-linejoin="bevel" transform="matrix(1.5625,0,0,1.5625,0,0)"
font-family="MS Shell Dlg 2" font-size="17.1875" font-weight="400" font-style="normal" 
>
</g>

<g fill="none" stroke="#0064ff" stroke-opacity="1" stroke-width="1" stroke-linecap="square" stroke-linejoin="bevel" transform="matrix(1.5625,0,0,1.5625,0,0)"
font-family="MS Shell Dlg 2" font-size="17.1875" font-weight="400" font-style="normal" 
>
<polyline fill="none" vector-effect="none" points="61.4287,30.1289 61.8397,30.4308 62.2507,30.6503 62.6625,31.9678 63.0747,31.5835 63.4861,31.7208 63.8988,31.7482 64.3118,28.4546 64.7232,30.2112 65.1342,29.4427 65.5448,32.352 65.9554,33.4499 66.3709,27.8234 66.7807,31.0071 67.1921,32.6539 67.6043,29.8544 68.0157,31.6659 68.4263,34.7398 68.8394,31.3914 69.2512,31.6933 69.6643,29.1683 70.0748,32.0227 70.4871,29.7172 70.8973,34.0262 71.3103,30.4582 71.7205,35.2064 72.1327,34.3281 72.5445,31.611 72.9559,31.1993 73.3698,30.5955 73.7804,29.6623 74.193,30.6229 74.604,32.105 75.0155,31.9403 75.4285,30.4033 75.8391,30.1563 76.2505,32.0501 76.6631,31.062 77.0737,32.9558 77.486,30.815 77.8978,32.0227 78.3112,29.2231 78.7218,31.5012 79.1328,32.6265 79.5447,31.611 79.9569,30.8425 80.3691,30.5955 80.7809,30.2661 81.1932,29.9642 81.6029,31.1993 82.0164,29.8544 82.4266,33.395 82.8372,33.6694 83.2502,34.0262 83.6633,30.3484 84.0747,32.7912 84.4877,28.1802 84.8983,32.1324 85.3089,32.352 85.7211,31.7208 86.1342,29.0585 86.5427,35.5358 86.9574,30.4582 87.3701,29.6897 87.7815,30.4308 88.1937,28.5919 88.6039,31.2267 89.0157,29.5799 89.4271,31.5561 89.8385,33.642 90.2503,32.4618 90.6642,29.6897 91.0748,31.6933 91.4842,35.7279 91.8976,31.7482 92.3094,31.1169 92.72,32.1873 93.1331,31.2542 93.5465,27.8508 93.9563,32.0501 94.3673,33.6969 94.78,32.9833 95.1938,28.2076 95.6036,31.5286 96.0146,32.6539 96.4252,33.9439 96.8395,31.2267 97.2513,31.3365 97.6635,30.2112 98.0737,31.9129 98.4872,29.9367 98.8973,32.599 99.3088,32.7363 99.7222,31.3365 100.134,30.5955 100.545,32.1873 100.958,29.6623 101.369,29.827 101.781,29.3055 102.192,31.7208 102.603,30.7601 103.015,30.5955 103.427,32.2422 103.839,31.3365 104.251,31.7482 104.663,32.2697 105.075,31.4188 105.486,31.8031 105.897,32.599 106.31,30.0191 106.722,32.4344 107.134,29.7446 107.546,28.8114 107.957,32.0501 108.368,32.1324 108.78,31.1169 109.192,29.9093 109.603,31.5012 110.016,30.4857 110.426,33.3401 110.837,34.5752 111.251,32.846 111.663,32.2148 112.076,29.3329 112.486,31.5561 112.897,33.0931 113.311,28.8389 113.72,34.7947 114.133,31.8305 114.545,32.7088 114.957,31.5835 115.368,31.858 115.781,31.0071 116.191,31.2542 116.604,29.5525 117.014,33.6694 117.427,30.8425 117.839,32.4892 118.251,30.4033 118.663,30.9248 119.074,32.1873 119.485,32.599 119.897,31.9129 120.307,32.6814 120.721,32.2697 121.133,31.8854 121.545,30.6778 121.957,31.8031 122.368,31.6659 122.78,32.2971 123.191,31.611 123.602,35.3437 124.014,34.5477 124.427,30.2387 124.839,31.4737 125.251,31.3914 125.661,34.2732 126.072,36.8806 126.482,37.1551 126.888,52.9916 127.288,75.5524 127.664,151.88 128.009,293.86 128.405,322.953 128.857,244.786 129.238,307.473 129.692,217.23 130.115,192.858 130.515,218.053 130.927,216.077 131.336,218.273 131.764,186.957 132.189,159.428 132.61,142.658 133.014,158.495 133.436,136.757 133.858,116.283 134.268,119.411 134.688,100.611 135.105,90.8125 135.523,78.5166 135.933,81.5082 136.341,88.4521 136.755,81.7827 137.168,82.6884 137.586,68.1693 137.999,63.8877 138.412,62.8997 138.825,59.5238 139.238,56.3675 139.65,56.7517 140.063,55.7362 140.477,49.8627 140.889,49.8902 141.302,44.84 141.712,47.3651 142.124,47.6945 142.538,44.7852 142.949,46.1575 143.361,46.6789 143.773,43.6599 144.183,49.8353 144.596,46.9534 145.006,52.031 145.418,48.0787 145.831,49.3687 146.244,44.6479 146.656,45.0047 147.069,43.3854 147.48,41.7386 147.892,41.5739 148.305,39.2136 148.717,39.8997 149.128,42.3973 149.541,40.0919 149.951,41.8484 150.364,39.6253 150.775,39.2136 151.188,38.253 151.603,36.6611 152.014,34.9045 152.425,37.1002 152.837,35.7005 153.248,35.4809 153.66,34.1086 154.072,34.6026 154.485,33.889 154.895,36.0573 155.308,34.0811 155.72,36.8806 156.132,34.3281 156.543,36.4415 156.955,31.2816 157.366,33.8067 157.779,34.4654 158.19,34.0811 158.602,32.6814 159.014,32.4618 159.426,34.9594 159.837,32.4069 160.248,36.0847 160.661,33.9713 161.073,34.6301 161.486,31.2816 161.897,32.7912 162.309,32.0227 162.72,32.6814 163.132,33.148 163.544,31.858 163.954,30.9248 164.368,29.827 164.779,33.642 165.192,31.4463 165.602,32.5441 166.015,31.7208 166.426,33.3401 166.838,29.7446 167.249,31.9678 167.663,31.1718 168.073,32.8735 168.486,30.8699 168.897,32.7637 169.31,29.0036 169.721,32.352 170.132,31.3914 170.543,33.395 170.954,34.4105 171.369,29.6348 171.78,30.5131 172.192,31.6659 172.603,32.3795 173.016,30.0191 173.427,28.5644 173.838,31.6933 174.248,34.3007 174.662,32.2697 175.074,30.2112 175.486,31.9129 175.897,30.2112 176.309,32.3246 176.721,31.4737 177.132,28.9761 177.546,28.2076 177.955,34.2458 178.366,31.7756 178.778,34.7947 179.192,32.0227 179.605,29.0036 180.015,30.3759 180.427,31.1169 180.837,31.2267 181.25,32.105 181.661,33.4499 182.073,32.9833 182.486,29.9916 182.898,30.815 183.308,33.8067 183.719,33.5048 184.132,31.5012 184.545,30.3759 184.956,31.5012 185.367,32.3795 185.779,32.7912 186.192,30.1014 186.604,30.6503 187.015,29.1134 187.426,30.1563 187.837,33.4773 188.25,32.2697 188.662,32.0227 189.075,28.5644 189.486,30.7052 189.898,29.6623 190.309,30.2661 190.72,30.4308 191.132,30.7876 191.545,30.6503 191.958,28.0704 192.367,34.136 192.781,30.2661 193.191,31.2816 193.603,30.815 194.014,30.4857 194.427,30.5406 194.839,30.1014 195.25,33.2028 195.661,32.7088 196.073,32.8186 196.486,30.5131 196.898,30.7052 197.307,32.4344 197.721,29.6897 198.133,30.2661 198.545,32.5716 198.955,32.4344 199.368,30.4582 199.779,34.2732 200.192,30.2387 200.601,32.3795 201.016,28.5095 201.426,30.8699 201.839,29.6348 202.249,33.7518 202.661,32.5167 203.074,29.2231 203.486,30.2387 203.897,29.7995 204.308,31.6384 204.722,29.9093 205.134,30.7876 205.544,30.7052 205.956,30.8425 206.367,32.0227 206.781,27.8508 207.191,32.4892 207.602,31.3639 208.015,30.8699 208.428,28.9761 208.838,30.9797 209.25,29.9916 209.662,30.5406 210.074,30.0465 210.485,30.568 210.895,31.6659 211.307,31.3639 211.72,31.7208 212.133,29.6348 212.545,31.0895 212.956,30.5406 213.368,32.8186 213.778,32.8735 214.19,30.8425 214.604,30.3484 215.014,31.1169 215.427,32.2697 215.839,30.8699 216.249,30.5131 216.663,27 217.073,29.7446 217.485,30.1014 217.898,30.6778 218.31,29.6074 218.72,31.5012 219.132,32.5441 219.543,30.5406 219.957,28.0978 220.367,31.2267 220.779,31.5286 221.189,32.9833 221.603,30.568 222.015,30.0191 222.426,31.7482 222.838,32.5441 223.25,31.2267 223.662,31.7756 224.074,29.1683 224.484,32.105 224.897,30.9248 225.307,34.1909 225.72,31.3914 226.133,31.0895 226.545,29.4427 226.955,33.395 227.367,31.9952 227.779,30.5406 228.19,31.9403 228.604,30.321 229.014,32.2697 229.428,29.1408 229.838,31.5286 230.249,31.5561 230.661,31.7756 231.072,30.4308 231.485,31.7756 231.896,33.3126 232.309,29.4976 232.72,30.6778 233.132,31.0346 233.543,31.1444 233.956,32.3795 234.367,30.5131 234.779,31.0071 235.191,31.611 235.602,32.8735 236.016,29.3329 236.426,32.599 236.837,32.3246 237.25,31.2542 237.662,29.9916 238.072,30.6778 238.485,32.2148 238.897,30.8974 239.308,31.8031 239.721,30.9797 240.133,29.8819 240.543,30.5131 240.956,28.7566 241.366,32.7637 241.778,31.7208 242.19,30.8699 242.602,32.1324 243.013,34.2184 243.427,31.6659 243.838,30.9248 244.249,33.9713 244.659,33.5871 245.074,30.2935 245.486,29.7172 245.898,27.9332 246.309,31.4188 246.722,28.9487 247.131,33.2852 247.543,31.8854 247.955,31.1169 248.368,29.3055 248.779,32.6814 249.191,31.2267 249.603,30.9797 250.014,34.2732 250.424,34.3281 250.838,30.2112 251.249,30.9248 251.662,30.4582 252.074,31.7756 252.485,31.5561 252.897,30.7052 253.309,30.321 253.72,30.8699 254.132,31.6933 254.542,32.1599 254.954,32.352 255.366,34.8771 255.779,30.4857 256.19,32.7637 256.604,29.7172 257.015,30.8699 257.426,32.2422 257.837,31.9129 258.249,31.1169 258.662,31.0071 259.072,31.611 259.484,32.1873 259.895,35.4534 260.308,31.0895 260.72,31.3365 261.131,32.1873 261.543,30.5406 261.956,31.7208 262.367,30.074 262.779,31.5561 263.192,29.4153 263.602,32.4892 264.015,30.321 264.426,30.568 264.838,30.1014 265.251,29.4976 265.661,31.0895 266.073,30.1014 266.486,29.5525 266.897,31.7208 267.308,28.784 267.72,32.0501 268.131,30.9523 268.544,32.7637 268.955,30.8699 269.369,29.1957 269.779,29.525 270.191,31.1444 270.602,31.858 271.014,29.3329 271.426,29.7721 271.836,31.611 272.25,31.9952 272.662,28.9487 273.073,32.4618 273.485,32.599 273.897,30.2112 274.309,31.1718 274.719,29.6074 275.133,30.1838 275.543,31.3091 275.956,30.1014 276.366,32.3246 276.78,30.2661 277.191,32.2422 277.602,31.3365 278.013,31.1169 278.425,32.8735 278.838,30.815 279.249,33.395 279.662,28.2625 280.073,31.1993 280.484,32.3795 280.896,31.0346 281.309,30.6778 281.719,30.3759 282.132,30.4308 282.543,33.0656 282.955,32.105 283.367,30.2661 283.779,31.3365 284.191,28.29 284.602,30.8974 285.014,30.2112 285.424,32.0775 285.837,33.6694 286.25,30.4033 286.662,29.0585 287.073,31.9403 287.485,30.0191 287.896,31.858 288.308,30.4308 288.719,30.5406 289.132,31.4188 289.543,33.4499 289.955,31.7208 290.368,31.2542 290.779,29.6348 291.19,32.2422 291.602,29.7995 292.013,31.7482 292.426,30.5955 292.838,29.4702 293.249,31.3365 293.66,31.1718 294.074,30.5131 294.485,31.4463 294.896,30.8699 295.306,32.7088 295.719,33.9713 296.13,35.426 296.538,42.3699 296.939,64.8209 297.322,125.642 297.698,206.004 298.052,320.318 298.514,218.657 298.91,250.33 299.332,229.416 299.76,195.712 300.173,190.442 300.593,176.198 301,184.926 301.419,167.936 301.838,151.963 302.252,148.971 302.665,145.595 303.09,115.569 303.508,105.661 303.921,105.167 304.339,89.9617 304.754,82.8805 305.17,74.5094 305.579,79.0381 305.989,83.155 306.405,77.4187 306.82,67.4557 307.236,60.7863 307.647,59.7708 308.059,58.3162 308.472,54.4737 308.885,54.9403 309.299,51.2625 309.712,47.3102 310.123,49.9176 310.538,42.1229 310.948,47.3102 311.361,44.2362 311.771,46.7613 312.185,43.6873 312.596,48.4355 313.006,46.2398 313.416,48.463 313.827,50.9331 314.242,47.9415 314.654,46.8985 315.067,44.593 315.478,43.7422 315.889,46.2947 316.303,41.5191 316.716,39.6527 317.126,41.5465 317.539,40.2565 317.949,43.2482 318.362,39.8723 318.774,38.5823 319.186,38.3627 319.597,39.4331 320.012,35.1241 320.423,37.5394 320.835,35.0143 321.248,34.136 321.661,31.9678 322.07,33.7243 322.482,31.3914 322.895,33.8067 323.306,33.5048 323.718,35.3437 324.13,34.3281 324.543,31.611 324.953,37.0453 325.365,34.3007 325.776,33.9713 326.19,33.4773 326.6,34.6849 327.013,32.599 327.424,32.2697 327.837,32.0501 328.249,32.9833 328.659,34.1909 329.07,31.7756 329.484,32.8186 329.896,31.5561 330.308,32.2971 330.719,32.3795 331.131,32.3246 331.542,34.0811 331.954,31.8305 332.365,31.6384 332.778,30.9797 333.19,32.0775 333.603,29.3329 334.013,32.2422 334.425,31.6933 334.838,29.6897 335.248,33.4499 335.658,33.4224 336.073,28.3998 336.485,31.5012 336.896,31.9129 337.308,32.2971 337.72,31.0071 338.132,30.2112 338.543,30.2935 338.955,31.1444 339.365,32.0775 339.778,33.2852 340.19,32.9009 340.601,32.2697 341.012,31.9678 341.425,29.5799 341.837,32.5716 342.248,31.5835 342.66,31.3365 343.074,28.0978 343.485,30.1838 343.896,30.9797 344.307,33.9713 344.719,32.9009 345.131,33.148 345.542,32.2971 345.953,32.7088 346.366,31.858 346.779,31.3914 347.191,29.6348 347.602,28.7566 348.015,29.0585 348.425,32.2971 348.836,30.9797 349.249,29.6348 349.659,32.7088 350.073,30.0191 350.483,33.0931 350.895,33.8341 351.308,29.4427 351.719,31.8031 352.13,31.6384 352.541,33.5871 352.957,27.6862 353.367,32.0775 353.779,29.1683 354.191,29.2506 354.602,30.6503 355.014,31.1718 355.425,31.3914 355.836,32.4618 356.249,31.2542 356.661,30.2935 357.073,29.1683 357.484,32.2971 357.896,31.8031 358.308,30.4033 358.719,29.4427 359.129,31.3365 359.541,33.4499 359.956,30.1014 360.367,30.8425 360.779,29.0036 361.189,32.3246 361.601,32.2422 362.014,30.6778 362.425,29.6623 362.835,34.1635 363.249,30.0465 363.661,32.0775 364.072,32.8735 364.485,27.5764 364.895,31.3914 365.308,31.2267 365.718,30.5131 366.131,28.784 366.543,29.278 366.955,30.1014 367.366,32.1324 367.778,30.2387 368.189,31.4463 368.602,30.568 369.012,33.5871 369.422,34.5203 369.836,33.395 370.25,28.6193 370.661,31.1718 371.072,31.7482 371.484,31.1169 371.896,32.2422 372.307,31.5561 372.717,33.148 373.13,31.3914 373.544,28.8114 373.956,30.074 374.367,31.1993 374.778,29.4153 375.19,30.2387 375.601,29.3604 376.012,31.3639 376.425,29.4976 376.836,33.9713 377.248,32.599 377.66,31.7208 378.072,33.1754 378.484,30.1014 378.895,32.7088 379.306,31.3365 379.717,33.2852 380.131,29.5525 380.542,33.5596 380.954,31.611 381.365,33.642 381.778,32.2697 382.19,29.6348 382.6,31.7208 383.011,33.4499 383.424,33.0107 383.837,31.3639 384.249,29.827 384.66,29.5525 385.072,30.5955 385.484,30.6503 385.894,31.7482 386.307,30.815 386.718,32.3795 387.131,30.0465 387.544,28.7291 387.954,30.2387 388.365,33.1205 388.777,32.0775 389.189,32.5441 389.601,30.8425 390.013,31.6659 390.426,30.4033 390.837,32.3795 391.249,30.0465 391.66,32.5167 392.072,31.5012 392.483,34.0811 392.895,30.1014 393.306,33.3401 393.719,30.5955 394.131,30.6778 394.542,32.7363 394.954,30.9248 395.366,30.5131 395.778,29.8544 396.188,32.2697 396.599,31.2542 397.013,30.8974 397.425,29.9642 397.837,31.2816 398.25,29.1408 398.661,31.9678 399.071,33.5322 399.482,31.8305 399.894,33.4224 400.306,33.0382 400.719,29.1134 401.13,31.1993 401.542,31.8854 401.954,31.9403 402.367,29.2506 402.776,31.3091 403.19,30.1014 403.601,29.9367 404.013,30.6229 404.425,29.525 404.837,30.8974 405.248,32.7088 405.661,28.3174 406.071,30.1563 406.482,31.3914 406.893,33.6969 407.307,29.827 407.719,30.7601 408.13,32.352 408.542,31.9129 408.955,31.8031 409.366,33.1205 409.777,30.9248 410.189,32.4344 410.602,30.6503 411.014,31.611 411.425,31.5286 411.837,30.568 412.249,30.3484 412.66,29.278 413.072,30.9248 413.482,32.2697 413.896,28.7566 414.306,31.9678 414.719,31.6933 415.131,31.2816 415.542,32.1599 415.954,28.4272 416.365,30.7327 416.779,30.4582 417.188,32.352 417.601,30.7876 418.013,32.6265 418.425,29.525 418.836,31.2816 419.247,32.9284 419.659,30.7052 420.07,32.352 420.484,31.2816 420.896,29.6074 421.308,29.3604 421.719,30.4582 422.13,31.7482 422.542,31.0346 422.954,29.031 423.365,31.5286 423.777,31.8031 424.189,31.611 424.603,28.2351 425.011,34.0262 425.425,31.1993 425.836,30.2935 426.248,30.4857 426.658,32.7912 427.072,30.5131 427.484,30.9248 427.894,32.5167 428.307,31.6384 428.719,31.3639 429.13,32.3795 429.541,31.858 429.952,33.5871 430.366,28.8114 430.778,31.3365 431.189,31.0895 431.601,34.3556 432.013,31.0346 432.425,28.3723 432.836,29.9093 433.247,32.7912 433.658,31.0895 434.072,29.5799 434.483,30.4582 434.895,30.1838 435.308,30.568 435.718,31.3639 436.131,29.4702 436.542,30.1014 436.952,31.9129 437.365,32.7637 437.777,33.4499 438.189,30.6778 438.6,33.642 439.013,30.6503 439.424,30.7052 439.836,29.3604 440.248,29.0585 440.659,33.395 441.071,32.3795 441.483,30.9523 441.895,33.8341 442.307,31.5286 442.719,28.5919 443.129,33.0382 443.542,30.4308 443.954,32.105 444.366,29.9642 444.776,33.8067 445.188,34.2184 445.602,30.8699 446.012,31.2267 446.423,32.9284 446.835,31.3914 447.249,29.8819 447.659,31.7482 448.071,32.4618 448.482,34.4105 448.896,30.074 449.306,32.7912 449.718,31.5286 450.128,34.5477 450.54,34.5752 450.953,32.6814 451.365,31.611 451.777,31.5012 452.19,31.8031 452.601,31.2267 453.012,31.3914 453.423,32.0775 453.834,33.2852 454.247,33.2303 454.658,33.3126 455.071,31.4188 455.483,32.2697 455.895,31.5286 456.305,32.9558 456.718,31.1993 457.128,32.7088 457.541,32.8735 457.953,33.9165 458.364,33.6969 458.777,31.5561 459.189,31.5012 459.601,30.7601 460.011,32.4069 460.422,34.2184 460.832,39.0214 461.236,55.7637 461.628,99.3483 462.009,164.698 462.355,300.31 462.811,206.691 463.212,231.09 463.616,247.229 464.066,167.031 464.468,188.768 464.878,190.909 465.291,186.078 465.718,153.994 466.142,128.853 466.551,134.479 466.961,139.584 467.384,116.09 467.801,102.971 468.217,96.7958 468.633,84.9664 469.05,75.6073 469.463,74.0428 469.874,74.7016 470.285,75.9915 470.697,76.5405 471.115,61.7195 471.528,59.3042 471.942,56.1479 472.352,58.2064 472.764,55.846 473.18,49.4236 473.593,46.6789 474.005,45.9653 474.418,46.5143 474.827,47.7494 475.241,43.6599 475.654,42.2327 476.066,43.5226 476.476,44.9773 476.889,44.1813 477.3,46.4045 477.71,48.7649 478.123,45.3341 478.533,48.4904 478.945,45.9105 479.359,44.7852 479.773,40.4487 " />
</g>

<g fill="none" stroke="#000000" stroke-opacity="1" stroke-width="1" stroke-linecap="square" stroke-linejoin="bevel" transform="matrix(1.5625,0,0,1.5625,0,0)"
font-family="MS Shell Dlg 2" font-size="17.1875" font-weight="400" font-style="normal" 
>
</g>

<g fill="none" stroke="#000000" stroke-opacity="1" stroke-width="1" stroke-linecap="square" stroke-linejoin="bevel" transform="matrix(1.5625,0,0,1.5625,0,0)"
font-family="MS Shell Dlg 2" font-size="17.1875" font-weight="400" font-style="normal" 
>
</g>

<g fill="none" stroke="#000000" stroke-opacity="1" stroke-width="1" stroke-linecap="square" stroke-linejoin="bevel" transform="matrix(1.5625,0,0,1.5625,0,0)"
font-family="MS Shell Dlg 2" font-size="17.1875" font-weight="400" font-style="normal" 
>
</g>

<g fill="#a0a0a0" fill-opacity="1" stroke="none" transform="matrix(1.5625,0,0,1.5625,0,0)"
font-family="MS Shell Dlg 2" font-size="17.1875" font-weight="400" font-style="normal" 
>
<path vector-effect="none" fill-rule="evenodd" d="M55,328.953 L55,21 L485.929,21 L484.929,22 L56,22 L56,327.953"/>
</g>

<g fill="#ffffff" fill-opacity="1" stroke="none" transform="matrix(1.5625,0,0,1.5625,0,0)"
font-family="MS Shell Dlg 2" font-size="17.1875" font-weight="400" font-style="normal" 
>
<path vector-effect="none" fill-rule="evenodd" d="M55,328.953 L485.929,328.953 L485.929,21 L484.929,22 L484.929,327.953 L56,327.953"/>
</g>

<g fill="none" stroke="#000000" stroke-opacity="1" stroke-width="1" stroke-linecap="square" stroke-linejoin="bevel" transform="matrix(1.5625,0,0,1.5625,0,0)"
font-family="MS Shell Dlg 2" font-size="17.1875" font-weight="400" font-style="normal" 
>
</g>

<g fill="none" stroke="#000000" stroke-opacity="1" stroke-width="1" stroke-linecap="square" stroke-linejoin="bevel" transform="matrix(1.5625,0,0,1.5625,0,0)"
font-family="MS Shell Dlg 2" font-size="17.1875" font-weight="400" font-style="normal" 
>
</g>

<g fill="none" stroke="#dddddd" stroke-opacity="1" stroke-width="1" stroke-linecap="square" stroke-linejoin="bevel" transform="matrix(1.5625,0,0,1.5625,0,0)"
font-family="Arial" font-size="20.8333" font-weight="400" font-style="normal" 
>
</g>

<g fill="none" stroke="#dddddd" stroke-opacity="1" stroke-width="1" stroke-linecap="square" stroke-linejoin="bevel" transform="matrix(1.5625,0,0,1.5625,0,0)"
font-family="Arial" font-size="13" font-weight="400" font-style="normal" 
>
</g>

<g fill="none" stroke="#dddddd" stroke-opacity="1" stroke-width="1" stroke-linecap="square" stroke-linejoin="bevel" transform="matrix(1.5625,0,0,1.5625,0,0)"
font-family="Arial" font-size="13" font-weight="400" font-style="normal" 
>
<text fill="#dddddd" fill-opacity="1" stroke="none" xml:space="preserve" x="241.953" y="13" font-family="Arial" font-size="13" font-weight="400" font-style="normal" 
 >Signal Display</text>
</g>

<g fill="none" stroke="#dddddd" stroke-opacity="1" stroke-width="1" stroke-linecap="square" stroke-linejoin="bevel" transform="matrix(1.5625,0,0,1.5625,0,0)"
font-family="Arial" font-size="20.8333" font-weight="400" font-style="normal" 
>
</g>

<g fill="none" stroke="#dddddd" stroke-opacity="1" stroke-width="1" stroke-linecap="square" stroke-linejoin="bevel" transform="matrix(1.5625,0,0,1.5625,0,0)"
font-family="Arial" font-size="20.8333" font-weight="400" font-style="normal" 
>
</g>

<g fill="none" stroke="#dddddd" stroke-opacity="1" stroke-width="1" stroke-linecap="square" stroke-linejoin="bevel" transform="matrix(0,-1.5625,1.5625,0,0,504.614)"
font-family="Arial" font-size="20.8333" font-weight="400" font-style="normal" 
>
</g>

<g fill="none" stroke="#b4003c" stroke-opacity="1" stroke-width="1" stroke-linecap="square" stroke-linejoin="bevel" transform="matrix(0,-1.5625,1.5625,0,0,504.614)"
font-family="MS Shell Dlg 2" font-size="25" font-weight="700" font-style="normal" 
>
</g>

<g fill="none" stroke="#b4003c" stroke-opacity="1" stroke-width="1" stroke-linecap="square" stroke-linejoin="bevel" transform="matrix(0,-1.5625,1.5625,0,0,504.614)"
font-family="MS Shell Dlg 2" font-size="16" font-weight="700" font-style="normal" 
>
</g>

<g fill="none" stroke="#b4003c" stroke-opacity="1" stroke-width="1" stroke-linecap="square" stroke-linejoin="bevel" transform="matrix(0,-1.5625,1.5625,0,0,504.614)"
font-family="MS Shell Dlg 2" font-size="16" font-weight="700" font-style="normal" 
>
<text fill="#b4003c" fill-opacity="1" stroke="none" xml:space="preserve" x="97.4688" y="16" font-family="MS Shell Dlg 2" font-size="16" font-weight="700" font-style="normal" 
 >Fine In 1 (V)</text>
</g>

<g fill="none" stroke="#b4003c" stroke-opacity="1" stroke-width="1" stroke-linecap="square" stroke-linejoin="bevel" transform="matrix(0,-1.5625,1.5625,0,0,504.614)"
font-family="MS Shell Dlg 2" font-size="25" font-weight="700" font-style="normal" 
>
</g>

<g fill="none" stroke="#dddddd" stroke-opacity="1" stroke-width="1" stroke-linecap="square" stroke-linejoin="bevel" transform="matrix(0,-1.5625,1.5625,0,0,504.614)"
font-family="Arial" font-size="20.8333" font-weight="400" font-style="normal" 
>
</g>

<g fill="none" stroke="#dddddd" stroke-opacity="1" stroke-width="1" stroke-linecap="square" stroke-linejoin="bevel" transform="matrix(1.5625,0,0,1.5625,0,0)"
font-family="Arial" font-size="20.8333" font-weight="400" font-style="normal" 
>
</g>

<g fill="none" stroke="#dddddd" stroke-opacity="1" stroke-width="1" stroke-linecap="square" stroke-linejoin="bevel" transform="matrix(1.5625,0,0,1.5625,0,0)"
font-family="Arial" font-size="20.8333" font-weight="400" font-style="normal" 
>
</g>

<g fill="none" stroke="#dddddd" stroke-opacity="1" stroke-width="1" stroke-linecap="square" stroke-linejoin="bevel" transform="matrix(1.5625,0,0,1.5625,0,0)"
font-family="Arial" font-size="20.8333" font-weight="400" font-style="normal" 
>
</g>

<g fill="none" stroke="#dddddd" stroke-opacity="1" stroke-width="1" stroke-linecap="square" stroke-linejoin="bevel" transform="matrix(1.5625,0,0,1.5625,0,0)"
font-family="Arial" font-size="20.8333" font-weight="400" font-style="normal" 
>
</g>

<g fill="none" stroke="#dddddd" stroke-opacity="1" stroke-width="1" stroke-linecap="square" stroke-linejoin="bevel" transform="matrix(1.5625,0,0,1.5625,50,431.416)"
font-family="Arial" font-size="20.8333" font-weight="400" font-style="normal" 
>
</g>

<g fill="none" stroke="#dddddd" stroke-opacity="1" stroke-width="1" stroke-linecap="square" stroke-linejoin="bevel" transform="matrix(1.5625,0,0,1.5625,50,431.416)"
font-family="Arial" font-size="13" font-weight="400" font-style="normal" 
>
</g>

<g fill="none" stroke="#dddddd" stroke-opacity="1" stroke-width="1" stroke-linecap="square" stroke-linejoin="bevel" transform="matrix(1.5625,0,0,1.5625,50,431.416)"
font-family="Arial" font-size="13" font-weight="400" font-style="normal" 
>
<text fill="#dddddd" fill-opacity="1" stroke="none" xml:space="preserve" x="0" y="11" font-family="Arial" font-size="13" font-weight="400" font-style="normal" 
 >0</text>
</g>

<g fill="none" stroke="#dddddd" stroke-opacity="1" stroke-width="1" stroke-linecap="square" stroke-linejoin="bevel" transform="matrix(1.5625,0,0,1.5625,50,431.416)"
font-family="Arial" font-size="20.8333" font-weight="400" font-style="normal" 
>
</g>

<g fill="none" stroke="#dddddd" stroke-opacity="1" stroke-width="1" stroke-linecap="square" stroke-linejoin="bevel" transform="matrix(1.5625,0,0,1.5625,50,431.416)"
font-family="Arial" font-size="20.8333" font-weight="400" font-style="normal" 
>
</g>

<g fill="none" stroke="#dddddd" stroke-opacity="1" stroke-width="1" stroke-linecap="square" stroke-linejoin="bevel" transform="matrix(1.5625,0,0,1.5625,0,0)"
font-family="Arial" font-size="20.8333" font-weight="400" font-style="normal" 
>
</g>

<g fill="none" stroke="#dddddd" stroke-opacity="1" stroke-width="1" stroke-linecap="square" stroke-linejoin="bevel" transform="matrix(1.5625,0,0,1.5625,32.8125,350.892)"
font-family="Arial" font-size="20.8333" font-weight="400" font-style="normal" 
>
</g>

<g fill="none" stroke="#dddddd" stroke-opacity="1" stroke-width="1" stroke-linecap="square" stroke-linejoin="bevel" transform="matrix(1.5625,0,0,1.5625,32.8125,350.892)"
font-family="Arial" font-size="13" font-weight="400" font-style="normal" 
>
</g>

<g fill="none" stroke="#dddddd" stroke-opacity="1" stroke-width="1" stroke-linecap="square" stroke-linejoin="bevel" transform="matrix(1.5625,0,0,1.5625,32.8125,350.892)"
font-family="Arial" font-size="13" font-weight="400" font-style="normal" 
>
<text fill="#dddddd" fill-opacity="1" stroke="none" xml:space="preserve" x="0" y="11" font-family="Arial" font-size="13" font-weight="400" font-style="normal" 
 >0.1</text>
</g>

<g fill="none" stroke="#dddddd" stroke-opacity="1" stroke-width="1" stroke-linecap="square" stroke-linejoin="bevel" transform="matrix(1.5625,0,0,1.5625,32.8125,350.892)"
font-family="Arial" font-size="20.8333" font-weight="400" font-style="normal" 
>
</g>

<g fill="none" stroke="#dddddd" stroke-opacity="1" stroke-width="1" stroke-linecap="square" stroke-linejoin="bevel" transform="matrix(1.5625,0,0,1.5625,32.8125,350.892)"
font-family="Arial" font-size="20.8333" font-weight="400" font-style="normal" 
>
</g>

<g fill="none" stroke="#dddddd" stroke-opacity="1" stroke-width="1" stroke-linecap="square" stroke-linejoin="bevel" transform="matrix(1.5625,0,0,1.5625,0,0)"
font-family="Arial" font-size="20.8333" font-weight="400" font-style="normal" 
>
</g>

<g fill="none" stroke="#dddddd" stroke-opacity="1" stroke-width="1" stroke-linecap="square" stroke-linejoin="bevel" transform="matrix(1.5625,0,0,1.5625,32.8125,270.367)"
font-family="Arial" font-size="20.8333" font-weight="400" font-style="normal" 
>
</g>

<g fill="none" stroke="#dddddd" stroke-opacity="1" stroke-width="1" stroke-linecap="square" stroke-linejoin="bevel" transform="matrix(1.5625,0,0,1.5625,32.8125,270.367)"
font-family="Arial" font-size="13" font-weight="400" font-style="normal" 
>
</g>

<g fill="none" stroke="#dddddd" stroke-opacity="1" stroke-width="1" stroke-linecap="square" stroke-linejoin="bevel" transform="matrix(1.5625,0,0,1.5625,32.8125,270.367)"
font-family="Arial" font-size="13" font-weight="400" font-style="normal" 
>
<text fill="#dddddd" fill-opacity="1" stroke="none" xml:space="preserve" x="0" y="11" font-family="Arial" font-size="13" font-weight="400" font-style="normal" 
 >0.2</text>
</g>

<g fill="none" stroke="#dddddd" stroke-opacity="1" stroke-width="1" stroke-linecap="square" stroke-linejoin="bevel" transform="matrix(1.5625,0,0,1.5625,32.8125,270.367)"
font-family="Arial" font-size="20.8333" font-weight="400" font-style="normal" 
>
</g>

<g fill="none" stroke="#dddddd" stroke-opacity="1" stroke-width="1" stroke-linecap="square" stroke-linejoin="bevel" transform="matrix(1.5625,0,0,1.5625,32.8125,270.367)"
font-family="Arial" font-size="20.8333" font-weight="400" font-style="normal" 
>
</g>

<g fill="none" stroke="#dddddd" stroke-opacity="1" stroke-width="1" stroke-linecap="square" stroke-linejoin="bevel" transform="matrix(1.5625,0,0,1.5625,0,0)"
font-family="Arial" font-size="20.8333" font-weight="400" font-style="normal" 
>
</g>

<g fill="none" stroke="#dddddd" stroke-opacity="1" stroke-width="1" stroke-linecap="square" stroke-linejoin="bevel" transform="matrix(1.5625,0,0,1.5625,32.8125,189.843)"
font-family="Arial" font-size="20.8333" font-weight="400" font-style="normal" 
>
</g>

<g fill="none" stroke="#dddddd" stroke-opacity="1" stroke-width="1" stroke-linecap="square" stroke-linejoin="bevel" transform="matrix(1.5625,0,0,1.5625,32.8125,189.843)"
font-family="Arial" font-size="13" font-weight="400" font-style="normal" 
>
</g>

<g fill="none" stroke="#dddddd" stroke-opacity="1" stroke-width="1" stroke-linecap="square" stroke-linejoin="bevel" transform="matrix(1.5625,0,0,1.5625,32.8125,189.843)"
font-family="Arial" font-size="13" font-weight="400" font-style="normal" 
>
<text fill="#dddddd" fill-opacity="1" stroke="none" xml:space="preserve" x="0" y="11" font-family="Arial" font-size="13" font-weight="400" font-style="normal" 
 >0.3</text>
</g>

<g fill="none" stroke="#dddddd" stroke-opacity="1" stroke-width="1" stroke-linecap="square" stroke-linejoin="bevel" transform="matrix(1.5625,0,0,1.5625,32.8125,189.843)"
font-family="Arial" font-size="20.8333" font-weight="400" font-style="normal" 
>
</g>

<g fill="none" stroke="#dddddd" stroke-opacity="1" stroke-width="1" stroke-linecap="square" stroke-linejoin="bevel" transform="matrix(1.5625,0,0,1.5625,32.8125,189.843)"
font-family="Arial" font-size="20.8333" font-weight="400" font-style="normal" 
>
</g>

<g fill="none" stroke="#dddddd" stroke-opacity="1" stroke-width="1" stroke-linecap="square" stroke-linejoin="bevel" transform="matrix(1.5625,0,0,1.5625,0,0)"
font-family="Arial" font-size="20.8333" font-weight="400" font-style="normal" 
>
</g>

<g fill="none" stroke="#dddddd" stroke-opacity="1" stroke-width="1" stroke-linecap="square" stroke-linejoin="bevel" transform="matrix(1.5625,0,0,1.5625,32.8125,109.319)"
font-family="Arial" font-size="20.8333" font-weight="400" font-style="normal" 
>
</g>

<g fill="none" stroke="#dddddd" stroke-opacity="1" stroke-width="1" stroke-linecap="square" stroke-linejoin="bevel" transform="matrix(1.5625,0,0,1.5625,32.8125,109.319)"
font-family="Arial" font-size="13" font-weight="400" font-style="normal" 
>
</g>

<g fill="none" stroke="#dddddd" stroke-opacity="1" stroke-width="1" stroke-linecap="square" stroke-linejoin="bevel" transform="matrix(1.5625,0,0,1.5625,32.8125,109.319)"
font-family="Arial" font-size="13" font-weight="400" font-style="normal" 
>
<text fill="#dddddd" fill-opacity="1" stroke="none" xml:space="preserve" x="0" y="11" font-family="Arial" font-size="13" font-weight="400" font-style="normal" 
 >0.4</text>
</g>

<g fill="none" stroke="#dddddd" stroke-opacity="1" stroke-width="1" stroke-linecap="square" stroke-linejoin="bevel" transform="matrix(1.5625,0,0,1.5625,32.8125,109.319)"
font-family="Arial" font-size="20.8333" font-weight="400" font-style="normal" 
>
</g>

<g fill="none" stroke="#dddddd" stroke-opacity="1" stroke-width="1" stroke-linecap="square" stroke-linejoin="bevel" transform="matrix(1.5625,0,0,1.5625,32.8125,109.319)"
font-family="Arial" font-size="20.8333" font-weight="400" font-style="normal" 
>
</g>

<g fill="none" stroke="#dddddd" stroke-opacity="1" stroke-width="1" stroke-linecap="square" stroke-linejoin="bevel" transform="matrix(1.5625,0,0,1.5625,0,0)"
font-family="Arial" font-size="20.8333" font-weight="400" font-style="normal" 
>
</g>

<g fill="none" stroke="#dddddd" stroke-opacity="1" stroke-width="1" stroke-linecap="square" stroke-linejoin="bevel" transform="matrix(1.5625,0,0,1.5625,0,0)"
font-family="Arial" font-size="20.8333" font-weight="400" font-style="normal" 
>
</g>

<g fill="none" stroke="#dddddd" stroke-opacity="1" stroke-width="1" stroke-linecap="butt" stroke-linejoin="bevel" transform="matrix(1.5625,0,0,1.5625,0,0)"
font-family="Arial" font-size="20.8333" font-weight="400" font-style="normal" 
>
<polyline fill="none" vector-effect="non-scaling-stroke" points="52,322.835 48,322.835 " />
<polyline fill="none" vector-effect="non-scaling-stroke" points="52,312.528 48,312.528 " />
<polyline fill="none" vector-effect="non-scaling-stroke" points="52,302.22 48,302.22 " />
<polyline fill="none" vector-effect="non-scaling-stroke" points="52,291.913 48,291.913 " />
<polyline fill="none" vector-effect="non-scaling-stroke" points="52,271.299 48,271.299 " />
<polyline fill="none" vector-effect="non-scaling-stroke" points="52,260.992 48,260.992 " />
<polyline fill="none" vector-effect="non-scaling-stroke" points="52,250.685 48,250.685 " />
<polyline fill="none" vector-effect="non-scaling-stroke" points="52,240.378 48,240.378 " />
<polyline fill="none" vector-effect="non-scaling-stroke" points="52,219.763 48,219.763 " />
<polyline fill="none" vector-effect="non-scaling-stroke" points="52,209.456 48,209.456 " />
<polyline fill="none" vector-effect="non-scaling-stroke" points="52,199.149 48,199.149 " />
<polyline fill="none" vector-effect="non-scaling-stroke" points="52,188.842 48,188.842 " />
<polyline fill="none" vector-effect="non-scaling-stroke" points="52,168.228 48,168.228 " />
<polyline fill="none" vector-effect="non-scaling-stroke" points="52,157.921 48,157.921 " />
<polyline fill="none" vector-effect="non-scaling-stroke" points="52,147.614 48,147.614 " />
<polyline fill="none" vector-effect="non-scaling-stroke" points="52,137.307 48,137.307 " />
<polyline fill="none" vector-effect="non-scaling-stroke" points="52,116.692 48,116.692 " />
<polyline fill="none" vector-effect="non-scaling-stroke" points="52,106.385 48,106.385 " />
<polyline fill="none" vector-effect="non-scaling-stroke" points="52,96.0781 48,96.0781 " />
<polyline fill="none" vector-effect="non-scaling-stroke" points="52,85.771 48,85.771 " />
<polyline fill="none" vector-effect="non-scaling-stroke" points="52,65.1568 48,65.1568 " />
<polyline fill="none" vector-effect="non-scaling-stroke" points="52,54.8497 48,54.8497 " />
<polyline fill="none" vector-effect="non-scaling-stroke" points="52,44.5425 48,44.5425 " />
<polyline fill="none" vector-effect="non-scaling-stroke" points="52,34.2354 48,34.2354 " />
<polyline fill="none" vector-effect="non-scaling-stroke" points="52,281.606 44,281.606 " />
<polyline fill="none" vector-effect="non-scaling-stroke" points="52,230.071 44,230.071 " />
<polyline fill="none" vector-effect="non-scaling-stroke" points="52,178.535 44,178.535 " />
<polyline fill="none" vector-effect="non-scaling-stroke" points="52,126.999 44,126.999 " />
<polyline fill="none" vector-effect="non-scaling-stroke" points="52,75.4639 44,75.4639 " />
</g>

<g fill="none" stroke="#dddddd" stroke-opacity="1" stroke-width="1" stroke-linecap="square" stroke-linejoin="bevel" transform="matrix(1.5625,0,0,1.5625,0,0)"
font-family="Arial" font-size="20.8333" font-weight="400" font-style="normal" 
>
</g>

<g fill="none" stroke="#dddddd" stroke-opacity="1" stroke-width="1" stroke-linecap="butt" stroke-linejoin="bevel" transform="matrix(1.5625,0,0,1.5625,0,0)"
font-family="Arial" font-size="20.8333" font-weight="400" font-style="normal" 
>
<polyline fill="none" vector-effect="non-scaling-stroke" points="52,27 52,322.953 " />
</g>

<g fill="none" stroke="#dddddd" stroke-opacity="1" stroke-width="1" stroke-linecap="square" stroke-linejoin="bevel" transform="matrix(1.5625,0,0,1.5625,0,0)"
font-family="Arial" font-size="20.8333" font-weight="400" font-style="normal" 
>
</g>

<g fill="none" stroke="#dddddd" stroke-opacity="1" stroke-width="1" stroke-linecap="square" stroke-linejoin="bevel" transform="matrix(1.5625,0,0,1.5625,0,0)"
font-family="Arial" font-size="20.8333" font-weight="400" font-style="normal" 
>
</g>

<g fill="none" stroke="#dddddd" stroke-opacity="1" stroke-width="1" stroke-linecap="square" stroke-linejoin="bevel" transform="matrix(1.5625,0,0,1.5625,0,0)"
font-family="Arial" font-size="20.8333" font-weight="400" font-style="normal" 
>
</g>

<g fill="none" stroke="#dddddd" stroke-opacity="1" stroke-width="1" stroke-linecap="square" stroke-linejoin="bevel" transform="matrix(0,1.5625,-1.5625,0,885.827,42.1875)"
font-family="Arial" font-size="20.8333" font-weight="400" font-style="normal" 
>
</g>

<g fill="none" stroke="#0064ff" stroke-opacity="1" stroke-width="1" stroke-linecap="square" stroke-linejoin="bevel" transform="matrix(0,1.5625,-1.5625,0,885.827,42.1875)"
font-family="MS Shell Dlg 2" font-size="25" font-weight="700" font-style="normal" 
>
</g>

<g fill="none" stroke="#0064ff" stroke-opacity="1" stroke-width="1" stroke-linecap="square" stroke-linejoin="bevel" transform="matrix(0,1.5625,-1.5625,0,885.827,42.1875)"
font-family="MS Shell Dlg 2" font-size="16" font-weight="700" font-style="normal" 
>
</g>

<g fill="none" stroke="#0064ff" stroke-opacity="1" stroke-width="1" stroke-linecap="square" stroke-linejoin="bevel" transform="matrix(0,1.5625,-1.5625,0,885.827,42.1875)"
font-family="MS Shell Dlg 2" font-size="16" font-weight="700" font-style="normal" 
>
<text fill="#0064ff" fill-opacity="1" stroke="none" xml:space="preserve" x="97.4688" y="16" font-family="MS Shell Dlg 2" font-size="16" font-weight="700" font-style="normal" 
 >Fine In 2 (V)</text>
</g>

<g fill="none" stroke="#0064ff" stroke-opacity="1" stroke-width="1" stroke-linecap="square" stroke-linejoin="bevel" transform="matrix(0,1.5625,-1.5625,0,885.827,42.1875)"
font-family="MS Shell Dlg 2" font-size="25" font-weight="700" font-style="normal" 
>
</g>

<g fill="none" stroke="#dddddd" stroke-opacity="1" stroke-width="1" stroke-linecap="square" stroke-linejoin="bevel" transform="matrix(0,1.5625,-1.5625,0,885.827,42.1875)"
font-family="Arial" font-size="20.8333" font-weight="400" font-style="normal" 
>
</g>

<g fill="none" stroke="#dddddd" stroke-opacity="1" stroke-width="1" stroke-linecap="square" stroke-linejoin="bevel" transform="matrix(1.5625,0,0,1.5625,0,0)"
font-family="Arial" font-size="20.8333" font-weight="400" font-style="normal" 
>
</g>

<g fill="none" stroke="#dddddd" stroke-opacity="1" stroke-width="1" stroke-linecap="square" stroke-linejoin="bevel" transform="matrix(1.5625,0,0,1.5625,0,0)"
font-family="Arial" font-size="20.8333" font-weight="400" font-style="normal" 
>
</g>

<g fill="none" stroke="#dddddd" stroke-opacity="1" stroke-width="1" stroke-linecap="square" stroke-linejoin="bevel" transform="matrix(1.5625,0,0,1.5625,0,0)"
font-family="Arial" font-size="20.8333" font-weight="400" font-style="normal" 
>
</g>

<g fill="none" stroke="#dddddd" stroke-opacity="1" stroke-width="1" stroke-linecap="square" stroke-linejoin="bevel" transform="matrix(1.5625,0,0,1.5625,0,0)"
font-family="Arial" font-size="20.8333" font-weight="400" font-style="normal" 
>
</g>

<g fill="none" stroke="#dddddd" stroke-opacity="1" stroke-width="1" stroke-linecap="square" stroke-linejoin="bevel" transform="matrix(1.5625,0,0,1.5625,784.264,484.357)"
font-family="Arial" font-size="20.8333" font-weight="400" font-style="normal" 
>
</g>

<g fill="none" stroke="#dddddd" stroke-opacity="1" stroke-width="1" stroke-linecap="square" stroke-linejoin="bevel" transform="matrix(1.5625,0,0,1.5625,784.264,484.357)"
font-family="Arial" font-size="13" font-weight="400" font-style="normal" 
>
</g>

<g fill="none" stroke="#dddddd" stroke-opacity="1" stroke-width="1" stroke-linecap="square" stroke-linejoin="bevel" transform="matrix(1.5625,0,0,1.5625,784.264,484.357)"
font-family="Arial" font-size="13" font-weight="400" font-style="normal" 
>
<text fill="#dddddd" fill-opacity="1" stroke="none" xml:space="preserve" x="0" y="11" font-family="Arial" font-size="13" font-weight="400" font-style="normal" 
 >-0.002</text>
</g>

<g fill="none" stroke="#dddddd" stroke-opacity="1" stroke-width="1" stroke-linecap="square" stroke-linejoin="bevel" transform="matrix(1.5625,0,0,1.5625,784.264,484.357)"
font-family="Arial" font-size="20.8333" font-weight="400" font-style="normal" 
>
</g>

<g fill="none" stroke="#dddddd" stroke-opacity="1" stroke-width="1" stroke-linecap="square" stroke-linejoin="bevel" transform="matrix(1.5625,0,0,1.5625,784.264,484.357)"
font-family="Arial" font-size="20.8333" font-weight="400" font-style="normal" 
>
</g>

<g fill="none" stroke="#dddddd" stroke-opacity="1" stroke-width="1" stroke-linecap="square" stroke-linejoin="bevel" transform="matrix(1.5625,0,0,1.5625,0,0)"
font-family="Arial" font-size="20.8333" font-weight="400" font-style="normal" 
>
</g>

<g fill="none" stroke="#dddddd" stroke-opacity="1" stroke-width="1" stroke-linecap="square" stroke-linejoin="bevel" transform="matrix(1.5625,0,0,1.5625,784.264,396.7)"
font-family="Arial" font-size="20.8333" font-weight="400" font-style="normal" 
>
</g>

<g fill="none" stroke="#dddddd" stroke-opacity="1" stroke-width="1" stroke-linecap="square" stroke-linejoin="bevel" transform="matrix(1.5625,0,0,1.5625,784.264,396.7)"
font-family="Arial" font-size="13" font-weight="400" font-style="normal" 
>
</g>

<g fill="none" stroke="#dddddd" stroke-opacity="1" stroke-width="1" stroke-linecap="square" stroke-linejoin="bevel" transform="matrix(1.5625,0,0,1.5625,784.264,396.7)"
font-family="Arial" font-size="13" font-weight="400" font-style="normal" 
>
<text fill="#dddddd" fill-opacity="1" stroke="none" xml:space="preserve" x="0" y="11" font-family="Arial" font-size="13" font-weight="400" font-style="normal" 
 >-0.0015</text>
</g>

<g fill="none" stroke="#dddddd" stroke-opacity="1" stroke-width="1" stroke-linecap="square" stroke-linejoin="bevel" transform="matrix(1.5625,0,0,1.5625,784.264,396.7)"
font-family="Arial" font-size="20.8333" font-weight="400" font-style="normal" 
>
</g>

<g fill="none" stroke="#dddddd" stroke-opacity="1" stroke-width="1" stroke-linecap="square" stroke-linejoin="bevel" transform="matrix(1.5625,0,0,1.5625,784.264,396.7)"
font-family="Arial" font-size="20.8333" font-weight="400" font-style="normal" 
>
</g>

<g fill="none" stroke="#dddddd" stroke-opacity="1" stroke-width="1" stroke-linecap="square" stroke-linejoin="bevel" transform="matrix(1.5625,0,0,1.5625,0,0)"
font-family="Arial" font-size="20.8333" font-weight="400" font-style="normal" 
>
</g>

<g fill="none" stroke="#dddddd" stroke-opacity="1" stroke-width="1" stroke-linecap="square" stroke-linejoin="bevel" transform="matrix(1.5625,0,0,1.5625,784.264,309.043)"
font-family="Arial" font-size="20.8333" font-weight="400" font-style="normal" 
>
</g>

<g fill="none" stroke="#dddddd" stroke-opacity="1" stroke-width="1" stroke-linecap="square" stroke-linejoin="bevel" transform="matrix(1.5625,0,0,1.5625,784.264,309.043)"
font-family="Arial" font-size="13" font-weight="400" font-style="normal" 
>
</g>

<g fill="none" stroke="#dddddd" stroke-opacity="1" stroke-width="1" stroke-linecap="square" stroke-linejoin="bevel" transform="matrix(1.5625,0,0,1.5625,784.264,309.043)"
font-family="Arial" font-size="13" font-weight="400" font-style="normal" 
>
<text fill="#dddddd" fill-opacity="1" stroke="none" xml:space="preserve" x="0" y="11" font-family="Arial" font-size="13" font-weight="400" font-style="normal" 
 >-0.001</text>
</g>

<g fill="none" stroke="#dddddd" stroke-opacity="1" stroke-width="1" stroke-linecap="square" stroke-linejoin="bevel" transform="matrix(1.5625,0,0,1.5625,784.264,309.043)"
font-family="Arial" font-size="20.8333" font-weight="400" font-style="normal" 
>
</g>

<g fill="none" stroke="#dddddd" stroke-opacity="1" stroke-width="1" stroke-linecap="square" stroke-linejoin="bevel" transform="matrix(1.5625,0,0,1.5625,784.264,309.043)"
font-family="Arial" font-size="20.8333" font-weight="400" font-style="normal" 
>
</g>

<g fill="none" stroke="#dddddd" stroke-opacity="1" stroke-width="1" stroke-linecap="square" stroke-linejoin="bevel" transform="matrix(1.5625,0,0,1.5625,0,0)"
font-family="Arial" font-size="20.8333" font-weight="400" font-style="normal" 
>
</g>

<g fill="none" stroke="#dddddd" stroke-opacity="1" stroke-width="1" stroke-linecap="square" stroke-linejoin="bevel" transform="matrix(1.5625,0,0,1.5625,784.264,221.386)"
font-family="Arial" font-size="20.8333" font-weight="400" font-style="normal" 
>
</g>

<g fill="none" stroke="#dddddd" stroke-opacity="1" stroke-width="1" stroke-linecap="square" stroke-linejoin="bevel" transform="matrix(1.5625,0,0,1.5625,784.264,221.386)"
font-family="Arial" font-size="13" font-weight="400" font-style="normal" 
>
</g>

<g fill="none" stroke="#dddddd" stroke-opacity="1" stroke-width="1" stroke-linecap="square" stroke-linejoin="bevel" transform="matrix(1.5625,0,0,1.5625,784.264,221.386)"
font-family="Arial" font-size="13" font-weight="400" font-style="normal" 
>
<text fill="#dddddd" fill-opacity="1" stroke="none" xml:space="preserve" x="0" y="11" font-family="Arial" font-size="13" font-weight="400" font-style="normal" 
 >-0.0005</text>
</g>

<g fill="none" stroke="#dddddd" stroke-opacity="1" stroke-width="1" stroke-linecap="square" stroke-linejoin="bevel" transform="matrix(1.5625,0,0,1.5625,784.264,221.386)"
font-family="Arial" font-size="20.8333" font-weight="400" font-style="normal" 
>
</g>

<g fill="none" stroke="#dddddd" stroke-opacity="1" stroke-width="1" stroke-linecap="square" stroke-linejoin="bevel" transform="matrix(1.5625,0,0,1.5625,784.264,221.386)"
font-family="Arial" font-size="20.8333" font-weight="400" font-style="normal" 
>
</g>

<g fill="none" stroke="#dddddd" stroke-opacity="1" stroke-width="1" stroke-linecap="square" stroke-linejoin="bevel" transform="matrix(1.5625,0,0,1.5625,0,0)"
font-family="Arial" font-size="20.8333" font-weight="400" font-style="normal" 
>
</g>

<g fill="none" stroke="#dddddd" stroke-opacity="1" stroke-width="1" stroke-linecap="square" stroke-linejoin="bevel" transform="matrix(1.5625,0,0,1.5625,784.264,133.73)"
font-family="Arial" font-size="20.8333" font-weight="400" font-style="normal" 
>
</g>

<g fill="none" stroke="#dddddd" stroke-opacity="1" stroke-width="1" stroke-linecap="square" stroke-linejoin="bevel" transform="matrix(1.5625,0,0,1.5625,784.264,133.73)"
font-family="Arial" font-size="13" font-weight="400" font-style="normal" 
>
</g>

<g fill="none" stroke="#dddddd" stroke-opacity="1" stroke-width="1" stroke-linecap="square" stroke-linejoin="bevel" transform="matrix(1.5625,0,0,1.5625,784.264,133.73)"
font-family="Arial" font-size="13" font-weight="400" font-style="normal" 
>
<text fill="#dddddd" fill-opacity="1" stroke="none" xml:space="preserve" x="0" y="11" font-family="Arial" font-size="13" font-weight="400" font-style="normal" 
 >0</text>
</g>

<g fill="none" stroke="#dddddd" stroke-opacity="1" stroke-width="1" stroke-linecap="square" stroke-linejoin="bevel" transform="matrix(1.5625,0,0,1.5625,784.264,133.73)"
font-family="Arial" font-size="20.8333" font-weight="400" font-style="normal" 
>
</g>

<g fill="none" stroke="#dddddd" stroke-opacity="1" stroke-width="1" stroke-linecap="square" stroke-linejoin="bevel" transform="matrix(1.5625,0,0,1.5625,784.264,133.73)"
font-family="Arial" font-size="20.8333" font-weight="400" font-style="normal" 
>
</g>

<g fill="none" stroke="#dddddd" stroke-opacity="1" stroke-width="1" stroke-linecap="square" stroke-linejoin="bevel" transform="matrix(1.5625,0,0,1.5625,0,0)"
font-family="Arial" font-size="20.8333" font-weight="400" font-style="normal" 
>
</g>

<g fill="none" stroke="#dddddd" stroke-opacity="1" stroke-width="1" stroke-linecap="square" stroke-linejoin="bevel" transform="matrix(1.5625,0,0,1.5625,784.264,46.0729)"
font-family="Arial" font-size="20.8333" font-weight="400" font-style="normal" 
>
</g>

<g fill="none" stroke="#dddddd" stroke-opacity="1" stroke-width="1" stroke-linecap="square" stroke-linejoin="bevel" transform="matrix(1.5625,0,0,1.5625,784.264,46.0729)"
font-family="Arial" font-size="13" font-weight="400" font-style="normal" 
>
</g>

<g fill="none" stroke="#dddddd" stroke-opacity="1" stroke-width="1" stroke-linecap="square" stroke-linejoin="bevel" transform="matrix(1.5625,0,0,1.5625,784.264,46.0729)"
font-family="Arial" font-size="13" font-weight="400" font-style="normal" 
>
<text fill="#dddddd" fill-opacity="1" stroke="none" xml:space="preserve" x="0" y="11" font-family="Arial" font-size="13" font-weight="400" font-style="normal" 
 >0.0005</text>
</g>

<g fill="none" stroke="#dddddd" stroke-opacity="1" stroke-width="1" stroke-linecap="square" stroke-linejoin="bevel" transform="matrix(1.5625,0,0,1.5625,784.264,46.0729)"
font-family="Arial" font-size="20.8333" font-weight="400" font-style="normal" 
>
</g>

<g fill="none" stroke="#dddddd" stroke-opacity="1" stroke-width="1" stroke-linecap="square" stroke-linejoin="bevel" transform="matrix(1.5625,0,0,1.5625,784.264,46.0729)"
font-family="Arial" font-size="20.8333" font-weight="400" font-style="normal" 
>
</g>

<g fill="none" stroke="#dddddd" stroke-opacity="1" stroke-width="1" stroke-linecap="square" stroke-linejoin="bevel" transform="matrix(1.5625,0,0,1.5625,0,0)"
font-family="Arial" font-size="20.8333" font-weight="400" font-style="normal" 
>
</g>

<g fill="none" stroke="#dddddd" stroke-opacity="1" stroke-width="1" stroke-linecap="square" stroke-linejoin="bevel" transform="matrix(1.5625,0,0,1.5625,0,0)"
font-family="Arial" font-size="20.8333" font-weight="400" font-style="normal" 
>
</g>

<g fill="none" stroke="#dddddd" stroke-opacity="1" stroke-width="1" stroke-linecap="butt" stroke-linejoin="bevel" transform="matrix(1.5625,0,0,1.5625,0,0)"
font-family="Arial" font-size="20.8333" font-weight="400" font-style="normal" 
>
<polyline fill="none" vector-effect="non-scaling-stroke" points="488.929,304.268 492.929,304.268 " />
<polyline fill="none" vector-effect="non-scaling-stroke" points="488.929,293.048 492.929,293.048 " />
<polyline fill="none" vector-effect="non-scaling-stroke" points="488.929,281.828 492.929,281.828 " />
<polyline fill="none" vector-effect="non-scaling-stroke" points="488.929,270.608 492.929,270.608 " />
<polyline fill="none" vector-effect="non-scaling-stroke" points="488.929,248.168 492.929,248.168 " />
<polyline fill="none" vector-effect="non-scaling-stroke" points="488.929,236.948 492.929,236.948 " />
<polyline fill="none" vector-effect="non-scaling-stroke" points="488.929,225.728 492.929,225.728 " />
<polyline fill="none" vector-effect="non-scaling-stroke" points="488.929,214.508 492.929,214.508 " />
<polyline fill="none" vector-effect="non-scaling-stroke" points="488.929,192.068 492.929,192.068 " />
<polyline fill="none" vector-effect="non-scaling-stroke" points="488.929,180.847 492.929,180.847 " />
<polyline fill="none" vector-effect="non-scaling-stroke" points="488.929,169.627 492.929,169.627 " />
<polyline fill="none" vector-effect="non-scaling-stroke" points="488.929,158.407 492.929,158.407 " />
<polyline fill="none" vector-effect="non-scaling-stroke" points="488.929,135.967 492.929,135.967 " />
<polyline fill="none" vector-effect="non-scaling-stroke" points="488.929,124.747 492.929,124.747 " />
<polyline fill="none" vector-effect="non-scaling-stroke" points="488.929,113.527 492.929,113.527 " />
<polyline fill="none" vector-effect="non-scaling-stroke" points="488.929,102.307 492.929,102.307 " />
<polyline fill="none" vector-effect="non-scaling-stroke" points="488.929,79.8669 492.929,79.8669 " />
<polyline fill="none" vector-effect="non-scaling-stroke" points="488.929,68.6468 492.929,68.6468 " />
<polyline fill="none" vector-effect="non-scaling-stroke" points="488.929,57.4268 492.929,57.4268 " />
<polyline fill="none" vector-effect="non-scaling-stroke" points="488.929,46.2067 492.929,46.2067 " />
<polyline fill="none" vector-effect="non-scaling-stroke" points="488.929,315.488 496.929,315.488 " />
<polyline fill="none" vector-effect="non-scaling-stroke" points="488.929,259.388 496.929,259.388 " />
<polyline fill="none" vector-effect="non-scaling-stroke" points="488.929,203.288 496.929,203.288 " />
<polyline fill="none" vector-effect="non-scaling-stroke" points="488.929,147.187 496.929,147.187 " />
<polyline fill="none" vector-effect="non-scaling-stroke" points="488.929,91.087 496.929,91.087 " />
<polyline fill="none" vector-effect="non-scaling-stroke" points="488.929,34.9866 496.929,34.9866 " />
</g>

<g fill="none" stroke="#dddddd" stroke-opacity="1" stroke-width="1" stroke-linecap="square" stroke-linejoin="bevel" transform="matrix(1.5625,0,0,1.5625,0,0)"
font-family="Arial" font-size="20.8333" font-weight="400" font-style="normal" 
>
</g>

<g fill="none" stroke="#dddddd" stroke-opacity="1" stroke-width="1" stroke-linecap="butt" stroke-linejoin="bevel" transform="matrix(1.5625,0,0,1.5625,0,0)"
font-family="Arial" font-size="20.8333" font-weight="400" font-style="normal" 
>
<polyline fill="none" vector-effect="non-scaling-stroke" points="488.929,27 488.929,322.953 " />
</g>

<g fill="none" stroke="#dddddd" stroke-opacity="1" stroke-width="1" stroke-linecap="square" stroke-linejoin="bevel" transform="matrix(1.5625,0,0,1.5625,0,0)"
font-family="Arial" font-size="20.8333" font-weight="400" font-style="normal" 
>
</g>

<g fill="none" stroke="#dddddd" stroke-opacity="1" stroke-width="1" stroke-linecap="square" stroke-linejoin="bevel" transform="matrix(1.5625,0,0,1.5625,0,0)"
font-family="Arial" font-size="20.8333" font-weight="400" font-style="normal" 
>
</g>

<g fill="none" stroke="#dddddd" stroke-opacity="1" stroke-width="1" stroke-linecap="square" stroke-linejoin="bevel" transform="matrix(1.5625,0,0,1.5625,0,0)"
font-family="Arial" font-size="20.8333" font-weight="400" font-style="normal" 
>
</g>

<g fill="none" stroke="#dddddd" stroke-opacity="1" stroke-width="1" stroke-linecap="square" stroke-linejoin="bevel" transform="matrix(1.5625,0,0,1.5625,95.3125,559.301)"
font-family="Arial" font-size="20.8333" font-weight="400" font-style="normal" 
>
</g>

<g fill="none" stroke="#dddddd" stroke-opacity="1" stroke-width="1" stroke-linecap="square" stroke-linejoin="bevel" transform="matrix(1.5625,0,0,1.5625,95.3125,559.301)"
font-family="MS Shell Dlg 2" font-size="25" font-weight="700" font-style="normal" 
>
</g>

<g fill="none" stroke="#dddddd" stroke-opacity="1" stroke-width="1" stroke-linecap="square" stroke-linejoin="bevel" transform="matrix(1.5625,0,0,1.5625,95.3125,559.301)"
font-family="MS Shell Dlg 2" font-size="16" font-weight="700" font-style="normal" 
>
</g>

<g fill="none" stroke="#dddddd" stroke-opacity="1" stroke-width="1" stroke-linecap="square" stroke-linejoin="bevel" transform="matrix(1.5625,0,0,1.5625,95.3125,559.301)"
font-family="MS Shell Dlg 2" font-size="16" font-weight="700" font-style="normal" 
>
<text fill="#dddddd" fill-opacity="1" stroke="none" xml:space="preserve" x="137.953" y="17" font-family="MS Shell Dlg 2" font-size="16" font-weight="700" font-style="normal" 
 >Piezo Voltage (V)</text>
</g>

<g fill="none" stroke="#dddddd" stroke-opacity="1" stroke-width="1" stroke-linecap="square" stroke-linejoin="bevel" transform="matrix(1.5625,0,0,1.5625,95.3125,559.301)"
font-family="MS Shell Dlg 2" font-size="25" font-weight="700" font-style="normal" 
>
</g>

<g fill="none" stroke="#dddddd" stroke-opacity="1" stroke-width="1" stroke-linecap="square" stroke-linejoin="bevel" transform="matrix(1.5625,0,0,1.5625,95.3125,559.301)"
font-family="Arial" font-size="20.8333" font-weight="400" font-style="normal" 
>
</g>

<g fill="none" stroke="#dddddd" stroke-opacity="1" stroke-width="1" stroke-linecap="square" stroke-linejoin="bevel" transform="matrix(1.5625,0,0,1.5625,0,0)"
font-family="Arial" font-size="20.8333" font-weight="400" font-style="normal" 
>
</g>

<g fill="none" stroke="#dddddd" stroke-opacity="1" stroke-width="1" stroke-linecap="square" stroke-linejoin="bevel" transform="matrix(1.5625,0,0,1.5625,0,0)"
font-family="Arial" font-size="20.8333" font-weight="400" font-style="normal" 
>
</g>

<g fill="none" stroke="#dddddd" stroke-opacity="1" stroke-width="1" stroke-linecap="square" stroke-linejoin="bevel" transform="matrix(1.5625,0,0,1.5625,0,0)"
font-family="Arial" font-size="20.8333" font-weight="400" font-style="normal" 
>
</g>

<g fill="none" stroke="#dddddd" stroke-opacity="1" stroke-width="1" stroke-linecap="square" stroke-linejoin="bevel" transform="matrix(1.5625,0,0,1.5625,0,0)"
font-family="Arial" font-size="20.8333" font-weight="400" font-style="normal" 
>
</g>

<g fill="none" stroke="#dddddd" stroke-opacity="1" stroke-width="1" stroke-linecap="square" stroke-linejoin="bevel" transform="matrix(1.5625,0,0,1.5625,125.671,538.989)"
font-family="Arial" font-size="20.8333" font-weight="400" font-style="normal" 
>
</g>

<g fill="none" stroke="#dddddd" stroke-opacity="1" stroke-width="1" stroke-linecap="square" stroke-linejoin="bevel" transform="matrix(1.5625,0,0,1.5625,125.671,538.989)"
font-family="Arial" font-size="13" font-weight="400" font-style="normal" 
>
</g>

<g fill="none" stroke="#dddddd" stroke-opacity="1" stroke-width="1" stroke-linecap="square" stroke-linejoin="bevel" transform="matrix(1.5625,0,0,1.5625,125.671,538.989)"
font-family="Arial" font-size="13" font-weight="400" font-style="normal" 
>
<text fill="#dddddd" fill-opacity="1" stroke="none" xml:space="preserve" x="0" y="11" font-family="Arial" font-size="13" font-weight="400" font-style="normal" 
 >67</text>
</g>

<g fill="none" stroke="#dddddd" stroke-opacity="1" stroke-width="1" stroke-linecap="square" stroke-linejoin="bevel" transform="matrix(1.5625,0,0,1.5625,125.671,538.989)"
font-family="Arial" font-size="20.8333" font-weight="400" font-style="normal" 
>
</g>

<g fill="none" stroke="#dddddd" stroke-opacity="1" stroke-width="1" stroke-linecap="square" stroke-linejoin="bevel" transform="matrix(1.5625,0,0,1.5625,125.671,538.989)"
font-family="Arial" font-size="20.8333" font-weight="400" font-style="normal" 
>
</g>

<g fill="none" stroke="#dddddd" stroke-opacity="1" stroke-width="1" stroke-linecap="square" stroke-linejoin="bevel" transform="matrix(1.5625,0,0,1.5625,0,0)"
font-family="Arial" font-size="20.8333" font-weight="400" font-style="normal" 
>
</g>

<g fill="none" stroke="#dddddd" stroke-opacity="1" stroke-width="1" stroke-linecap="square" stroke-linejoin="bevel" transform="matrix(1.5625,0,0,1.5625,209.592,538.989)"
font-family="Arial" font-size="20.8333" font-weight="400" font-style="normal" 
>
</g>

<g fill="none" stroke="#dddddd" stroke-opacity="1" stroke-width="1" stroke-linecap="square" stroke-linejoin="bevel" transform="matrix(1.5625,0,0,1.5625,209.592,538.989)"
font-family="Arial" font-size="13" font-weight="400" font-style="normal" 
>
</g>

<g fill="none" stroke="#dddddd" stroke-opacity="1" stroke-width="1" stroke-linecap="square" stroke-linejoin="bevel" transform="matrix(1.5625,0,0,1.5625,209.592,538.989)"
font-family="Arial" font-size="13" font-weight="400" font-style="normal" 
>
<text fill="#dddddd" fill-opacity="1" stroke="none" xml:space="preserve" x="0" y="11" font-family="Arial" font-size="13" font-weight="400" font-style="normal" 
 >68</text>
</g>

<g fill="none" stroke="#dddddd" stroke-opacity="1" stroke-width="1" stroke-linecap="square" stroke-linejoin="bevel" transform="matrix(1.5625,0,0,1.5625,209.592,538.989)"
font-family="Arial" font-size="20.8333" font-weight="400" font-style="normal" 
>
</g>

<g fill="none" stroke="#dddddd" stroke-opacity="1" stroke-width="1" stroke-linecap="square" stroke-linejoin="bevel" transform="matrix(1.5625,0,0,1.5625,209.592,538.989)"
font-family="Arial" font-size="20.8333" font-weight="400" font-style="normal" 
>
</g>

<g fill="none" stroke="#dddddd" stroke-opacity="1" stroke-width="1" stroke-linecap="square" stroke-linejoin="bevel" transform="matrix(1.5625,0,0,1.5625,0,0)"
font-family="Arial" font-size="20.8333" font-weight="400" font-style="normal" 
>
</g>

<g fill="none" stroke="#dddddd" stroke-opacity="1" stroke-width="1" stroke-linecap="square" stroke-linejoin="bevel" transform="matrix(1.5625,0,0,1.5625,293.513,538.989)"
font-family="Arial" font-size="20.8333" font-weight="400" font-style="normal" 
>
</g>

<g fill="none" stroke="#dddddd" stroke-opacity="1" stroke-width="1" stroke-linecap="square" stroke-linejoin="bevel" transform="matrix(1.5625,0,0,1.5625,293.513,538.989)"
font-family="Arial" font-size="13" font-weight="400" font-style="normal" 
>
</g>

<g fill="none" stroke="#dddddd" stroke-opacity="1" stroke-width="1" stroke-linecap="square" stroke-linejoin="bevel" transform="matrix(1.5625,0,0,1.5625,293.513,538.989)"
font-family="Arial" font-size="13" font-weight="400" font-style="normal" 
>
<text fill="#dddddd" fill-opacity="1" stroke="none" xml:space="preserve" x="0" y="11" font-family="Arial" font-size="13" font-weight="400" font-style="normal" 
 >69</text>
</g>

<g fill="none" stroke="#dddddd" stroke-opacity="1" stroke-width="1" stroke-linecap="square" stroke-linejoin="bevel" transform="matrix(1.5625,0,0,1.5625,293.513,538.989)"
font-family="Arial" font-size="20.8333" font-weight="400" font-style="normal" 
>
</g>

<g fill="none" stroke="#dddddd" stroke-opacity="1" stroke-width="1" stroke-linecap="square" stroke-linejoin="bevel" transform="matrix(1.5625,0,0,1.5625,293.513,538.989)"
font-family="Arial" font-size="20.8333" font-weight="400" font-style="normal" 
>
</g>

<g fill="none" stroke="#dddddd" stroke-opacity="1" stroke-width="1" stroke-linecap="square" stroke-linejoin="bevel" transform="matrix(1.5625,0,0,1.5625,0,0)"
font-family="Arial" font-size="20.8333" font-weight="400" font-style="normal" 
>
</g>

<g fill="none" stroke="#dddddd" stroke-opacity="1" stroke-width="1" stroke-linecap="square" stroke-linejoin="bevel" transform="matrix(1.5625,0,0,1.5625,377.435,538.989)"
font-family="Arial" font-size="20.8333" font-weight="400" font-style="normal" 
>
</g>

<g fill="none" stroke="#dddddd" stroke-opacity="1" stroke-width="1" stroke-linecap="square" stroke-linejoin="bevel" transform="matrix(1.5625,0,0,1.5625,377.435,538.989)"
font-family="Arial" font-size="13" font-weight="400" font-style="normal" 
>
</g>

<g fill="none" stroke="#dddddd" stroke-opacity="1" stroke-width="1" stroke-linecap="square" stroke-linejoin="bevel" transform="matrix(1.5625,0,0,1.5625,377.435,538.989)"
font-family="Arial" font-size="13" font-weight="400" font-style="normal" 
>
<text fill="#dddddd" fill-opacity="1" stroke="none" xml:space="preserve" x="0" y="11" font-family="Arial" font-size="13" font-weight="400" font-style="normal" 
 >70</text>
</g>

<g fill="none" stroke="#dddddd" stroke-opacity="1" stroke-width="1" stroke-linecap="square" stroke-linejoin="bevel" transform="matrix(1.5625,0,0,1.5625,377.435,538.989)"
font-family="Arial" font-size="20.8333" font-weight="400" font-style="normal" 
>
</g>

<g fill="none" stroke="#dddddd" stroke-opacity="1" stroke-width="1" stroke-linecap="square" stroke-linejoin="bevel" transform="matrix(1.5625,0,0,1.5625,377.435,538.989)"
font-family="Arial" font-size="20.8333" font-weight="400" font-style="normal" 
>
</g>

<g fill="none" stroke="#dddddd" stroke-opacity="1" stroke-width="1" stroke-linecap="square" stroke-linejoin="bevel" transform="matrix(1.5625,0,0,1.5625,0,0)"
font-family="Arial" font-size="20.8333" font-weight="400" font-style="normal" 
>
</g>

<g fill="none" stroke="#dddddd" stroke-opacity="1" stroke-width="1" stroke-linecap="square" stroke-linejoin="bevel" transform="matrix(1.5625,0,0,1.5625,461.356,538.989)"
font-family="Arial" font-size="20.8333" font-weight="400" font-style="normal" 
>
</g>

<g fill="none" stroke="#dddddd" stroke-opacity="1" stroke-width="1" stroke-linecap="square" stroke-linejoin="bevel" transform="matrix(1.5625,0,0,1.5625,461.356,538.989)"
font-family="Arial" font-size="13" font-weight="400" font-style="normal" 
>
</g>

<g fill="none" stroke="#dddddd" stroke-opacity="1" stroke-width="1" stroke-linecap="square" stroke-linejoin="bevel" transform="matrix(1.5625,0,0,1.5625,461.356,538.989)"
font-family="Arial" font-size="13" font-weight="400" font-style="normal" 
>
<text fill="#dddddd" fill-opacity="1" stroke="none" xml:space="preserve" x="0" y="11" font-family="Arial" font-size="13" font-weight="400" font-style="normal" 
 >71</text>
</g>

<g fill="none" stroke="#dddddd" stroke-opacity="1" stroke-width="1" stroke-linecap="square" stroke-linejoin="bevel" transform="matrix(1.5625,0,0,1.5625,461.356,538.989)"
font-family="Arial" font-size="20.8333" font-weight="400" font-style="normal" 
>
</g>

<g fill="none" stroke="#dddddd" stroke-opacity="1" stroke-width="1" stroke-linecap="square" stroke-linejoin="bevel" transform="matrix(1.5625,0,0,1.5625,461.356,538.989)"
font-family="Arial" font-size="20.8333" font-weight="400" font-style="normal" 
>
</g>

<g fill="none" stroke="#dddddd" stroke-opacity="1" stroke-width="1" stroke-linecap="square" stroke-linejoin="bevel" transform="matrix(1.5625,0,0,1.5625,0,0)"
font-family="Arial" font-size="20.8333" font-weight="400" font-style="normal" 
>
</g>

<g fill="none" stroke="#dddddd" stroke-opacity="1" stroke-width="1" stroke-linecap="square" stroke-linejoin="bevel" transform="matrix(1.5625,0,0,1.5625,545.277,538.989)"
font-family="Arial" font-size="20.8333" font-weight="400" font-style="normal" 
>
</g>

<g fill="none" stroke="#dddddd" stroke-opacity="1" stroke-width="1" stroke-linecap="square" stroke-linejoin="bevel" transform="matrix(1.5625,0,0,1.5625,545.277,538.989)"
font-family="Arial" font-size="13" font-weight="400" font-style="normal" 
>
</g>

<g fill="none" stroke="#dddddd" stroke-opacity="1" stroke-width="1" stroke-linecap="square" stroke-linejoin="bevel" transform="matrix(1.5625,0,0,1.5625,545.277,538.989)"
font-family="Arial" font-size="13" font-weight="400" font-style="normal" 
>
<text fill="#dddddd" fill-opacity="1" stroke="none" xml:space="preserve" x="0" y="11" font-family="Arial" font-size="13" font-weight="400" font-style="normal" 
 >72</text>
</g>

<g fill="none" stroke="#dddddd" stroke-opacity="1" stroke-width="1" stroke-linecap="square" stroke-linejoin="bevel" transform="matrix(1.5625,0,0,1.5625,545.277,538.989)"
font-family="Arial" font-size="20.8333" font-weight="400" font-style="normal" 
>
</g>

<g fill="none" stroke="#dddddd" stroke-opacity="1" stroke-width="1" stroke-linecap="square" stroke-linejoin="bevel" transform="matrix(1.5625,0,0,1.5625,545.277,538.989)"
font-family="Arial" font-size="20.8333" font-weight="400" font-style="normal" 
>
</g>

<g fill="none" stroke="#dddddd" stroke-opacity="1" stroke-width="1" stroke-linecap="square" stroke-linejoin="bevel" transform="matrix(1.5625,0,0,1.5625,0,0)"
font-family="Arial" font-size="20.8333" font-weight="400" font-style="normal" 
>
</g>

<g fill="none" stroke="#dddddd" stroke-opacity="1" stroke-width="1" stroke-linecap="square" stroke-linejoin="bevel" transform="matrix(1.5625,0,0,1.5625,629.198,538.989)"
font-family="Arial" font-size="20.8333" font-weight="400" font-style="normal" 
>
</g>

<g fill="none" stroke="#dddddd" stroke-opacity="1" stroke-width="1" stroke-linecap="square" stroke-linejoin="bevel" transform="matrix(1.5625,0,0,1.5625,629.198,538.989)"
font-family="Arial" font-size="13" font-weight="400" font-style="normal" 
>
</g>

<g fill="none" stroke="#dddddd" stroke-opacity="1" stroke-width="1" stroke-linecap="square" stroke-linejoin="bevel" transform="matrix(1.5625,0,0,1.5625,629.198,538.989)"
font-family="Arial" font-size="13" font-weight="400" font-style="normal" 
>
<text fill="#dddddd" fill-opacity="1" stroke="none" xml:space="preserve" x="0" y="11" font-family="Arial" font-size="13" font-weight="400" font-style="normal" 
 >73</text>
</g>

<g fill="none" stroke="#dddddd" stroke-opacity="1" stroke-width="1" stroke-linecap="square" stroke-linejoin="bevel" transform="matrix(1.5625,0,0,1.5625,629.198,538.989)"
font-family="Arial" font-size="20.8333" font-weight="400" font-style="normal" 
>
</g>

<g fill="none" stroke="#dddddd" stroke-opacity="1" stroke-width="1" stroke-linecap="square" stroke-linejoin="bevel" transform="matrix(1.5625,0,0,1.5625,629.198,538.989)"
font-family="Arial" font-size="20.8333" font-weight="400" font-style="normal" 
>
</g>

<g fill="none" stroke="#dddddd" stroke-opacity="1" stroke-width="1" stroke-linecap="square" stroke-linejoin="bevel" transform="matrix(1.5625,0,0,1.5625,0,0)"
font-family="Arial" font-size="20.8333" font-weight="400" font-style="normal" 
>
</g>

<g fill="none" stroke="#dddddd" stroke-opacity="1" stroke-width="1" stroke-linecap="square" stroke-linejoin="bevel" transform="matrix(1.5625,0,0,1.5625,713.119,538.989)"
font-family="Arial" font-size="20.8333" font-weight="400" font-style="normal" 
>
</g>

<g fill="none" stroke="#dddddd" stroke-opacity="1" stroke-width="1" stroke-linecap="square" stroke-linejoin="bevel" transform="matrix(1.5625,0,0,1.5625,713.119,538.989)"
font-family="Arial" font-size="13" font-weight="400" font-style="normal" 
>
</g>

<g fill="none" stroke="#dddddd" stroke-opacity="1" stroke-width="1" stroke-linecap="square" stroke-linejoin="bevel" transform="matrix(1.5625,0,0,1.5625,713.119,538.989)"
font-family="Arial" font-size="13" font-weight="400" font-style="normal" 
>
<text fill="#dddddd" fill-opacity="1" stroke="none" xml:space="preserve" x="0" y="11" font-family="Arial" font-size="13" font-weight="400" font-style="normal" 
 >74</text>
</g>

<g fill="none" stroke="#dddddd" stroke-opacity="1" stroke-width="1" stroke-linecap="square" stroke-linejoin="bevel" transform="matrix(1.5625,0,0,1.5625,713.119,538.989)"
font-family="Arial" font-size="20.8333" font-weight="400" font-style="normal" 
>
</g>

<g fill="none" stroke="#dddddd" stroke-opacity="1" stroke-width="1" stroke-linecap="square" stroke-linejoin="bevel" transform="matrix(1.5625,0,0,1.5625,713.119,538.989)"
font-family="Arial" font-size="20.8333" font-weight="400" font-style="normal" 
>
</g>

<g fill="none" stroke="#dddddd" stroke-opacity="1" stroke-width="1" stroke-linecap="square" stroke-linejoin="bevel" transform="matrix(1.5625,0,0,1.5625,0,0)"
font-family="Arial" font-size="20.8333" font-weight="400" font-style="normal" 
>
</g>

<g fill="none" stroke="#dddddd" stroke-opacity="1" stroke-width="1" stroke-linecap="square" stroke-linejoin="bevel" transform="matrix(1.5625,0,0,1.5625,0,0)"
font-family="Arial" font-size="20.8333" font-weight="400" font-style="normal" 
>
</g>

<g fill="none" stroke="#dddddd" stroke-opacity="1" stroke-width="1" stroke-linecap="butt" stroke-linejoin="bevel" transform="matrix(1.5625,0,0,1.5625,0,0)"
font-family="Arial" font-size="20.8333" font-weight="400" font-style="normal" 
>
<polyline fill="none" vector-effect="non-scaling-stroke" points="65.9457,331.953 65.9457,335.953 " />
<polyline fill="none" vector-effect="non-scaling-stroke" points="76.6876,331.953 76.6876,335.953 " />
<polyline fill="none" vector-effect="non-scaling-stroke" points="98.1714,331.953 98.1714,335.953 " />
<polyline fill="none" vector-effect="non-scaling-stroke" points="108.913,331.953 108.913,335.953 " />
<polyline fill="none" vector-effect="non-scaling-stroke" points="119.655,331.953 119.655,335.953 " />
<polyline fill="none" vector-effect="non-scaling-stroke" points="130.397,331.953 130.397,335.953 " />
<polyline fill="none" vector-effect="non-scaling-stroke" points="151.881,331.953 151.881,335.953 " />
<polyline fill="none" vector-effect="non-scaling-stroke" points="162.623,331.953 162.623,335.953 " />
<polyline fill="none" vector-effect="non-scaling-stroke" points="173.365,331.953 173.365,335.953 " />
<polyline fill="none" vector-effect="non-scaling-stroke" points="184.107,331.953 184.107,335.953 " />
<polyline fill="none" vector-effect="non-scaling-stroke" points="205.591,331.953 205.591,335.953 " />
<polyline fill="none" vector-effect="non-scaling-stroke" points="216.332,331.953 216.332,335.953 " />
<polyline fill="none" vector-effect="non-scaling-stroke" points="227.074,331.953 227.074,335.953 " />
<polyline fill="none" vector-effect="non-scaling-stroke" points="237.816,331.953 237.816,335.953 " />
<polyline fill="none" vector-effect="non-scaling-stroke" points="259.3,331.953 259.3,335.953 " />
<polyline fill="none" vector-effect="non-scaling-stroke" points="270.042,331.953 270.042,335.953 " />
<polyline fill="none" vector-effect="non-scaling-stroke" points="280.784,331.953 280.784,335.953 " />
<polyline fill="none" vector-effect="non-scaling-stroke" points="291.526,331.953 291.526,335.953 " />
<polyline fill="none" vector-effect="non-scaling-stroke" points="313.01,331.953 313.01,335.953 " />
<polyline fill="none" vector-effect="non-scaling-stroke" points="323.752,331.953 323.752,335.953 " />
<polyline fill="none" vector-effect="non-scaling-stroke" points="334.493,331.953 334.493,335.953 " />
<polyline fill="none" vector-effect="non-scaling-stroke" points="345.235,331.953 345.235,335.953 " />
<polyline fill="none" vector-effect="non-scaling-stroke" points="366.719,331.953 366.719,335.953 " />
<polyline fill="none" vector-effect="non-scaling-stroke" points="377.461,331.953 377.461,335.953 " />
<polyline fill="none" vector-effect="non-scaling-stroke" points="388.203,331.953 388.203,335.953 " />
<polyline fill="none" vector-effect="non-scaling-stroke" points="398.945,331.953 398.945,335.953 " />
<polyline fill="none" vector-effect="non-scaling-stroke" points="420.429,331.953 420.429,335.953 " />
<polyline fill="none" vector-effect="non-scaling-stroke" points="431.171,331.953 431.171,335.953 " />
<polyline fill="none" vector-effect="non-scaling-stroke" points="441.913,331.953 441.913,335.953 " />
<polyline fill="none" vector-effect="non-scaling-stroke" points="452.654,331.953 452.654,335.953 " />
<polyline fill="none" vector-effect="non-scaling-stroke" points="474.138,331.953 474.138,335.953 " />
<polyline fill="none" vector-effect="non-scaling-stroke" points="87.4295,331.953 87.4295,339.953 " />
<polyline fill="none" vector-effect="non-scaling-stroke" points="141.139,331.953 141.139,339.953 " />
<polyline fill="none" vector-effect="non-scaling-stroke" points="194.849,331.953 194.849,339.953 " />
<polyline fill="none" vector-effect="non-scaling-stroke" points="248.558,331.953 248.558,339.953 " />
<polyline fill="none" vector-effect="non-scaling-stroke" points="302.268,331.953 302.268,339.953 " />
<polyline fill="none" vector-effect="non-scaling-stroke" points="355.977,331.953 355.977,339.953 " />
<polyline fill="none" vector-effect="non-scaling-stroke" points="409.687,331.953 409.687,339.953 " />
<polyline fill="none" vector-effect="non-scaling-stroke" points="463.396,331.953 463.396,339.953 " />
</g>

<g fill="none" stroke="#dddddd" stroke-opacity="1" stroke-width="1" stroke-linecap="square" stroke-linejoin="bevel" transform="matrix(1.5625,0,0,1.5625,0,0)"
font-family="Arial" font-size="20.8333" font-weight="400" font-style="normal" 
>
</g>

<g fill="none" stroke="#dddddd" stroke-opacity="1" stroke-width="1" stroke-linecap="butt" stroke-linejoin="bevel" transform="matrix(1.5625,0,0,1.5625,0,0)"
font-family="Arial" font-size="20.8333" font-weight="400" font-style="normal" 
>
<polyline fill="none" vector-effect="non-scaling-stroke" points="61,331.953 479.929,331.953 " />
</g>

<g fill="none" stroke="#dddddd" stroke-opacity="1" stroke-width="1" stroke-linecap="square" stroke-linejoin="bevel" transform="matrix(1.5625,0,0,1.5625,0,0)"
font-family="Arial" font-size="20.8333" font-weight="400" font-style="normal" 
>
</g>

<g fill="none" stroke="#dddddd" stroke-opacity="1" stroke-width="1" stroke-linecap="square" stroke-linejoin="bevel" transform="matrix(1.5625,0,0,1.5625,0,0)"
font-family="Arial" font-size="20.8333" font-weight="400" font-style="normal" 
>
</g>

<g fill="none" stroke="#dddddd" stroke-opacity="1" stroke-width="1" stroke-linecap="square" stroke-linejoin="bevel" transform="matrix(1.5625,0,0,1.5625,0,0)"
font-family="Arial" font-size="20.8333" font-weight="400" font-style="normal" 
>
</g>

<g fill="none" stroke="#000000" stroke-opacity="1" stroke-width="1" stroke-linecap="square" stroke-linejoin="bevel" transform="matrix(1,0,0,1,0,0)"
font-family="MS Shell Dlg 2" font-size="17.1875" font-weight="400" font-style="normal" 
>
</g>
</g>
</svg>
