<svg xmlns="http://www.w3.org/2000/svg" xmlns:xlink="http://www.w3.org/1999/xlink" viewBox="0 0 10.75 29.05"><defs><style>.cls-1,.cls-2{stroke:#000;stroke-width:0.75px;}.cls-1{fill:url(#linear-gradient);}</style><linearGradient id="linear-gradient" x1="-1217.87" y1="365.66" x2="-1217.87" y2="329.29" gradientTransform="translate(979.67 -263.46) scale(0.8)" gradientUnits="userSpaceOnUse"><stop offset="0.01" stop-color="#89a4b6"/><stop offset="0.5" stop-color="#fff"/><stop offset="1" stop-color="#89a4b6"/></linearGradient></defs><g id="Layer_2" data-name="Layer 2"><g id="svg2"><g id="g3568"><g id="g3644"><polygon id="polygon3653" class="cls-1" points="3.98 19.88 3.98 21.98 0.38 21.98 0.38 24.07 3.98 24.07 3.98 26.18 0.38 26.18 0.38 28.68 10.38 28.68 10.38 0.38 0.38 0.38 0.38 0.38 0.38 2.88 3.98 2.88 3.98 4.97 0.38 4.97 0.38 7.08 3.98 7.08 3.98 9.18 0.38 9.18 0.38 11.38 3.98 11.38 3.98 13.47 0.38 13.47 0.38 15.57 3.98 15.57 3.98 17.68 0.38 17.68 0.38 19.88 3.98 19.88"/><rect id="rect3655" class="cls-2" x="7.47" y="0.38" width="2.8" height="28.3"/></g></g></g></g></svg>