<?xml version="1.0" encoding="UTF-8" standalone="no"?>
<svg viewBox="0 0 885.827 590.551"
 xmlns="http://www.w3.org/2000/svg" xmlns:xlink="http://www.w3.org/1999/xlink"  version="1.2" baseProfile="tiny">
<title>Signal Display</title>
<desc>Generated with Qt</desc>
<defs>
</defs>
<g fill="none" stroke="black" stroke-width="1" fill-rule="evenodd" stroke-linecap="square" stroke-linejoin="bevel" >

<g fill="#808080" fill-opacity="1" stroke="none" transform="matrix(1,0,0,1,0,0)"
font-family="MS Shell Dlg 2" font-size="17.1875" font-weight="400" font-style="normal" 
>
<rect x="0" y="0" width="885.827" height="590.551"/>
</g>

<g fill="none" stroke="#000000" stroke-opacity="1" stroke-width="1" stroke-linecap="square" stroke-linejoin="bevel" transform="matrix(1,0,0,1,0,0)"
font-family="MS Shell Dlg 2" font-size="17.1875" font-weight="400" font-style="normal" 
>
</g>

<g fill="none" stroke="#000000" stroke-opacity="1" stroke-width="1" stroke-linecap="square" stroke-linejoin="bevel" transform="matrix(1.5625,0,0,1.5625,0,0)"
font-family="MS Shell Dlg 2" font-size="17.1875" font-weight="400" font-style="normal" 
>
</g>

<g fill="none" stroke="#000000" stroke-opacity="1" stroke-width="1" stroke-linecap="square" stroke-linejoin="bevel" transform="matrix(1.5625,0,0,1.5625,0,0)"
font-family="MS Shell Dlg 2" font-size="17.1875" font-weight="400" font-style="normal" 
>
</g>

<g fill="#000000" fill-opacity="1" stroke="none" transform="matrix(1.5625,0,0,1.5625,0,0)"
font-family="MS Shell Dlg 2" font-size="17.1875" font-weight="400" font-style="normal" 
>
<rect x="57" y="23" width="448.929" height="304.953"/>
</g>

<g fill="none" stroke="#000000" stroke-opacity="1" stroke-width="1" stroke-linecap="square" stroke-linejoin="bevel" transform="matrix(1.5625,0,0,1.5625,0,0)"
font-family="MS Shell Dlg 2" font-size="17.1875" font-weight="400" font-style="normal" 
>
</g>

<g fill="none" stroke="#555555" stroke-opacity="1" stroke-dasharray="0.5,1" stroke-dashoffset="0" stroke-width="0.5" stroke-linecap="butt" stroke-linejoin="bevel" transform="matrix(1.5625,0,0,1.5625,0,0)"
font-family="MS Shell Dlg 2" font-size="17.1875" font-weight="400" font-style="normal" 
>
<polyline fill="none" vector-effect="none" points="57,302.649 504.929,302.649 " />
<polyline fill="none" vector-effect="none" points="57,270.563 504.929,270.563 " />
<polyline fill="none" vector-effect="none" points="57,238.478 504.929,238.478 " />
<polyline fill="none" vector-effect="none" points="57,206.392 504.929,206.392 " />
<polyline fill="none" vector-effect="none" points="57,174.307 504.929,174.307 " />
<polyline fill="none" vector-effect="none" points="57,142.221 504.929,142.221 " />
<polyline fill="none" vector-effect="none" points="57,110.136 504.929,110.136 " />
<polyline fill="none" vector-effect="none" points="57,78.0506 504.929,78.0506 " />
<polyline fill="none" vector-effect="none" points="57,45.9651 504.929,45.9651 " />
<polyline fill="none" vector-effect="none" points="57,318.691 504.929,318.691 " />
<polyline fill="none" vector-effect="none" points="57,254.52 504.929,254.52 " />
<polyline fill="none" vector-effect="none" points="57,190.35 504.929,190.35 " />
<polyline fill="none" vector-effect="none" points="57,126.179 504.929,126.179 " />
<polyline fill="none" vector-effect="none" points="57,62.0079 504.929,62.0079 " />
</g>

<g fill="none" stroke="#868686" stroke-opacity="1" stroke-width="0.5" stroke-linecap="butt" stroke-linejoin="bevel" transform="matrix(1.5625,0,0,1.5625,0,0)"
font-family="MS Shell Dlg 2" font-size="17.1875" font-weight="400" font-style="normal" 
>
<polyline fill="none" vector-effect="none" points="101.431,23 101.431,326.953 " />
<polyline fill="none" vector-effect="none" points="170.879,23 170.879,326.953 " />
<polyline fill="none" vector-effect="none" points="240.327,23 240.327,326.953 " />
<polyline fill="none" vector-effect="none" points="309.775,23 309.775,326.953 " />
<polyline fill="none" vector-effect="none" points="379.223,23 379.223,326.953 " />
<polyline fill="none" vector-effect="none" points="448.672,23 448.672,326.953 " />
<polyline fill="none" vector-effect="none" points="57,286.606 504.929,286.606 " />
<polyline fill="none" vector-effect="none" points="57,222.435 504.929,222.435 " />
<polyline fill="none" vector-effect="none" points="57,158.264 504.929,158.264 " />
<polyline fill="none" vector-effect="none" points="57,94.0933 504.929,94.0933 " />
<polyline fill="none" vector-effect="none" points="57,29.9224 504.929,29.9224 " />
</g>

<g fill="none" stroke="#000000" stroke-opacity="1" stroke-width="1" stroke-linecap="square" stroke-linejoin="bevel" transform="matrix(1.5625,0,0,1.5625,0,0)"
font-family="MS Shell Dlg 2" font-size="17.1875" font-weight="400" font-style="normal" 
>
</g>

<g fill="none" stroke="#000000" stroke-opacity="1" stroke-width="1" stroke-linecap="square" stroke-linejoin="bevel" transform="matrix(1.5625,0,0,1.5625,0,0)"
font-family="MS Shell Dlg 2" font-size="17.1875" font-weight="400" font-style="normal" 
>
</g>

<g fill="none" stroke="#b4003c" stroke-opacity="1" stroke-width="1" stroke-linecap="square" stroke-linejoin="bevel" transform="matrix(1.5625,0,0,1.5625,0,0)"
font-family="MS Shell Dlg 2" font-size="17.1875" font-weight="400" font-style="normal" 
>
<polyline fill="none" vector-effect="none" points="61.4243,222.433 61.8568,222.433 62.289,222.433 62.7215,222.433 63.1536,222.433 63.5862,222.433 64.0187,222.433 64.4508,222.433 64.8834,222.433 65.3159,222.433 65.748,222.433 66.1806,222.433 66.6131,222.433 67.0453,222.433 67.4778,222.433 67.9099,222.433 68.3425,222.433 68.775,222.433 69.2071,222.433 69.6397,222.433 70.0722,222.433 70.5043,222.434 70.9369,222.469 71.3694,222.449 71.8015,222.443 72.2341,222.438 72.6666,222.437 73.0988,222.436 73.5314,222.435 73.9634,222.435 74.396,222.434 74.8285,222.434 75.2606,222.434 75.6932,222.434 76.1258,222.434 76.5578,222.433 76.9904,222.433 77.4229,222.433 77.8551,222.433 78.2876,222.433 78.7202,222.433 79.1523,222.433 79.5849,222.433 80.017,222.433 80.4495,222.433 80.882,222.433 81.3141,222.433 81.7467,222.433 82.1793,222.433 82.6114,222.433 83.0439,222.433 83.4764,222.433 83.9086,222.433 84.3411,222.433 84.7737,222.433 85.2058,222.433 85.6384,222.433 86.0705,222.433 86.503,222.433 86.9355,222.433 87.3676,222.433 87.8002,222.433 88.2328,222.433 88.6649,222.433 89.0974,222.433 89.5299,222.433 89.9621,222.433 90.3947,222.433 90.8272,222.433 91.2593,222.433 91.6919,222.433 92.124,222.433 92.5565,222.433 92.9891,222.433 93.4213,222.434 93.8537,222.454 94.2863,222.446 94.7184,222.44 95.151,222.437 95.5835,222.436 96.0156,222.435 96.4482,222.435 96.8803,222.434 97.3128,222.434 97.7454,222.434 98.1775,222.434 98.61,222.434 99.0426,222.433 99.4748,222.434 99.9072,222.433 100.34,222.433 100.772,222.433 101.205,222.433 101.637,222.433 102.069,222.434 102.502,222.433 102.934,222.433 103.366,222.433 103.799,222.433 104.231,222.433 104.664,222.433 105.096,222.433 105.528,222.433 105.961,222.433 106.393,222.433 106.825,222.433 107.258,222.433 107.691,222.433 108.123,222.433 108.555,222.433 108.987,222.433 109.42,222.433 109.852,222.433 110.285,222.433 110.717,222.433 111.15,222.433 111.582,222.433 112.014,222.433 112.447,222.433 112.879,222.433 113.312,222.433 113.744,222.433 114.176,222.433 114.609,222.434 115.041,222.439 115.473,222.448 115.906,222.443 116.338,222.438 116.771,222.436 117.203,222.436 117.635,222.435 118.068,222.434 118.5,222.434 118.932,222.434 119.365,222.433 119.798,222.433 120.23,222.433 120.662,222.434 121.094,222.44 121.527,222.437 121.959,222.436 122.392,222.435 122.824,222.434 123.257,222.434 123.689,222.434 124.121,222.434 124.554,222.434 124.986,222.434 125.419,222.433 125.851,222.433 126.283,222.433 126.716,222.433 127.148,222.434 127.58,222.443 128.013,222.438 128.445,222.436 128.878,222.435 129.31,222.434 129.742,222.434 130.175,222.434 130.607,222.434 131.04,222.434 131.472,222.433 131.904,222.433 132.337,222.433 132.769,222.433 133.201,222.433 133.634,222.433 134.067,222.433 134.499,222.433 134.931,222.433 135.364,222.434 135.796,222.441 136.228,222.438 136.661,222.436 137.093,222.435 137.526,222.434 137.958,222.434 138.39,222.434 138.823,222.433 139.255,222.434 139.687,222.434 140.12,222.433 140.552,222.433 140.985,222.433 141.417,222.434 141.849,222.437 142.282,222.436 142.714,222.434 143.147,222.434 143.579,222.434 144.011,222.434 144.444,222.433 144.876,222.433 145.308,222.433 145.741,222.433 146.174,222.433 146.606,222.433 147.038,222.433 147.471,222.434 147.903,222.464 148.335,222.445 148.768,222.441 149.2,222.437 149.633,222.436 150.065,222.435 150.497,222.435 150.93,222.434 151.362,222.434 151.794,222.434 152.227,222.434 152.659,222.433 153.092,222.434 153.524,222.433 153.956,222.433 154.389,222.433 154.821,222.433 155.254,222.433 155.686,222.433 156.118,222.433 156.551,222.433 156.983,222.433 157.415,222.433 157.848,222.433 158.281,222.433 158.713,222.433 159.145,222.433 159.578,222.433 160.01,222.433 160.442,222.433 160.875,222.433 161.307,222.433 161.74,222.433 162.172,222.433 162.604,222.433 163.037,222.433 163.469,222.433 163.902,222.433 164.334,222.433 164.766,222.433 165.199,222.433 165.631,222.433 166.063,222.433 166.496,222.433 166.928,222.433 167.361,222.435 167.793,222.448 168.225,222.442 168.658,222.437 169.09,222.436 169.523,222.435 169.955,222.435 170.388,222.434 170.82,222.434 171.252,222.434 171.685,222.434 172.117,222.433 172.55,222.433 172.982,222.433 173.414,222.433 173.847,222.433 174.279,222.433 174.711,222.433 175.144,222.433 175.576,222.433 176.009,222.433 176.441,222.433 176.873,222.433 177.306,222.433 177.738,222.433 178.17,222.433 178.603,222.433 179.035,222.433 179.468,222.433 179.9,222.433 180.332,222.433 180.765,222.433 181.197,222.433 181.63,222.433 182.062,222.433 182.495,222.433 182.927,222.433 183.359,222.433 183.791,222.433 184.224,222.433 184.657,222.433 185.089,222.434 185.521,222.433 185.954,222.433 186.386,222.434 186.818,222.458 187.251,222.444 187.683,222.44 188.116,222.437 188.548,222.435 188.98,222.435 189.413,222.434 189.845,222.434 190.277,222.434 190.71,222.434 191.142,222.434 191.575,222.433 192.007,222.433 192.439,222.433 192.872,222.433 193.304,222.433 193.737,222.433 194.169,222.433 194.602,222.433 195.034,222.433 195.466,222.433 195.898,222.433 196.331,222.433 196.764,222.433 197.196,222.433 197.628,222.433 198.061,222.433 198.493,222.433 198.925,222.433 199.358,222.433 199.79,222.433 200.223,222.433 200.655,222.433 201.087,222.433 201.52,222.433 201.952,222.433 202.384,222.433 202.817,222.433 203.249,222.433 203.682,222.433 204.114,222.433 204.546,222.433 204.979,222.433 205.412,222.436 205.844,222.447 206.276,222.442 206.708,222.437 207.141,222.436 207.573,222.435 208.006,222.434 208.438,222.434 208.871,222.434 209.303,222.433 209.735,222.434 210.168,222.434 210.6,222.433 211.032,222.433 211.465,222.433 211.897,222.433 212.33,222.433 212.762,222.433 213.194,222.433 213.627,222.433 214.059,222.433 214.492,222.433 214.924,222.433 215.356,222.433 215.789,222.433 216.221,222.433 216.653,222.433 217.086,222.433 217.519,222.433 217.951,222.433 218.383,222.433 218.815,222.433 219.248,222.433 219.68,222.433 220.113,222.433 220.545,222.433 220.978,222.433 221.41,222.433 221.842,222.433 222.275,222.433 222.707,222.433 223.139,222.433 223.572,222.434 224.004,222.449 224.437,222.445 224.869,222.441 225.301,222.437 225.734,222.435 226.166,222.435 226.599,222.434 227.031,222.434 227.463,222.434 227.896,222.434 228.328,222.434 228.76,222.433 229.193,222.434 229.626,222.433 230.058,222.433 230.49,222.433 230.922,222.433 231.355,222.433 231.787,222.433 232.22,222.433 232.652,222.433 233.085,222.433 233.517,222.433 233.949,222.433 234.382,222.433 234.814,222.433 235.246,222.433 235.679,222.433 236.111,222.433 236.544,222.433 236.976,222.433 237.408,222.433 237.841,222.433 238.273,222.433 238.706,222.433 239.138,222.433 239.57,222.433 240.003,222.433 240.435,222.433 240.868,222.433 241.3,222.433 241.732,222.433 242.165,222.436 242.597,222.447 243.029,222.442 243.462,222.437 243.895,222.435 244.327,222.435 244.759,222.434 245.192,222.434 245.624,222.434 246.056,222.433 246.489,222.434 246.921,222.433 247.354,222.433 247.786,222.433 248.218,222.433 248.651,222.433 249.083,222.433 249.515,222.433 249.948,222.433 250.38,222.433 250.813,222.433 251.245,222.433 251.677,222.433 252.11,222.433 252.542,222.433 252.975,222.433 253.407,222.433 253.839,222.433 254.272,222.433 254.704,222.433 255.136,222.433 255.569,222.433 256.002,222.433 256.434,222.433 256.866,222.433 257.299,222.433 257.731,222.433 258.163,222.433 258.595,222.433 259.028,222.433 259.461,222.433 259.893,222.433 260.325,222.46 260.758,222.444 261.19,222.439 261.622,222.437 262.055,222.435 262.487,222.435 262.92,222.434 263.352,222.434 263.784,222.434 264.217,222.433 264.649,222.433 265.082,222.433 265.514,222.433 265.946,222.433 266.379,222.433 266.811,222.433 267.243,222.433 267.676,222.433 268.109,222.433 268.541,222.433 268.973,222.433 269.406,222.433 269.838,222.433 270.27,222.433 270.703,222.433 271.135,222.433 271.568,222.433 272,222.433 272.432,222.433 272.865,222.433 273.297,222.433 273.73,222.433 274.162,222.433 274.594,222.433 275.027,222.433 275.459,222.433 275.891,222.433 276.324,222.433 276.756,222.433 277.189,222.433 277.621,222.433 278.053,222.456 278.486,222.447 278.918,222.44 279.35,222.437 279.783,222.435 280.216,222.435 280.648,222.434 281.08,222.434 281.513,222.434 281.945,222.433 282.377,222.433 282.81,222.433 283.242,222.433 283.675,222.433 284.107,222.433 284.539,222.433 284.972,222.433 285.404,222.433 285.837,222.433 286.269,222.433 286.701,222.433 287.134,222.433 287.566,222.433 287.998,222.433 288.431,222.433 288.863,222.433 289.296,222.433 289.728,222.433 290.16,222.433 290.593,222.433 291.025,222.433 291.457,222.433 291.89,222.433 292.323,222.433 292.755,222.433 293.187,222.433 293.619,222.433 294.052,222.433 294.484,222.433 294.917,222.433 295.349,222.434 295.782,222.457 296.214,222.443 296.646,222.438 297.079,222.436 297.511,222.435 297.944,222.435 298.376,222.434 298.808,222.434 299.241,222.433 299.673,222.433 300.105,222.433 300.538,222.433 300.97,222.433 301.403,222.433 301.835,222.433 302.267,222.433 302.7,222.433 303.132,222.434 303.565,222.434 303.997,222.433 304.43,222.433 304.862,222.433 305.294,222.433 305.726,222.433 306.159,222.434 306.591,222.433 307.024,222.433 307.456,222.433 307.889,222.437 308.321,222.436 308.753,222.435 309.186,222.434 309.618,222.434 310.051,222.434 310.483,222.434 310.915,222.434 311.348,222.433 311.78,222.433 312.213,222.433 312.645,222.434 313.077,222.44 313.51,222.437 313.942,222.435 314.374,222.434 314.807,222.434 315.239,222.434 315.672,222.434 316.104,222.434 316.536,222.433 316.969,222.433 317.401,222.433 317.833,222.434 318.266,222.442 318.699,222.438 319.131,222.435 319.563,222.435 319.996,222.434 320.428,222.434 320.86,222.434 321.293,222.434 321.725,222.433 322.158,222.433 322.59,222.433 323.022,222.434 323.455,222.434 323.887,222.433 324.32,222.433 324.752,222.433 325.184,222.439 325.617,222.437 326.049,222.435 326.481,222.434 326.914,222.434 327.347,222.434 327.779,222.434 328.211,222.434 328.643,222.434 329.076,222.433 329.508,222.433 329.94,222.434 330.373,222.436 330.806,222.435 331.238,222.434 331.67,222.434 332.103,222.434 332.535,222.434 332.967,222.433 333.4,222.433 333.832,222.433 334.265,222.433 334.697,222.433 335.129,222.434 335.562,222.442 335.994,222.438 336.427,222.435 336.859,222.435 337.291,222.434 337.724,222.434 338.156,222.434 338.588,222.434 339.021,222.433 339.453,222.433 339.886,222.433 340.318,222.434 340.75,222.434 341.183,222.434 341.615,222.433 342.048,222.434 342.48,222.439 342.913,222.437 343.345,222.435 343.777,222.434 344.21,222.434 344.642,222.434 345.075,222.434 345.507,222.434 345.939,222.434 346.372,222.433 346.804,222.433 347.236,222.435 347.669,222.435 348.101,222.434 348.534,222.434 348.966,222.434 349.398,222.433 349.831,222.433 350.263,222.433 350.695,222.433 351.128,222.433 351.56,222.433 351.993,222.433 352.425,222.436 352.857,222.44 353.29,222.437 353.722,222.435 354.155,222.434 354.587,222.434 355.02,222.434 355.452,222.434 355.884,222.434 356.317,222.433 356.749,222.433 357.182,222.434 357.614,222.434 358.046,222.433 358.479,222.433 358.911,222.434 359.343,222.436 359.776,222.435 360.208,222.434 360.641,222.434 361.073,222.434 361.505,222.434 361.938,222.434 362.37,222.434 362.802,222.434 363.235,222.433 363.667,222.433 364.1,222.433 364.532,222.433 364.964,222.433 365.397,222.433 365.829,222.433 366.262,222.433 366.694,222.433 367.127,222.433 367.559,222.433 367.991,222.433 368.423,222.433 368.856,222.434 369.289,222.451 369.721,222.442 370.153,222.437 370.586,222.436 371.018,222.435 371.45,222.434 371.883,222.434 372.315,222.434 372.748,222.433 373.18,222.433 373.612,222.433 374.045,222.433 374.477,222.433 374.91,222.433 375.342,222.433 375.774,222.433 376.207,222.433 376.639,222.433 377.071,222.433 377.504,222.433 377.937,222.433 378.369,222.433 378.801,222.433 379.234,222.433 379.666,222.433 380.098,222.433 380.531,222.433 380.963,222.433 381.396,222.433 381.828,222.433 382.26,222.433 382.693,222.433 383.125,222.433 383.558,222.433 383.99,222.433 384.422,222.433 384.855,222.433 385.287,222.433 385.719,222.435 386.152,222.446 386.584,222.439 387.017,222.436 387.449,222.435 387.881,222.435 388.314,222.434 388.746,222.434 389.178,222.434 389.611,222.433 390.044,222.433 390.476,222.433 390.908,222.433 391.341,222.433 391.773,222.433 392.205,222.433 392.638,222.433 393.07,222.433 393.503,222.433 393.935,222.433 394.367,222.433 394.8,222.433 395.232,222.433 395.665,222.433 396.097,222.433 396.529,222.433 396.962,222.433 397.394,222.433 397.826,222.433 398.259,222.433 398.691,222.433 399.124,222.433 399.556,222.433 399.988,222.433 400.421,222.433 400.853,222.433 401.285,222.433 401.718,222.433 402.151,222.433 402.583,222.456 403.015,222.443 403.447,222.438 403.88,222.436 404.312,222.434 404.745,222.434 405.177,222.434 405.61,222.434 406.042,222.433 406.474,222.433 406.907,222.433 407.339,222.433 407.772,222.433 408.204,222.433 408.636,222.433 409.069,222.433 409.501,222.433 409.933,222.433 410.366,222.433 410.798,222.433 411.231,222.433 411.663,222.433 412.095,222.433 412.528,222.433 412.96,222.433 413.392,222.433 413.825,222.433 414.258,222.433 414.69,222.433 415.122,222.433 415.554,222.433 415.987,222.433 416.42,222.433 416.852,222.433 417.284,222.433 417.717,222.433 418.149,222.433 418.581,222.433 419.014,222.435 419.446,222.447 419.879,222.439 420.311,222.436 420.743,222.435 421.176,222.435 421.608,222.434 422.04,222.434 422.473,222.434 422.905,222.433 423.338,222.433 423.77,222.433 424.202,222.433 424.635,222.433 425.067,222.433 425.5,222.433 425.932,222.433 426.364,222.433 426.797,222.433 427.229,222.433 427.661,222.433 428.094,222.433 428.527,222.433 428.959,222.433 429.391,222.433 429.824,222.433 430.256,222.433 430.688,222.433 431.121,222.433 431.553,222.433 431.986,222.433 432.418,222.433 432.85,222.433 433.283,222.433 433.715,222.433 434.147,222.433 434.58,222.433 435.012,222.433 435.445,222.434 435.877,222.448 436.309,222.442 436.742,222.437 437.174,222.435 437.607,222.435 438.039,222.434 438.471,222.434 438.904,222.434 439.336,222.433 439.768,222.433 440.201,222.433 440.634,222.433 441.066,222.433 441.498,222.433 441.931,222.433 442.363,222.433 442.795,222.433 443.228,222.433 443.66,222.433 444.093,222.433 444.525,222.433 444.957,222.433 445.39,222.433 445.822,222.433 446.254,222.433 446.687,222.433 447.119,222.433 447.552,222.433 447.984,222.433 448.416,222.433 448.849,222.433 449.281,222.433 449.714,222.433 450.146,222.433 450.578,222.433 451.011,222.433 451.443,222.433 451.876,222.433 452.308,222.451 452.741,222.442 453.173,222.438 453.605,222.435 454.038,222.434 454.47,222.434 454.903,222.434 455.335,222.434 455.767,222.434 456.2,222.433 456.632,222.433 457.064,222.433 457.497,222.433 457.929,222.433 458.362,222.433 458.794,222.433 459.226,222.433 459.659,222.433 460.091,222.433 460.523,222.433 460.956,222.433 461.388,222.433 461.821,222.433 462.253,222.433 462.685,222.433 463.118,222.433 463.55,222.433 463.983,222.433 464.415,222.433 464.848,222.433 465.28,222.433 465.712,222.433 466.145,222.433 466.577,222.433 467.01,222.433 467.442,222.433 467.874,222.433 468.307,222.433 468.739,222.452 469.171,222.442 469.604,222.438 470.036,222.435 470.469,222.434 470.901,222.434 471.333,222.434 471.766,222.434 472.198,222.433 472.63,222.433 473.063,222.433 473.495,222.433 473.928,222.433 474.36,222.433 474.792,222.433 475.225,222.433 475.657,222.433 476.09,222.433 476.522,222.433 476.955,222.433 477.387,222.433 477.819,222.433 478.251,222.433 478.684,222.433 479.117,222.433 479.549,222.433 479.981,222.433 480.414,222.433 480.846,222.433 481.278,222.433 481.711,222.433 482.143,222.433 482.576,222.433 483.008,222.433 483.44,222.433 483.873,222.433 484.305,222.433 484.738,222.433 485.17,222.455 485.602,222.443 486.035,222.438 486.467,222.435 486.899,222.434 487.332,222.434 487.765,222.434 488.197,222.434 488.629,222.433 489.062,222.433 489.494,222.433 489.926,222.433 490.358,222.433 490.791,222.433 491.224,222.433 491.656,222.433 492.088,222.433 492.521,222.433 492.953,222.433 493.385,222.433 493.818,222.433 494.25,222.433 494.683,222.433 495.115,222.433 495.547,222.433 495.98,222.433 496.412,222.433 496.845,222.433 497.277,222.433 497.709,222.433 498.142,222.433 498.574,222.433 499.006,222.433 499.439,222.433 499.872,222.433 500.304,222.433 500.736,222.433 " />
</g>

<g fill="none" stroke="#000000" stroke-opacity="1" stroke-width="1" stroke-linecap="square" stroke-linejoin="bevel" transform="matrix(1.5625,0,0,1.5625,0,0)"
font-family="MS Shell Dlg 2" font-size="17.1875" font-weight="400" font-style="normal" 
>
</g>

<g fill="none" stroke="#000000" stroke-opacity="1" stroke-width="1" stroke-linecap="square" stroke-linejoin="bevel" transform="matrix(1.5625,0,0,1.5625,0,0)"
font-family="MS Shell Dlg 2" font-size="17.1875" font-weight="400" font-style="normal" 
>
</g>

<g fill="none" stroke="#000000" stroke-opacity="1" stroke-width="1" stroke-linecap="square" stroke-linejoin="bevel" transform="matrix(1.5625,0,0,1.5625,0,0)"
font-family="MS Shell Dlg 2" font-size="17.1875" font-weight="400" font-style="normal" 
>
</g>

<g fill="none" stroke="#0064ff" stroke-opacity="1" stroke-width="1" stroke-linecap="square" stroke-linejoin="bevel" transform="matrix(1.5625,0,0,1.5625,0,0)"
font-family="MS Shell Dlg 2" font-size="17.1875" font-weight="400" font-style="normal" 
>
<polyline fill="none" vector-effect="none" points="61.4243,78.4495 61.8568,77.6711 62.289,77.705 62.7215,78.2334 63.1536,78.7365 63.5862,78.3981 64.0187,78.7042 64.4508,78.9012 64.8834,78.2753 65.3159,78.7842 65.748,78.049 66.1806,78.8371 66.6131,78.572 67.0453,79.391 67.4778,78.8398 67.9099,79.5826 68.3425,78.6097 68.775,79.1957 69.2071,78.7924 69.6397,79.7055 70.0722,79.2737 70.5043,80.2096 70.9369,79.2411 71.3694,79.6184 71.8015,79.2295 72.2341,79.8491 72.6666,79.8375 73.0988,80.2154 73.5314,80.3139 73.9634,79.5395 74.396,80.0824 74.8285,79.7666 75.2606,80.7363 75.6932,80.1819 76.1258,80.7628 76.5578,80.3094 76.9904,79.996 77.4229,80.4495 77.8551,80.4716 78.2876,81.3403 78.7202,80.4731 79.1523,80.8746 79.5849,80.5455 80.017,80.5586 80.4495,81.0656 80.882,80.9562 81.3141,81.6379 81.7467,80.7574 82.1793,80.8684 82.6114,80.9607 83.0439,81.2993 83.4764,81.845 83.9086,81.1586 84.3411,81.5435 84.7737,81.0902 85.2058,81.3472 85.6384,81.7456 86.0705,81.7695 86.503,82.2714 86.9355,81.4714 87.3676,81.5629 87.8002,81.7639 88.2328,82.1325 88.6649,82.709 89.0974,81.9818 89.5299,82.2494 89.9621,82.0789 90.3947,82.325 90.8272,82.8567 91.2593,82.6437 91.6919,83.0858 92.124,82.5731 92.5565,82.5031 92.9891,83.0232 93.4213,83.1836 93.8537,83.8303 94.2863,83.1675 94.7184,82.9547 95.151,83.3054 95.5835,83.4701 96.0156,84.1876 96.4482,83.7953 96.8803,83.6847 97.3128,83.8524 97.7454,83.6261 98.1775,84.3292 98.61,84.2272 99.0426,84.3586 99.4748,84.3885 99.9072,83.8337 100.34,84.3413 100.772,84.5962 101.205,84.9087 101.637,84.9914 102.069,84.2323 102.502,84.4428 102.934,84.7881 103.366,85.1574 103.799,85.4558 104.231,84.7749 104.664,84.6914 105.096,85.005 105.528,85.1992 105.961,85.7376 106.393,85.3139 106.825,85.0417 107.258,85.2886 107.691,85.3375 108.123,85.8588 108.555,85.7829 108.987,85.5344 109.42,85.6688 109.852,85.5561 110.285,85.8554 110.717,86.1887 111.15,86.0781 111.582,86.1607 112.014,85.9251 112.447,85.877 112.879,86.4381 113.312,86.6056 113.744,86.671 114.176,86.4755 114.609,86.1359 115.041,86.6267 115.473,87.0234 115.906,87.1577 116.338,87.1396 116.771,86.6083 117.203,86.7614 117.635,87.3538 118.068,87.6535 118.5,93.8637 118.932,91.367 119.365,90.6423 119.798,91.4794 120.23,91.1549 120.662,91.1438 121.094,91.3525 121.527,90.7999 121.959,90.7893 122.392,91.4146 122.824,91.6022 123.257,91.8706 123.689,91.2486 124.121,91.178 124.554,91.8459 124.986,91.9762 125.419,92.0515 125.851,91.9725 126.283,91.7159 126.716,92.0088 127.148,92.2888 127.58,92.3086 128.013,92.3038 128.445,92.3785 128.878,92.3791 129.31,92.5151 129.742,92.7966 130.175,92.8365 130.607,92.4983 131.04,92.3438 131.472,92.5631 131.904,92.9057 132.337,92.9573 132.769,92.9114 133.201,92.6362 133.634,92.7503 134.067,92.8844 134.499,93.0774 134.931,93.0033 135.364,93.0888 135.796,93.0208 136.228,93.0822 136.661,93.4271 137.093,93.289 137.526,93.2908 137.958,93.0537 138.39,93.2514 138.823,93.5632 139.255,93.7302 139.687,93.4353 140.12,93.5166 140.552,93.5177 140.985,93.6625 141.417,94.0555 141.849,93.7835 142.282,93.4239 142.714,93.9218 143.147,94.0152 143.579,93.8178 144.011,94.2975 144.444,93.3972 144.876,93.8241 145.308,94.3331 145.741,93.9292 146.174,94.3821 146.606,94.0014 147.038,93.3506 147.471,94.6344 147.903,94.6983 148.335,94.3241 148.768,94.8628 149.2,93.9655 149.633,94.0435 150.065,95.4544 150.497,95.0012 150.93,94.7061 151.362,95.2098 151.794,94.3105 152.227,94.859 152.659,95.9978 153.092,95.0194 153.524,95.0195 153.956,95.6664 154.389,94.9842 154.821,95.5829 155.254,96.1728 155.686,94.9285 156.118,95.3284 156.551,96.2815 156.983,95.694 157.415,95.9334 157.848,96.1748 158.281,94.8921 158.713,95.6724 159.145,96.8062 159.578,95.8532 160.01,95.9023 160.442,96.3022 160.875,95.2936 161.307,96.0309 161.74,96.995 162.172,95.7168 162.604,95.7743 163.037,96.7234 163.469,96.0269 163.902,96.2671 164.334,96.9449 164.766,95.6132 165.199,95.8218 165.631,97.2991 166.063,96.6392 166.496,96.2995 166.928,96.9996 167.361,96.0993 167.793,96.1816 168.225,97.6602 168.658,96.8836 169.09,96.2123 169.523,97.3276 169.955,97.1045 170.388,96.7456 170.82,97.7595 171.252,97.052 171.685,96.2634 172.117,97.8108 172.55,98.1165 172.982,97.1121 173.414,97.792 173.847,97.6625 174.279,96.8241 174.711,98.1183 175.144,98.5777 175.576,97.1481 176.009,97.7057 176.441,98.7061 176.873,97.8337 177.306,98.1414 177.738,98.7729 178.17,97.4391 178.603,97.7098 179.035,99.3805 179.468,98.566 179.9,97.9309 180.332,98.926 180.765,98.4697 181.197,97.9869 181.63,99.3163 182.062,98.8465 182.495,97.6242 182.927,98.891 183.359,99.6583 183.791,98.4616 184.224,98.7419 184.657,99.2317 185.089,98.1279 185.521,98.6158 185.954,99.8997 186.386,98.6261 186.818,98.04 187.251,99.5868 187.683,99.4274 188.116,98.6014 188.548,99.4254 188.98,99.1479 189.413,98.1408 189.845,99.4349 190.277,100.174 190.71,98.673 191.142,98.7575 191.575,100.113 192.007,99.4707 192.439,99.088 192.872,100.085 193.304,99.3284 193.737,98.67 194.169,100.346 194.602,100.556 195.034,99.0324 195.466,99.6794 195.898,100.704 196.331,99.8176 196.764,99.8435 197.196,100.71 197.628,99.673 198.061,99.3846 198.493,101.175 198.925,100.935 199.358,99.4802 199.79,100.436 200.223,101.25 200.655,100.278 201.087,100.455 201.52,101.204 201.952,100.078 202.384,99.945 202.817,101.685 203.249,101.239 203.682,99.8933 204.114,100.874 204.546,101.68 204.979,100.665 205.412,100.722 205.844,101.467 206.276,100.497 206.708,100.317 207.141,101.874 207.573,101.548 208.006,100.09 208.438,101.058 208.871,102.129 209.303,101.114 209.735,100.798 210.168,101.687 210.6,101.063 211.032,100.596 211.465,101.927 211.897,101.896 212.33,100.468 212.762,101.15 213.194,102.563 213.627,101.777 214.059,100.976 214.492,101.996 214.924,101.938 215.356,101.192 215.789,102.059 216.221,102.464 216.653,101.156 217.086,101.404 217.519,103.094 217.951,102.665 218.383,101.43 218.815,102.335 219.248,103.009 219.68,102.141 220.113,102.26 220.545,103.093 220.978,102.235 221.41,101.897 221.842,103.377 222.275,103.535 222.707,102.148 223.139,102.53 223.572,103.842 224.004,103.357 224.437,102.561 224.869,103.298 225.301,103.299 225.734,102.642 226.166,103.318 226.599,103.959 227.031,102.902 227.463,102.567 227.896,104.02 228.328,104.238 228.76,102.992 229.193,103.141 229.626,104.101 230.058,103.749 230.49,103.269 230.922,103.939 231.355,103.77 231.787,103.014 232.22,103.776 232.652,104.628 233.085,103.719 233.517,103.013 233.949,104.352 234.382,104.88 234.814,103.879 235.246,103.666 235.679,104.599 236.111,104.455 236.544,103.997 236.976,104.556 237.408,104.673 237.841,103.868 238.273,104.263 238.706,105.416 239.138,104.966 239.57,103.957 240.003,104.772 240.435,105.795 240.868,105.159 241.3,104.572 241.732,105.268 242.165,105.471 242.597,105.077 243.029,105.378 243.462,105.704 243.895,105.053 244.327,105.043 244.759,106.135 245.192,106.155 245.624,105.191 246.056,105.345 246.489,106.476 246.921,106.32 247.354,105.599 247.786,105.855 248.218,106.33 248.651,106.058 249.083,106.036 249.515,106.449 249.948,106.09 250.38,105.631 250.813,106.347 251.245,106.952 251.677,106.167 252.11,105.644 252.542,106.597 252.975,107.2 253.407,106.453 253.839,106.029 254.272,106.741 254.704,107.006 255.136,106.602 255.569,106.638 256.002,106.966 256.434,106.631 256.866,106.593 257.299,107.257 257.731,107.322 258.163,106.519 258.595,106.676 259.028,107.758 259.461,107.774 259.893,106.939 260.325,107.053 260.758,107.954 261.19,107.941 261.622,107.489 262.055,107.657 262.487,107.973 262.92,107.784 263.352,107.927 263.784,108.325 264.217,108.001 264.649,107.528 265.082,108.164 265.514,108.893 265.946,108.3 266.379,107.648 266.811,108.403 267.243,109.259 267.676,108.644 268.109,108.104 268.541,108.647 268.973,109.222 269.406,108.804 269.838,108.666 270.27,109.043 270.703,109.012 271.135,108.697 271.568,109.103 272,109.524 272.432,108.947 272.865,108.51 273.297,109.406 273.73,110.049 274.162,109.226 274.594,108.77 275.027,109.827 275.459,110.656 275.891,110.011 276.324,109.685 276.756,110.692 277.189,111.569 277.621,111.522 278.053,111.816 278.486,112.937 278.918,113.873 279.35,114.561 279.783,116.084 280.216,117.884 280.648,119.205 281.08,120.702 281.513,123.528 281.945,125.73 282.377,125.911 282.81,125.108 283.242,128.377 283.675,127.064 284.107,133.432 284.539,136.768 284.972,139.266 285.404,140.417 285.837,139.815 286.269,138.332 286.701,137.112 287.134,135.381 287.566,132.264 287.998,129.331 288.431,127.07 288.863,124.642 289.296,121.751 289.728,119.936 290.16,119.082 290.593,117.779 291.025,116.562 291.457,117.049 291.89,118.558 292.323,119.278 292.755,120.169 293.187,123.202 293.619,127.331 294.052,130.551 294.484,133.519 294.917,138.286 295.349,143.546 295.782,147.17 296.214,149.211 296.646,150.942 297.079,149.849 297.511,145.956 297.944,150.012 298.376,155.571 298.808,159.53 299.241,159.501 299.673,157.44 300.105,155.075 300.538,152.169 300.97,147.926 301.403,143 301.835,138.824 302.267,134.812 302.7,127.913 303.132,121.447 303.565,116.985 303.997,114.146 304.43,111.059 304.862,108.943 305.294,107.649 305.726,107.086 306.159,106.656 306.591,105.813 307.024,105.183 307.456,105.021 307.889,105.038 308.321,104.76 308.753,104.173 309.186,104.149 309.618,104.46 310.051,104.541 310.483,103.994 310.915,103.576 311.348,104.147 311.78,104.447 312.213,104.259 312.645,103.77 313.077,104.052 313.51,104.541 313.942,104.525 314.374,104.131 314.807,104.327 315.239,104.709 315.672,104.783 316.104,104.682 316.536,104.612 316.969,104.705 317.401,104.948 317.833,104.803 318.266,104.677 318.699,104.543 319.131,104.655 319.563,104.562 319.996,104.306 320.428,104.179 320.86,104.086 321.293,104.144 321.725,104.186 322.158,103.965 322.59,103.922 323.022,103.933 323.455,104.048 323.887,104.2 324.32,104.191 324.752,104.409 325.184,104.67 325.617,105.26 326.049,105.781 326.481,106.213 326.914,106.744 327.347,107.543 327.779,108.668 328.211,109.318 328.643,109.903 329.076,110.503 329.508,111.344 329.94,111.664 330.373,111.328 330.806,110.79 331.238,110.368 331.67,110.998 332.103,111.007 332.535,110.257 332.967,110.005 333.4,109.619 333.832,109.07 334.265,107.865 334.697,106.86 335.129,106.628 335.562,106.46 335.994,105.521 336.427,104.666 336.859,104.545 337.291,104.952 337.724,104.697 338.156,103.983 338.588,103.816 339.021,104.385 339.453,104.637 339.886,104.265 340.318,103.84 340.75,104.193 341.183,104.758 341.615,104.679 342.048,104.045 342.48,104.143 342.913,104.693 343.345,104.892 343.777,104.495 344.21,104.19 344.642,104.595 345.075,104.986 345.507,104.874 345.939,104.387 346.372,104.56 346.804,104.95 347.236,105.11 347.669,104.778 348.101,104.639 348.534,104.84 348.966,105.262 349.398,105.099 349.831,104.913 350.263,104.948 350.695,105.189 351.128,105.325 351.56,105.15 351.993,105.001 352.425,105.105 352.857,105.347 353.29,105.332 353.722,105.317 354.155,105.526 354.587,105.625 355.02,105.789 355.452,105.642 355.884,105.901 356.317,106.194 356.749,105.946 357.182,105.924 357.614,105.638 358.046,106.106 358.479,106.302 358.911,105.938 359.343,105.27 359.776,105.459 360.208,106.168 360.641,106.11 361.073,105.223 361.505,104.915 361.938,105.088 362.37,105.753 362.802,104.68 363.235,102.723 363.667,102.362 364.1,103.484 364.532,104.352 364.964,103.821 365.397,102.779 365.829,102.934 366.262,104.053 366.694,104.36 367.127,103.645 367.559,103.025 367.991,103.622 368.423,104.47 368.856,104.355 369.289,103.648 369.721,103.482 370.153,104.303 370.586,104.756 371.018,104.398 371.45,103.87 371.883,104.103 372.315,104.846 372.748,104.985 373.18,104.57 373.612,104.267 374.045,104.778 374.477,105.324 374.91,105.255 375.342,104.862 375.774,104.809 376.207,105.394 376.639,105.694 377.071,105.545 377.504,105.235 377.937,105.382 378.369,105.906 378.801,106.04 379.234,105.836 379.666,105.624 380.098,105.912 380.531,106.303 380.963,106.332 381.396,106.032 381.828,105.928 382.26,106.302 382.693,106.694 383.125,106.552 383.558,106.151 383.99,106.257 384.422,106.756 384.855,107.073 385.287,106.666 385.719,106.327 386.152,106.664 386.584,107.284 387.017,107.338 387.449,106.675 387.881,106.541 388.314,107.206 388.746,107.837 389.178,107.421 389.611,106.688 390.044,107.002 390.476,107.911 390.908,108.223 391.341,107.38 391.773,106.963 392.205,107.716 392.638,108.603 393.07,108.355 393.503,107.376 393.935,107.55 394.367,108.578 394.8,109.087 395.232,108.236 395.665,107.625 396.097,108.363 396.529,109.374 396.962,109.215 397.394,108.187 397.826,108.162 398.259,109.221 398.691,109.84 399.124,109.121 399.556,108.365 399.988,108.992 400.421,110.026 400.853,109.94 401.285,108.958 401.718,108.801 402.151,109.819 402.583,110.441 403.015,109.849 403.447,109.034 403.88,109.493 404.312,110.467 404.745,110.51 405.177,109.691 405.61,109.375 406.042,110.183 406.474,110.79 406.907,110.413 407.339,109.813 407.772,109.969 408.204,110.739 408.636,110.949 409.069,110.482 409.501,110.169 409.933,110.607 410.366,111.079 410.798,111.032 411.231,110.751 411.663,110.693 412.095,111.123 412.528,111.34 412.96,111.293 413.392,111.18 413.825,111.267 414.258,111.507 414.69,111.635 415.122,111.754 415.554,111.692 415.987,111.704 416.42,111.834 416.852,112.089 417.284,112.301 417.717,112.05 418.149,111.974 418.581,112.264 419.014,112.645 419.446,112.646 419.879,112.201 420.311,112.257 420.743,112.727 421.176,113.174 421.608,112.799 422.04,112.327 422.473,112.634 422.905,113.316 423.338,113.442 423.77,112.763 424.202,112.534 424.635,113.203 425.067,113.801 425.5,113.5 425.932,112.753 426.364,112.963 426.797,113.794 427.229,114.035 427.661,113.453 428.094,112.992 428.527,113.592 428.959,114.244 429.391,114.096 429.824,113.513 430.256,113.504 430.688,114.222 431.121,114.499 431.553,114.162 431.986,113.811 432.418,114.143 432.85,114.695 433.283,114.683 433.715,114.378 434.147,114.375 434.58,114.724 435.012,115.016 435.445,114.876 435.877,114.839 436.309,114.933 436.742,115.156 437.174,115.26 437.607,115.261 438.039,115.353 438.471,115.287 438.904,115.397 439.336,115.538 439.768,115.737 440.201,115.682 440.634,115.433 441.066,115.512 441.498,115.911 441.931,116.126 442.363,115.833 442.795,115.513 443.228,115.863 443.66,116.344 444.093,116.333 444.525,115.788 444.957,115.699 445.39,116.264 445.822,116.625 446.254,116.316 446.687,115.808 447.119,116.078 447.552,116.76 447.984,116.829 448.416,116.307 448.849,116.075 449.281,116.621 449.714,117.129 450.146,116.9 450.578,116.446 451.011,116.548 451.443,117.115 451.876,117.359 452.308,117.021 452.741,116.832 453.173,117.101 453.605,117.493 454.038,117.529 454.47,117.32 454.903,117.318 455.335,117.506 455.767,117.735 456.2,117.757 456.632,117.726 457.064,117.691 457.497,117.719 457.929,117.883 458.362,118.115 458.794,118.174 459.226,117.968 459.659,117.891 460.091,118.175 460.523,118.556 460.956,118.408 461.388,118.057 461.821,118.078 462.253,118.582 462.685,118.877 463.118,118.494 463.55,118.09 463.983,118.425 464.415,118.972 464.848,118.978 465.28,118.456 465.712,118.28 466.145,118.858 466.577,119.251 467.01,118.992 467.442,118.522 467.874,118.682 468.307,119.255 468.739,119.443 469.171,119.067 469.604,118.799 470.036,119.14 470.469,119.585 470.901,119.601 471.333,119.35 471.766,119.266 472.198,119.551 472.63,119.811 473.063,119.81 473.495,119.752 473.928,119.747 474.36,119.904 474.792,120.004 475.225,120.16 475.657,120.172 476.09,120.032 476.522,120.047 476.955,120.308 477.387,120.622 477.819,120.468 478.251,120.191 478.684,120.29 479.117,120.687 479.549,120.92 479.981,120.623 480.414,120.358 480.846,120.665 481.278,121.098 481.711,121.104 482.143,120.654 482.576,120.593 483.008,121.074 483.44,121.401 483.873,121.199 484.305,120.721 484.738,120.935 485.17,121.448 485.602,121.577 486.035,121.223 486.467,120.974 486.899,121.39 487.332,121.754 487.765,121.667 488.197,121.389 488.629,121.376 489.062,121.778 489.494,121.971 489.926,121.836 490.358,121.645 490.791,121.794 491.224,122.121 491.656,122.172 492.088,122.13 492.521,122.039 492.953,122.173 493.385,122.39 493.818,122.478 494.25,122.479 494.683,122.396 495.115,122.554 495.547,122.696 495.98,122.824 496.412,122.822 496.845,122.745 497.277,122.864 497.709,123.047 498.142,123.216 498.574,123.091 499.006,123.003 499.439,123.219 499.872,123.413 500.304,123.489 500.736,123.267 " />
</g>

<g fill="none" stroke="#000000" stroke-opacity="1" stroke-width="1" stroke-linecap="square" stroke-linejoin="bevel" transform="matrix(1.5625,0,0,1.5625,0,0)"
font-family="MS Shell Dlg 2" font-size="17.1875" font-weight="400" font-style="normal" 
>
</g>

<g fill="none" stroke="#000000" stroke-opacity="1" stroke-width="1" stroke-linecap="square" stroke-linejoin="bevel" transform="matrix(1.5625,0,0,1.5625,0,0)"
font-family="MS Shell Dlg 2" font-size="17.1875" font-weight="400" font-style="normal" 
>
</g>

<g fill="none" stroke="#000000" stroke-opacity="1" stroke-width="1" stroke-linecap="square" stroke-linejoin="bevel" transform="matrix(1.5625,0,0,1.5625,0,0)"
font-family="MS Shell Dlg 2" font-size="17.1875" font-weight="400" font-style="normal" 
>
</g>

<g fill="#a0a0a0" fill-opacity="1" stroke="none" transform="matrix(1.5625,0,0,1.5625,0,0)"
font-family="MS Shell Dlg 2" font-size="17.1875" font-weight="400" font-style="normal" 
>
<path vector-effect="none" fill-rule="evenodd" d="M55,328.953 L55,21 L506.929,21 L505.929,22 L56,22 L56,327.953"/>
</g>

<g fill="#ffffff" fill-opacity="1" stroke="none" transform="matrix(1.5625,0,0,1.5625,0,0)"
font-family="MS Shell Dlg 2" font-size="17.1875" font-weight="400" font-style="normal" 
>
<path vector-effect="none" fill-rule="evenodd" d="M55,328.953 L506.929,328.953 L506.929,21 L505.929,22 L505.929,327.953 L56,327.953"/>
</g>

<g fill="none" stroke="#000000" stroke-opacity="1" stroke-width="1" stroke-linecap="square" stroke-linejoin="bevel" transform="matrix(1.5625,0,0,1.5625,0,0)"
font-family="MS Shell Dlg 2" font-size="17.1875" font-weight="400" font-style="normal" 
>
</g>

<g fill="none" stroke="#000000" stroke-opacity="1" stroke-width="1" stroke-linecap="square" stroke-linejoin="bevel" transform="matrix(1.5625,0,0,1.5625,0,0)"
font-family="MS Shell Dlg 2" font-size="17.1875" font-weight="400" font-style="normal" 
>
</g>

<g fill="none" stroke="#dddddd" stroke-opacity="1" stroke-width="1" stroke-linecap="square" stroke-linejoin="bevel" transform="matrix(1.5625,0,0,1.5625,0,0)"
font-family="Arial" font-size="20.8333" font-weight="400" font-style="normal" 
>
</g>

<g fill="none" stroke="#dddddd" stroke-opacity="1" stroke-width="1" stroke-linecap="square" stroke-linejoin="bevel" transform="matrix(1.5625,0,0,1.5625,0,0)"
font-family="Arial" font-size="13" font-weight="400" font-style="normal" 
>
</g>

<g fill="none" stroke="#dddddd" stroke-opacity="1" stroke-width="1" stroke-linecap="square" stroke-linejoin="bevel" transform="matrix(1.5625,0,0,1.5625,0,0)"
font-family="Arial" font-size="13" font-weight="400" font-style="normal" 
>
<text fill="#dddddd" fill-opacity="1" stroke="none" xml:space="preserve" x="241.953" y="13" font-family="Arial" font-size="13" font-weight="400" font-style="normal" 
 >Signal Display</text>
</g>

<g fill="none" stroke="#dddddd" stroke-opacity="1" stroke-width="1" stroke-linecap="square" stroke-linejoin="bevel" transform="matrix(1.5625,0,0,1.5625,0,0)"
font-family="Arial" font-size="20.8333" font-weight="400" font-style="normal" 
>
</g>

<g fill="none" stroke="#dddddd" stroke-opacity="1" stroke-width="1" stroke-linecap="square" stroke-linejoin="bevel" transform="matrix(1.5625,0,0,1.5625,0,0)"
font-family="Arial" font-size="20.8333" font-weight="400" font-style="normal" 
>
</g>

<g fill="none" stroke="#dddddd" stroke-opacity="1" stroke-width="1" stroke-linecap="square" stroke-linejoin="bevel" transform="matrix(0,-1.5625,1.5625,0,0,504.614)"
font-family="Arial" font-size="20.8333" font-weight="400" font-style="normal" 
>
</g>

<g fill="none" stroke="#b4003c" stroke-opacity="1" stroke-width="1" stroke-linecap="square" stroke-linejoin="bevel" transform="matrix(0,-1.5625,1.5625,0,0,504.614)"
font-family="MS Shell Dlg 2" font-size="25" font-weight="700" font-style="normal" 
>
</g>

<g fill="none" stroke="#b4003c" stroke-opacity="1" stroke-width="1" stroke-linecap="square" stroke-linejoin="bevel" transform="matrix(0,-1.5625,1.5625,0,0,504.614)"
font-family="MS Shell Dlg 2" font-size="16" font-weight="700" font-style="normal" 
>
</g>

<g fill="none" stroke="#b4003c" stroke-opacity="1" stroke-width="1" stroke-linecap="square" stroke-linejoin="bevel" transform="matrix(0,-1.5625,1.5625,0,0,504.614)"
font-family="MS Shell Dlg 2" font-size="16" font-weight="700" font-style="normal" 
>
<text fill="#b4003c" fill-opacity="1" stroke="none" xml:space="preserve" x="97.4688" y="16" font-family="MS Shell Dlg 2" font-size="16" font-weight="700" font-style="normal" 
 >Fine In 2 (V)</text>
</g>

<g fill="none" stroke="#b4003c" stroke-opacity="1" stroke-width="1" stroke-linecap="square" stroke-linejoin="bevel" transform="matrix(0,-1.5625,1.5625,0,0,504.614)"
font-family="MS Shell Dlg 2" font-size="25" font-weight="700" font-style="normal" 
>
</g>

<g fill="none" stroke="#dddddd" stroke-opacity="1" stroke-width="1" stroke-linecap="square" stroke-linejoin="bevel" transform="matrix(0,-1.5625,1.5625,0,0,504.614)"
font-family="Arial" font-size="20.8333" font-weight="400" font-style="normal" 
>
</g>

<g fill="none" stroke="#dddddd" stroke-opacity="1" stroke-width="1" stroke-linecap="square" stroke-linejoin="bevel" transform="matrix(1.5625,0,0,1.5625,0,0)"
font-family="Arial" font-size="20.8333" font-weight="400" font-style="normal" 
>
</g>

<g fill="none" stroke="#dddddd" stroke-opacity="1" stroke-width="1" stroke-linecap="square" stroke-linejoin="bevel" transform="matrix(1.5625,0,0,1.5625,0,0)"
font-family="Arial" font-size="20.8333" font-weight="400" font-style="normal" 
>
</g>

<g fill="none" stroke="#dddddd" stroke-opacity="1" stroke-width="1" stroke-linecap="square" stroke-linejoin="bevel" transform="matrix(1.5625,0,0,1.5625,0,0)"
font-family="Arial" font-size="20.8333" font-weight="400" font-style="normal" 
>
</g>

<g fill="none" stroke="#dddddd" stroke-opacity="1" stroke-width="1" stroke-linecap="square" stroke-linejoin="bevel" transform="matrix(1.5625,0,0,1.5625,0,0)"
font-family="Arial" font-size="20.8333" font-weight="400" font-style="normal" 
>
</g>

<g fill="none" stroke="#dddddd" stroke-opacity="1" stroke-width="1" stroke-linecap="square" stroke-linejoin="bevel" transform="matrix(1.5625,0,0,1.5625,32.8125,439.228)"
font-family="Arial" font-size="20.8333" font-weight="400" font-style="normal" 
>
</g>

<g fill="none" stroke="#dddddd" stroke-opacity="1" stroke-width="1" stroke-linecap="square" stroke-linejoin="bevel" transform="matrix(1.5625,0,0,1.5625,32.8125,439.228)"
font-family="Arial" font-size="13" font-weight="400" font-style="normal" 
>
</g>

<g fill="none" stroke="#dddddd" stroke-opacity="1" stroke-width="1" stroke-linecap="square" stroke-linejoin="bevel" transform="matrix(1.5625,0,0,1.5625,32.8125,439.228)"
font-family="Arial" font-size="13" font-weight="400" font-style="normal" 
>
<text fill="#dddddd" fill-opacity="1" stroke="none" xml:space="preserve" x="0" y="11" font-family="Arial" font-size="13" font-weight="400" font-style="normal" 
 >-20</text>
</g>

<g fill="none" stroke="#dddddd" stroke-opacity="1" stroke-width="1" stroke-linecap="square" stroke-linejoin="bevel" transform="matrix(1.5625,0,0,1.5625,32.8125,439.228)"
font-family="Arial" font-size="20.8333" font-weight="400" font-style="normal" 
>
</g>

<g fill="none" stroke="#dddddd" stroke-opacity="1" stroke-width="1" stroke-linecap="square" stroke-linejoin="bevel" transform="matrix(1.5625,0,0,1.5625,32.8125,439.228)"
font-family="Arial" font-size="20.8333" font-weight="400" font-style="normal" 
>
</g>

<g fill="none" stroke="#dddddd" stroke-opacity="1" stroke-width="1" stroke-linecap="square" stroke-linejoin="bevel" transform="matrix(1.5625,0,0,1.5625,0,0)"
font-family="Arial" font-size="20.8333" font-weight="400" font-style="normal" 
>
</g>

<g fill="none" stroke="#dddddd" stroke-opacity="1" stroke-width="1" stroke-linecap="square" stroke-linejoin="bevel" transform="matrix(1.5625,0,0,1.5625,50,338.961)"
font-family="Arial" font-size="20.8333" font-weight="400" font-style="normal" 
>
</g>

<g fill="none" stroke="#dddddd" stroke-opacity="1" stroke-width="1" stroke-linecap="square" stroke-linejoin="bevel" transform="matrix(1.5625,0,0,1.5625,50,338.961)"
font-family="Arial" font-size="13" font-weight="400" font-style="normal" 
>
</g>

<g fill="none" stroke="#dddddd" stroke-opacity="1" stroke-width="1" stroke-linecap="square" stroke-linejoin="bevel" transform="matrix(1.5625,0,0,1.5625,50,338.961)"
font-family="Arial" font-size="13" font-weight="400" font-style="normal" 
>
<text fill="#dddddd" fill-opacity="1" stroke="none" xml:space="preserve" x="0" y="11" font-family="Arial" font-size="13" font-weight="400" font-style="normal" 
 >0</text>
</g>

<g fill="none" stroke="#dddddd" stroke-opacity="1" stroke-width="1" stroke-linecap="square" stroke-linejoin="bevel" transform="matrix(1.5625,0,0,1.5625,50,338.961)"
font-family="Arial" font-size="20.8333" font-weight="400" font-style="normal" 
>
</g>

<g fill="none" stroke="#dddddd" stroke-opacity="1" stroke-width="1" stroke-linecap="square" stroke-linejoin="bevel" transform="matrix(1.5625,0,0,1.5625,50,338.961)"
font-family="Arial" font-size="20.8333" font-weight="400" font-style="normal" 
>
</g>

<g fill="none" stroke="#dddddd" stroke-opacity="1" stroke-width="1" stroke-linecap="square" stroke-linejoin="bevel" transform="matrix(1.5625,0,0,1.5625,0,0)"
font-family="Arial" font-size="20.8333" font-weight="400" font-style="normal" 
>
</g>

<g fill="none" stroke="#dddddd" stroke-opacity="1" stroke-width="1" stroke-linecap="square" stroke-linejoin="bevel" transform="matrix(1.5625,0,0,1.5625,39.0625,238.694)"
font-family="Arial" font-size="20.8333" font-weight="400" font-style="normal" 
>
</g>

<g fill="none" stroke="#dddddd" stroke-opacity="1" stroke-width="1" stroke-linecap="square" stroke-linejoin="bevel" transform="matrix(1.5625,0,0,1.5625,39.0625,238.694)"
font-family="Arial" font-size="13" font-weight="400" font-style="normal" 
>
</g>

<g fill="none" stroke="#dddddd" stroke-opacity="1" stroke-width="1" stroke-linecap="square" stroke-linejoin="bevel" transform="matrix(1.5625,0,0,1.5625,39.0625,238.694)"
font-family="Arial" font-size="13" font-weight="400" font-style="normal" 
>
<text fill="#dddddd" fill-opacity="1" stroke="none" xml:space="preserve" x="0" y="11" font-family="Arial" font-size="13" font-weight="400" font-style="normal" 
 >20</text>
</g>

<g fill="none" stroke="#dddddd" stroke-opacity="1" stroke-width="1" stroke-linecap="square" stroke-linejoin="bevel" transform="matrix(1.5625,0,0,1.5625,39.0625,238.694)"
font-family="Arial" font-size="20.8333" font-weight="400" font-style="normal" 
>
</g>

<g fill="none" stroke="#dddddd" stroke-opacity="1" stroke-width="1" stroke-linecap="square" stroke-linejoin="bevel" transform="matrix(1.5625,0,0,1.5625,39.0625,238.694)"
font-family="Arial" font-size="20.8333" font-weight="400" font-style="normal" 
>
</g>

<g fill="none" stroke="#dddddd" stroke-opacity="1" stroke-width="1" stroke-linecap="square" stroke-linejoin="bevel" transform="matrix(1.5625,0,0,1.5625,0,0)"
font-family="Arial" font-size="20.8333" font-weight="400" font-style="normal" 
>
</g>

<g fill="none" stroke="#dddddd" stroke-opacity="1" stroke-width="1" stroke-linecap="square" stroke-linejoin="bevel" transform="matrix(1.5625,0,0,1.5625,39.0625,138.427)"
font-family="Arial" font-size="20.8333" font-weight="400" font-style="normal" 
>
</g>

<g fill="none" stroke="#dddddd" stroke-opacity="1" stroke-width="1" stroke-linecap="square" stroke-linejoin="bevel" transform="matrix(1.5625,0,0,1.5625,39.0625,138.427)"
font-family="Arial" font-size="13" font-weight="400" font-style="normal" 
>
</g>

<g fill="none" stroke="#dddddd" stroke-opacity="1" stroke-width="1" stroke-linecap="square" stroke-linejoin="bevel" transform="matrix(1.5625,0,0,1.5625,39.0625,138.427)"
font-family="Arial" font-size="13" font-weight="400" font-style="normal" 
>
<text fill="#dddddd" fill-opacity="1" stroke="none" xml:space="preserve" x="0" y="11" font-family="Arial" font-size="13" font-weight="400" font-style="normal" 
 >40</text>
</g>

<g fill="none" stroke="#dddddd" stroke-opacity="1" stroke-width="1" stroke-linecap="square" stroke-linejoin="bevel" transform="matrix(1.5625,0,0,1.5625,39.0625,138.427)"
font-family="Arial" font-size="20.8333" font-weight="400" font-style="normal" 
>
</g>

<g fill="none" stroke="#dddddd" stroke-opacity="1" stroke-width="1" stroke-linecap="square" stroke-linejoin="bevel" transform="matrix(1.5625,0,0,1.5625,39.0625,138.427)"
font-family="Arial" font-size="20.8333" font-weight="400" font-style="normal" 
>
</g>

<g fill="none" stroke="#dddddd" stroke-opacity="1" stroke-width="1" stroke-linecap="square" stroke-linejoin="bevel" transform="matrix(1.5625,0,0,1.5625,0,0)"
font-family="Arial" font-size="20.8333" font-weight="400" font-style="normal" 
>
</g>

<g fill="none" stroke="#dddddd" stroke-opacity="1" stroke-width="1" stroke-linecap="square" stroke-linejoin="bevel" transform="matrix(1.5625,0,0,1.5625,39.0625,38.16)"
font-family="Arial" font-size="20.8333" font-weight="400" font-style="normal" 
>
</g>

<g fill="none" stroke="#dddddd" stroke-opacity="1" stroke-width="1" stroke-linecap="square" stroke-linejoin="bevel" transform="matrix(1.5625,0,0,1.5625,39.0625,38.16)"
font-family="Arial" font-size="13" font-weight="400" font-style="normal" 
>
</g>

<g fill="none" stroke="#dddddd" stroke-opacity="1" stroke-width="1" stroke-linecap="square" stroke-linejoin="bevel" transform="matrix(1.5625,0,0,1.5625,39.0625,38.16)"
font-family="Arial" font-size="13" font-weight="400" font-style="normal" 
>
<text fill="#dddddd" fill-opacity="1" stroke="none" xml:space="preserve" x="0" y="11" font-family="Arial" font-size="13" font-weight="400" font-style="normal" 
 >60</text>
</g>

<g fill="none" stroke="#dddddd" stroke-opacity="1" stroke-width="1" stroke-linecap="square" stroke-linejoin="bevel" transform="matrix(1.5625,0,0,1.5625,39.0625,38.16)"
font-family="Arial" font-size="20.8333" font-weight="400" font-style="normal" 
>
</g>

<g fill="none" stroke="#dddddd" stroke-opacity="1" stroke-width="1" stroke-linecap="square" stroke-linejoin="bevel" transform="matrix(1.5625,0,0,1.5625,39.0625,38.16)"
font-family="Arial" font-size="20.8333" font-weight="400" font-style="normal" 
>
</g>

<g fill="none" stroke="#dddddd" stroke-opacity="1" stroke-width="1" stroke-linecap="square" stroke-linejoin="bevel" transform="matrix(1.5625,0,0,1.5625,0,0)"
font-family="Arial" font-size="20.8333" font-weight="400" font-style="normal" 
>
</g>

<g fill="none" stroke="#dddddd" stroke-opacity="1" stroke-width="1" stroke-linecap="square" stroke-linejoin="bevel" transform="matrix(1.5625,0,0,1.5625,0,0)"
font-family="Arial" font-size="20.8333" font-weight="400" font-style="normal" 
>
</g>

<g fill="none" stroke="#dddddd" stroke-opacity="1" stroke-width="1" stroke-linecap="butt" stroke-linejoin="bevel" transform="matrix(1.5625,0,0,1.5625,0,0)"
font-family="Arial" font-size="20.8333" font-weight="400" font-style="normal" 
>
<polyline fill="none" vector-effect="non-scaling-stroke" points="52,302.649 48,302.649 " />
<polyline fill="none" vector-effect="non-scaling-stroke" points="52,270.563 48,270.563 " />
<polyline fill="none" vector-effect="non-scaling-stroke" points="52,238.478 48,238.478 " />
<polyline fill="none" vector-effect="non-scaling-stroke" points="52,206.392 48,206.392 " />
<polyline fill="none" vector-effect="non-scaling-stroke" points="52,174.307 48,174.307 " />
<polyline fill="none" vector-effect="non-scaling-stroke" points="52,142.221 48,142.221 " />
<polyline fill="none" vector-effect="non-scaling-stroke" points="52,110.136 48,110.136 " />
<polyline fill="none" vector-effect="non-scaling-stroke" points="52,78.0506 48,78.0506 " />
<polyline fill="none" vector-effect="non-scaling-stroke" points="52,45.9651 48,45.9651 " />
<polyline fill="none" vector-effect="non-scaling-stroke" points="52,318.691 46,318.691 " />
<polyline fill="none" vector-effect="non-scaling-stroke" points="52,254.52 46,254.52 " />
<polyline fill="none" vector-effect="non-scaling-stroke" points="52,190.35 46,190.35 " />
<polyline fill="none" vector-effect="non-scaling-stroke" points="52,126.179 46,126.179 " />
<polyline fill="none" vector-effect="non-scaling-stroke" points="52,62.0079 46,62.0079 " />
<polyline fill="none" vector-effect="non-scaling-stroke" points="52,286.606 44,286.606 " />
<polyline fill="none" vector-effect="non-scaling-stroke" points="52,222.435 44,222.435 " />
<polyline fill="none" vector-effect="non-scaling-stroke" points="52,158.264 44,158.264 " />
<polyline fill="none" vector-effect="non-scaling-stroke" points="52,94.0933 44,94.0933 " />
<polyline fill="none" vector-effect="non-scaling-stroke" points="52,29.9224 44,29.9224 " />
</g>

<g fill="none" stroke="#dddddd" stroke-opacity="1" stroke-width="1" stroke-linecap="square" stroke-linejoin="bevel" transform="matrix(1.5625,0,0,1.5625,0,0)"
font-family="Arial" font-size="20.8333" font-weight="400" font-style="normal" 
>
</g>

<g fill="none" stroke="#dddddd" stroke-opacity="1" stroke-width="1" stroke-linecap="butt" stroke-linejoin="bevel" transform="matrix(1.5625,0,0,1.5625,0,0)"
font-family="Arial" font-size="20.8333" font-weight="400" font-style="normal" 
>
<polyline fill="none" vector-effect="non-scaling-stroke" points="52,27 52,322.953 " />
</g>

<g fill="none" stroke="#dddddd" stroke-opacity="1" stroke-width="1" stroke-linecap="square" stroke-linejoin="bevel" transform="matrix(1.5625,0,0,1.5625,0,0)"
font-family="Arial" font-size="20.8333" font-weight="400" font-style="normal" 
>
</g>

<g fill="none" stroke="#dddddd" stroke-opacity="1" stroke-width="1" stroke-linecap="square" stroke-linejoin="bevel" transform="matrix(1.5625,0,0,1.5625,0,0)"
font-family="Arial" font-size="20.8333" font-weight="400" font-style="normal" 
>
</g>

<g fill="none" stroke="#dddddd" stroke-opacity="1" stroke-width="1" stroke-linecap="square" stroke-linejoin="bevel" transform="matrix(1.5625,0,0,1.5625,0,0)"
font-family="Arial" font-size="20.8333" font-weight="400" font-style="normal" 
>
</g>

<g fill="none" stroke="#dddddd" stroke-opacity="1" stroke-width="1" stroke-linecap="square" stroke-linejoin="bevel" transform="matrix(0,1.5625,-1.5625,0,885.827,42.1875)"
font-family="Arial" font-size="20.8333" font-weight="400" font-style="normal" 
>
</g>

<g fill="none" stroke="#0064ff" stroke-opacity="1" stroke-width="1" stroke-linecap="square" stroke-linejoin="bevel" transform="matrix(0,1.5625,-1.5625,0,885.827,42.1875)"
font-family="MS Shell Dlg 2" font-size="25" font-weight="700" font-style="normal" 
>
</g>

<g fill="none" stroke="#0064ff" stroke-opacity="1" stroke-width="1" stroke-linecap="square" stroke-linejoin="bevel" transform="matrix(0,1.5625,-1.5625,0,885.827,42.1875)"
font-family="MS Shell Dlg 2" font-size="16" font-weight="700" font-style="normal" 
>
</g>

<g fill="none" stroke="#0064ff" stroke-opacity="1" stroke-width="1" stroke-linecap="square" stroke-linejoin="bevel" transform="matrix(0,1.5625,-1.5625,0,885.827,42.1875)"
font-family="MS Shell Dlg 2" font-size="16" font-weight="700" font-style="normal" 
>
<text fill="#0064ff" fill-opacity="1" stroke="none" xml:space="preserve" x="97.4688" y="16" font-family="MS Shell Dlg 2" font-size="16" font-weight="700" font-style="normal" 
 >Fine In 1 (V)</text>
</g>

<g fill="none" stroke="#0064ff" stroke-opacity="1" stroke-width="1" stroke-linecap="square" stroke-linejoin="bevel" transform="matrix(0,1.5625,-1.5625,0,885.827,42.1875)"
font-family="MS Shell Dlg 2" font-size="25" font-weight="700" font-style="normal" 
>
</g>

<g fill="none" stroke="#dddddd" stroke-opacity="1" stroke-width="1" stroke-linecap="square" stroke-linejoin="bevel" transform="matrix(0,1.5625,-1.5625,0,885.827,42.1875)"
font-family="Arial" font-size="20.8333" font-weight="400" font-style="normal" 
>
</g>

<g fill="none" stroke="#dddddd" stroke-opacity="1" stroke-width="1" stroke-linecap="square" stroke-linejoin="bevel" transform="matrix(1.5625,0,0,1.5625,0,0)"
font-family="Arial" font-size="20.8333" font-weight="400" font-style="normal" 
>
</g>

<g fill="none" stroke="#dddddd" stroke-opacity="1" stroke-width="1" stroke-linecap="square" stroke-linejoin="bevel" transform="matrix(1.5625,0,0,1.5625,0,0)"
font-family="Arial" font-size="20.8333" font-weight="400" font-style="normal" 
>
</g>

<g fill="none" stroke="#dddddd" stroke-opacity="1" stroke-width="1" stroke-linecap="square" stroke-linejoin="bevel" transform="matrix(1.5625,0,0,1.5625,0,0)"
font-family="Arial" font-size="20.8333" font-weight="400" font-style="normal" 
>
</g>

<g fill="none" stroke="#dddddd" stroke-opacity="1" stroke-width="1" stroke-linecap="square" stroke-linejoin="bevel" transform="matrix(1.5625,0,0,1.5625,0,0)"
font-family="Arial" font-size="20.8333" font-weight="400" font-style="normal" 
>
</g>

<g fill="none" stroke="#dddddd" stroke-opacity="1" stroke-width="1" stroke-linecap="square" stroke-linejoin="bevel" transform="matrix(1.5625,0,0,1.5625,817.077,447.671)"
font-family="Arial" font-size="20.8333" font-weight="400" font-style="normal" 
>
</g>

<g fill="none" stroke="#dddddd" stroke-opacity="1" stroke-width="1" stroke-linecap="square" stroke-linejoin="bevel" transform="matrix(1.5625,0,0,1.5625,817.077,447.671)"
font-family="Arial" font-size="13" font-weight="400" font-style="normal" 
>
</g>

<g fill="none" stroke="#dddddd" stroke-opacity="1" stroke-width="1" stroke-linecap="square" stroke-linejoin="bevel" transform="matrix(1.5625,0,0,1.5625,817.077,447.671)"
font-family="Arial" font-size="13" font-weight="400" font-style="normal" 
>
<text fill="#dddddd" fill-opacity="1" stroke="none" xml:space="preserve" x="0" y="11" font-family="Arial" font-size="13" font-weight="400" font-style="normal" 
 >-0.2</text>
</g>

<g fill="none" stroke="#dddddd" stroke-opacity="1" stroke-width="1" stroke-linecap="square" stroke-linejoin="bevel" transform="matrix(1.5625,0,0,1.5625,817.077,447.671)"
font-family="Arial" font-size="20.8333" font-weight="400" font-style="normal" 
>
</g>

<g fill="none" stroke="#dddddd" stroke-opacity="1" stroke-width="1" stroke-linecap="square" stroke-linejoin="bevel" transform="matrix(1.5625,0,0,1.5625,817.077,447.671)"
font-family="Arial" font-size="20.8333" font-weight="400" font-style="normal" 
>
</g>

<g fill="none" stroke="#dddddd" stroke-opacity="1" stroke-width="1" stroke-linecap="square" stroke-linejoin="bevel" transform="matrix(1.5625,0,0,1.5625,0,0)"
font-family="Arial" font-size="20.8333" font-weight="400" font-style="normal" 
>
</g>

<g fill="none" stroke="#dddddd" stroke-opacity="1" stroke-width="1" stroke-linecap="square" stroke-linejoin="bevel" transform="matrix(1.5625,0,0,1.5625,817.077,341.918)"
font-family="Arial" font-size="20.8333" font-weight="400" font-style="normal" 
>
</g>

<g fill="none" stroke="#dddddd" stroke-opacity="1" stroke-width="1" stroke-linecap="square" stroke-linejoin="bevel" transform="matrix(1.5625,0,0,1.5625,817.077,341.918)"
font-family="Arial" font-size="13" font-weight="400" font-style="normal" 
>
</g>

<g fill="none" stroke="#dddddd" stroke-opacity="1" stroke-width="1" stroke-linecap="square" stroke-linejoin="bevel" transform="matrix(1.5625,0,0,1.5625,817.077,341.918)"
font-family="Arial" font-size="13" font-weight="400" font-style="normal" 
>
<text fill="#dddddd" fill-opacity="1" stroke="none" xml:space="preserve" x="0" y="11" font-family="Arial" font-size="13" font-weight="400" font-style="normal" 
 >0</text>
</g>

<g fill="none" stroke="#dddddd" stroke-opacity="1" stroke-width="1" stroke-linecap="square" stroke-linejoin="bevel" transform="matrix(1.5625,0,0,1.5625,817.077,341.918)"
font-family="Arial" font-size="20.8333" font-weight="400" font-style="normal" 
>
</g>

<g fill="none" stroke="#dddddd" stroke-opacity="1" stroke-width="1" stroke-linecap="square" stroke-linejoin="bevel" transform="matrix(1.5625,0,0,1.5625,817.077,341.918)"
font-family="Arial" font-size="20.8333" font-weight="400" font-style="normal" 
>
</g>

<g fill="none" stroke="#dddddd" stroke-opacity="1" stroke-width="1" stroke-linecap="square" stroke-linejoin="bevel" transform="matrix(1.5625,0,0,1.5625,0,0)"
font-family="Arial" font-size="20.8333" font-weight="400" font-style="normal" 
>
</g>

<g fill="none" stroke="#dddddd" stroke-opacity="1" stroke-width="1" stroke-linecap="square" stroke-linejoin="bevel" transform="matrix(1.5625,0,0,1.5625,817.077,236.166)"
font-family="Arial" font-size="20.8333" font-weight="400" font-style="normal" 
>
</g>

<g fill="none" stroke="#dddddd" stroke-opacity="1" stroke-width="1" stroke-linecap="square" stroke-linejoin="bevel" transform="matrix(1.5625,0,0,1.5625,817.077,236.166)"
font-family="Arial" font-size="13" font-weight="400" font-style="normal" 
>
</g>

<g fill="none" stroke="#dddddd" stroke-opacity="1" stroke-width="1" stroke-linecap="square" stroke-linejoin="bevel" transform="matrix(1.5625,0,0,1.5625,817.077,236.166)"
font-family="Arial" font-size="13" font-weight="400" font-style="normal" 
>
<text fill="#dddddd" fill-opacity="1" stroke="none" xml:space="preserve" x="0" y="11" font-family="Arial" font-size="13" font-weight="400" font-style="normal" 
 >0.2</text>
</g>

<g fill="none" stroke="#dddddd" stroke-opacity="1" stroke-width="1" stroke-linecap="square" stroke-linejoin="bevel" transform="matrix(1.5625,0,0,1.5625,817.077,236.166)"
font-family="Arial" font-size="20.8333" font-weight="400" font-style="normal" 
>
</g>

<g fill="none" stroke="#dddddd" stroke-opacity="1" stroke-width="1" stroke-linecap="square" stroke-linejoin="bevel" transform="matrix(1.5625,0,0,1.5625,817.077,236.166)"
font-family="Arial" font-size="20.8333" font-weight="400" font-style="normal" 
>
</g>

<g fill="none" stroke="#dddddd" stroke-opacity="1" stroke-width="1" stroke-linecap="square" stroke-linejoin="bevel" transform="matrix(1.5625,0,0,1.5625,0,0)"
font-family="Arial" font-size="20.8333" font-weight="400" font-style="normal" 
>
</g>

<g fill="none" stroke="#dddddd" stroke-opacity="1" stroke-width="1" stroke-linecap="square" stroke-linejoin="bevel" transform="matrix(1.5625,0,0,1.5625,817.077,130.413)"
font-family="Arial" font-size="20.8333" font-weight="400" font-style="normal" 
>
</g>

<g fill="none" stroke="#dddddd" stroke-opacity="1" stroke-width="1" stroke-linecap="square" stroke-linejoin="bevel" transform="matrix(1.5625,0,0,1.5625,817.077,130.413)"
font-family="Arial" font-size="13" font-weight="400" font-style="normal" 
>
</g>

<g fill="none" stroke="#dddddd" stroke-opacity="1" stroke-width="1" stroke-linecap="square" stroke-linejoin="bevel" transform="matrix(1.5625,0,0,1.5625,817.077,130.413)"
font-family="Arial" font-size="13" font-weight="400" font-style="normal" 
>
<text fill="#dddddd" fill-opacity="1" stroke="none" xml:space="preserve" x="0" y="11" font-family="Arial" font-size="13" font-weight="400" font-style="normal" 
 >0.4</text>
</g>

<g fill="none" stroke="#dddddd" stroke-opacity="1" stroke-width="1" stroke-linecap="square" stroke-linejoin="bevel" transform="matrix(1.5625,0,0,1.5625,817.077,130.413)"
font-family="Arial" font-size="20.8333" font-weight="400" font-style="normal" 
>
</g>

<g fill="none" stroke="#dddddd" stroke-opacity="1" stroke-width="1" stroke-linecap="square" stroke-linejoin="bevel" transform="matrix(1.5625,0,0,1.5625,817.077,130.413)"
font-family="Arial" font-size="20.8333" font-weight="400" font-style="normal" 
>
</g>

<g fill="none" stroke="#dddddd" stroke-opacity="1" stroke-width="1" stroke-linecap="square" stroke-linejoin="bevel" transform="matrix(1.5625,0,0,1.5625,0,0)"
font-family="Arial" font-size="20.8333" font-weight="400" font-style="normal" 
>
</g>

<g fill="none" stroke="#dddddd" stroke-opacity="1" stroke-width="1" stroke-linecap="square" stroke-linejoin="bevel" transform="matrix(1.5625,0,0,1.5625,0,0)"
font-family="Arial" font-size="20.8333" font-weight="400" font-style="normal" 
>
</g>

<g fill="none" stroke="#dddddd" stroke-opacity="1" stroke-width="1" stroke-linecap="butt" stroke-linejoin="bevel" transform="matrix(1.5625,0,0,1.5625,0,0)"
font-family="Arial" font-size="20.8333" font-weight="400" font-style="normal" 
>
<polyline fill="none" vector-effect="non-scaling-stroke" points="509.929,308.93 513.929,308.93 " />
<polyline fill="none" vector-effect="non-scaling-stroke" points="509.929,275.089 513.929,275.089 " />
<polyline fill="none" vector-effect="non-scaling-stroke" points="509.929,241.248 513.929,241.248 " />
<polyline fill="none" vector-effect="non-scaling-stroke" points="509.929,207.407 513.929,207.407 " />
<polyline fill="none" vector-effect="non-scaling-stroke" points="509.929,173.567 513.929,173.567 " />
<polyline fill="none" vector-effect="non-scaling-stroke" points="509.929,139.726 513.929,139.726 " />
<polyline fill="none" vector-effect="non-scaling-stroke" points="509.929,105.885 513.929,105.885 " />
<polyline fill="none" vector-effect="non-scaling-stroke" points="509.929,72.0441 513.929,72.0441 " />
<polyline fill="none" vector-effect="non-scaling-stroke" points="509.929,38.2033 513.929,38.2033 " />
<polyline fill="none" vector-effect="non-scaling-stroke" points="509.929,258.169 515.929,258.169 " />
<polyline fill="none" vector-effect="non-scaling-stroke" points="509.929,190.487 515.929,190.487 " />
<polyline fill="none" vector-effect="non-scaling-stroke" points="509.929,122.805 515.929,122.805 " />
<polyline fill="none" vector-effect="non-scaling-stroke" points="509.929,55.1237 515.929,55.1237 " />
<polyline fill="none" vector-effect="non-scaling-stroke" points="509.929,292.009 517.929,292.009 " />
<polyline fill="none" vector-effect="non-scaling-stroke" points="509.929,224.328 517.929,224.328 " />
<polyline fill="none" vector-effect="non-scaling-stroke" points="509.929,156.646 517.929,156.646 " />
<polyline fill="none" vector-effect="non-scaling-stroke" points="509.929,88.9645 517.929,88.9645 " />
</g>

<g fill="none" stroke="#dddddd" stroke-opacity="1" stroke-width="1" stroke-linecap="square" stroke-linejoin="bevel" transform="matrix(1.5625,0,0,1.5625,0,0)"
font-family="Arial" font-size="20.8333" font-weight="400" font-style="normal" 
>
</g>

<g fill="none" stroke="#dddddd" stroke-opacity="1" stroke-width="1" stroke-linecap="butt" stroke-linejoin="bevel" transform="matrix(1.5625,0,0,1.5625,0,0)"
font-family="Arial" font-size="20.8333" font-weight="400" font-style="normal" 
>
<polyline fill="none" vector-effect="non-scaling-stroke" points="509.929,27 509.929,322.953 " />
</g>

<g fill="none" stroke="#dddddd" stroke-opacity="1" stroke-width="1" stroke-linecap="square" stroke-linejoin="bevel" transform="matrix(1.5625,0,0,1.5625,0,0)"
font-family="Arial" font-size="20.8333" font-weight="400" font-style="normal" 
>
</g>

<g fill="none" stroke="#dddddd" stroke-opacity="1" stroke-width="1" stroke-linecap="square" stroke-linejoin="bevel" transform="matrix(1.5625,0,0,1.5625,0,0)"
font-family="Arial" font-size="20.8333" font-weight="400" font-style="normal" 
>
</g>

<g fill="none" stroke="#dddddd" stroke-opacity="1" stroke-width="1" stroke-linecap="square" stroke-linejoin="bevel" transform="matrix(1.5625,0,0,1.5625,0,0)"
font-family="Arial" font-size="20.8333" font-weight="400" font-style="normal" 
>
</g>

<g fill="none" stroke="#dddddd" stroke-opacity="1" stroke-width="1" stroke-linecap="square" stroke-linejoin="bevel" transform="matrix(1.5625,0,0,1.5625,95.3125,559.301)"
font-family="Arial" font-size="20.8333" font-weight="400" font-style="normal" 
>
</g>

<g fill="none" stroke="#dddddd" stroke-opacity="1" stroke-width="1" stroke-linecap="square" stroke-linejoin="bevel" transform="matrix(1.5625,0,0,1.5625,95.3125,559.301)"
font-family="MS Shell Dlg 2" font-size="25" font-weight="700" font-style="normal" 
>
</g>

<g fill="none" stroke="#dddddd" stroke-opacity="1" stroke-width="1" stroke-linecap="square" stroke-linejoin="bevel" transform="matrix(1.5625,0,0,1.5625,95.3125,559.301)"
font-family="MS Shell Dlg 2" font-size="16" font-weight="700" font-style="normal" 
>
</g>

<g fill="none" stroke="#dddddd" stroke-opacity="1" stroke-width="1" stroke-linecap="square" stroke-linejoin="bevel" transform="matrix(1.5625,0,0,1.5625,95.3125,559.301)"
font-family="MS Shell Dlg 2" font-size="16" font-weight="700" font-style="normal" 
>
<text fill="#dddddd" fill-opacity="1" stroke="none" xml:space="preserve" x="148.453" y="17" font-family="MS Shell Dlg 2" font-size="16" font-weight="700" font-style="normal" 
 >Piezo Voltage (V)</text>
</g>

<g fill="none" stroke="#dddddd" stroke-opacity="1" stroke-width="1" stroke-linecap="square" stroke-linejoin="bevel" transform="matrix(1.5625,0,0,1.5625,95.3125,559.301)"
font-family="MS Shell Dlg 2" font-size="25" font-weight="700" font-style="normal" 
>
</g>

<g fill="none" stroke="#dddddd" stroke-opacity="1" stroke-width="1" stroke-linecap="square" stroke-linejoin="bevel" transform="matrix(1.5625,0,0,1.5625,95.3125,559.301)"
font-family="Arial" font-size="20.8333" font-weight="400" font-style="normal" 
>
</g>

<g fill="none" stroke="#dddddd" stroke-opacity="1" stroke-width="1" stroke-linecap="square" stroke-linejoin="bevel" transform="matrix(1.5625,0,0,1.5625,0,0)"
font-family="Arial" font-size="20.8333" font-weight="400" font-style="normal" 
>
</g>

<g fill="none" stroke="#dddddd" stroke-opacity="1" stroke-width="1" stroke-linecap="square" stroke-linejoin="bevel" transform="matrix(1.5625,0,0,1.5625,0,0)"
font-family="Arial" font-size="20.8333" font-weight="400" font-style="normal" 
>
</g>

<g fill="none" stroke="#dddddd" stroke-opacity="1" stroke-width="1" stroke-linecap="square" stroke-linejoin="bevel" transform="matrix(1.5625,0,0,1.5625,0,0)"
font-family="Arial" font-size="20.8333" font-weight="400" font-style="normal" 
>
</g>

<g fill="none" stroke="#dddddd" stroke-opacity="1" stroke-width="1" stroke-linecap="square" stroke-linejoin="bevel" transform="matrix(1.5625,0,0,1.5625,0,0)"
font-family="Arial" font-size="20.8333" font-weight="400" font-style="normal" 
>
</g>

<g fill="none" stroke="#dddddd" stroke-opacity="1" stroke-width="1" stroke-linecap="square" stroke-linejoin="bevel" transform="matrix(1.5625,0,0,1.5625,147.548,538.989)"
font-family="Arial" font-size="20.8333" font-weight="400" font-style="normal" 
>
</g>

<g fill="none" stroke="#dddddd" stroke-opacity="1" stroke-width="1" stroke-linecap="square" stroke-linejoin="bevel" transform="matrix(1.5625,0,0,1.5625,147.548,538.989)"
font-family="Arial" font-size="13" font-weight="400" font-style="normal" 
>
</g>

<g fill="none" stroke="#dddddd" stroke-opacity="1" stroke-width="1" stroke-linecap="square" stroke-linejoin="bevel" transform="matrix(1.5625,0,0,1.5625,147.548,538.989)"
font-family="Arial" font-size="13" font-weight="400" font-style="normal" 
>
<text fill="#dddddd" fill-opacity="1" stroke="none" xml:space="preserve" x="0" y="11" font-family="Arial" font-size="13" font-weight="400" font-style="normal" 
 >60</text>
</g>

<g fill="none" stroke="#dddddd" stroke-opacity="1" stroke-width="1" stroke-linecap="square" stroke-linejoin="bevel" transform="matrix(1.5625,0,0,1.5625,147.548,538.989)"
font-family="Arial" font-size="20.8333" font-weight="400" font-style="normal" 
>
</g>

<g fill="none" stroke="#dddddd" stroke-opacity="1" stroke-width="1" stroke-linecap="square" stroke-linejoin="bevel" transform="matrix(1.5625,0,0,1.5625,147.548,538.989)"
font-family="Arial" font-size="20.8333" font-weight="400" font-style="normal" 
>
</g>

<g fill="none" stroke="#dddddd" stroke-opacity="1" stroke-width="1" stroke-linecap="square" stroke-linejoin="bevel" transform="matrix(1.5625,0,0,1.5625,0,0)"
font-family="Arial" font-size="20.8333" font-weight="400" font-style="normal" 
>
</g>

<g fill="none" stroke="#dddddd" stroke-opacity="1" stroke-width="1" stroke-linecap="square" stroke-linejoin="bevel" transform="matrix(1.5625,0,0,1.5625,256.061,538.989)"
font-family="Arial" font-size="20.8333" font-weight="400" font-style="normal" 
>
</g>

<g fill="none" stroke="#dddddd" stroke-opacity="1" stroke-width="1" stroke-linecap="square" stroke-linejoin="bevel" transform="matrix(1.5625,0,0,1.5625,256.061,538.989)"
font-family="Arial" font-size="13" font-weight="400" font-style="normal" 
>
</g>

<g fill="none" stroke="#dddddd" stroke-opacity="1" stroke-width="1" stroke-linecap="square" stroke-linejoin="bevel" transform="matrix(1.5625,0,0,1.5625,256.061,538.989)"
font-family="Arial" font-size="13" font-weight="400" font-style="normal" 
>
<text fill="#dddddd" fill-opacity="1" stroke="none" xml:space="preserve" x="0" y="11" font-family="Arial" font-size="13" font-weight="400" font-style="normal" 
 >70</text>
</g>

<g fill="none" stroke="#dddddd" stroke-opacity="1" stroke-width="1" stroke-linecap="square" stroke-linejoin="bevel" transform="matrix(1.5625,0,0,1.5625,256.061,538.989)"
font-family="Arial" font-size="20.8333" font-weight="400" font-style="normal" 
>
</g>

<g fill="none" stroke="#dddddd" stroke-opacity="1" stroke-width="1" stroke-linecap="square" stroke-linejoin="bevel" transform="matrix(1.5625,0,0,1.5625,256.061,538.989)"
font-family="Arial" font-size="20.8333" font-weight="400" font-style="normal" 
>
</g>

<g fill="none" stroke="#dddddd" stroke-opacity="1" stroke-width="1" stroke-linecap="square" stroke-linejoin="bevel" transform="matrix(1.5625,0,0,1.5625,0,0)"
font-family="Arial" font-size="20.8333" font-weight="400" font-style="normal" 
>
</g>

<g fill="none" stroke="#dddddd" stroke-opacity="1" stroke-width="1" stroke-linecap="square" stroke-linejoin="bevel" transform="matrix(1.5625,0,0,1.5625,364.573,538.989)"
font-family="Arial" font-size="20.8333" font-weight="400" font-style="normal" 
>
</g>

<g fill="none" stroke="#dddddd" stroke-opacity="1" stroke-width="1" stroke-linecap="square" stroke-linejoin="bevel" transform="matrix(1.5625,0,0,1.5625,364.573,538.989)"
font-family="Arial" font-size="13" font-weight="400" font-style="normal" 
>
</g>

<g fill="none" stroke="#dddddd" stroke-opacity="1" stroke-width="1" stroke-linecap="square" stroke-linejoin="bevel" transform="matrix(1.5625,0,0,1.5625,364.573,538.989)"
font-family="Arial" font-size="13" font-weight="400" font-style="normal" 
>
<text fill="#dddddd" fill-opacity="1" stroke="none" xml:space="preserve" x="0" y="11" font-family="Arial" font-size="13" font-weight="400" font-style="normal" 
 >80</text>
</g>

<g fill="none" stroke="#dddddd" stroke-opacity="1" stroke-width="1" stroke-linecap="square" stroke-linejoin="bevel" transform="matrix(1.5625,0,0,1.5625,364.573,538.989)"
font-family="Arial" font-size="20.8333" font-weight="400" font-style="normal" 
>
</g>

<g fill="none" stroke="#dddddd" stroke-opacity="1" stroke-width="1" stroke-linecap="square" stroke-linejoin="bevel" transform="matrix(1.5625,0,0,1.5625,364.573,538.989)"
font-family="Arial" font-size="20.8333" font-weight="400" font-style="normal" 
>
</g>

<g fill="none" stroke="#dddddd" stroke-opacity="1" stroke-width="1" stroke-linecap="square" stroke-linejoin="bevel" transform="matrix(1.5625,0,0,1.5625,0,0)"
font-family="Arial" font-size="20.8333" font-weight="400" font-style="normal" 
>
</g>

<g fill="none" stroke="#dddddd" stroke-opacity="1" stroke-width="1" stroke-linecap="square" stroke-linejoin="bevel" transform="matrix(1.5625,0,0,1.5625,473.086,538.989)"
font-family="Arial" font-size="20.8333" font-weight="400" font-style="normal" 
>
</g>

<g fill="none" stroke="#dddddd" stroke-opacity="1" stroke-width="1" stroke-linecap="square" stroke-linejoin="bevel" transform="matrix(1.5625,0,0,1.5625,473.086,538.989)"
font-family="Arial" font-size="13" font-weight="400" font-style="normal" 
>
</g>

<g fill="none" stroke="#dddddd" stroke-opacity="1" stroke-width="1" stroke-linecap="square" stroke-linejoin="bevel" transform="matrix(1.5625,0,0,1.5625,473.086,538.989)"
font-family="Arial" font-size="13" font-weight="400" font-style="normal" 
>
<text fill="#dddddd" fill-opacity="1" stroke="none" xml:space="preserve" x="0" y="11" font-family="Arial" font-size="13" font-weight="400" font-style="normal" 
 >90</text>
</g>

<g fill="none" stroke="#dddddd" stroke-opacity="1" stroke-width="1" stroke-linecap="square" stroke-linejoin="bevel" transform="matrix(1.5625,0,0,1.5625,473.086,538.989)"
font-family="Arial" font-size="20.8333" font-weight="400" font-style="normal" 
>
</g>

<g fill="none" stroke="#dddddd" stroke-opacity="1" stroke-width="1" stroke-linecap="square" stroke-linejoin="bevel" transform="matrix(1.5625,0,0,1.5625,473.086,538.989)"
font-family="Arial" font-size="20.8333" font-weight="400" font-style="normal" 
>
</g>

<g fill="none" stroke="#dddddd" stroke-opacity="1" stroke-width="1" stroke-linecap="square" stroke-linejoin="bevel" transform="matrix(1.5625,0,0,1.5625,0,0)"
font-family="Arial" font-size="20.8333" font-weight="400" font-style="normal" 
>
</g>

<g fill="none" stroke="#dddddd" stroke-opacity="1" stroke-width="1" stroke-linecap="square" stroke-linejoin="bevel" transform="matrix(1.5625,0,0,1.5625,576.13,538.989)"
font-family="Arial" font-size="20.8333" font-weight="400" font-style="normal" 
>
</g>

<g fill="none" stroke="#dddddd" stroke-opacity="1" stroke-width="1" stroke-linecap="square" stroke-linejoin="bevel" transform="matrix(1.5625,0,0,1.5625,576.13,538.989)"
font-family="Arial" font-size="13" font-weight="400" font-style="normal" 
>
</g>

<g fill="none" stroke="#dddddd" stroke-opacity="1" stroke-width="1" stroke-linecap="square" stroke-linejoin="bevel" transform="matrix(1.5625,0,0,1.5625,576.13,538.989)"
font-family="Arial" font-size="13" font-weight="400" font-style="normal" 
>
<text fill="#dddddd" fill-opacity="1" stroke="none" xml:space="preserve" x="0" y="11" font-family="Arial" font-size="13" font-weight="400" font-style="normal" 
 >100</text>
</g>

<g fill="none" stroke="#dddddd" stroke-opacity="1" stroke-width="1" stroke-linecap="square" stroke-linejoin="bevel" transform="matrix(1.5625,0,0,1.5625,576.13,538.989)"
font-family="Arial" font-size="20.8333" font-weight="400" font-style="normal" 
>
</g>

<g fill="none" stroke="#dddddd" stroke-opacity="1" stroke-width="1" stroke-linecap="square" stroke-linejoin="bevel" transform="matrix(1.5625,0,0,1.5625,576.13,538.989)"
font-family="Arial" font-size="20.8333" font-weight="400" font-style="normal" 
>
</g>

<g fill="none" stroke="#dddddd" stroke-opacity="1" stroke-width="1" stroke-linecap="square" stroke-linejoin="bevel" transform="matrix(1.5625,0,0,1.5625,0,0)"
font-family="Arial" font-size="20.8333" font-weight="400" font-style="normal" 
>
</g>

<g fill="none" stroke="#dddddd" stroke-opacity="1" stroke-width="1" stroke-linecap="square" stroke-linejoin="bevel" transform="matrix(1.5625,0,0,1.5625,685.424,538.989)"
font-family="Arial" font-size="20.8333" font-weight="400" font-style="normal" 
>
</g>

<g fill="none" stroke="#dddddd" stroke-opacity="1" stroke-width="1" stroke-linecap="square" stroke-linejoin="bevel" transform="matrix(1.5625,0,0,1.5625,685.424,538.989)"
font-family="Arial" font-size="13" font-weight="400" font-style="normal" 
>
</g>

<g fill="none" stroke="#dddddd" stroke-opacity="1" stroke-width="1" stroke-linecap="square" stroke-linejoin="bevel" transform="matrix(1.5625,0,0,1.5625,685.424,538.989)"
font-family="Arial" font-size="13" font-weight="400" font-style="normal" 
>
<text fill="#dddddd" fill-opacity="1" stroke="none" xml:space="preserve" x="0" y="11" font-family="Arial" font-size="13" font-weight="400" font-style="normal" 
 >110</text>
</g>

<g fill="none" stroke="#dddddd" stroke-opacity="1" stroke-width="1" stroke-linecap="square" stroke-linejoin="bevel" transform="matrix(1.5625,0,0,1.5625,685.424,538.989)"
font-family="Arial" font-size="20.8333" font-weight="400" font-style="normal" 
>
</g>

<g fill="none" stroke="#dddddd" stroke-opacity="1" stroke-width="1" stroke-linecap="square" stroke-linejoin="bevel" transform="matrix(1.5625,0,0,1.5625,685.424,538.989)"
font-family="Arial" font-size="20.8333" font-weight="400" font-style="normal" 
>
</g>

<g fill="none" stroke="#dddddd" stroke-opacity="1" stroke-width="1" stroke-linecap="square" stroke-linejoin="bevel" transform="matrix(1.5625,0,0,1.5625,0,0)"
font-family="Arial" font-size="20.8333" font-weight="400" font-style="normal" 
>
</g>

<g fill="none" stroke="#dddddd" stroke-opacity="1" stroke-width="1" stroke-linecap="square" stroke-linejoin="bevel" transform="matrix(1.5625,0,0,1.5625,0,0)"
font-family="Arial" font-size="20.8333" font-weight="400" font-style="normal" 
>
</g>

<g fill="none" stroke="#dddddd" stroke-opacity="1" stroke-width="1" stroke-linecap="butt" stroke-linejoin="bevel" transform="matrix(1.5625,0,0,1.5625,0,0)"
font-family="Arial" font-size="20.8333" font-weight="400" font-style="normal" 
>
<polyline fill="none" vector-effect="non-scaling-stroke" points="73.6513,331.953 73.6513,335.953 " />
<polyline fill="none" vector-effect="non-scaling-stroke" points="87.541,331.953 87.541,335.953 " />
<polyline fill="none" vector-effect="non-scaling-stroke" points="115.32,331.953 115.32,335.953 " />
<polyline fill="none" vector-effect="non-scaling-stroke" points="129.21,331.953 129.21,335.953 " />
<polyline fill="none" vector-effect="non-scaling-stroke" points="143.1,331.953 143.1,335.953 " />
<polyline fill="none" vector-effect="non-scaling-stroke" points="156.989,331.953 156.989,335.953 " />
<polyline fill="none" vector-effect="non-scaling-stroke" points="184.768,331.953 184.768,335.953 " />
<polyline fill="none" vector-effect="non-scaling-stroke" points="198.658,331.953 198.658,335.953 " />
<polyline fill="none" vector-effect="non-scaling-stroke" points="212.548,331.953 212.548,335.953 " />
<polyline fill="none" vector-effect="non-scaling-stroke" points="226.437,331.953 226.437,335.953 " />
<polyline fill="none" vector-effect="non-scaling-stroke" points="254.217,331.953 254.217,335.953 " />
<polyline fill="none" vector-effect="non-scaling-stroke" points="268.106,331.953 268.106,335.953 " />
<polyline fill="none" vector-effect="non-scaling-stroke" points="281.996,331.953 281.996,335.953 " />
<polyline fill="none" vector-effect="non-scaling-stroke" points="295.886,331.953 295.886,335.953 " />
<polyline fill="none" vector-effect="non-scaling-stroke" points="323.665,331.953 323.665,335.953 " />
<polyline fill="none" vector-effect="non-scaling-stroke" points="337.554,331.953 337.554,335.953 " />
<polyline fill="none" vector-effect="non-scaling-stroke" points="351.444,331.953 351.444,335.953 " />
<polyline fill="none" vector-effect="non-scaling-stroke" points="365.334,331.953 365.334,335.953 " />
<polyline fill="none" vector-effect="non-scaling-stroke" points="393.113,331.953 393.113,335.953 " />
<polyline fill="none" vector-effect="non-scaling-stroke" points="407.003,331.953 407.003,335.953 " />
<polyline fill="none" vector-effect="non-scaling-stroke" points="420.892,331.953 420.892,335.953 " />
<polyline fill="none" vector-effect="non-scaling-stroke" points="434.782,331.953 434.782,335.953 " />
<polyline fill="none" vector-effect="non-scaling-stroke" points="462.561,331.953 462.561,335.953 " />
<polyline fill="none" vector-effect="non-scaling-stroke" points="476.451,331.953 476.451,335.953 " />
<polyline fill="none" vector-effect="non-scaling-stroke" points="490.34,331.953 490.34,335.953 " />
<polyline fill="none" vector-effect="non-scaling-stroke" points="101.431,331.953 101.431,339.953 " />
<polyline fill="none" vector-effect="non-scaling-stroke" points="170.879,331.953 170.879,339.953 " />
<polyline fill="none" vector-effect="non-scaling-stroke" points="240.327,331.953 240.327,339.953 " />
<polyline fill="none" vector-effect="non-scaling-stroke" points="309.775,331.953 309.775,339.953 " />
<polyline fill="none" vector-effect="non-scaling-stroke" points="379.223,331.953 379.223,339.953 " />
<polyline fill="none" vector-effect="non-scaling-stroke" points="448.672,331.953 448.672,339.953 " />
</g>

<g fill="none" stroke="#dddddd" stroke-opacity="1" stroke-width="1" stroke-linecap="square" stroke-linejoin="bevel" transform="matrix(1.5625,0,0,1.5625,0,0)"
font-family="Arial" font-size="20.8333" font-weight="400" font-style="normal" 
>
</g>

<g fill="none" stroke="#dddddd" stroke-opacity="1" stroke-width="1" stroke-linecap="butt" stroke-linejoin="bevel" transform="matrix(1.5625,0,0,1.5625,0,0)"
font-family="Arial" font-size="20.8333" font-weight="400" font-style="normal" 
>
<polyline fill="none" vector-effect="non-scaling-stroke" points="61,331.953 500.929,331.953 " />
</g>

<g fill="none" stroke="#dddddd" stroke-opacity="1" stroke-width="1" stroke-linecap="square" stroke-linejoin="bevel" transform="matrix(1.5625,0,0,1.5625,0,0)"
font-family="Arial" font-size="20.8333" font-weight="400" font-style="normal" 
>
</g>

<g fill="none" stroke="#dddddd" stroke-opacity="1" stroke-width="1" stroke-linecap="square" stroke-linejoin="bevel" transform="matrix(1.5625,0,0,1.5625,0,0)"
font-family="Arial" font-size="20.8333" font-weight="400" font-style="normal" 
>
</g>

<g fill="none" stroke="#dddddd" stroke-opacity="1" stroke-width="1" stroke-linecap="square" stroke-linejoin="bevel" transform="matrix(1.5625,0,0,1.5625,0,0)"
font-family="Arial" font-size="20.8333" font-weight="400" font-style="normal" 
>
</g>

<g fill="none" stroke="#000000" stroke-opacity="1" stroke-width="1" stroke-linecap="square" stroke-linejoin="bevel" transform="matrix(1,0,0,1,0,0)"
font-family="MS Shell Dlg 2" font-size="17.1875" font-weight="400" font-style="normal" 
>
</g>
</g>
</svg>
